G04 ================== begin FILE IDENTIFICATION RECORD ==================*
G04 Layout Name:  C:/Jeonghyun/Lab/RFSoC_FMC4/allegro/fmc_db.brd*
G04 Film Name:    BOTTOM*
G04 File Format:  Gerber RS274X*
G04 File Origin:  Cadence Allegro 23.1-S003*
G04 Origin Date:  Wed May 15 13:37:00 2024*
G04 *
G04 Layer:  ETCH/BOTTOM*
G04 Layer:  PIN/BOTTOM*
G04 Layer:  VIA CLASS/BOTTOM*
G04 *
G04 Offset:    (0.0000 0.0000)*
G04 Mirror:    No*
G04 Mode:      Positive*
G04 Rotation:  0*
G04 FullContactRelief:  No*
G04 UndefLineWidth:     0.0000*
G04 ================== end FILE IDENTIFICATION RECORD ====================*
%FSLAX25Y25*MOMM*%
%IR0*IPPOS*OFA0.00000B0.00000*MIA0B0*SFA1.00000B1.00000*%
%ADD11C,.508*%
%ADD10C,.6096*%
%ADD19C,2.*%
%ADD14C,2.032*%
%ADD18R,.5X.475*%
%ADD20R,.475X.5*%
%ADD16C,1.651*%
%ADD17R,1.651X1.651*%
%ADD13C,1.2954*%
%ADD15R,1.905X1.905*%
%ADD12C,5.7912*%
%ADD21C,.1082*%
%ADD22C,.1857*%
%ADD25C,.864*%
%ADD26C,.7624*%
%ADD27C,1.9054*%
%ADD28C,2.4068*%
%ADD23C,2.2864*%
%ADD24C,1.7276*%
G75*
%LPD*%
G75*
G36*
G01X1093130Y6900000D02*
X10986480D01*
Y10D01*
X1069180D01*
G02X1065800Y19750I0J10159D01*
G03X1267480Y304800I-100602J285050D01*
G03X662920I-302280J0D01*
G03X864600Y19750I302282J0D01*
G02X861220Y10I-3380J-9581D01*
G01X10D01*
Y6900000D01*
X837270D01*
G02X841430Y6880570I4J-10159D01*
G03X662920Y6604790I123771J-275780D01*
G03X1267480I302280J0D01*
G03X1088970Y6880570I-302281J0D01*
G02X1093130Y6900000I4156J9271D01*
G37*
%LPC*%
G75*
G36*
G01X8794730Y2584450D02*
Y2749550D01*
G02X8807450Y2762270I12720J0D01*
G01X8972550D01*
G02X8985270Y2749550I0J-12720D01*
G01Y2584450D01*
G02X8972550Y2571730I-12720J0D01*
G01X8807450D01*
G02X8794730Y2584450I0J12720D01*
G37*
G36*
G01X7016730D02*
Y2749550D01*
G02X7029450Y2762270I12720J0D01*
G01X7194550D01*
G02X7207270Y2749550I0J-12720D01*
G01Y2584450D01*
G02X7194550Y2571730I-12720J0D01*
G01X7029450D01*
G02X7016730Y2584450I0J12720D01*
G37*
G36*
G01X5175230D02*
Y2749550D01*
G02X5187950Y2762270I12720J0D01*
G01X5353050D01*
G02X5365770Y2749550I0J-12720D01*
G01Y2584450D01*
G02X5353050Y2571730I-12720J0D01*
G01X5187950D01*
G02X5175230Y2584450I0J12720D01*
G37*
G36*
G01X3333730D02*
Y2749550D01*
G02X3346450Y2762270I12720J0D01*
G01X3511550D01*
G02X3524270Y2749550I0J-12720D01*
G01Y2584450D01*
G02X3511550Y2571730I-12720J0D01*
G01X3346450D01*
G02X3333730Y2584450I0J12720D01*
G37*
G36*
G01X10306030Y412750D02*
Y603250D01*
G02X10318750Y615970I12720J0D01*
G01X10509250D01*
G02X10521970Y603250I0J-12720D01*
G01Y412750D01*
G02X10509250Y400030I-12720J0D01*
G01X10318750D01*
G02X10306030Y412750I0J12720D01*
G37*
G36*
G01X9290030D02*
Y603250D01*
G02X9302750Y615970I12720J0D01*
G01X9493250D01*
G02X9505970Y603250I0J-12720D01*
G01Y412750D01*
G02X9493250Y400030I-12720J0D01*
G01X9302750D01*
G02X9290030Y412750I0J12720D01*
G37*
G36*
G01X912500Y1612750D02*
G03X903360Y1622940I-10157J83D01*
G02X869080Y1660870I3844J37930D01*
G02X907200Y1698990I38120J0D01*
G02X945130Y1664710I0J-38124D01*
G03X955320Y1655570I10107J1017D01*
G01X955700D01*
G02X912500Y1612370I0J-43200D01*
G01Y1612750D01*
G37*
G36*
G01Y1739750D02*
G03X903360Y1749940I-10157J83D01*
G02X869080Y1787870I3844J37930D01*
G02X907200Y1825990I38120J0D01*
G02X945130Y1791710I0J-38124D01*
G03X955320Y1782570I10107J1017D01*
G01X955700D01*
G02X912500Y1739370I0J-43200D01*
G01Y1739750D01*
G37*
G36*
G01X1039500D02*
G03X1030360Y1749940I-10157J83D01*
G02X996080Y1787870I3844J37930D01*
G02X1034200Y1825990I38120J0D01*
G02X1072130Y1791710I0J-38124D01*
G03X1082320Y1782570I10107J1017D01*
G01X1082700D01*
G02X1039500Y1739370I0J-43200D01*
G01Y1739750D01*
G37*
G36*
G01X531500Y1866750D02*
G03X522360Y1876940I-10157J83D01*
G02X488080Y1914870I3844J37930D01*
G02X526200Y1952990I38120J0D01*
G02X564130Y1918710I0J-38124D01*
G03X574320Y1909570I10107J1017D01*
G01X574700D01*
G02X531500Y1866370I0J-43200D01*
G01Y1866750D01*
G37*
G36*
G01X1039500D02*
G03X1030360Y1876940I-10157J83D01*
G02X996080Y1914870I3844J37930D01*
G02X1034200Y1952990I38120J0D01*
G02X1072130Y1918710I0J-38124D01*
G03X1082320Y1909570I10107J1017D01*
G01X1082700D01*
G02X1039500Y1866370I0J-43200D01*
G01Y1866750D01*
G37*
G36*
G01X10866520Y1983190D02*
G03X10850480I-8020J-6243D01*
G02X10820400Y1968480I-30080J23400D01*
G02Y2044720I0J38120D01*
G02X10850480Y2030010I0J-38110D01*
G03X10866520I8020J6243D01*
G02X10896600Y2044720I30080J-23400D01*
G02Y1968480I0J-38120D01*
G02X10866520Y1983190I0J38110D01*
G37*
G36*
G01X531500Y1993750D02*
G03X522360Y2003940I-10157J83D01*
G02X488080Y2041870I3844J37930D01*
G02X526200Y2079990I38120J0D01*
G02X564130Y2045710I0J-38124D01*
G03X574320Y2036570I10107J1017D01*
G01X574700D01*
G02X531500Y1993370I0J-43200D01*
G01Y1993750D01*
G37*
G36*
G01X912500D02*
G03X903360Y2003940I-10157J83D01*
G02X869080Y2041870I3844J37930D01*
G02X907200Y2079990I38120J0D01*
G02X945130Y2045710I0J-38124D01*
G03X955320Y2036570I10107J1017D01*
G01X955700D01*
G02X912500Y1993370I0J-43200D01*
G01Y1993750D01*
G37*
G36*
G01X404500Y2120750D02*
G03X395360Y2130940I-10157J83D01*
G02X361080Y2168870I3844J37930D01*
G02X399200Y2206990I38120J0D01*
G02X437130Y2172710I0J-38124D01*
G03X447320Y2163570I10107J1017D01*
G01X447700D01*
G02X404500Y2120370I0J-43200D01*
G01Y2120750D01*
G37*
G36*
G01X912500D02*
G03X903360Y2130940I-10157J83D01*
G02X869080Y2168870I3844J37930D01*
G02X907200Y2206990I38120J0D01*
G02X945130Y2172710I0J-38124D01*
G03X955320Y2163570I10107J1017D01*
G01X955700D01*
G02X912500Y2120370I0J-43200D01*
G01Y2120750D01*
G37*
G36*
G01X1039500D02*
G03X1030360Y2130940I-10157J83D01*
G02X996080Y2168870I3844J37930D01*
G02X1034200Y2206990I38120J0D01*
G02X1072130Y2172710I0J-38124D01*
G03X1082320Y2163570I10107J1017D01*
G01X1082700D01*
G02X1039500Y2120370I0J-43200D01*
G01Y2120750D01*
G37*
G36*
G01X404500Y2247750D02*
G03X395360Y2257940I-10157J83D01*
G02X361080Y2295870I3844J37930D01*
G02X399200Y2333990I38120J0D01*
G02X437130Y2299710I0J-38124D01*
G03X447320Y2290570I10107J1017D01*
G01X447700D01*
G02X404500Y2247370I0J-43200D01*
G01Y2247750D01*
G37*
G36*
G01X531500D02*
G03X522360Y2257940I-10157J83D01*
G02X488080Y2295870I3844J37930D01*
G02X526200Y2333990I38120J0D01*
G02X564130Y2299710I0J-38124D01*
G03X574320Y2290570I10107J1017D01*
G01X574700D01*
G02X531500Y2247370I0J-43200D01*
G01Y2247750D01*
G37*
G36*
G01X1039500D02*
G03X1030360Y2257940I-10157J83D01*
G02X996080Y2295870I3844J37930D01*
G02X1034200Y2333990I38120J0D01*
G02X1072130Y2299710I0J-38124D01*
G03X1082320Y2290570I10107J1017D01*
G01X1082700D01*
G02X1039500Y2247370I0J-43200D01*
G01Y2247750D01*
G37*
G36*
G01X531500Y2374750D02*
G03X522360Y2384940I-10157J83D01*
G02X488080Y2422870I3844J37930D01*
G02X526200Y2460990I38120J0D01*
G02X564130Y2426710I0J-38124D01*
G03X574320Y2417570I10107J1017D01*
G01X574700D01*
G02X531500Y2374370I0J-43200D01*
G01Y2374750D01*
G37*
G36*
G01X912500D02*
G03X903360Y2384940I-10157J83D01*
G02X869080Y2422870I3844J37930D01*
G02X907200Y2460990I38120J0D01*
G02X945130Y2426710I0J-38124D01*
G03X955320Y2417570I10107J1017D01*
G01X955700D01*
G02X912500Y2374370I0J-43200D01*
G01Y2374750D01*
G37*
G36*
G01Y2501750D02*
G03X903360Y2511940I-10157J83D01*
G02X869080Y2549870I3844J37930D01*
G02X907200Y2587990I38120J0D01*
G02X945130Y2553710I0J-38124D01*
G03X955320Y2544570I10107J1017D01*
G01X955700D01*
G02X912500Y2501370I0J-43200D01*
G01Y2501750D01*
G37*
G36*
G01X1039500D02*
G03X1030360Y2511940I-10157J83D01*
G02X996080Y2549870I3844J37930D01*
G02X1034200Y2587990I38120J0D01*
G02X1072130Y2553710I0J-38124D01*
G03X1082320Y2544570I10107J1017D01*
G01X1082700D01*
G02X1039500Y2501370I0J-43200D01*
G01Y2501750D01*
G37*
G36*
G01X404500Y2628750D02*
G03X395360Y2638940I-10157J83D01*
G02X361080Y2676870I3844J37930D01*
G02X399200Y2714990I38120J0D01*
G02X437130Y2680710I0J-38124D01*
G03X447320Y2671570I10107J1017D01*
G01X447700D01*
G02X404500Y2628370I0J-43200D01*
G01Y2628750D01*
G37*
G36*
G01X531500D02*
G03X522360Y2638940I-10157J83D01*
G02X488080Y2676870I3844J37930D01*
G02X526200Y2714990I38120J0D01*
G02X564130Y2680710I0J-38124D01*
G03X574320Y2671570I10107J1017D01*
G01X574700D01*
G02X531500Y2628370I0J-43200D01*
G01Y2628750D01*
G37*
G36*
G01X1039500D02*
G03X1030360Y2638940I-10157J83D01*
G02X996080Y2676870I3844J37930D01*
G02X1034200Y2714990I38120J0D01*
G02X1072130Y2680710I0J-38124D01*
G03X1082320Y2671570I10107J1017D01*
G01X1082700D01*
G02X1039500Y2628370I0J-43200D01*
G01Y2628750D01*
G37*
G36*
G01X404500Y2755750D02*
G03X395360Y2765940I-10157J83D01*
G02X361080Y2803870I3844J37930D01*
G02X399200Y2841990I38120J0D01*
G02X437130Y2807710I0J-38124D01*
G03X447320Y2798570I10107J1017D01*
G01X447700D01*
G02X404500Y2755370I0J-43200D01*
G01Y2755750D01*
G37*
G36*
G01X531500D02*
G03X522360Y2765940I-10157J83D01*
G02X488080Y2803870I3844J37930D01*
G02X526200Y2841990I38120J0D01*
G02X564130Y2807710I0J-38124D01*
G03X574320Y2798570I10107J1017D01*
G01X574700D01*
G02X531500Y2755370I0J-43200D01*
G01Y2755750D01*
G37*
G36*
G01X912500D02*
G03X903360Y2765940I-10157J83D01*
G02X869080Y2803870I3844J37930D01*
G02X907200Y2841990I38120J0D01*
G02X945130Y2807710I0J-38124D01*
G03X955320Y2798570I10107J1017D01*
G01X955700D01*
G02X912500Y2755370I0J-43200D01*
G01Y2755750D01*
G37*
G36*
G01Y2882750D02*
G03X903360Y2892940I-10157J83D01*
G02X869080Y2930870I3844J37930D01*
G02X907200Y2968990I38120J0D01*
G02X945130Y2934710I0J-38124D01*
G03X955320Y2925570I10107J1017D01*
G01X955700D01*
G02X912500Y2882370I0J-43200D01*
G01Y2882750D01*
G37*
G36*
G01X1039500D02*
G03X1030360Y2892940I-10157J83D01*
G02X996080Y2930870I3844J37930D01*
G02X1034200Y2968990I38120J0D01*
G02X1072130Y2934710I0J-38124D01*
G03X1082320Y2925570I10107J1017D01*
G01X1082700D01*
G02X1039500Y2882370I0J-43200D01*
G01Y2882750D01*
G37*
G36*
G01X531500Y3009750D02*
G03X522360Y3019940I-10157J83D01*
G02X488080Y3057870I3844J37930D01*
G02X526200Y3095990I38120J0D01*
G02X564130Y3061710I0J-38124D01*
G03X574320Y3052570I10107J1017D01*
G01X574700D01*
G02X531500Y3009370I0J-43200D01*
G01Y3009750D01*
G37*
G36*
G01X1039500D02*
G03X1030360Y3019940I-10157J83D01*
G02X996080Y3057870I3844J37930D01*
G02X1034200Y3095990I38120J0D01*
G02X1072130Y3061710I0J-38124D01*
G03X1082320Y3052570I10107J1017D01*
G01X1082700D01*
G02X1039500Y3009370I0J-43200D01*
G01Y3009750D01*
G37*
G36*
G01X10847790Y3052680D02*
G03Y3068720I-6243J8020D01*
G02X10833080Y3098800I23400J30080D01*
G02X10909320I38120J0D01*
G02X10894610Y3068720I-38110J0D01*
G03Y3052680I6243J-8020D01*
G02X10909320Y3022600I-23400J-30080D01*
G02X10833080I-38120J0D01*
G02X10847790Y3052680I38110J0D01*
G37*
G36*
G01X404500Y3136750D02*
G03X395360Y3146940I-10157J83D01*
G02X361080Y3184870I3844J37930D01*
G02X399200Y3222990I38120J0D01*
G02X437130Y3188710I0J-38124D01*
G03X447320Y3179570I10107J1017D01*
G01X447700D01*
G02X404500Y3136370I0J-43200D01*
G01Y3136750D01*
G37*
G36*
G01X531500D02*
G03X522360Y3146940I-10157J83D01*
G02X488080Y3184870I3844J37930D01*
G02X526200Y3222990I38120J0D01*
G02X564130Y3188710I0J-38124D01*
G03X574320Y3179570I10107J1017D01*
G01X574700D01*
G02X531500Y3136370I0J-43200D01*
G01Y3136750D01*
G37*
G36*
G01X912500D02*
G03X903360Y3146940I-10157J83D01*
G02X869080Y3184870I3844J37930D01*
G02X907200Y3222990I38120J0D01*
G02X945130Y3188710I0J-38124D01*
G03X955320Y3179570I10107J1017D01*
G01X955700D01*
G02X912500Y3136370I0J-43200D01*
G01Y3136750D01*
G37*
G36*
G01X404500Y3263750D02*
G03X395360Y3273940I-10157J83D01*
G02X361080Y3311870I3844J37930D01*
G02X399200Y3349990I38120J0D01*
G02X437130Y3315710I0J-38124D01*
G03X447320Y3306570I10107J1017D01*
G01X447700D01*
G02X404500Y3263370I0J-43200D01*
G01Y3263750D01*
G37*
G36*
G01X912500D02*
G03X903360Y3273940I-10157J83D01*
G02X869080Y3311870I3844J37930D01*
G02X907200Y3349990I38120J0D01*
G02X945130Y3315710I0J-38124D01*
G03X955320Y3306570I10107J1017D01*
G01X955700D01*
G02X912500Y3263370I0J-43200D01*
G01Y3263750D01*
G37*
G36*
G01X1039500D02*
G03X1030360Y3273940I-10157J83D01*
G02X996080Y3311870I3844J37930D01*
G02X1034200Y3349990I38120J0D01*
G02X1072130Y3315710I0J-38124D01*
G03X1082320Y3306570I10107J1017D01*
G01X1082700D01*
G02X1039500Y3263370I0J-43200D01*
G01Y3263750D01*
G37*
G36*
G01X10707330Y3378600D02*
Y3428600D01*
G02X10720050Y3441320I12720J0D01*
G01X10767550D01*
G02X10780270Y3428600I0J-12720D01*
G01Y3378600D01*
G02X10769930Y3366110I-12714J0D01*
G01X10765800Y3365320D01*
Y3246570D01*
G02X10759360Y3231010I-22003J-6D01*
G01X10715790Y3187440D01*
G02X10700230Y3181000I-15554J15563D01*
G01X10417130D01*
G02X10386000Y3164880I-31130J21998D01*
G02Y3241120I0J38120D01*
G02X10417130Y3225000I0J-38118D01*
G01X10691120D01*
X10721800Y3255680D01*
Y3365320D01*
X10717670Y3366110D01*
G02X10707330Y3378600I2374J12490D01*
G37*
G36*
G01X531500Y3390750D02*
G03X522360Y3400940I-10157J83D01*
G02X488080Y3438870I3844J37930D01*
G02X526200Y3476990I38120J0D01*
G02X564130Y3442710I0J-38124D01*
G03X574320Y3433570I10107J1017D01*
G01X574700D01*
G02X531500Y3390370I0J-43200D01*
G01Y3390750D01*
G37*
G36*
G01X1039500D02*
G03X1030360Y3400940I-10157J83D01*
G02X996080Y3438870I3844J37930D01*
G02X1034200Y3476990I38120J0D01*
G02X1072130Y3442710I0J-38124D01*
G03X1082320Y3433570I10107J1017D01*
G01X1082700D01*
G02X1039500Y3390370I0J-43200D01*
G01Y3390750D01*
G37*
G36*
G01X10809540Y3393170D02*
G02X10808080Y3403600I36657J10449D01*
G01Y3466700D01*
G02X10884320I38120J0D01*
G01Y3403600D01*
G02X10882860Y3393170I-38117J19D01*
G01X10882670Y3392480D01*
Y3378600D01*
G02X10869950Y3365880I-12720J0D01*
G01X10851720D01*
X10851380Y3365830D01*
G02X10846200Y3365480I-5154J37772D01*
G02X10841020Y3365830I-26J38122D01*
G01X10840680Y3365880D01*
X10822450D01*
G02X10809730Y3378600I0J12720D01*
G01Y3392480D01*
X10809540Y3393170D01*
G37*
G36*
G01X10707330Y3549400D02*
Y3581000D01*
G02X10720050Y3593720I12720J0D01*
G01X10767550D01*
G02X10780270Y3581000I0J-12720D01*
G01Y3531000D01*
G02X10767550Y3518280I-12720J0D01*
G01X10738450D01*
X10684410Y3464240D01*
G02X10668850Y3457800I-15554J15563D01*
G01X10629110D01*
G03X10618990Y3446790I5J-10160D01*
G02X10619120Y3443600I-37992J-3146D01*
G02X10542880I-38120J0D01*
G02X10543010Y3446790I38122J44D01*
G03X10532890Y3457800I-10125J850D01*
G01X10368930D01*
G02X10337800Y3441680I-31130J21998D01*
G02Y3517920I0J38120D01*
G02X10368930Y3501800I0J-38118D01*
G01X10530750D01*
X10542790Y3513850D01*
G02X10558350Y3520300I15566J-15558D01*
G01X10603650D01*
G02X10619210Y3513850I-6J-22008D01*
G01X10631250Y3501800D01*
X10659740D01*
X10707330Y3549400D01*
G37*
G36*
G01X531500Y3517750D02*
G03X522360Y3527940I-10157J83D01*
G02X488080Y3565870I3844J37930D01*
G02X526200Y3603990I38120J0D01*
G02X564130Y3569710I0J-38124D01*
G03X574320Y3560570I10107J1017D01*
G01X574700D01*
G02X531500Y3517370I0J-43200D01*
G01Y3517750D01*
G37*
G36*
G01X912500D02*
G03X903360Y3527940I-10157J83D01*
G02X869080Y3565870I3844J37930D01*
G02X907200Y3603990I38120J0D01*
G02X945130Y3569710I0J-38124D01*
G03X955320Y3560570I10107J1017D01*
G01X955700D01*
G02X912500Y3517370I0J-43200D01*
G01Y3517750D01*
G37*
G36*
G01X10809540Y3545570D02*
G02X10808080Y3556000I36657J10449D01*
G01Y3632200D01*
G02X10884320I38120J0D01*
G01Y3556000D01*
G02X10882860Y3545570I-38117J19D01*
G01X10882670Y3544880D01*
Y3531000D01*
G02X10869950Y3518280I-12720J0D01*
G01X10851720D01*
X10851380Y3518230D01*
G02X10846200Y3517880I-5154J37772D01*
G02X10841020Y3518230I-26J38122D01*
G01X10840680Y3518280D01*
X10822450D01*
G02X10809730Y3531000I0J12720D01*
G01Y3544880D01*
X10809540Y3545570D01*
G37*
G36*
G01X404500Y3644750D02*
G03X395360Y3654940I-10157J83D01*
G02X361080Y3692870I3844J37930D01*
G02X399200Y3730990I38120J0D01*
G02X437130Y3696710I0J-38124D01*
G03X447320Y3687570I10107J1017D01*
G01X447700D01*
G02X404500Y3644370I0J-43200D01*
G01Y3644750D01*
G37*
G36*
G01X912500D02*
G03X903360Y3654940I-10157J83D01*
G02X869080Y3692870I3844J37930D01*
G02X907200Y3730990I38120J0D01*
G02X945130Y3696710I0J-38124D01*
G03X955320Y3687570I10107J1017D01*
G01X955700D01*
G02X912500Y3644370I0J-43200D01*
G01Y3644750D01*
G37*
G36*
G01X1039500D02*
G03X1030360Y3654940I-10157J83D01*
G02X996080Y3692870I3844J37930D01*
G02X1034200Y3730990I38120J0D01*
G02X1072130Y3696710I0J-38124D01*
G03X1082320Y3687570I10107J1017D01*
G01X1082700D01*
G02X1039500Y3644370I0J-43200D01*
G01Y3644750D01*
G37*
G36*
G01X404500Y3771750D02*
G03X395360Y3781940I-10157J83D01*
G02X361080Y3819870I3844J37930D01*
G02X399200Y3857990I38120J0D01*
G02X437130Y3823710I0J-38124D01*
G03X447320Y3814570I10107J1017D01*
G01X447700D01*
G02X404500Y3771370I0J-43200D01*
G01Y3771750D01*
G37*
G36*
G01X531500D02*
G03X522360Y3781940I-10157J83D01*
G02X488080Y3819870I3844J37930D01*
G02X526200Y3857990I38120J0D01*
G02X564130Y3823710I0J-38124D01*
G03X574320Y3814570I10107J1017D01*
G01X574700D01*
G02X531500Y3771370I0J-43200D01*
G01Y3771750D01*
G37*
G36*
G01X1039500D02*
G03X1030360Y3781940I-10157J83D01*
G02X996080Y3819870I3844J37930D01*
G02X1034200Y3857990I38120J0D01*
G02X1072130Y3823710I0J-38124D01*
G03X1082320Y3814570I10107J1017D01*
G01X1082700D01*
G02X1039500Y3771370I0J-43200D01*
G01Y3771750D01*
G37*
G36*
G01X531500Y3898750D02*
G03X522360Y3908940I-10157J83D01*
G02X488080Y3946870I3844J37930D01*
G02X526200Y3984990I38120J0D01*
G02X564130Y3950710I0J-38124D01*
G03X574320Y3941570I10107J1017D01*
G01X574700D01*
G02X531500Y3898370I0J-43200D01*
G01Y3898750D01*
G37*
G36*
G01X912500D02*
G03X903360Y3908940I-10157J83D01*
G02X869080Y3946870I3844J37930D01*
G02X907200Y3984990I38120J0D01*
G02X945130Y3950710I0J-38124D01*
G03X955320Y3941570I10107J1017D01*
G01X955700D01*
G02X912500Y3898370I0J-43200D01*
G01Y3898750D01*
G37*
G36*
G01X10835130Y4038200D02*
G02X10847850Y4050920I12720J0D01*
G01X10866080D01*
X10866420Y4050970D01*
G02X10871600Y4051320I5154J-37772D01*
G02X10876780Y4050970I26J-38122D01*
G01X10877120Y4050920D01*
X10895350D01*
G02X10908070Y4038200I0J-12720D01*
G01Y4024320D01*
X10908260Y4023630D01*
G02X10909720Y4013200I-36657J-10449D01*
G01Y3952390D01*
X10923550Y3938550D01*
G02X10934720Y3911600I-26947J-26958D01*
G02X10896600Y3873480I-38120J0D01*
G02X10869650Y3884650I8J38117D01*
G01X10844650Y3909650D01*
G02X10833480Y3936600I26947J26958D01*
G01Y4013200D01*
G02X10834940Y4023630I38117J-19D01*
G01X10835130Y4024320D01*
Y4038200D01*
G37*
G36*
G01X10486240Y3997640D02*
X10457520Y4026360D01*
X10455100Y4026100D01*
G02X10451000Y4025880I-4090J37901D01*
G02X10489120Y4064000I0J38120D01*
G02X10488900Y4059900I-38121J-10D01*
G01X10488640Y4057480D01*
X10510910Y4035200D01*
X10732290D01*
X10732820Y4039690D01*
G02X10745450Y4050920I12630J-1487D01*
G01X10792950D01*
G02X10805670Y4038200I0J-12720D01*
G01Y3988200D01*
G02X10792950Y3975480I-12720J0D01*
G01X10745450D01*
G02X10732820Y3986710I0J12717D01*
G01X10732290Y3991200D01*
X10501800D01*
G02X10486240Y3997640I-6J22003D01*
G37*
G36*
G01X912500Y4025750D02*
G03X903360Y4035940I-10157J83D01*
G02X869080Y4073870I3844J37930D01*
G02X907200Y4111990I38120J0D01*
G02X945130Y4077710I0J-38124D01*
G03X955320Y4068570I10107J1017D01*
G01X955700D01*
G02X912500Y4025370I0J-43200D01*
G01Y4025750D01*
G37*
G36*
G01X1039500D02*
G03X1030360Y4035940I-10157J83D01*
G02X996080Y4073870I3844J37930D01*
G02X1034200Y4111990I38120J0D01*
G02X1072130Y4077710I0J-38124D01*
G03X1082320Y4068570I10107J1017D01*
G01X1082700D01*
G02X1039500Y4025370I0J-43200D01*
G01Y4025750D01*
G37*
G36*
G01X404500Y4152750D02*
G03X395360Y4162940I-10157J83D01*
G02X361080Y4200870I3844J37930D01*
G02X399200Y4238990I38120J0D01*
G02X437130Y4204710I0J-38124D01*
G03X447320Y4195570I10107J1017D01*
G01X447700D01*
G02X404500Y4152370I0J-43200D01*
G01Y4152750D01*
G37*
G36*
G01X531500D02*
G03X522360Y4162940I-10157J83D01*
G02X488080Y4200870I3844J37930D01*
G02X526200Y4238990I38120J0D01*
G02X564130Y4204710I0J-38124D01*
G03X574320Y4195570I10107J1017D01*
G01X574700D01*
G02X531500Y4152370I0J-43200D01*
G01Y4152750D01*
G37*
G36*
G01X1039500D02*
G03X1030360Y4162940I-10157J83D01*
G02X996080Y4200870I3844J37930D01*
G02X1034200Y4238990I38120J0D01*
G02X1072130Y4204710I0J-38124D01*
G03X1082320Y4195570I10107J1017D01*
G01X1082700D01*
G02X1039500Y4152370I0J-43200D01*
G01Y4152750D01*
G37*
G36*
G01X10835130Y4266800D02*
G02X10847850Y4279520I12720J0D01*
G01X10866080D01*
X10866420Y4279570D01*
G02X10871600Y4279920I5154J-37772D01*
G02X10876780Y4279570I26J-38122D01*
G01X10877120Y4279520D01*
X10895350D01*
G02X10908070Y4266800I0J-12720D01*
G01Y4252920D01*
X10908260Y4252230D01*
G02X10909720Y4241800I-36657J-10449D01*
G01Y4140600D01*
G02X10833480I-38120J0D01*
G01Y4241800D01*
G02X10834940Y4252230I38117J-19D01*
G01X10835130Y4252920D01*
Y4266800D01*
G37*
G36*
G01X404500Y4279750D02*
G03X395360Y4289940I-10157J83D01*
G02X361080Y4327870I3844J37930D01*
G02X399200Y4365990I38120J0D01*
G02X437130Y4331710I0J-38124D01*
G03X447320Y4322570I10107J1017D01*
G01X447700D01*
G02X404500Y4279370I0J-43200D01*
G01Y4279750D01*
G37*
G36*
G01X531500D02*
G03X522360Y4289940I-10157J83D01*
G02X488080Y4327870I3844J37930D01*
G02X526200Y4365990I38120J0D01*
G02X564130Y4331710I0J-38124D01*
G03X574320Y4322570I10107J1017D01*
G01X574700D01*
G02X531500Y4279370I0J-43200D01*
G01Y4279750D01*
G37*
G36*
G01X912500D02*
G03X903360Y4289940I-10157J83D01*
G02X869080Y4327870I3844J37930D01*
G02X907200Y4365990I38120J0D01*
G02X945130Y4331710I0J-38124D01*
G03X955320Y4322570I10107J1017D01*
G01X955700D01*
G02X912500Y4279370I0J-43200D01*
G01Y4279750D01*
G37*
G36*
G01X10634340Y4346800D02*
X10445130D01*
G02X10414000Y4330680I-31130J21998D01*
G02Y4406920I0J38120D01*
G02X10445130Y4390800I0J-38118D01*
G01X10643450D01*
G02X10659010Y4384360I6J-22003D01*
G01X10763850Y4279520D01*
X10792950D01*
G02X10805670Y4266800I0J-12720D01*
G01Y4216800D01*
G02X10792950Y4204080I-12720J0D01*
G01X10745450D01*
G02X10732730Y4216800I0J12720D01*
G01Y4248400D01*
X10634340Y4346800D01*
G37*
G36*
G01X912500Y4406750D02*
G03X903360Y4416940I-10157J83D01*
G02X869080Y4454870I3844J37930D01*
G02X907200Y4492990I38120J0D01*
G02X945130Y4458710I0J-38124D01*
G03X955320Y4449570I10107J1017D01*
G01X955700D01*
G02X912500Y4406370I0J-43200D01*
G01Y4406750D01*
G37*
G36*
G01X1039500D02*
G03X1030360Y4416940I-10157J83D01*
G02X996080Y4454870I3844J37930D01*
G02X1034200Y4492990I38120J0D01*
G02X1072130Y4458710I0J-38124D01*
G03X1082320Y4449570I10107J1017D01*
G01X1082700D01*
G02X1039500Y4406370I0J-43200D01*
G01Y4406750D01*
G37*
G36*
G01X10835130Y4520800D02*
G02X10847850Y4533520I12720J0D01*
G01X10866080D01*
X10866420Y4533570D01*
G02X10871600Y4533920I5154J-37772D01*
G02X10876780Y4533570I26J-38122D01*
G01X10877120Y4533520D01*
X10895350D01*
G02X10908070Y4520800I0J-12720D01*
G01Y4506920D01*
X10908260Y4506230D01*
G02X10909720Y4495800I-36657J-10449D01*
G01Y4394600D01*
G02X10833480I-38120J0D01*
G01Y4495800D01*
G02X10834940Y4506230I38117J-19D01*
G01X10835130Y4506920D01*
Y4520800D01*
G37*
G36*
G01X1039500Y4533750D02*
G03X1030360Y4543940I-10157J83D01*
G02X996080Y4581870I3844J37930D01*
G02X1034200Y4619990I38120J0D01*
G02X1072130Y4585710I0J-38124D01*
G03X1082320Y4576570I10107J1017D01*
G01X1082700D01*
G02X1039500Y4533370I0J-43200D01*
G01Y4533750D01*
G37*
G36*
G01X10634340Y4600800D02*
X10445130D01*
G02X10414000Y4584680I-31130J21998D01*
G02Y4660920I0J38120D01*
G02X10445130Y4644800I0J-38118D01*
G01X10643450D01*
G02X10659010Y4638360I6J-22003D01*
G01X10763850Y4533520D01*
X10792950D01*
G02X10805670Y4520800I0J-12720D01*
G01Y4470800D01*
G02X10792950Y4458080I-12720J0D01*
G01X10745450D01*
G02X10732730Y4470800I0J12720D01*
G01Y4502400D01*
X10634340Y4600800D01*
G37*
G36*
G01X404500Y4660750D02*
G03X395360Y4670940I-10157J83D01*
G02X361080Y4708870I3844J37930D01*
G02X399200Y4746990I38120J0D01*
G02X437130Y4712710I0J-38124D01*
G03X447320Y4703570I10107J1017D01*
G01X447700D01*
G02X404500Y4660370I0J-43200D01*
G01Y4660750D01*
G37*
G36*
G01X912500D02*
G03X903360Y4670940I-10157J83D01*
G02X869080Y4708870I3844J37930D01*
G02X907200Y4746990I38120J0D01*
G02X945130Y4712710I0J-38124D01*
G03X955320Y4703570I10107J1017D01*
G01X955700D01*
G02X912500Y4660370I0J-43200D01*
G01Y4660750D01*
G37*
G36*
G01X10835130Y4774800D02*
G02X10847850Y4787520I12720J0D01*
G01X10866080D01*
X10866420Y4787570D01*
G02X10871600Y4787920I5154J-37772D01*
G02X10876780Y4787570I26J-38122D01*
G01X10877120Y4787520D01*
X10895350D01*
G02X10908070Y4774800I0J-12720D01*
G01Y4760920D01*
X10908260Y4760230D01*
G02X10909720Y4749800I-36657J-10449D01*
G01Y4648600D01*
G02X10833480I-38120J0D01*
G01Y4749800D01*
G02X10834940Y4760230I38117J-19D01*
G01X10835130Y4760920D01*
Y4774800D01*
G37*
G36*
G01X404500Y4787750D02*
G03X395360Y4797940I-10157J83D01*
G02X361080Y4835870I3844J37930D01*
G02X399200Y4873990I38120J0D01*
G02X437130Y4839710I0J-38124D01*
G03X447320Y4830570I10107J1017D01*
G01X447700D01*
G02X404500Y4787370I0J-43200D01*
G01Y4787750D01*
G37*
G36*
G01X912500D02*
G03X903360Y4797940I-10157J83D01*
G02X869080Y4835870I3844J37930D01*
G02X907200Y4873990I38120J0D01*
G02X945130Y4839710I0J-38124D01*
G03X955320Y4830570I10107J1017D01*
G01X955700D01*
G02X912500Y4787370I0J-43200D01*
G01Y4787750D01*
G37*
G36*
G01X1039500D02*
G03X1030360Y4797940I-10157J83D01*
G02X996080Y4835870I3844J37930D01*
G02X1034200Y4873990I38120J0D01*
G02X1072130Y4839710I0J-38124D01*
G03X1082320Y4830570I10107J1017D01*
G01X1082700D01*
G02X1039500Y4787370I0J-43200D01*
G01Y4787750D01*
G37*
G36*
G01X10634340Y4854800D02*
X10445130D01*
G02X10414000Y4838680I-31130J21998D01*
G02Y4914920I0J38120D01*
G02X10445130Y4898800I0J-38118D01*
G01X10643450D01*
G02X10659010Y4892360I6J-22003D01*
G01X10763850Y4787520D01*
X10792950D01*
G02X10805670Y4774800I0J-12720D01*
G01Y4724800D01*
G02X10792950Y4712080I-12720J0D01*
G01X10745450D01*
G02X10732730Y4724800I0J12720D01*
G01Y4756400D01*
X10634340Y4854800D01*
G37*
G36*
G01X1039500Y4914750D02*
G03X1030360Y4924940I-10157J83D01*
G02X996080Y4962870I3844J37930D01*
G02X1034200Y5000990I38120J0D01*
G02X1072130Y4966710I0J-38124D01*
G03X1082320Y4957570I10107J1017D01*
G01X1082700D01*
G02X1039500Y4914370I0J-43200D01*
G01Y4914750D01*
G37*
G36*
G01X10835130Y5028800D02*
G02X10847850Y5041520I12720J0D01*
G01X10866080D01*
X10866420Y5041570D01*
G02X10871600Y5041920I5154J-37772D01*
G02X10876780Y5041570I26J-38122D01*
G01X10877120Y5041520D01*
X10895350D01*
G02X10908070Y5028800I0J-12720D01*
G01Y5014920D01*
X10908260Y5014230D01*
G02X10909720Y5003800I-36657J-10449D01*
G01Y4902600D01*
G02X10833480I-38120J0D01*
G01Y5003800D01*
G02X10834940Y5014230I38117J-19D01*
G01X10835130Y5014920D01*
Y5028800D01*
G37*
G36*
G01X912500Y5041750D02*
G03X903360Y5051940I-10157J83D01*
G02X869080Y5089870I3844J37930D01*
G02X907200Y5127990I38120J0D01*
G02X945130Y5093710I0J-38124D01*
G03X955320Y5084570I10107J1017D01*
G01X955700D01*
G02X912500Y5041370I0J-43200D01*
G01Y5041750D01*
G37*
G36*
G01X10634340Y5108800D02*
X10445130D01*
G02X10414000Y5092680I-31130J21998D01*
G02Y5168920I0J38120D01*
G02X10445130Y5152800I0J-38118D01*
G01X10643450D01*
G02X10659010Y5146360I6J-22003D01*
G01X10763850Y5041520D01*
X10792950D01*
G02X10805670Y5028800I0J-12720D01*
G01Y4978800D01*
G02X10792950Y4966080I-12720J0D01*
G01X10745450D01*
G02X10732730Y4978800I0J12720D01*
G01Y5010400D01*
X10634340Y5108800D01*
G37*
G36*
G01X912500Y5168750D02*
G03X903360Y5178940I-10157J83D01*
G02X869080Y5216870I3844J37930D01*
G02X907200Y5254990I38120J0D01*
G02X945130Y5220710I0J-38124D01*
G03X955320Y5211570I10107J1017D01*
G01X955700D01*
G02X912500Y5168370I0J-43200D01*
G01Y5168750D01*
G37*
G36*
G01X1039500D02*
G03X1030360Y5178940I-10157J83D01*
G02X996080Y5216870I3844J37930D01*
G02X1034200Y5254990I38120J0D01*
G02X1072130Y5220710I0J-38124D01*
G03X1082320Y5211570I10107J1017D01*
G01X1082700D01*
G02X1039500Y5168370I0J-43200D01*
G01Y5168750D01*
G37*
G36*
G01X10835130Y5282800D02*
G02X10847850Y5295520I12720J0D01*
G01X10866080D01*
X10866420Y5295570D01*
G02X10871600Y5295920I5154J-37772D01*
G02X10876780Y5295570I26J-38122D01*
G01X10877120Y5295520D01*
X10895350D01*
G02X10908070Y5282800I0J-12720D01*
G01Y5268920D01*
X10908260Y5268230D01*
G02X10909720Y5257800I-36657J-10449D01*
G01Y5156600D01*
G02X10833480I-38120J0D01*
G01Y5257800D01*
G02X10834940Y5268230I38117J-19D01*
G01X10835130Y5268920D01*
Y5282800D01*
G37*
G36*
G01X406350Y5282810D02*
X372250Y5316920D01*
G02X361080Y5343870I26947J26958D01*
G02X399200Y5381990I38120J0D01*
G02X426150Y5370820I-8J-38117D01*
G01X460260Y5336720D01*
X461390Y5336340D01*
G02X490900Y5295370I-13685J-40970D01*
G02X447700Y5252170I-43200J0D01*
G02X406730Y5281680I0J43195D01*
G01X406350Y5282810D01*
G37*
G36*
G01X1039500Y5295750D02*
G03X1030360Y5305940I-10157J83D01*
G02X996080Y5343870I3844J37930D01*
G02X1034200Y5381990I38120J0D01*
G02X1072130Y5347710I0J-38124D01*
G03X1082320Y5338570I10107J1017D01*
G01X1082700D01*
G02X1039500Y5295370I0J-43200D01*
G01Y5295750D01*
G37*
G36*
G01X10639090Y5358040D02*
X10618180D01*
G02X10587050Y5341930I-31130J22022D01*
G02Y5418170I0J38120D01*
G02X10618180Y5402060I0J-38132D01*
G01X10648200D01*
G02X10663760Y5395610I-6J-22008D01*
G01X10763850Y5295520D01*
X10792950D01*
G02X10805670Y5282800I0J-12720D01*
G01Y5232800D01*
G02X10792950Y5220080I-12720J0D01*
G01X10745450D01*
G02X10732730Y5232800I0J12720D01*
G01Y5264400D01*
X10639090Y5358040D01*
G37*
G36*
G01X533350Y5409810D02*
X499250Y5443920D01*
G02X488080Y5470870I26947J26958D01*
G02X526200Y5508990I38120J0D01*
G02X553150Y5497820I-8J-38117D01*
G01X587260Y5463720D01*
X588390Y5463340D01*
G02X617900Y5422370I-13685J-40970D01*
G02X574700Y5379170I-43200J0D01*
G02X533730Y5408680I0J43195D01*
G01X533350Y5409810D01*
G37*
G36*
G01X912500Y5422750D02*
G03X903360Y5432940I-10157J83D01*
G02X869080Y5470870I3844J37930D01*
G02X907200Y5508990I38120J0D01*
G02X945130Y5474710I0J-38124D01*
G03X955320Y5465570I10107J1017D01*
G01X955700D01*
G02X912500Y5422370I0J-43200D01*
G01Y5422750D01*
G37*
G36*
G01X10835130Y5536800D02*
G02X10847850Y5549520I12720J0D01*
G01X10866080D01*
X10866420Y5549570D01*
G02X10871600Y5549920I5154J-37772D01*
G02X10876780Y5549570I26J-38122D01*
G01X10877120Y5549520D01*
X10895350D01*
G02X10908070Y5536800I0J-12720D01*
G01Y5522920D01*
X10908260Y5522230D01*
G02X10909720Y5511800I-36657J-10449D01*
G01Y5410600D01*
G02X10833480I-38120J0D01*
G01Y5511800D01*
G02X10834940Y5522230I38117J-19D01*
G01X10835130Y5522920D01*
Y5536800D01*
G37*
G36*
G01X406350Y5536810D02*
X372250Y5570920D01*
G02X361080Y5597870I26947J26958D01*
G02X399200Y5635990I38120J0D01*
G02X426150Y5624820I-8J-38117D01*
G01X460260Y5590720D01*
X461390Y5590340D01*
G02X490900Y5549370I-13685J-40970D01*
G02X447700Y5506170I-43200J0D01*
G02X406730Y5535680I0J43195D01*
G01X406350Y5536810D01*
G37*
G36*
G01X912500Y5549750D02*
G03X903360Y5559940I-10157J83D01*
G02X869080Y5597870I3844J37930D01*
G02X907200Y5635990I38120J0D01*
G02X945130Y5601710I0J-38124D01*
G03X955320Y5592570I10107J1017D01*
G01X955700D01*
G02X912500Y5549370I0J-43200D01*
G01Y5549750D01*
G37*
G36*
G01X1039500D02*
G03X1030360Y5559940I-10157J83D01*
G02X996080Y5597870I3844J37930D01*
G02X1034200Y5635990I38120J0D01*
G02X1072130Y5601710I0J-38124D01*
G03X1082320Y5592570I10107J1017D01*
G01X1082700D01*
G02X1039500Y5549370I0J-43200D01*
G01Y5549750D01*
G37*
G36*
G01X10639090Y5612040D02*
X10618180D01*
G02X10587050Y5595930I-31130J22022D01*
G02Y5672170I0J38120D01*
G02X10618180Y5656060I0J-38132D01*
G01X10648200D01*
G02X10663760Y5649610I-6J-22008D01*
G01X10763850Y5549520D01*
X10792950D01*
G02X10805670Y5536800I0J-12720D01*
G01Y5486800D01*
G02X10792950Y5474080I-12720J0D01*
G01X10745450D01*
G02X10732730Y5486800I0J12720D01*
G01Y5518400D01*
X10639090Y5612040D01*
G37*
G36*
G01X533350Y5663810D02*
X499250Y5697920D01*
G02X488080Y5724870I26947J26958D01*
G02X526200Y5762990I38120J0D01*
G02X553150Y5751820I-8J-38117D01*
G01X587260Y5717720D01*
X588390Y5717340D01*
G02X617900Y5676370I-13685J-40970D01*
G02X574700Y5633170I-43200J0D01*
G02X533730Y5662680I0J43195D01*
G01X533350Y5663810D01*
G37*
G36*
G01X1039500Y5676750D02*
G03X1030360Y5686940I-10157J83D01*
G02X996080Y5724870I3844J37930D01*
G02X1034200Y5762990I38120J0D01*
G02X1072130Y5728710I0J-38124D01*
G03X1082320Y5719570I10107J1017D01*
G01X1082700D01*
G02X1039500Y5676370I0J-43200D01*
G01Y5676750D01*
G37*
G36*
G01X10835130Y5790800D02*
G02X10847850Y5803520I12720J0D01*
G01X10866080D01*
X10866420Y5803570D01*
G02X10871600Y5803920I5154J-37772D01*
G02X10876780Y5803570I26J-38122D01*
G01X10877120Y5803520D01*
X10895350D01*
G02X10908070Y5790800I0J-12720D01*
G01Y5776920D01*
X10908260Y5776230D01*
G02X10909720Y5765800I-36657J-10449D01*
G01Y5664600D01*
G02X10833480I-38120J0D01*
G01Y5765800D01*
G02X10834940Y5776230I38117J-19D01*
G01X10835130Y5776920D01*
Y5790800D01*
G37*
G36*
G01X406350Y5790810D02*
X372250Y5824920D01*
G02X361080Y5851870I26947J26958D01*
G02X399200Y5889990I38120J0D01*
G02X426150Y5878820I-8J-38117D01*
G01X460260Y5844720D01*
X461390Y5844340D01*
G02X490900Y5803370I-13685J-40970D01*
G02X447700Y5760170I-43200J0D01*
G02X406730Y5789680I0J43195D01*
G01X406350Y5790810D01*
G37*
G36*
G01X10639090Y5866040D02*
X10618180D01*
G02X10587050Y5849930I-31130J22022D01*
G02Y5926170I0J38120D01*
G02X10618180Y5910060I0J-38132D01*
G01X10648200D01*
G02X10663760Y5903610I-6J-22008D01*
G01X10763850Y5803520D01*
X10792950D01*
G02X10805670Y5790800I0J-12720D01*
G01Y5740800D01*
G02X10792950Y5728080I-12720J0D01*
G01X10745450D01*
G02X10732730Y5740800I0J12720D01*
G01Y5772400D01*
X10639090Y5866040D01*
G37*
G36*
G01X533350Y5917810D02*
X499250Y5951920D01*
G02X488080Y5978870I26947J26958D01*
G02X526200Y6016990I38120J0D01*
G02X553150Y6005820I-8J-38117D01*
G01X587260Y5971720D01*
X588390Y5971340D01*
G02X617900Y5930370I-13685J-40970D01*
G02X574700Y5887170I-43200J0D01*
G02X533730Y5916680I0J43195D01*
G01X533350Y5917810D01*
G37*
G36*
G01X10835130Y6044800D02*
G02X10847850Y6057520I12720J0D01*
G01X10866080D01*
X10866420Y6057570D01*
G02X10871600Y6057920I5154J-37772D01*
G02X10876780Y6057570I26J-38122D01*
G01X10877120Y6057520D01*
X10895350D01*
G02X10908070Y6044800I0J-12720D01*
G01Y6030920D01*
X10908260Y6030230D01*
G02X10909720Y6019800I-36657J-10449D01*
G01Y5918600D01*
G02X10833480I-38120J0D01*
G01Y6019800D01*
G02X10834940Y6030230I38117J-19D01*
G01X10835130Y6030920D01*
Y6044800D01*
G37*
G36*
G01X10639090Y6120040D02*
X10618180D01*
G02X10587050Y6103930I-31130J22022D01*
G02Y6180170I0J38120D01*
G02X10618180Y6164060I0J-38132D01*
G01X10648200D01*
G02X10663760Y6157610I-6J-22008D01*
G01X10763850Y6057520D01*
X10792950D01*
G02X10805670Y6044800I0J-12720D01*
G01Y5994800D01*
G02X10792950Y5982080I-12720J0D01*
G01X10745450D01*
G02X10732730Y5994800I0J12720D01*
G01Y6026400D01*
X10639090Y6120040D01*
G37*
G36*
G01X9648680Y6248070D02*
G03Y6261430I-7651J6680D01*
G02X9639280Y6286500I28731J25070D01*
G02X9715520I38120J0D01*
G02X9706120Y6261430I-38131J0D01*
G03Y6248070I7651J-6680D01*
G02X9715520Y6223000I-28731J-25070D01*
G02X9639280I-38120J0D01*
G02X9648680Y6248070I38131J0D01*
G37*
G36*
G01Y6565570D02*
G03Y6578930I-7651J6680D01*
G02X9639280Y6604000I28731J25070D01*
G02X9715520I38120J0D01*
G02X9706120Y6578930I-38131J0D01*
G03Y6565570I7651J-6680D01*
G02X9715520Y6540500I-28731J-25070D01*
G02X9639280I-38120J0D01*
G02X9648680Y6565570I38131J0D01*
G37*
G36*
G01X3261040Y6721160D02*
G02X3276600Y6727600I15554J-15563D01*
G01X9220200D01*
G02X9235760Y6721160I6J-22003D01*
G01X9464360Y6492560D01*
G02X9470800Y6477000I-15563J-15554D01*
G01Y6375400D01*
G02X9464360Y6359840I-22003J-6D01*
G01X9420000Y6315490D01*
Y4098510D01*
X10401560Y3116960D01*
G02X10408000Y3101400I-15563J-15554D01*
G01Y2952530D01*
G02X10424120Y2921400I-21998J-31130D01*
G02X10386000Y2883280I-38120J0D01*
G02X10360340Y2893210I0J38119D01*
G03X10346660I-6840J-7513D01*
G02X10295340I-25660J28189D01*
G03X10281660I-6840J-7513D01*
G02X10230340I-25660J28189D01*
G03X10216660I-6840J-7513D01*
G02X10165340I-25660J28189D01*
G03X10151660I-6840J-7513D01*
G02X10100340I-25660J28189D01*
G03X10086660I-6840J-7513D01*
G02X10035340I-25660J28189D01*
G03X10021660I-6840J-7513D01*
G02X9970340I-25660J28189D01*
G03X9956660I-6840J-7513D01*
G02X9931000Y2883280I-25660J28189D01*
G02X9892880Y2921400I0J38120D01*
G02X9909000Y2952530I38118J0D01*
G01Y3013890D01*
X9885260Y3037620D01*
G03X9867920Y3030430I-7180J-7188D01*
G01Y2809790D01*
X9907550Y2770150D01*
G02X9918720Y2743200I-26947J-26958D01*
G02X9880600Y2705080I-38120J0D01*
G02X9853650Y2716250I8J38117D01*
G01X9802850Y2767050D01*
G02X9791680Y2794000I26947J26958D01*
G01Y2994720D01*
G03X9782720Y2998000I-5080J1D01*
G02X9775600Y2991470I-29118J24602D01*
G01Y1930400D01*
G02X9769160Y1914840I-22003J-6D01*
G01X9337360Y1483040D01*
G02X9321800Y1476600I-15554J15563D01*
G01X8695910D01*
X8404000Y1184690D01*
Y615970D01*
X8477250D01*
G02X8489970Y603250I0J-12720D01*
G01Y412750D01*
G02X8477250Y400030I-12720J0D01*
G01X8286750D01*
G02X8274030Y412750I0J12720D01*
G01Y603250D01*
G02X8286750Y615970I12720J0D01*
G01X8360000D01*
Y1193800D01*
G02X8366440Y1209360I22003J6D01*
G01X8671240Y1514160D01*
G02X8686800Y1520600I15554J-15563D01*
G01X9312690D01*
X9731600Y1939510D01*
Y2991470D01*
G02X9723520Y2999190I22008J31123D01*
G03X9707480I-8020J-6243D01*
G02X9699400Y2991470I-30088J23403D01*
G01Y1955800D01*
G02X9692960Y1940240I-22003J-6D01*
G01X9311960Y1559240D01*
G02X9296400Y1552800I-15554J15563D01*
G01X7756110D01*
X7388000Y1184690D01*
Y615970D01*
X7461250D01*
G02X7473970Y603250I0J-12720D01*
G01Y412750D01*
G02X7461250Y400030I-12720J0D01*
G01X7270750D01*
G02X7258030Y412750I0J12720D01*
G01Y603250D01*
G02X7270750Y615970I12720J0D01*
G01X7344000D01*
Y1193800D01*
G02X7350440Y1209360I22003J6D01*
G01X7731440Y1590360D01*
G02X7747000Y1596800I15554J-15563D01*
G01X9287290D01*
X9655400Y1964910D01*
Y2991470D01*
G02X9647320Y2999190I22008J31123D01*
G03X9631280I-8020J-6243D01*
G02X9623200Y2991470I-30088J23403D01*
G01Y1981200D01*
G02X9616760Y1965640I-22003J-6D01*
G01X9286560Y1635440D01*
G02X9271000Y1629000I-15554J15563D01*
G01X6841710D01*
X6372000Y1159290D01*
Y615970D01*
X6445250D01*
G02X6457970Y603250I0J-12720D01*
G01Y412750D01*
G02X6445250Y400030I-12720J0D01*
G01X6254750D01*
G02X6242030Y412750I0J12720D01*
G01Y603250D01*
G02X6254750Y615970I12720J0D01*
G01X6328000D01*
Y1168400D01*
G02X6334440Y1183960I22003J6D01*
G01X6817040Y1666560D01*
G02X6832600Y1673000I15554J-15563D01*
G01X9261890D01*
X9579200Y1990310D01*
Y2991470D01*
G02X9571120Y2999190I22008J31123D01*
G03X9555080I-8020J-6243D01*
G02X9547000Y2991470I-30088J23403D01*
G01Y2006600D01*
G02X9540560Y1991040I-22003J-6D01*
G01X9261160Y1711640D01*
G02X9245600Y1705200I-15554J15563D01*
G01X5901910D01*
X5356000Y1159290D01*
Y615970D01*
X5429250D01*
G02X5441970Y603250I0J-12720D01*
G01Y412750D01*
G02X5429250Y400030I-12720J0D01*
G01X5238750D01*
G02X5226030Y412750I0J12720D01*
G01Y603250D01*
G02X5238750Y615970I12720J0D01*
G01X5312000D01*
Y1168400D01*
G02X5318440Y1183960I22003J6D01*
G01X5877240Y1742760D01*
G02X5892800Y1749200I15554J-15563D01*
G01X9236490D01*
X9503000Y2015710D01*
Y2991470D01*
G02X9494920Y2999190I22008J31123D01*
G03X9478880I-8020J-6243D01*
G02X9470800Y2991470I-30088J23403D01*
G01Y2032000D01*
G02X9464360Y2016440I-22003J-6D01*
G01X9235760Y1787840D01*
G02X9220200Y1781400I-15554J15563D01*
G01X4987510D01*
X4340000Y1133890D01*
Y615970D01*
X4413250D01*
G02X4425970Y603250I0J-12720D01*
G01Y412750D01*
G02X4413250Y400030I-12720J0D01*
G01X4222750D01*
G02X4210030Y412750I0J12720D01*
G01Y603250D01*
G02X4222750Y615970I12720J0D01*
G01X4296000D01*
Y1143000D01*
G02X4302440Y1158560I22003J6D01*
G01X4962840Y1818960D01*
G02X4978400Y1825400I15554J-15563D01*
G01X9211090D01*
X9426800Y2041110D01*
Y2991470D01*
G02X9418720Y2999190I22008J31123D01*
G03X9402680I-8020J-6243D01*
G02X9394600Y2991470I-30088J23403D01*
G01Y2057400D01*
G02X9388160Y2041840I-22003J-6D01*
G01X9210360Y1864040D01*
G02X9194800Y1857600I-15554J15563D01*
G01X4047710D01*
X3324000Y1133890D01*
Y615970D01*
X3397250D01*
G02X3409970Y603250I0J-12720D01*
G01Y412750D01*
G02X3397250Y400030I-12720J0D01*
G01X3206750D01*
G02X3194030Y412750I0J12720D01*
G01Y603250D01*
G02X3206750Y615970I12720J0D01*
G01X3280000D01*
Y1143000D01*
G02X3286440Y1158560I22003J6D01*
G01X4023040Y1895160D01*
G02X4038600Y1901600I15554J-15563D01*
G01X9185690D01*
X9350600Y2066510D01*
Y2991470D01*
G02X9342520Y2999190I22008J31123D01*
G03X9326480I-8020J-6243D01*
G02X9318400Y2991470I-30088J23403D01*
G01Y2082800D01*
G02X9311960Y2067240I-22003J-6D01*
G01X9184960Y1940240D01*
G02X9169400Y1933800I-15554J15563D01*
G01X3107910D01*
X2308000Y1133890D01*
Y615970D01*
X2381250D01*
G02X2393970Y603250I0J-12720D01*
G01Y412750D01*
G02X2381250Y400030I-12720J0D01*
G01X2190750D01*
G02X2178030Y412750I0J12720D01*
G01Y603250D01*
G02X2190750Y615970I12720J0D01*
G01X2264000D01*
Y1143000D01*
G02X2270440Y1158560I22003J6D01*
G01X3083240Y1971360D01*
G02X3098800Y1977800I15554J-15563D01*
G01X9160290D01*
X9274400Y2091910D01*
Y2991470D01*
G02X9258280Y3022600I21998J31130D01*
G02X9296400Y3060720I38120J0D01*
G02X9326480Y3046010I0J-38110D01*
G03X9342520I8020J6243D01*
G02X9348700Y3052300I30098J-23391D01*
G01X9350600Y3053820D01*
Y3061490D01*
X9346110Y3062020D01*
G02X9334880Y3074650I1487J12630D01*
G01Y3122150D01*
G02X9347600Y3134870I12720J0D01*
G01X9397600D01*
G02X9410320Y3122150I0J-12720D01*
G01Y3074650D01*
G02X9399090Y3062020I-12717J0D01*
G01X9394600Y3061490D01*
Y3053820D01*
X9396500Y3052300D01*
G02X9402680Y3046010I-23918J-29681D01*
G03X9418720I8020J6243D01*
G02X9478880I30080J-23400D01*
G03X9494920I8020J6243D01*
G02X9501100Y3052300I30098J-23391D01*
G01X9503000Y3053820D01*
Y3061490D01*
X9498510Y3062020D01*
G02X9487280Y3074650I1487J12630D01*
G01Y3122150D01*
G02X9500000Y3134870I12720J0D01*
G01X9550000D01*
G02X9562720Y3122150I0J-12720D01*
G01Y3074650D01*
G02X9551490Y3062020I-12717J0D01*
G01X9547000Y3061490D01*
Y3053820D01*
X9548900Y3052300D01*
G02X9555080Y3046010I-23918J-29681D01*
G03X9571120I8020J6243D01*
G02X9631280I30080J-23400D01*
G03X9647320I8020J6243D01*
G02X9653500Y3052300I30098J-23391D01*
G01X9655400Y3053820D01*
Y3061490D01*
X9650910Y3062020D01*
G02X9639680Y3074650I1487J12630D01*
G01Y3122150D01*
G02X9652400Y3134870I12720J0D01*
G01X9666140D01*
G03X9673330Y3152210I2J10160D01*
G01X9662860Y3162680D01*
X9372600D01*
G02X9362170Y3164140I19J38117D01*
G01X9361480Y3164330D01*
X9347600D01*
G02X9334880Y3177050I0J12720D01*
G01Y3195280D01*
X9334830Y3195620D01*
G02X9334480Y3200800I37772J5154D01*
G02X9334830Y3205980I38122J26D01*
G01X9334880Y3206320D01*
Y3224550D01*
G02X9347600Y3237270I12720J0D01*
G01X9361480D01*
X9362170Y3237460D01*
G02X9372600Y3238920I10449J-36657D01*
G01X9663480D01*
G03X9670670Y3256260I2J10160D01*
G01X9026840Y3900090D01*
G02X9020400Y3915650I15563J15554D01*
G01Y5807490D01*
X8939980Y5887900D01*
G02X8890000Y5873730I-49991J81097D01*
G02X8985270Y5969000I0J95270D01*
G02X8973050Y5922320I-95268J0D01*
G01X8971160Y5918960D01*
X9053850Y5836270D01*
G03X9071200Y5843450I7189J7182D01*
G01Y6347720D01*
X9065520Y6353400D01*
X8518110D01*
X8505600Y6340890D01*
Y5876510D01*
X8586020Y5796100D01*
G02X8636000Y5810270I49991J-81097D01*
G02X8540730Y5715000I0J-95270D01*
G02X8554900Y5764980I95267J-11D01*
G01X8468040Y5851840D01*
G02X8461600Y5867400I15563J15554D01*
G01Y6350000D01*
G02X8468040Y6365560I22003J6D01*
G01X8493440Y6390960D01*
G02X8509000Y6397400I15554J-15563D01*
G01X9074630D01*
G02X9090190Y6390960I6J-22003D01*
G01X9104650Y6376500D01*
G03X9122000Y6383680I7189J7182D01*
G01Y6391690D01*
X9080200Y6433480D01*
X8221500D01*
G03X8212520Y6418590I6J-10156D01*
G02X8216920Y6400800I-33723J-17780D01*
G02X8140680I-38120J0D01*
G02X8145080Y6418590I38123J10D01*
G03X8136100Y6433480I-8986J4734D01*
G01X7789700D01*
G03X7780720Y6418590I6J-10156D01*
G02X7785120Y6400800I-33723J-17780D01*
G02X7708880I-38120J0D01*
G02X7713280Y6418590I38123J10D01*
G03X7704300Y6433480I-8986J4734D01*
G01X7637300D01*
G03X7628320Y6418590I6J-10156D01*
G02X7632720Y6400800I-33723J-17780D01*
G02X7594600Y6362680I-38120J0D01*
G02X7558180Y6389530I0J38125D01*
G03X7541290Y6393710I-9705J-3001D01*
G01X7438800Y6291230D01*
Y6273800D01*
G02X7432360Y6258240I-22003J-6D01*
G01X7193100Y6018980D01*
G02X7207270Y5969000I-81097J-49991D01*
G02X7112000Y6064270I-95270J0D01*
G02X7161980Y6050100I-11J-95267D01*
G01X7394800Y6282910D01*
Y6300340D01*
G02X7401240Y6315900I22003J6D01*
G01X7548390Y6463050D01*
G03X7541210Y6480400I-7182J7189D01*
G01X6917910D01*
X6727600Y6290090D01*
Y5876510D01*
X6808020Y5796100D01*
G02X6858000Y5810270I49991J-81097D01*
G02X6762730Y5715000I0J-95270D01*
G02X6776900Y5764980I95267J-11D01*
G01X6690040Y5851840D01*
G02X6683600Y5867400I15563J15554D01*
G01Y6299200D01*
G02X6690040Y6314760I22003J6D01*
G01X6889130Y6513850D01*
G03X6881950Y6531200I-7182J7189D01*
G01X5824570D01*
X5747490Y6454110D01*
G03X5751670Y6437220I7181J-7185D01*
G02X5778520Y6400800I-11275J-36420D01*
G02X5740400Y6362680I-38120J0D01*
G02X5703980Y6389530I0J38125D01*
G03X5687090Y6393710I-9705J-3001D01*
G01X5584600Y6291230D01*
Y6261100D01*
G02X5578160Y6245540I-22003J-6D01*
G01X5351600Y6018980D01*
G02X5365770Y5969000I-81097J-49991D01*
G02X5270500Y6064270I-95270J0D01*
G02X5320480Y6050100I-11J-95267D01*
G01X5540600Y6270210D01*
Y6300340D01*
G02X5547040Y6315900I22003J6D01*
G01X5795790Y6564650D01*
G03X5788610Y6582000I-7182J7189D01*
G01X4962110D01*
X4848000Y6467890D01*
Y5914610D01*
X4966460Y5796160D01*
X4969820Y5798050D01*
G02X5016500Y5810270I46680J-83048D01*
G02X4921230Y5715000I0J-95270D01*
G02X4933450Y5761680I95268J0D01*
G01X4935340Y5765040D01*
X4810440Y5889940D01*
G02X4804000Y5905500I15563J15554D01*
G01Y6477000D01*
G02X4810440Y6492560I22003J6D01*
G01X4933330Y6615450D01*
G03X4926150Y6632800I-7182J7189D01*
G01X4097370D01*
X3918690Y6454110D01*
G03X3922870Y6437220I7181J-7185D01*
G02X3949720Y6400800I-11275J-36420D01*
G02X3911600Y6362680I-38120J0D01*
G02X3875180Y6389530I0J38125D01*
G03X3858290Y6393710I-9705J-3001D01*
G01X3781200Y6316630D01*
Y6299200D01*
G02X3774760Y6283640I-22003J-6D01*
G01X3510160Y6019040D01*
X3512050Y6015680D01*
G02X3524270Y5969000I-83048J-46680D01*
G02X3429000Y6064270I-95270J0D01*
G02X3475680Y6052050I0J-95268D01*
G01X3479040Y6050160D01*
X3737200Y6308310D01*
Y6325740D01*
G02X3743640Y6341300I22003J6D01*
G01X4068590Y6666250D01*
G03X4061410Y6683600I-7182J7189D01*
G01X3285710D01*
X3044600Y6442490D01*
Y5876510D01*
X3124960Y5796160D01*
X3128320Y5798050D01*
G02X3175000Y5810270I46680J-83048D01*
G02X3079730Y5715000I0J-95270D01*
G02X3091950Y5761680I95268J0D01*
G01X3093840Y5765040D01*
X3007040Y5851840D01*
G02X3000600Y5867400I15563J15554D01*
G01Y6451600D01*
G02X3007040Y6467160I22003J6D01*
G01X3261040Y6721160D01*
G37*
G54D25*
X320700Y1358370D03*
Y1231370D03*
Y1104370D03*
Y977370D03*
X193700Y1358370D03*
Y1231370D03*
Y1104370D03*
Y977370D03*
X828700Y1358370D03*
Y1231370D03*
Y1104370D03*
Y977370D03*
X701700Y1358370D03*
Y1231370D03*
Y1104370D03*
Y977370D03*
X574700Y1358370D03*
Y1231370D03*
Y1104370D03*
Y977370D03*
X447700Y1358370D03*
Y1231370D03*
Y1104370D03*
Y977370D03*
X1336700Y1358370D03*
Y1231370D03*
Y1104370D03*
Y977370D03*
X1209700Y1358370D03*
Y1231370D03*
Y1104370D03*
Y977370D03*
X1082700Y1358370D03*
Y1231370D03*
Y1104370D03*
Y977370D03*
X955700Y1358370D03*
Y1231370D03*
Y1104370D03*
Y977370D03*
X320700Y1866370D03*
Y1739370D03*
Y1612370D03*
Y1485370D03*
X193700Y1866370D03*
Y1739370D03*
Y1612370D03*
Y1485370D03*
X828700Y1866370D03*
Y1739370D03*
Y1612370D03*
Y1485370D03*
X701700Y1866370D03*
Y1739370D03*
Y1612370D03*
Y1485370D03*
X574700Y1739370D03*
Y1612370D03*
Y1485370D03*
X447700Y1866370D03*
Y1739370D03*
Y1612370D03*
Y1485370D03*
X1336700Y1866370D03*
Y1739370D03*
Y1612370D03*
Y1485370D03*
X1209700Y1866370D03*
Y1739370D03*
Y1612370D03*
Y1485370D03*
X1082700Y1612370D03*
Y1485370D03*
X955700Y1866370D03*
Y1485370D03*
X320700Y2374370D03*
Y2247370D03*
Y2120370D03*
Y1993370D03*
X193700Y2374370D03*
Y2247370D03*
Y2120370D03*
Y1993370D03*
X828700Y2374370D03*
Y2247370D03*
Y2120370D03*
Y1993370D03*
X701700Y2374370D03*
Y2247370D03*
Y2120370D03*
Y1993370D03*
X574700Y2120370D03*
X447700Y2374370D03*
Y1993370D03*
X1336700Y2374370D03*
Y2247370D03*
Y2120370D03*
Y1993370D03*
X1209700Y2374370D03*
Y2247370D03*
Y2120370D03*
Y1993370D03*
X1082700Y2374370D03*
Y1993370D03*
X955700Y2247370D03*
X320700Y2882370D03*
Y2755370D03*
Y2628370D03*
Y2501370D03*
X193700Y2882370D03*
Y2755370D03*
Y2628370D03*
Y2501370D03*
X828700Y2882370D03*
Y2755370D03*
Y2628370D03*
Y2501370D03*
X701700Y2882370D03*
Y2755370D03*
Y2628370D03*
Y2501370D03*
X574700Y2882370D03*
Y2501370D03*
X447700Y2882370D03*
Y2501370D03*
X1336700Y2882370D03*
Y2755370D03*
Y2628370D03*
Y2501370D03*
X1209700Y2882370D03*
Y2755370D03*
Y2628370D03*
Y2501370D03*
X1082700Y2755370D03*
X955700Y2628370D03*
X320700Y3517370D03*
Y3390370D03*
Y3263370D03*
Y3136370D03*
Y3009370D03*
X193700Y3517370D03*
Y3390370D03*
Y3263370D03*
Y3136370D03*
Y3009370D03*
X828700Y3517370D03*
Y3390370D03*
Y3263370D03*
Y3136370D03*
Y3009370D03*
X701700Y3517370D03*
Y3390370D03*
Y3263370D03*
Y3136370D03*
Y3009370D03*
X574700Y3263370D03*
X447700Y3517370D03*
Y3390370D03*
Y3009370D03*
X1336700Y3517370D03*
Y3390370D03*
Y3263370D03*
Y3136370D03*
Y3009370D03*
X1209700Y3517370D03*
Y3390370D03*
Y3263370D03*
Y3136370D03*
Y3009370D03*
X1082700Y3517370D03*
Y3136370D03*
X955700Y3390370D03*
Y3009370D03*
X320700Y4025370D03*
Y3898370D03*
Y3771370D03*
Y3644370D03*
X193700Y4025370D03*
Y3898370D03*
Y3771370D03*
Y3644370D03*
X828700Y4025370D03*
Y3898370D03*
Y3771370D03*
Y3644370D03*
X701700Y4025370D03*
Y3898370D03*
Y3771370D03*
Y3644370D03*
X574700Y4025370D03*
Y3644370D03*
X447700Y4025370D03*
Y3898370D03*
X1336700Y4025370D03*
Y3898370D03*
Y3771370D03*
Y3644370D03*
X1209700Y4025370D03*
Y3898370D03*
Y3771370D03*
Y3644370D03*
X1082700Y3898370D03*
X955700Y3771370D03*
X320700Y4533370D03*
Y4406370D03*
Y4279370D03*
Y4152370D03*
X193700Y4533370D03*
Y4406370D03*
Y4279370D03*
Y4152370D03*
X828700Y4533370D03*
Y4406370D03*
Y4279370D03*
Y4152370D03*
X701700Y4533370D03*
Y4406370D03*
Y4279370D03*
Y4152370D03*
X574700Y4533370D03*
Y4406370D03*
X447700Y4533370D03*
Y4406370D03*
X1336700Y4533370D03*
Y4406370D03*
Y4279370D03*
Y4152370D03*
X1209700Y4533370D03*
Y4406370D03*
Y4279370D03*
Y4152370D03*
X1082700Y4279370D03*
X955700Y4533370D03*
Y4152370D03*
X320700Y5041370D03*
Y4914370D03*
Y4787370D03*
Y4660370D03*
X193700Y5041370D03*
Y4914370D03*
Y4787370D03*
Y4660370D03*
X828700Y5041370D03*
Y4914370D03*
Y4787370D03*
Y4660370D03*
X701700Y5041370D03*
Y4914370D03*
Y4787370D03*
Y4660370D03*
X574700Y5041370D03*
Y4914370D03*
Y4787370D03*
Y4660370D03*
X447700Y5041370D03*
Y4914370D03*
X1336700Y5041370D03*
Y4914370D03*
Y4787370D03*
Y4660370D03*
X1209700Y5041370D03*
Y4914370D03*
Y4787370D03*
Y4660370D03*
X1082700Y5041370D03*
Y4660370D03*
X955700Y4914370D03*
X320700Y5549370D03*
Y5422370D03*
Y5295370D03*
Y5168370D03*
X193700Y5549370D03*
Y5422370D03*
Y5295370D03*
Y5168370D03*
X828700Y5549370D03*
Y5422370D03*
Y5295370D03*
Y5168370D03*
X701700Y5549370D03*
Y5422370D03*
Y5295370D03*
Y5168370D03*
X574700Y5549370D03*
Y5295370D03*
Y5168370D03*
X447700Y5422370D03*
Y5168370D03*
X1336700Y5549370D03*
Y5422370D03*
Y5295370D03*
Y5168370D03*
X1209700Y5549370D03*
Y5422370D03*
Y5295370D03*
Y5168370D03*
X1082700Y5422370D03*
X955700Y5295370D03*
X320700Y5930370D03*
Y5803370D03*
Y5676370D03*
X193700Y5930370D03*
Y5803370D03*
Y5676370D03*
X828700Y5930370D03*
Y5803370D03*
Y5676370D03*
X701700Y5930370D03*
Y5803370D03*
Y5676370D03*
X574700Y5803370D03*
X447700Y5930370D03*
Y5676370D03*
X1336700Y5930370D03*
Y5803370D03*
Y5676370D03*
X1209700Y5930370D03*
Y5803370D03*
Y5676370D03*
X1082700Y5930370D03*
Y5803370D03*
X955700Y5930370D03*
Y5803370D03*
Y5676370D03*
G54D26*
X10368310Y1422700D03*
X10622310Y1420160D03*
X10713690D03*
X10459690Y1422700D03*
X10718800Y1905000D03*
X9956800Y2043550D03*
X10146150D03*
X10261600D03*
X9906000Y2362200D03*
X10210800Y2641600D03*
X9982200Y2743200D03*
X10515600Y2819400D03*
X10693400Y2641600D03*
Y2540000D03*
X10363200Y3683000D03*
X10260390Y3683260D03*
X10566400Y3683000D03*
X10464800D03*
X10666850Y3811150D03*
X4038600Y6400800D03*
X5867400D03*
X10858500Y6540500D03*
X10731500D03*
X10858500Y6286500D03*
X10731500D03*
G54D27*
X3175000Y2921000D03*
X3429000D03*
X3175000Y2667000D03*
X5016500Y2921000D03*
Y2667000D03*
X5270500Y2921000D03*
X6858000D03*
X7112000D03*
X6858000Y2667000D03*
X8636000Y2921000D03*
X8890000D03*
X8636000Y2667000D03*
X3175000Y3429000D03*
X3429000D03*
X3175000Y3175000D03*
X3429000D03*
X5016500Y3429000D03*
Y3175000D03*
X5270500Y3429000D03*
Y3175000D03*
X6858000Y3429000D03*
X7112000D03*
X6858000Y3175000D03*
X7112000D03*
X8636000Y3429000D03*
X8890000D03*
X8636000Y3175000D03*
X8890000D03*
X3175000Y3937000D03*
X3429000D03*
X3175000Y3683000D03*
X3429000D03*
X5016500Y3937000D03*
Y3683000D03*
X5270500Y3937000D03*
Y3683000D03*
X6858000Y3937000D03*
X7112000D03*
X6858000Y3683000D03*
X7112000D03*
X8636000Y3937000D03*
X8890000D03*
X8636000Y3683000D03*
X8890000D03*
X3175000Y4445000D03*
X3429000D03*
X3175000Y4191000D03*
X3429000D03*
X5016500Y4445000D03*
Y4191000D03*
X5270500Y4445000D03*
Y4191000D03*
X6858000Y4445000D03*
X7112000D03*
X6858000Y4191000D03*
X7112000D03*
X8636000Y4445000D03*
X8890000D03*
X8636000Y4191000D03*
X8890000D03*
X3175000Y4953000D03*
X3429000D03*
X3175000Y4699000D03*
X3429000D03*
X5016500Y4953000D03*
Y4699000D03*
X5270500Y4953000D03*
Y4699000D03*
X6858000Y4953000D03*
X7112000D03*
X6858000Y4699000D03*
X7112000D03*
X8636000Y4953000D03*
X8890000D03*
X8636000Y4699000D03*
X8890000D03*
X3429000Y5715000D03*
X3175000Y5461000D03*
X3429000D03*
X3175000Y5207000D03*
X3429000D03*
X5016500Y5461000D03*
Y5207000D03*
X5270500Y5715000D03*
Y5461000D03*
Y5207000D03*
X7112000Y5715000D03*
X6858000Y5461000D03*
X7112000D03*
X6858000Y5207000D03*
X7112000D03*
X8890000Y5715000D03*
X8636000Y5461000D03*
X8890000D03*
X8636000Y5207000D03*
X8890000D03*
X3175000Y6223000D03*
X3429000D03*
X3175000Y5969000D03*
X5016500Y6223000D03*
Y5969000D03*
X5270500Y6223000D03*
X6858000D03*
X7112000D03*
X6858000Y5969000D03*
X8636000Y6223000D03*
X8890000D03*
X8636000Y5969000D03*
G54D28*
X10156500Y4381500D03*
Y6413500D03*
G54D23*
X2032000Y254000D03*
X2540000D03*
X3048000D03*
X3556000D03*
X4064000D03*
X4572000D03*
X5080000D03*
X5588000D03*
X6096000D03*
X6604000D03*
X7112000D03*
X7620000D03*
X8128000D03*
X8636000D03*
X9144000D03*
X9652000D03*
X10160000D03*
X10668000D03*
X2032000Y762000D03*
X2540000D03*
X3048000D03*
X3556000D03*
X4064000D03*
X4572000D03*
X5080000D03*
X5588000D03*
X6096000D03*
X6604000D03*
X7112000D03*
X7620000D03*
X8128000D03*
X8636000D03*
X9144000D03*
X9652000D03*
X10160000D03*
X10668000D03*
G54D24*
X765200Y734800D03*
X1070000Y6172940D03*
%LPD*%
G75*
G54D10*
X320700Y1358370D03*
Y1231370D03*
Y1104370D03*
Y977370D03*
X193700Y1358370D03*
Y1231370D03*
Y1104370D03*
Y977370D03*
X320700Y1866370D03*
Y1739370D03*
Y1612370D03*
Y1485370D03*
X193700Y1866370D03*
Y1739370D03*
Y1612370D03*
Y1485370D03*
X320700Y2374370D03*
Y2247370D03*
Y2120370D03*
Y1993370D03*
X193700Y2374370D03*
Y2247370D03*
Y2120370D03*
Y1993370D03*
X320700Y2882370D03*
Y2755370D03*
Y2628370D03*
Y2501370D03*
X193700Y2882370D03*
Y2755370D03*
Y2628370D03*
Y2501370D03*
X320700Y3517370D03*
Y3390370D03*
Y3263370D03*
Y3136370D03*
Y3009370D03*
X193700Y3517370D03*
Y3390370D03*
Y3263370D03*
Y3136370D03*
Y3009370D03*
X320700Y4025370D03*
Y3898370D03*
Y3771370D03*
Y3644370D03*
X193700Y4025370D03*
Y3898370D03*
Y3771370D03*
Y3644370D03*
X320700Y4533370D03*
Y4406370D03*
Y4279370D03*
Y4152370D03*
X193700Y4533370D03*
Y4406370D03*
Y4279370D03*
Y4152370D03*
X320700Y5041370D03*
Y4914370D03*
Y4787370D03*
Y4660370D03*
X193700Y5041370D03*
Y4914370D03*
Y4787370D03*
Y4660370D03*
X320700Y5549370D03*
Y5422370D03*
Y5295370D03*
Y5168370D03*
X193700Y5549370D03*
Y5422370D03*
Y5295370D03*
Y5168370D03*
X320700Y5930370D03*
Y5803370D03*
Y5676370D03*
X193700Y5930370D03*
Y5803370D03*
Y5676370D03*
X828700Y1358370D03*
Y1231370D03*
Y1104370D03*
Y977370D03*
X701700Y1358370D03*
Y1231370D03*
Y1104370D03*
Y977370D03*
X574700Y1358370D03*
Y1231370D03*
Y1104370D03*
Y977370D03*
X447700Y1358370D03*
Y1231370D03*
Y1104370D03*
Y977370D03*
X828700Y1866370D03*
Y1739370D03*
Y1612370D03*
Y1485370D03*
X701700Y1866370D03*
Y1739370D03*
Y1612370D03*
Y1485370D03*
X574700Y1866370D03*
Y1739370D03*
Y1612370D03*
Y1485370D03*
X447700Y1866370D03*
Y1739370D03*
Y1612370D03*
Y1485370D03*
X828700Y2374370D03*
Y2247370D03*
Y2120370D03*
Y1993370D03*
X701700Y2374370D03*
Y2247370D03*
Y2120370D03*
Y1993370D03*
X574700Y2374370D03*
Y2247370D03*
Y2120370D03*
Y1993370D03*
X447700Y2374370D03*
Y2247370D03*
Y2120370D03*
Y1993370D03*
X828700Y2882370D03*
Y2755370D03*
Y2628370D03*
Y2501370D03*
X701700Y2882370D03*
Y2755370D03*
Y2628370D03*
Y2501370D03*
X574700Y2882370D03*
Y2755370D03*
Y2628370D03*
Y2501370D03*
X447700Y2882370D03*
Y2755370D03*
Y2628370D03*
Y2501370D03*
X828700Y3517370D03*
Y3390370D03*
Y3263370D03*
Y3136370D03*
Y3009370D03*
X701700Y3517370D03*
Y3390370D03*
Y3263370D03*
Y3136370D03*
Y3009370D03*
X574700Y3517370D03*
Y3390370D03*
Y3263370D03*
Y3136370D03*
Y3009370D03*
X447700Y3517370D03*
Y3390370D03*
Y3263370D03*
Y3136370D03*
Y3009370D03*
X828700Y4025370D03*
Y3898370D03*
Y3771370D03*
Y3644370D03*
X701700Y4025370D03*
Y3898370D03*
Y3771370D03*
Y3644370D03*
X574700Y4025370D03*
Y3898370D03*
Y3771370D03*
Y3644370D03*
X447700Y4025370D03*
Y3898370D03*
Y3771370D03*
Y3644370D03*
X828700Y4533370D03*
Y4406370D03*
Y4279370D03*
Y4152370D03*
X701700Y4533370D03*
Y4406370D03*
Y4279370D03*
Y4152370D03*
X574700Y4533370D03*
Y4406370D03*
Y4279370D03*
Y4152370D03*
X447700Y4533370D03*
Y4406370D03*
Y4279370D03*
Y4152370D03*
X828700Y5041370D03*
Y4914370D03*
Y4787370D03*
Y4660370D03*
X701700Y5041370D03*
Y4914370D03*
Y4787370D03*
Y4660370D03*
X574700Y5041370D03*
Y4914370D03*
Y4787370D03*
Y4660370D03*
X447700Y5041370D03*
Y4914370D03*
Y4787370D03*
Y4660370D03*
X828700Y5549370D03*
Y5422370D03*
Y5295370D03*
Y5168370D03*
X701700Y5549370D03*
Y5422370D03*
Y5295370D03*
Y5168370D03*
X574700Y5549370D03*
Y5422370D03*
Y5295370D03*
Y5168370D03*
X447700Y5549370D03*
Y5422370D03*
Y5295370D03*
Y5168370D03*
X828700Y5930370D03*
Y5803370D03*
Y5676370D03*
X701700Y5930370D03*
Y5803370D03*
Y5676370D03*
X574700Y5930370D03*
Y5803370D03*
Y5676370D03*
X447700Y5930370D03*
Y5803370D03*
Y5676370D03*
X1336700Y1358370D03*
Y1231370D03*
Y1104370D03*
Y977370D03*
X1209700Y1358370D03*
Y1231370D03*
Y1104370D03*
Y977370D03*
X1082700Y1358370D03*
Y1231370D03*
Y1104370D03*
Y977370D03*
X955700Y1358370D03*
Y1231370D03*
Y1104370D03*
Y977370D03*
X1336700Y1866370D03*
Y1739370D03*
Y1612370D03*
Y1485370D03*
X1209700Y1866370D03*
Y1739370D03*
Y1612370D03*
Y1485370D03*
X1082700Y1866370D03*
Y1739370D03*
Y1612370D03*
Y1485370D03*
X955700Y1866370D03*
Y1739370D03*
Y1612370D03*
Y1485370D03*
X1336700Y2374370D03*
Y2247370D03*
Y2120370D03*
Y1993370D03*
X1209700Y2374370D03*
Y2247370D03*
Y2120370D03*
Y1993370D03*
X1082700Y2374370D03*
Y2247370D03*
Y2120370D03*
Y1993370D03*
X955700Y2374370D03*
Y2247370D03*
Y2120370D03*
Y1993370D03*
X1336700Y2882370D03*
Y2755370D03*
Y2628370D03*
Y2501370D03*
X1209700Y2882370D03*
Y2755370D03*
Y2628370D03*
Y2501370D03*
X1082700Y2882370D03*
Y2755370D03*
Y2628370D03*
Y2501370D03*
X955700Y2882370D03*
Y2755370D03*
Y2628370D03*
Y2501370D03*
X1336700Y3517370D03*
Y3390370D03*
Y3263370D03*
Y3136370D03*
Y3009370D03*
X1209700Y3517370D03*
Y3390370D03*
Y3263370D03*
Y3136370D03*
Y3009370D03*
X1082700Y3517370D03*
Y3390370D03*
Y3263370D03*
Y3136370D03*
Y3009370D03*
X955700Y3517370D03*
Y3390370D03*
Y3263370D03*
Y3136370D03*
Y3009370D03*
X1336700Y4025370D03*
Y3898370D03*
Y3771370D03*
Y3644370D03*
X1209700Y4025370D03*
Y3898370D03*
Y3771370D03*
Y3644370D03*
X1082700Y4025370D03*
Y3898370D03*
Y3771370D03*
Y3644370D03*
X955700Y4025370D03*
Y3898370D03*
Y3771370D03*
Y3644370D03*
X1336700Y4533370D03*
Y4406370D03*
Y4279370D03*
Y4152370D03*
X1209700Y4533370D03*
Y4406370D03*
Y4279370D03*
Y4152370D03*
X1082700Y4533370D03*
Y4406370D03*
Y4279370D03*
Y4152370D03*
X955700Y4533370D03*
Y4406370D03*
Y4279370D03*
Y4152370D03*
X1336700Y5041370D03*
Y4914370D03*
Y4787370D03*
Y4660370D03*
X1209700Y5041370D03*
Y4914370D03*
Y4787370D03*
Y4660370D03*
X1082700Y5041370D03*
Y4914370D03*
Y4787370D03*
Y4660370D03*
X955700Y5041370D03*
Y4914370D03*
Y4787370D03*
Y4660370D03*
X1336700Y5549370D03*
Y5422370D03*
Y5295370D03*
Y5168370D03*
X1209700Y5549370D03*
Y5422370D03*
Y5295370D03*
Y5168370D03*
X1082700Y5549370D03*
Y5422370D03*
Y5295370D03*
Y5168370D03*
X955700Y5549370D03*
Y5422370D03*
Y5295370D03*
Y5168370D03*
X1336700Y5930370D03*
Y5803370D03*
Y5676370D03*
X1209700Y5930370D03*
Y5803370D03*
Y5676370D03*
X1082700Y5930370D03*
Y5803370D03*
Y5676370D03*
X955700Y5930370D03*
Y5803370D03*
Y5676370D03*
G54D20*
X10846200Y3403600D03*
X10743800D03*
X10871600Y4013200D03*
X10769200D03*
X10846200Y3556000D03*
X10743800D03*
X10871600Y4495800D03*
X10769200D03*
X10871600Y4241800D03*
X10769200D03*
X10871600Y5003800D03*
X10769200D03*
X10871600Y4749800D03*
X10769200D03*
X10871600Y5511800D03*
X10769200D03*
X10871600Y5257800D03*
X10769200D03*
X10871600Y6019800D03*
X10769200D03*
X10871600Y5765800D03*
X10769200D03*
G54D11*
G01X193700Y977370D02*
X145200Y1025870D01*
G01X320700Y1104370D02*
X272200Y1152870D01*
G01X320700Y1231370D02*
X272200Y1279870D01*
G01X193700Y1358370D02*
X145200Y1406870D01*
G01X320700Y1183090D02*
Y1231370D01*
G01D02*
Y1279650D01*
G01X272420Y1231370D02*
X320700D01*
G01D02*
X368980D01*
G01X320700Y1056090D02*
Y1104370D01*
G01D02*
Y1152650D01*
G01X272420Y1104370D02*
X320700D01*
G01D02*
X368980D01*
G01X193700Y1310090D02*
Y1358370D01*
G01D02*
Y1406650D01*
G01X145420Y1358370D02*
X193700D01*
G01D02*
X241980D01*
G01X193700Y929090D02*
Y977370D01*
G01D02*
Y1025650D01*
G01X145420Y977370D02*
X193700D01*
G01D02*
X241980D01*
G01X193700Y1485370D02*
X145200Y1533870D01*
G01X320700Y1612370D02*
X272200Y1660870D01*
G01X320700Y1739370D02*
X272200Y1787870D01*
G01X193700Y1866370D02*
X145200Y1914870D01*
G01X320700Y1691090D02*
Y1739370D01*
G01D02*
Y1787650D01*
G01X272420Y1739370D02*
X320700D01*
G01D02*
X368980D01*
G01X320700Y1564090D02*
Y1612370D01*
G01D02*
Y1660650D01*
G01X272420Y1612370D02*
X320700D01*
G01D02*
X368980D01*
G01X193700Y1818090D02*
Y1866370D01*
G01D02*
Y1914650D01*
G01X145420Y1866370D02*
X193700D01*
G01D02*
X241980D01*
G01X193700Y1437090D02*
Y1485370D01*
G01D02*
Y1533650D01*
G01X145420Y1485370D02*
X193700D01*
G01D02*
X241980D01*
G01X193700Y1993370D02*
X145200Y2041870D01*
G01X320700Y2120370D02*
X272200Y2168870D01*
G01X320700Y2247370D02*
X272200Y2295870D01*
G01X193700Y2374370D02*
X145200Y2422870D01*
G01X193700Y2326090D02*
Y2374370D01*
G01D02*
Y2422650D01*
G01X145420Y2374370D02*
X193700D01*
G01D02*
X241980D01*
G01X320700Y2199090D02*
Y2247370D01*
G01D02*
Y2295650D01*
G01X272420Y2247370D02*
X320700D01*
G01Y2072090D02*
Y2120370D01*
G01D02*
Y2168650D01*
G01X272420Y2120370D02*
X320700D01*
G01X193700Y1945090D02*
Y1993370D01*
G01D02*
Y2041650D01*
G01X145420Y1993370D02*
X193700D01*
G01D02*
X241980D01*
G01X193700Y2453090D02*
Y2501370D01*
G01D02*
X145200Y2549870D01*
G01X320700Y2628370D02*
X272200Y2676870D01*
G01X320700Y2755370D02*
X272200Y2803870D01*
G01X193700Y2882370D02*
X145200Y2930870D01*
G01X320700Y2707090D02*
Y2755370D01*
G01D02*
Y2803650D01*
G01X272420Y2755370D02*
X320700D01*
G01X193700Y2961090D02*
Y3009370D01*
G01X320700Y2580090D02*
Y2628370D01*
G01D02*
Y2676650D01*
G01X272420Y2628370D02*
X320700D01*
G01X193700Y2834090D02*
Y2882370D01*
G01D02*
Y2930650D01*
G01X145420Y2882370D02*
X193700D01*
G01D02*
X241980D01*
G01X193700Y2501370D02*
Y2549650D01*
G01X145420Y2501370D02*
X193700D01*
G01D02*
X241980D01*
G01X193700Y3009370D02*
X145200Y3057870D01*
G01X320700Y3136370D02*
X272200Y3184870D01*
G01X320700Y3263370D02*
X272200Y3311870D01*
G01X193700Y3390370D02*
X145200Y3438870D01*
G01X193700Y3517370D02*
X145200Y3565870D01*
G01X320700Y3088090D02*
Y3136370D01*
G01D02*
Y3184650D01*
G01X272420Y3136370D02*
X320700D01*
G01Y3215090D02*
Y3263370D01*
G01D02*
Y3311650D01*
G01X272420Y3263370D02*
X320700D01*
G01X193700Y3009370D02*
Y3057650D01*
G01X145420Y3009370D02*
X193700D01*
G01D02*
X241980D01*
G01X193700Y3469090D02*
Y3517370D01*
G01D02*
Y3565650D01*
G01X145420Y3517370D02*
X193700D01*
G01D02*
X241980D01*
G01X193700Y3342090D02*
Y3390370D01*
G01D02*
Y3438650D01*
G01X145420Y3390370D02*
X193700D01*
G01D02*
X241980D01*
G01X320700Y3644370D02*
X272200Y3692870D01*
G01X320700Y3771370D02*
X272200Y3819870D01*
G01X193700Y3898370D02*
X145200Y3946870D01*
G01X193700Y4025370D02*
X145200Y4073870D01*
G01X193700Y3850090D02*
Y3898370D01*
G01D02*
Y3946650D01*
G01X145420Y3898370D02*
X193700D01*
G01D02*
X241980D01*
G01X320700Y3723090D02*
Y3771370D01*
G01D02*
Y3819650D01*
G01X272420Y3771370D02*
X320700D01*
G01Y3596090D02*
Y3644370D01*
G01D02*
Y3692650D01*
G01X272420Y3644370D02*
X320700D01*
G01X193700Y3977090D02*
Y4025370D01*
G01D02*
Y4073650D01*
G01X145420Y4025370D02*
X193700D01*
G01D02*
X241980D01*
G01X320700Y4152370D02*
X272200Y4200870D01*
G01X320700Y4279370D02*
X272200Y4327870D01*
G01X193700Y4406370D02*
X145200Y4454870D01*
G01X193700Y4533370D02*
X145200Y4581870D01*
G01X193700Y4358090D02*
Y4406370D01*
G01D02*
Y4454650D01*
G01X145420Y4406370D02*
X193700D01*
G01D02*
X241980D01*
G01X320700Y4231090D02*
Y4279370D01*
G01D02*
Y4327650D01*
G01X272420Y4279370D02*
X320700D01*
G01Y4104090D02*
Y4152370D01*
G01D02*
Y4200650D01*
G01X272420Y4152370D02*
X320700D01*
G01X193700Y4485090D02*
Y4533370D01*
G01D02*
Y4581650D01*
G01X145420Y4533370D02*
X193700D01*
G01D02*
X241980D01*
G01X320700Y4660370D02*
X272200Y4708870D01*
G01X320700Y4787370D02*
X272200Y4835870D01*
G01X193700Y4914370D02*
X145200Y4962870D01*
G01X193700Y5041370D02*
X145200Y5089870D01*
G01X320700Y4739090D02*
Y4787370D01*
G01D02*
Y4835650D01*
G01X272420Y4787370D02*
X320700D01*
G01X193700Y4866090D02*
Y4914370D01*
G01D02*
Y4962650D01*
G01X145420Y4914370D02*
X193700D01*
G01D02*
X241980D01*
G01X320700Y4612090D02*
Y4660370D01*
G01D02*
Y4708650D01*
G01X272420Y4660370D02*
X320700D01*
G01X193700Y4993090D02*
Y5041370D01*
G01D02*
Y5089650D01*
G01X145420Y5041370D02*
X193700D01*
G01D02*
X241980D01*
G01X320700Y5168370D02*
X272200Y5216870D01*
G01X320700Y5295370D02*
X272200Y5343870D01*
G01X193700Y5422370D02*
X145200Y5470870D01*
G01X193700Y5549370D02*
X145200Y5597870D01*
G01X320700Y5247090D02*
Y5295370D01*
G01D02*
Y5343650D01*
G01X272420Y5295370D02*
X320700D01*
G01Y5120090D02*
Y5168370D01*
G01D02*
Y5216650D01*
G01X272420Y5168370D02*
X320700D01*
G01D02*
X368980D01*
G01X193700Y5501090D02*
Y5549370D01*
G01D02*
Y5597650D01*
G01X145420Y5549370D02*
X193700D01*
G01D02*
X241980D01*
G01X193700Y5374090D02*
Y5422370D01*
G01D02*
Y5470650D01*
G01X145420Y5422370D02*
X193700D01*
G01D02*
X241980D01*
G01X320700Y5628090D02*
Y5676370D01*
G01D02*
X272200Y5724870D01*
G01X320700Y5803370D02*
X272200Y5851870D01*
G01X193700Y5930370D02*
X145200Y5978870D01*
G01X320700Y5755090D02*
Y5803370D01*
G01D02*
Y5851650D01*
G01X272420Y5803370D02*
X320700D01*
G01Y5676370D02*
Y5724650D01*
G01X272420Y5676370D02*
X320700D01*
G01D02*
X368980D01*
G01X193700Y5882090D02*
Y5930370D01*
G01D02*
Y5978650D01*
G01X145420Y5930370D02*
X193700D01*
G01D02*
X241980D01*
G01X447700Y1358370D02*
X399200Y1406870D01*
G01X447700Y977370D02*
X399200Y1025870D01*
G01X574700Y1104370D02*
X526200Y1152870D01*
G01X574700Y1231370D02*
X526200Y1279870D01*
G01X701700Y977370D02*
X653200Y1025870D01*
G01X701700Y1358370D02*
X653200Y1406870D01*
G01X828700Y1104370D02*
X780200Y1152870D01*
G01X828700Y1231370D02*
X780200Y1279870D01*
G01X701700Y1310090D02*
Y1358370D01*
G01D02*
Y1406650D01*
G01X653420Y1358370D02*
X701700D01*
G01D02*
X749980D01*
G01X828700Y1183090D02*
Y1231370D01*
G01D02*
Y1279650D01*
G01X780420Y1231370D02*
X828700D01*
G01D02*
X876980D01*
G01X828700Y1056090D02*
Y1104370D01*
G01D02*
Y1152650D01*
G01X780420Y1104370D02*
X828700D01*
G01D02*
X876980D01*
G01X447700Y1310090D02*
Y1358370D01*
G01D02*
Y1406650D01*
G01X399420Y1358370D02*
X447700D01*
G01D02*
X495980D01*
G01X701700Y929090D02*
Y977370D01*
G01D02*
Y1025650D01*
G01X653420Y977370D02*
X701700D01*
G01D02*
X749980D01*
G01X574700Y1183090D02*
Y1231370D01*
G01D02*
Y1279650D01*
G01X526420Y1231370D02*
X574700D01*
G01D02*
X622980D01*
G01X574700Y1056090D02*
Y1104370D01*
G01D02*
Y1152650D01*
G01X526420Y1104370D02*
X574700D01*
G01D02*
X622980D01*
G01X447700Y929090D02*
Y977370D01*
G01D02*
Y1025650D01*
G01X399420Y977370D02*
X447700D01*
G01D02*
X495980D01*
G01X828700Y1612370D02*
X780200Y1660870D01*
G01X447700Y1485370D02*
X399200Y1533870D01*
G01X701700Y1485370D02*
X653200Y1533870D01*
G01X574700Y1612370D02*
X526200Y1660870D01*
G01X574700Y1739370D02*
X526200Y1787870D01*
G01X447700Y1866370D02*
X399200Y1914870D01*
G01X701700Y1866370D02*
X653200Y1914870D01*
G01X447700Y1818090D02*
Y1866370D01*
G01D02*
Y1914650D01*
G01X399420Y1866370D02*
X447700D01*
G01X701700Y1437090D02*
Y1485370D01*
G01D02*
Y1533650D01*
G01X653420Y1485370D02*
X701700D01*
G01D02*
X749980D01*
G01X828700Y1564090D02*
Y1612370D01*
G01D02*
Y1660650D01*
G01X780420Y1612370D02*
X828700D01*
G01X701700Y1818090D02*
Y1866370D01*
G01D02*
Y1914650D01*
G01X653420Y1866370D02*
X701700D01*
G01D02*
X749980D01*
G01X574700Y1691090D02*
Y1739370D01*
G01D02*
Y1787650D01*
G01X526420Y1739370D02*
X574700D01*
G01D02*
X622980D01*
G01X574700Y1564090D02*
Y1612370D01*
G01D02*
Y1660650D01*
G01X526420Y1612370D02*
X574700D01*
G01D02*
X622980D01*
G01X447700Y1437090D02*
Y1485370D01*
G01D02*
Y1533650D01*
G01X399420Y1485370D02*
X447700D01*
G01D02*
X495980D01*
G01X828700Y1993370D02*
X780200Y2041870D01*
G01X828700Y2374370D02*
X780200Y2422870D01*
G01X447700Y1993370D02*
X399200Y2041870D01*
G01X574700Y2120370D02*
X526200Y2168870D01*
G01X701700Y2247370D02*
X653200Y2295870D01*
G01X447700Y2374370D02*
X399200Y2422870D01*
G01X828700Y2326090D02*
Y2374370D01*
G01D02*
Y2422650D01*
G01X780420Y2374370D02*
X828700D01*
G01Y1945090D02*
Y1993370D01*
G01D02*
Y2041650D01*
G01X780420Y1993370D02*
X828700D01*
G01X701700Y2199090D02*
Y2247370D01*
G01D02*
Y2295650D01*
G01X653420Y2247370D02*
X701700D01*
G01D02*
X749980D01*
G01X574700Y2120370D02*
Y2168650D01*
G01X526420Y2120370D02*
X574700D01*
G01D02*
X622980D01*
G01X447700Y2374370D02*
Y2422650D01*
G01X399420Y2374370D02*
X447700D01*
G01Y1945090D02*
Y1993370D01*
G01D02*
Y2041650D01*
G01X399420Y1993370D02*
X447700D01*
G01Y2453090D02*
Y2501370D01*
G01X828700Y2755370D02*
X780200Y2803870D01*
G01X447700Y2501370D02*
X399200Y2549870D01*
G01X574700Y2501370D02*
X526200Y2549870D01*
G01X701700Y2628370D02*
X653200Y2676870D01*
G01X447700Y2882370D02*
X399200Y2930870D01*
G01X574700Y2882370D02*
X526200Y2930870D01*
G01X828700Y2707090D02*
Y2755370D01*
G01D02*
Y2803650D01*
G01X780420Y2755370D02*
X828700D01*
G01X701700Y2580090D02*
Y2628370D01*
G01D02*
Y2676650D01*
G01X653420Y2628370D02*
X701700D01*
G01D02*
X749980D01*
G01X574700Y2882370D02*
Y2930650D01*
G01X526420Y2882370D02*
X574700D01*
G01D02*
X622980D01*
G01X574700Y2501370D02*
Y2549650D01*
G01X526420Y2501370D02*
X574700D01*
G01D02*
X622980D01*
G01X447700Y2882370D02*
Y2930650D01*
G01X399420Y2882370D02*
X447700D01*
G01D02*
X495980D01*
G01X447700Y2501370D02*
Y2549650D01*
G01X399420Y2501370D02*
X447700D01*
G01D02*
X495980D01*
G01X701700Y2961090D02*
Y3009370D01*
G01X447700Y2961090D02*
Y3009370D01*
G01X828700Y3136370D02*
X780200Y3184870D01*
G01X828700Y3517370D02*
X780200Y3565870D01*
G01X447700Y3009370D02*
X399200Y3057870D01*
G01X701700Y3009370D02*
X653200Y3057870D01*
G01X574700Y3263370D02*
X526200Y3311870D01*
G01X447700Y3390370D02*
X399200Y3438870D01*
G01X701700Y3390370D02*
X653200Y3438870D01*
G01X447700Y3517370D02*
X399200Y3565870D01*
G01X701700Y3342090D02*
Y3390370D01*
G01D02*
Y3438650D01*
G01X653420Y3390370D02*
X701700D01*
G01D02*
X749980D01*
G01X828700Y3469090D02*
Y3517370D01*
G01D02*
Y3565650D01*
G01X780420Y3517370D02*
X828700D01*
G01Y3088090D02*
Y3136370D01*
G01D02*
Y3184650D01*
G01X780420Y3136370D02*
X828700D01*
G01X701700Y3009370D02*
Y3057650D01*
G01X653420Y3009370D02*
X701700D01*
G01D02*
X749980D01*
G01X574700Y3263370D02*
Y3311650D01*
G01X526420Y3263370D02*
X574700D01*
G01D02*
X622980D01*
G01X447700Y3469090D02*
Y3517370D01*
G01D02*
Y3565650D01*
G01X399420Y3517370D02*
X447700D01*
G01Y3390370D02*
Y3438650D01*
G01X399420Y3390370D02*
X447700D01*
G01Y3009370D02*
Y3057650D01*
G01X399420Y3009370D02*
X447700D01*
G01X828700Y3898370D02*
X780200Y3946870D01*
G01X574700Y3644370D02*
X526200Y3692870D01*
G01X701700Y3771370D02*
X653200Y3819870D01*
G01X447700Y3898370D02*
X399200Y3946870D01*
G01X447700Y4025370D02*
X399200Y4073870D01*
G01X574700Y4025370D02*
X526200Y4073870D01*
G01X574700Y4025370D02*
Y4073650D01*
G01X526420Y4025370D02*
X574700D01*
G01D02*
X622980D01*
G01X828700Y3850090D02*
Y3898370D01*
G01D02*
Y3946650D01*
G01X780420Y3898370D02*
X828700D01*
G01X701700Y3723090D02*
Y3771370D01*
G01D02*
Y3819650D01*
G01X653420Y3771370D02*
X701700D01*
G01D02*
X749980D01*
G01X574700Y3644370D02*
Y3692650D01*
G01X526420Y3644370D02*
X574700D01*
G01D02*
X622980D01*
G01X447700Y3977090D02*
Y4025370D01*
G01D02*
Y4073650D01*
G01X399420Y4025370D02*
X447700D01*
G01D02*
X495980D01*
G01X447700Y3898370D02*
Y3946650D01*
G01X399420Y3898370D02*
X447700D01*
G01X828700Y4279370D02*
X780200Y4327870D01*
G01X701700Y4152370D02*
X653200Y4200870D01*
G01X447700Y4406370D02*
X399200Y4454870D01*
G01X574700Y4406370D02*
X526200Y4454870D01*
G01X447700Y4533370D02*
X399200Y4581870D01*
G01X701700Y4533370D02*
X653200Y4581870D01*
G01X701700Y4104090D02*
Y4152370D01*
G01D02*
Y4200650D01*
G01X653420Y4152370D02*
X701700D01*
G01D02*
X749980D01*
G01X828700Y4231090D02*
Y4279370D01*
G01D02*
Y4327650D01*
G01X780420Y4279370D02*
X828700D01*
G01X701700Y4485090D02*
Y4533370D01*
G01D02*
Y4581650D01*
G01X653420Y4533370D02*
X701700D01*
G01D02*
X749980D01*
G01X574700Y4406370D02*
Y4454650D01*
G01X526420Y4406370D02*
X574700D01*
G01D02*
X622980D01*
G01X447700Y4485090D02*
Y4533370D01*
G01D02*
Y4581650D01*
G01X399420Y4533370D02*
X447700D01*
G01D02*
X495980D01*
G01X447700Y4406370D02*
Y4454650D01*
G01X399420Y4406370D02*
X447700D01*
G01D02*
X495980D01*
G01X828700Y4660370D02*
X780200Y4708870D01*
G01X828700Y5041370D02*
X780200Y5089870D01*
G01X447700Y4914370D02*
X399200Y4962870D01*
G01X701700Y4914370D02*
X653200Y4962870D01*
G01X447700Y5041370D02*
X399200Y5089870D01*
G01X447700Y4993090D02*
Y5041370D01*
G01D02*
Y5089650D01*
G01X399420Y5041370D02*
X447700D01*
G01D02*
X495980D01*
G01X701700Y4866090D02*
Y4914370D01*
G01D02*
Y4962650D01*
G01X653420Y4914370D02*
X701700D01*
G01D02*
X749980D01*
G01X828700Y4612090D02*
Y4660370D01*
G01D02*
Y4708650D01*
G01X780420Y4660370D02*
X828700D01*
G01Y4993090D02*
Y5041370D01*
G01D02*
Y5089650D01*
G01X780420Y5041370D02*
X828700D01*
G01X447700Y4914370D02*
Y4962650D01*
G01X399420Y4914370D02*
X447700D01*
G01D02*
X495980D01*
G01X574700Y5422370D02*
X526200Y5470870D01*
G01X447700Y5549370D02*
X399200Y5597870D01*
G01X447700Y5295370D02*
X399200Y5343870D01*
G01X828700Y5422370D02*
X780200Y5470870D01*
G01X701700Y5295370D02*
X653200Y5343870D01*
G01X447700Y5422370D02*
X399200Y5470870D01*
G01X574700Y5549370D02*
X526200Y5597870D01*
G01X828700Y5374090D02*
Y5422370D01*
G01D02*
Y5470650D01*
G01X780420Y5422370D02*
X828700D01*
G01X701700Y5247090D02*
Y5295370D01*
G01D02*
Y5343650D01*
G01X653420Y5295370D02*
X701700D01*
G01D02*
X749980D01*
G01X574700Y5549370D02*
Y5597650D01*
G01X526420Y5549370D02*
X574700D01*
G01D02*
X622980D01*
G01X447700Y5422370D02*
Y5470650D01*
G01X399420Y5422370D02*
X447700D01*
G01X701700Y5628090D02*
Y5676370D01*
G01X574700Y5930370D02*
X526200Y5978870D01*
G01X574700Y5676370D02*
X526200Y5724870D01*
G01X447700Y5803370D02*
X399200Y5851870D01*
G01X447700Y5930370D02*
X399200Y5978870D01*
G01X574700Y5803370D02*
X526200Y5851870D01*
G01X701700Y5676370D02*
X653200Y5724870D01*
G01X701700Y5930370D02*
X653200Y5978870D01*
G01X828700Y5803370D02*
X780200Y5851870D01*
G01X447700Y5676370D02*
X399200Y5724870D01*
G01X701700Y5882090D02*
Y5930370D01*
G01D02*
Y5978650D01*
G01X653420Y5930370D02*
X701700D01*
G01D02*
X749980D01*
G01X447700D02*
Y5978650D01*
G01X399420Y5930370D02*
X447700D01*
G01X828700Y5755090D02*
Y5803370D01*
G01D02*
Y5851650D01*
G01X780420Y5803370D02*
X828700D01*
G01D02*
X876980D01*
G01X701700Y5676370D02*
Y5724650D01*
G01X653420Y5676370D02*
X701700D01*
G01D02*
X749980D01*
G01X574700Y5803370D02*
Y5851650D01*
G01X526420Y5803370D02*
X574700D01*
G01D02*
X622980D01*
G01X447700Y5676370D02*
Y5724650D01*
G01X399420Y5676370D02*
X447700D01*
G01X1336700Y1104370D02*
X1288200Y1152870D01*
G01X1082700Y1231370D02*
X1034200Y1279870D01*
G01X1336700Y1231370D02*
X1288200Y1279870D01*
G01X955700Y1358370D02*
X907200Y1406870D01*
G01X1209700Y1358370D02*
X1161200Y1406870D01*
G01X955700Y977370D02*
X907200Y1025870D01*
G01X1209700Y977370D02*
X1161200Y1025870D01*
G01X1082700Y1104370D02*
X1034200Y1152870D01*
G01X1082700Y1183090D02*
Y1231370D01*
G01D02*
Y1279650D01*
G01X1034420Y1231370D02*
X1082700D01*
G01D02*
X1130980D01*
G01X1209700Y1310090D02*
Y1358370D01*
G01D02*
Y1406650D01*
G01X1161420Y1358370D02*
X1209700D01*
G01D02*
X1257980D01*
G01X1336700Y1056090D02*
Y1104370D01*
G01D02*
Y1152650D01*
G01X1288420Y1104370D02*
X1336700D01*
G01D02*
X1384980D01*
G01X1209700Y929090D02*
Y977370D01*
G01D02*
Y1025650D01*
G01X1161420Y977370D02*
X1209700D01*
G01D02*
X1257980D01*
G01X1336700Y1183090D02*
Y1231370D01*
G01D02*
Y1279650D01*
G01X1288420Y1231370D02*
X1336700D01*
G01D02*
X1384980D01*
G01X955700Y929090D02*
Y977370D01*
G01D02*
Y1025650D01*
G01X907420Y977370D02*
X955700D01*
G01D02*
X1003980D01*
G01X1082700Y1056090D02*
Y1104370D01*
G01D02*
Y1152650D01*
G01X1034420Y1104370D02*
X1082700D01*
G01D02*
X1130980D01*
G01X955700Y1310090D02*
Y1358370D01*
G01D02*
Y1406650D01*
G01X907420Y1358370D02*
X955700D01*
G01D02*
X1003980D01*
G01X955700Y1485370D02*
X907200Y1533870D01*
G01X1209700Y1485370D02*
X1161200Y1533870D01*
G01X1082700Y1612370D02*
X1034200Y1660870D01*
G01X1336700Y1612370D02*
X1288200Y1660870D01*
G01X955700Y1866370D02*
X907200Y1914870D01*
G01X1209700Y1866370D02*
X1161200Y1914870D01*
G01X1336700Y1564090D02*
Y1612370D01*
G01D02*
Y1660650D01*
G01X1288420Y1612370D02*
X1336700D01*
G01D02*
X1384980D01*
G01X1209700Y1818090D02*
Y1866370D01*
G01D02*
Y1914650D01*
G01X1161420Y1866370D02*
X1209700D01*
G01D02*
X1257980D01*
G01X1209700Y1437090D02*
Y1485370D01*
G01D02*
Y1533650D01*
G01X1161420Y1485370D02*
X1209700D01*
G01D02*
X1257980D01*
G01X1082700Y1564090D02*
Y1612370D01*
G01D02*
Y1660650D01*
G01X1034420Y1612370D02*
X1082700D01*
G01D02*
X1130980D01*
G01X955700Y1866370D02*
Y1914650D01*
G01X907420Y1866370D02*
X955700D01*
G01Y1437090D02*
Y1485370D01*
G01D02*
Y1533650D01*
G01X907420Y1485370D02*
X955700D01*
G01D02*
X1003980D01*
G01X1082700Y1993370D02*
X1034200Y2041870D01*
G01X1336700Y1993370D02*
X1288200Y2041870D01*
G01X955700Y2247370D02*
X907200Y2295870D01*
G01X1209700Y2247370D02*
X1161200Y2295870D01*
G01X1082700Y2374370D02*
X1034200Y2422870D01*
G01X1336700Y2374370D02*
X1288200Y2422870D01*
G01X1336700Y1945090D02*
Y1993370D01*
G01D02*
Y2041650D01*
G01X1288420Y1993370D02*
X1336700D01*
G01D02*
X1384980D01*
G01X1336700Y2326090D02*
Y2374370D01*
G01D02*
Y2422650D01*
G01X1288420Y2374370D02*
X1336700D01*
G01D02*
X1384980D01*
G01X1082700Y1993370D02*
Y2041650D01*
G01X1034420Y1993370D02*
X1082700D01*
G01D02*
X1130980D01*
G01X1209700Y2199090D02*
Y2247370D01*
G01D02*
Y2295650D01*
G01X1161420Y2247370D02*
X1209700D01*
G01D02*
X1257980D01*
G01X1082700Y2374370D02*
Y2422650D01*
G01X1034420Y2374370D02*
X1082700D01*
G01D02*
X1130980D01*
G01X955700Y2247370D02*
Y2295650D01*
G01X907420Y2247370D02*
X955700D01*
G01Y2628370D02*
X907200Y2676870D01*
G01X1209700Y2628370D02*
X1161200Y2676870D01*
G01X1082700Y2755370D02*
X1034200Y2803870D01*
G01X1336700Y2755370D02*
X1288200Y2803870D01*
G01X1336700Y2707090D02*
Y2755370D01*
G01D02*
Y2803650D01*
G01X1288420Y2755370D02*
X1336700D01*
G01D02*
X1384980D01*
G01X1209700Y2580090D02*
Y2628370D01*
G01D02*
Y2676650D01*
G01X1161420Y2628370D02*
X1209700D01*
G01D02*
X1257980D01*
G01X1082700Y2755370D02*
Y2803650D01*
G01X1034420Y2755370D02*
X1082700D01*
G01D02*
X1130980D01*
G01X955700Y2628370D02*
Y2676650D01*
G01X907420Y2628370D02*
X955700D01*
G01X1209700Y2961090D02*
Y3009370D01*
G01X955700D02*
X907200Y3057870D01*
G01X1209700Y3009370D02*
X1161200Y3057870D01*
G01X1082700Y3136370D02*
X1034200Y3184870D01*
G01X1336700Y3136370D02*
X1288200Y3184870D01*
G01X955700Y3390370D02*
X907200Y3438870D01*
G01X1209700Y3390370D02*
X1161200Y3438870D01*
G01X1082700Y3517370D02*
X1034200Y3565870D01*
G01X1336700Y3517370D02*
X1288200Y3565870D01*
G01X955700Y3009370D02*
Y3057650D01*
G01X907420Y3009370D02*
X955700D01*
G01Y3390370D02*
Y3438650D01*
G01X907420Y3390370D02*
X955700D01*
G01X1336700Y3469090D02*
Y3517370D01*
G01D02*
Y3565650D01*
G01X1288420Y3517370D02*
X1336700D01*
G01D02*
X1384980D01*
G01X1336700Y3088090D02*
Y3136370D01*
G01D02*
Y3184650D01*
G01X1288420Y3136370D02*
X1336700D01*
G01D02*
X1384980D01*
G01X1209700Y3342090D02*
Y3390370D01*
G01D02*
Y3438650D01*
G01X1161420Y3390370D02*
X1209700D01*
G01D02*
X1257980D01*
G01X1209700Y3009370D02*
Y3057650D01*
G01X1161420Y3009370D02*
X1209700D01*
G01D02*
X1257980D01*
G01X1082700Y3517370D02*
Y3565650D01*
G01X1034420Y3517370D02*
X1082700D01*
G01D02*
X1130980D01*
G01X1082700Y3136370D02*
Y3184650D01*
G01X1034420Y3136370D02*
X1082700D01*
G01D02*
X1130980D01*
G01X955700Y3771370D02*
X907200Y3819870D01*
G01X1209700Y3771370D02*
X1161200Y3819870D01*
G01X1082700Y3898370D02*
X1034200Y3946870D01*
G01X1336700Y3898370D02*
X1288200Y3946870D01*
G01X1336700Y3850090D02*
Y3898370D01*
G01D02*
Y3946650D01*
G01X1288420Y3898370D02*
X1336700D01*
G01D02*
X1384980D01*
G01X955700Y3771370D02*
Y3819650D01*
G01X907420Y3771370D02*
X955700D01*
G01X1209700Y3723090D02*
Y3771370D01*
G01D02*
Y3819650D01*
G01X1161420Y3771370D02*
X1209700D01*
G01D02*
X1257980D01*
G01X1082700Y3898370D02*
Y3946650D01*
G01X1034420Y3898370D02*
X1082700D01*
G01D02*
X1130980D01*
G01X955700Y4152370D02*
X907200Y4200870D01*
G01X1209700Y4152370D02*
X1161200Y4200870D01*
G01X1082700Y4279370D02*
X1034200Y4327870D01*
G01X1336700Y4279370D02*
X1288200Y4327870D01*
G01X955700Y4533370D02*
X907200Y4581870D01*
G01X1209700Y4533370D02*
X1161200Y4581870D01*
G01X955700Y4152370D02*
Y4200650D01*
G01X907420Y4152370D02*
X955700D01*
G01X1209700Y4104090D02*
Y4152370D01*
G01D02*
Y4200650D01*
G01X1161420Y4152370D02*
X1209700D01*
G01D02*
X1257980D01*
G01X1336700Y4231090D02*
Y4279370D01*
G01D02*
Y4327650D01*
G01X1288420Y4279370D02*
X1336700D01*
G01D02*
X1384980D01*
G01X1209700Y4485090D02*
Y4533370D01*
G01D02*
Y4581650D01*
G01X1161420Y4533370D02*
X1209700D01*
G01D02*
X1257980D01*
G01X1082700Y4279370D02*
Y4327650D01*
G01X1034420Y4279370D02*
X1082700D01*
G01D02*
X1130980D01*
G01X955700Y4533370D02*
Y4581650D01*
G01X907420Y4533370D02*
X955700D01*
G01X1082700Y4660370D02*
X1034200Y4708870D01*
G01X1336700Y4660370D02*
X1288200Y4708870D01*
G01X955700Y4914370D02*
X907200Y4962870D01*
G01X1209700Y4914370D02*
X1161200Y4962870D01*
G01X1082700Y5041370D02*
X1034200Y5089870D01*
G01X1336700Y5041370D02*
X1288200Y5089870D01*
G01X1209700Y4866090D02*
Y4914370D01*
G01D02*
Y4962650D01*
G01X1161420Y4914370D02*
X1209700D01*
G01D02*
X1257980D01*
G01X1336700Y4993090D02*
Y5041370D01*
G01D02*
Y5089650D01*
G01X1288420Y5041370D02*
X1336700D01*
G01D02*
X1384980D01*
G01X1336700Y4612090D02*
Y4660370D01*
G01D02*
Y4708650D01*
G01X1288420Y4660370D02*
X1336700D01*
G01D02*
X1384980D01*
G01X1082700Y5041370D02*
Y5089650D01*
G01X1034420Y5041370D02*
X1082700D01*
G01D02*
X1130980D01*
G01X1082700Y4660370D02*
Y4708650D01*
G01X1034420Y4660370D02*
X1082700D01*
G01D02*
X1130980D01*
G01X955700Y4914370D02*
Y4962650D01*
G01X907420Y4914370D02*
X955700D01*
G01Y5295370D02*
X907200Y5343870D01*
G01X1209700Y5295370D02*
X1161200Y5343870D01*
G01X1082700Y5422370D02*
X1034200Y5470870D01*
G01X1336700Y5422370D02*
X1288200Y5470870D01*
G01X1336700Y5374090D02*
Y5422370D01*
G01D02*
Y5470650D01*
G01X1288420Y5422370D02*
X1336700D01*
G01D02*
X1384980D01*
G01X1209700Y5247090D02*
Y5295370D01*
G01D02*
Y5343650D01*
G01X1161420Y5295370D02*
X1209700D01*
G01D02*
X1257980D01*
G01X1082700Y5422370D02*
Y5470650D01*
G01X1034420Y5422370D02*
X1082700D01*
G01D02*
X1130980D01*
G01X955700Y5295370D02*
Y5343650D01*
G01X907420Y5295370D02*
X955700D01*
G01X1209700Y5628090D02*
Y5676370D01*
G01D02*
X1161200Y5724870D01*
G01X1336700Y5803370D02*
X1288200Y5851870D01*
G01X955700Y5676370D02*
X907200Y5724870D01*
G01X955700Y5930370D02*
X907200Y5978870D01*
G01X1082700Y5803370D02*
X1034200Y5851870D01*
G01X1209700Y5930370D02*
X1161200Y5978870D01*
G01X1336700Y5755090D02*
Y5803370D01*
G01D02*
Y5851650D01*
G01X1288420Y5803370D02*
X1336700D01*
G01D02*
X1384980D01*
G01X955700Y5676370D02*
Y5724650D01*
G01X907420Y5676370D02*
X955700D01*
G01X1209700Y5882090D02*
Y5930370D01*
G01D02*
Y5978650D01*
G01X1161420Y5930370D02*
X1209700D01*
G01D02*
X1257980D01*
G01X1209700Y5676370D02*
Y5724650D01*
G01X1161420Y5676370D02*
X1209700D01*
G01D02*
X1257980D01*
G01X1082700Y5803370D02*
Y5851650D01*
G01X1034420Y5803370D02*
X1082700D01*
G01D02*
X1130980D01*
G01X955700Y5882090D02*
Y5930370D01*
G01D02*
Y5978650D01*
G01X907420Y5930370D02*
X955700D01*
G01D02*
X1003980D01*
G01X1912600Y254000D02*
X2032000D01*
G01X1912600Y762000D02*
X2032000D01*
G01Y134600D02*
Y254000D01*
G01D02*
Y373400D01*
G01Y254000D02*
X2151400D01*
G01X2420600D02*
X2540000D01*
G01X2032000Y642600D02*
Y762000D01*
G01D02*
Y881400D01*
G01Y762000D02*
X2151400D01*
G01X2420600D02*
X2540000D01*
G01Y134600D02*
Y254000D01*
G01D02*
Y373400D01*
G01Y254000D02*
X2659400D01*
G01X2928600D02*
X3048000D01*
G01X2540000Y642600D02*
Y762000D01*
G01D02*
Y881400D01*
G01Y762000D02*
X2659400D01*
G01X2928600D02*
X3048000D01*
G01Y134600D02*
Y254000D01*
G01D02*
Y373400D01*
G01Y254000D02*
X3167400D01*
G01X3436600D02*
X3556000D01*
G01X3436600Y762000D02*
X3556000D01*
G01X3048000Y642600D02*
Y762000D01*
G01D02*
Y881400D01*
G01Y762000D02*
X3167400D01*
G01X3175000Y2820650D02*
Y2921000D01*
G01D02*
Y3021350D01*
G01X3074650Y2921000D02*
X3175000D01*
G01D02*
X3275350D01*
G01X3429000Y2566650D02*
Y2667000D01*
G01D02*
Y2767350D01*
G01X3328650Y2667000D02*
X3429000D01*
G01D02*
X3529350D01*
G01X3429000Y3328650D02*
Y3429000D01*
G01D02*
Y3529350D01*
G01X3328650Y3429000D02*
X3429000D01*
G01D02*
X3529350D01*
G01X3175000Y3582650D02*
Y3683000D01*
G01D02*
Y3783350D01*
G01X3074650Y3683000D02*
X3175000D01*
G01D02*
X3275350D01*
G01X3429000Y4090650D02*
Y4191000D01*
G01D02*
Y4291350D01*
G01X3328650Y4191000D02*
X3429000D01*
G01D02*
X3529350D01*
G01X3175000Y4344650D02*
Y4445000D01*
G01D02*
Y4545350D01*
G01X3074650Y4445000D02*
X3175000D01*
G01D02*
X3275350D01*
G01X3429000Y4852650D02*
Y4953000D01*
G01D02*
Y5053350D01*
G01X3328650Y4953000D02*
X3429000D01*
G01D02*
X3529350D01*
G01X3175000Y5106650D02*
Y5207000D01*
G01X3429000Y5614650D02*
Y5715000D01*
G01X3175000Y5207000D02*
Y5307350D01*
G01X3074650Y5207000D02*
X3175000D01*
G01D02*
X3275350D01*
G01X3429000Y5715000D02*
Y5815350D01*
G01X3328650Y5715000D02*
X3429000D01*
G01D02*
X3529350D01*
G01X3944600Y254000D02*
X4064000D01*
G01X3556000Y134600D02*
Y254000D01*
G01D02*
Y373400D01*
G01Y254000D02*
X3675400D01*
G01X3556000Y642600D02*
Y762000D01*
G01D02*
Y881400D01*
G01Y762000D02*
X3675400D01*
G01X3944600D02*
X4064000D01*
G01Y134600D02*
Y254000D01*
G01D02*
Y373400D01*
G01Y254000D02*
X4183400D01*
G01X4572000Y134600D02*
Y254000D01*
G01D02*
Y373400D01*
G01X4452600Y254000D02*
X4572000D01*
G01D02*
X4691400D01*
G01X4064000Y642600D02*
Y762000D01*
G01D02*
Y881400D01*
G01Y762000D02*
X4183400D01*
G01X4572000Y642600D02*
Y762000D01*
G01D02*
Y881400D01*
G01X4452600Y762000D02*
X4572000D01*
G01D02*
X4691400D01*
G01X5080000Y134600D02*
Y254000D01*
G01D02*
Y373400D01*
G01X4960600Y254000D02*
X5080000D01*
G01D02*
X5199400D01*
G01X5080000Y642600D02*
Y762000D01*
G01D02*
Y881400D01*
G01X4960600Y762000D02*
X5080000D01*
G01D02*
X5199400D01*
G01X5016500Y2820650D02*
Y2921000D01*
G01D02*
Y3021350D01*
G01X4916150Y2921000D02*
X5016500D01*
G01D02*
X5116850D01*
G01X5016500Y3582650D02*
Y3683000D01*
G01D02*
Y3783350D01*
G01X4916150Y3683000D02*
X5016500D01*
G01D02*
X5116850D01*
G01X5016500Y4344650D02*
Y4445000D01*
G01D02*
Y4545350D01*
G01X4916150Y4445000D02*
X5016500D01*
G01D02*
X5116850D01*
G01X5016500Y5106650D02*
Y5207000D01*
G01D02*
Y5307350D01*
G01X4916150Y5207000D02*
X5016500D01*
G01D02*
X5116850D01*
G01X5588000Y134600D02*
Y254000D01*
G01D02*
Y373400D01*
G01X5468600Y254000D02*
X5588000D01*
G01D02*
X5707400D01*
G01X5588000Y642600D02*
Y762000D01*
G01D02*
Y881400D01*
G01X5468600Y762000D02*
X5588000D01*
G01D02*
X5707400D01*
G01X5270500Y2566650D02*
Y2667000D01*
G01D02*
Y2767350D01*
G01X5170150Y2667000D02*
X5270500D01*
G01D02*
X5370850D01*
G01X5270500Y3328650D02*
Y3429000D01*
G01D02*
Y3529350D01*
G01X5170150Y3429000D02*
X5270500D01*
G01D02*
X5370850D01*
G01X5270500Y4090650D02*
Y4191000D01*
G01D02*
Y4291350D01*
G01X5170150Y4191000D02*
X5270500D01*
G01D02*
X5370850D01*
G01X5270500Y4852650D02*
Y4953000D01*
G01D02*
Y5053350D01*
G01X5170150Y4953000D02*
X5270500D01*
G01D02*
X5370850D01*
G01X5270500Y5614650D02*
Y5715000D01*
G01D02*
Y5815350D01*
G01X5170150Y5715000D02*
X5270500D01*
G01D02*
X5370850D01*
G01X6096000Y134600D02*
Y254000D01*
G01D02*
Y373400D01*
G01X5976600Y254000D02*
X6096000D01*
G01D02*
X6215400D01*
G01X6096000Y642600D02*
Y762000D01*
G01D02*
Y881400D01*
G01X5976600Y762000D02*
X6096000D01*
G01D02*
X6215400D01*
G01X6604000Y134600D02*
Y254000D01*
G01D02*
Y373400D01*
G01X6484600Y254000D02*
X6604000D01*
G01D02*
X6723400D01*
G01X6604000Y642600D02*
Y762000D01*
G01D02*
Y881400D01*
G01X6484600Y762000D02*
X6604000D01*
G01D02*
X6723400D01*
G01X7112000Y134600D02*
Y254000D01*
G01D02*
Y373400D01*
G01X6992600Y254000D02*
X7112000D01*
G01D02*
X7231400D01*
G01X7112000Y642600D02*
Y762000D01*
G01D02*
Y881400D01*
G01X6992600Y762000D02*
X7112000D01*
G01D02*
X7231400D01*
G01X6858000Y2820650D02*
Y2921000D01*
G01D02*
Y3021350D01*
G01X6757650Y2921000D02*
X6858000D01*
G01D02*
X6958350D01*
G01X7112000Y2566650D02*
Y2667000D01*
G01D02*
Y2767350D01*
G01X7011650Y2667000D02*
X7112000D01*
G01D02*
X7212350D01*
G01X7112000Y3328650D02*
Y3429000D01*
G01D02*
Y3529350D01*
G01X7011650Y3429000D02*
X7112000D01*
G01D02*
X7212350D01*
G01X6858000Y3582650D02*
Y3683000D01*
G01D02*
Y3783350D01*
G01X6757650Y3683000D02*
X6858000D01*
G01D02*
X6958350D01*
G01X6858000Y4344650D02*
Y4445000D01*
G01D02*
Y4545350D01*
G01X6757650Y4445000D02*
X6858000D01*
G01D02*
X6958350D01*
G01X7112000Y4090650D02*
Y4191000D01*
G01D02*
Y4291350D01*
G01X7011650Y4191000D02*
X7112000D01*
G01D02*
X7212350D01*
G01X7112000Y4852650D02*
Y4953000D01*
G01D02*
Y5053350D01*
G01X7011650Y4953000D02*
X7112000D01*
G01D02*
X7212350D01*
G01X6858000Y5106650D02*
Y5207000D01*
G01X7112000Y5614650D02*
Y5715000D01*
G01X6858000Y5207000D02*
Y5307350D01*
G01X6757650Y5207000D02*
X6858000D01*
G01D02*
X6958350D01*
G01X7112000Y5715000D02*
Y5815350D01*
G01X7011650Y5715000D02*
X7112000D01*
G01D02*
X7212350D01*
G01X7620000Y134600D02*
Y254000D01*
G01D02*
Y373400D01*
G01X7500600Y254000D02*
X7620000D01*
G01D02*
X7739400D01*
G01X7620000Y642600D02*
Y762000D01*
G01D02*
Y881400D01*
G01X7500600Y762000D02*
X7620000D01*
G01D02*
X7739400D01*
G01X8128000Y134600D02*
Y254000D01*
G01D02*
Y373400D01*
G01X8008600Y254000D02*
X8128000D01*
G01D02*
X8247400D01*
G01X8128000Y642600D02*
Y762000D01*
G01D02*
Y881400D01*
G01X8008600Y762000D02*
X8128000D01*
G01D02*
X8247400D01*
G01X8636000Y134600D02*
Y254000D01*
G01D02*
Y373400D01*
G01X8516600Y254000D02*
X8636000D01*
G01D02*
X8755400D01*
G01X8636000Y642600D02*
Y762000D01*
G01D02*
Y881400D01*
G01X8516600Y762000D02*
X8636000D01*
G01D02*
X8755400D01*
G01X8636000Y2820650D02*
Y2921000D01*
G01D02*
Y3021350D01*
G01X8535650Y2921000D02*
X8636000D01*
G01D02*
X8736350D01*
G01X8789650Y2667000D02*
X8890000D01*
G01X8789650Y3429000D02*
X8890000D01*
G01X8636000Y3582650D02*
Y3683000D01*
G01D02*
Y3783350D01*
G01X8535650Y3683000D02*
X8636000D01*
G01D02*
X8736350D01*
G01X8636000Y4344650D02*
Y4445000D01*
G01D02*
Y4545350D01*
G01X8535650Y4445000D02*
X8636000D01*
G01D02*
X8736350D01*
G01X8789650Y4191000D02*
X8890000D01*
G01X8789650Y4953000D02*
X8890000D01*
G01X8636000Y5106650D02*
Y5207000D01*
G01D02*
Y5307350D01*
G01X8535650Y5207000D02*
X8636000D01*
G01D02*
X8736350D01*
G01X8789650Y5715000D02*
X8890000D01*
G01X9144000Y134600D02*
Y254000D01*
G01D02*
Y373400D01*
G01X9024600Y254000D02*
X9144000D01*
G01D02*
X9263400D01*
G01X9144000Y642600D02*
Y762000D01*
G01D02*
Y881400D01*
G01X9024600Y762000D02*
X9144000D01*
G01D02*
X9263400D01*
G01X8890000Y2566650D02*
Y2667000D01*
G01D02*
Y2767350D01*
G01Y2667000D02*
X8990350D01*
G01X8890000Y3328650D02*
Y3429000D01*
G01D02*
Y3529350D01*
G01Y3429000D02*
X8990350D01*
G01X8890000Y4090650D02*
Y4191000D01*
G01D02*
Y4291350D01*
G01Y4191000D02*
X8990350D01*
G01X8890000Y4852650D02*
Y4953000D01*
G01D02*
Y5053350D01*
G01Y4953000D02*
X8990350D01*
G01X8890000Y5614650D02*
Y5715000D01*
G01D02*
Y5815350D01*
G01Y5715000D02*
X8990350D01*
G01X9652000Y134600D02*
Y254000D01*
G01D02*
Y373400D01*
G01X9532600Y254000D02*
X9652000D01*
G01D02*
X9771400D01*
G01X9652000Y642600D02*
Y762000D01*
G01D02*
Y881400D01*
G01X9532600Y762000D02*
X9652000D01*
G01D02*
X9771400D01*
G01X9880600Y2743200D02*
X9829800Y2794000D01*
Y3049650D01*
X9678650Y3200800D01*
X9677400D01*
G01X9525000D02*
X9677400D01*
G01X9372600D02*
X9525000D01*
G01X10160000Y134600D02*
Y254000D01*
G01D02*
Y373400D01*
G01X10040600Y254000D02*
X10160000D01*
G01D02*
X10279400D01*
G01X10160000Y642600D02*
Y762000D01*
G01D02*
Y881400D01*
G01X10040600Y762000D02*
X10160000D01*
G01D02*
X10279400D01*
G01X10668000Y134600D02*
Y254000D01*
G01D02*
Y373400D01*
G01X10548600Y254000D02*
X10668000D01*
G01D02*
X10787400D01*
G01X10668000Y642600D02*
Y762000D01*
G01D02*
Y881400D01*
G01X10548600Y762000D02*
X10668000D01*
G01D02*
X10787400D01*
G01X10846200Y3403600D02*
Y3466700D01*
G01Y3556000D02*
Y3632200D01*
G01X10871600Y4013200D02*
Y3936600D01*
X10896600Y3911600D01*
G01X10871600Y4241800D02*
Y4140600D01*
G01Y4495800D02*
Y4394600D01*
G01Y4749800D02*
Y4648600D01*
G01Y5003800D02*
Y4902600D01*
G01Y5257800D02*
Y5156600D01*
G01Y5511800D02*
Y5410600D01*
G01Y6019800D02*
Y5918600D01*
G01Y5765800D02*
Y5664600D01*
X145200Y1025870D03*
X272200Y1152870D03*
Y1279870D03*
X145200Y1406870D03*
Y1533870D03*
X272200Y1660870D03*
Y1787870D03*
X145200Y1914870D03*
Y2041870D03*
X272200Y2168870D03*
Y2295870D03*
X145200Y2422870D03*
Y2549870D03*
X272200Y2676870D03*
Y2803870D03*
X145200Y2930870D03*
Y3057870D03*
X272200Y3184870D03*
Y3311870D03*
X145200Y3438870D03*
Y3565870D03*
X272200Y3692870D03*
Y3819870D03*
X145200Y3946870D03*
Y4073870D03*
X272200Y4200870D03*
Y4327870D03*
X145200Y4454870D03*
Y4581870D03*
X272200Y4708870D03*
Y4835870D03*
X145200Y4962870D03*
Y5089870D03*
X272200Y5216870D03*
Y5343870D03*
X145200Y5470870D03*
Y5597870D03*
X272200Y5724870D03*
Y5851870D03*
X145200Y5978870D03*
X399200Y1406870D03*
Y1025870D03*
X526200Y1152870D03*
Y1279870D03*
X653200Y1025870D03*
Y1406870D03*
X780200Y1152870D03*
Y1279870D03*
X526200Y1914870D03*
X780200Y1660870D03*
X399200Y1533870D03*
X653200D03*
X526200Y1660870D03*
Y1787870D03*
X399200Y1914870D03*
X653200D03*
X399200Y2168870D03*
Y2295870D03*
X526200Y2041870D03*
Y2295870D03*
Y2422870D03*
X780200Y2041870D03*
Y2422870D03*
X399200Y2041870D03*
X526200Y2168870D03*
X653200Y2295870D03*
X399200Y2422870D03*
Y2676870D03*
Y2803870D03*
X526200Y2676870D03*
Y2803870D03*
X780200D03*
X399200Y2549870D03*
X526200D03*
X653200Y2676870D03*
X399200Y2930870D03*
X526200D03*
X399200Y3184870D03*
Y3311870D03*
X526200Y3057870D03*
Y3184870D03*
Y3438870D03*
X780200Y3184870D03*
X399200Y3057870D03*
X653200D03*
X526200Y3311870D03*
X399200Y3438870D03*
X653200D03*
X399200Y3692870D03*
Y3819870D03*
X526200Y3565870D03*
Y3819870D03*
Y3946870D03*
X780200Y3565870D03*
Y3946870D03*
X399200Y3565870D03*
X526200Y3692870D03*
X653200Y3819870D03*
X399200Y3946870D03*
Y4200870D03*
Y4327870D03*
X526200Y4200870D03*
Y4327870D03*
X780200D03*
X399200Y4073870D03*
X526200D03*
X653200Y4200870D03*
X399200Y4454870D03*
X526200D03*
X399200Y4581870D03*
X653200D03*
X399200Y4708870D03*
Y4835870D03*
X780200Y4708870D03*
Y5089870D03*
X399200Y4962870D03*
X653200D03*
X399200Y5089870D03*
X526200Y5470870D03*
X399200Y5597870D03*
Y5343870D03*
X780200Y5470870D03*
X653200Y5343870D03*
X399200Y5470870D03*
X526200Y5597870D03*
Y5978870D03*
Y5724870D03*
X399200Y5851870D03*
Y5978870D03*
X526200Y5851870D03*
X653200Y5724870D03*
Y5978870D03*
X780200Y5851870D03*
X399200Y5724870D03*
X1288200Y1152870D03*
X1034200Y1279870D03*
X1288200D03*
X907200Y1406870D03*
X1161200D03*
X907200Y1025870D03*
X1161200D03*
X1034200Y1152870D03*
Y1914870D03*
X907200Y1660870D03*
Y1787870D03*
X1034200D03*
X907200Y1533870D03*
X1161200D03*
X1034200Y1660870D03*
X1288200D03*
X907200Y1914870D03*
X1161200D03*
X907200Y2041870D03*
Y2168870D03*
Y2422870D03*
X1034200Y2168870D03*
Y2295870D03*
Y2041870D03*
X1288200D03*
X907200Y2295870D03*
X1161200D03*
X1034200Y2422870D03*
X1288200D03*
X907200Y2549870D03*
Y2803870D03*
Y2930870D03*
X1034200D03*
Y2549870D03*
Y2676870D03*
X907200D03*
X1161200D03*
X1034200Y2803870D03*
X1288200D03*
X907200Y3184870D03*
Y3311870D03*
X1034200Y3057870D03*
Y3311870D03*
Y3438870D03*
X907200Y3057870D03*
X1161200D03*
X1034200Y3184870D03*
X1288200D03*
X907200Y3438870D03*
X1161200D03*
X907200Y3565870D03*
Y3692870D03*
Y3946870D03*
X1034200Y3819870D03*
Y3692870D03*
Y3565870D03*
X1288200D03*
X907200Y3819870D03*
X1161200D03*
X1034200Y3946870D03*
X1288200D03*
X907200Y4073870D03*
Y4327870D03*
Y4454870D03*
X1034200Y4581870D03*
Y4200870D03*
Y4454870D03*
Y4073870D03*
X907200Y4200870D03*
X1161200D03*
X1034200Y4327870D03*
X1288200D03*
X907200Y4581870D03*
X1161200D03*
X907200Y4708870D03*
Y4835870D03*
Y5089870D03*
X1034200Y4835870D03*
Y4962870D03*
Y4708870D03*
X1288200D03*
X907200Y4962870D03*
X1161200D03*
X1034200Y5089870D03*
X1288200D03*
X907200Y5216870D03*
Y5470870D03*
Y5597870D03*
X1034200Y5216870D03*
Y5597870D03*
Y5343870D03*
X907200D03*
X1161200D03*
X1034200Y5470870D03*
X1288200D03*
X1034200Y5724870D03*
X1161200D03*
X1288200Y5851870D03*
X907200Y5724870D03*
Y5978870D03*
X1034200Y5851870D03*
X1161200Y5978870D03*
X3911600Y6400800D03*
X4038600D03*
X5740400D03*
X5867400D03*
X7594600D03*
X7747000D03*
X8178800D03*
X9093200Y1346200D03*
Y1270000D03*
X9372600Y3022600D03*
X9296400D03*
X9347200Y6400800D03*
X9779400Y1320400D03*
X9677800D03*
X9829800Y2311400D03*
Y2387600D03*
X9880600Y2743200D03*
X9753600Y3022600D03*
X9677400D03*
X9601200D03*
X9525000D03*
X9448800D03*
X9677400Y6604000D03*
Y6540500D03*
Y6286500D03*
Y6223000D03*
X10368310Y1422700D03*
X9956800Y2043550D03*
X10146150D03*
X10261600D03*
X9906000Y2362200D03*
X10129520Y2336800D03*
X10027920D03*
X10210800Y2641600D03*
X10386000Y2921400D03*
X10321000D03*
X10256000D03*
X10191000D03*
X10126000D03*
X10061000D03*
X9996000D03*
X9931000D03*
X9982200Y2743200D03*
X10386000Y2641600D03*
Y3203000D03*
X10337800Y3479800D03*
X10363200Y3683000D03*
X10260390Y3683260D03*
X10414000Y4368800D03*
Y4622800D03*
Y4876800D03*
Y5130800D03*
X10718800Y939800D03*
X10795000D03*
X10622310Y1420160D03*
X10713690D03*
X10459690Y1422700D03*
X10718800Y1905000D03*
X10820400Y2006600D03*
X10896600D03*
Y2463800D03*
X10515600Y2819400D03*
X10693400Y2641600D03*
Y2540000D03*
X10515600Y2971800D03*
X10579100D03*
X10871200Y3098800D03*
Y3022600D03*
X10846200Y3466700D03*
X10581000Y3443600D03*
X10795000Y3200400D03*
X10451000Y4064000D03*
X10566400Y3683000D03*
X10464800D03*
X10846200Y3632200D03*
X10896600Y3911600D03*
X10666850Y3811150D03*
X10795000Y3822700D03*
Y3759200D03*
X10871600Y4140600D03*
Y4394600D03*
Y4648600D03*
Y4902600D03*
X10587050Y5634050D03*
Y5380050D03*
X10871600Y5156600D03*
Y5410600D03*
X10587050Y5888050D03*
Y6142050D03*
X10871600Y5918600D03*
Y5664600D03*
X10858500Y6540500D03*
X10731500D03*
X10858500Y6286500D03*
X10731500D03*
G54D21*
G01X574700Y1866370D02*
X526200Y1914870D01*
G01X447700Y2120370D02*
X399200Y2168870D01*
G01X447700Y2247370D02*
X399200Y2295870D01*
G01X574700Y1993370D02*
X526200Y2041870D01*
G01X574700Y2247370D02*
X526200Y2295870D01*
G01X574700Y2374370D02*
X526200Y2422870D01*
G01X447700Y2628370D02*
X399200Y2676870D01*
G01X447700Y2755370D02*
X399200Y2803870D01*
G01X574700Y2628370D02*
X526200Y2676870D01*
G01X574700Y2755370D02*
X526200Y2803870D01*
G01X447700Y3136370D02*
X399200Y3184870D01*
G01X447700Y3263370D02*
X399200Y3311870D01*
G01X574700Y3009370D02*
X526200Y3057870D01*
G01X574700Y3136370D02*
X526200Y3184870D01*
G01X574700Y3390370D02*
X526200Y3438870D01*
G01X447700Y3644370D02*
X399200Y3692870D01*
G01X447700Y3771370D02*
X399200Y3819870D01*
G01X574700Y3517370D02*
X526200Y3565870D01*
G01X574700Y3771370D02*
X526200Y3819870D01*
G01X574700Y3898370D02*
X526200Y3946870D01*
G01X447700Y4152370D02*
X399200Y4200870D01*
G01X447700Y4279370D02*
X399200Y4327870D01*
G01X574700Y4152370D02*
X526200Y4200870D01*
G01X574700Y4279370D02*
X526200Y4327870D01*
G01X1082700Y1866370D02*
X1034200Y1914870D01*
G01X955700Y1612370D02*
X907200Y1660870D01*
G01X955700Y1739370D02*
X907200Y1787870D01*
G01X1082700Y1739370D02*
X1034200Y1787870D01*
G01X955700Y1993370D02*
X907200Y2041870D01*
G01X955700Y2120370D02*
X907200Y2168870D01*
G01X955700Y2374370D02*
X907200Y2422870D01*
G01X1082700Y2120370D02*
X1034200Y2168870D01*
G01X1082700Y2247370D02*
X1034200Y2295870D01*
G01X955700Y2501370D02*
X907200Y2549870D01*
G01X955700Y2755370D02*
X907200Y2803870D01*
G01X955700Y2882370D02*
X907200Y2930870D01*
G01X1082700Y2882370D02*
X1034200Y2930870D01*
G01X1082700Y2501370D02*
X1034200Y2549870D01*
G01X1082700Y2628370D02*
X1034200Y2676870D01*
G01X955700Y3136370D02*
X907200Y3184870D01*
G01X955700Y3263370D02*
X907200Y3311870D01*
G01X1082700Y3009370D02*
X1034200Y3057870D01*
G01X1082700Y3263370D02*
X1034200Y3311870D01*
G01X1082700Y3390370D02*
X1034200Y3438870D01*
G01X955700Y3517370D02*
X907200Y3565870D01*
G01X955700Y3644370D02*
X907200Y3692870D01*
G01X955700Y3898370D02*
X907200Y3946870D01*
G01X955700Y4025370D02*
X907200Y4073870D01*
G01X1082700Y3771370D02*
X1034200Y3819870D01*
G01X1082700Y3644370D02*
X1034200Y3692870D01*
G01X1082700Y4025370D02*
X1034200Y4073870D01*
G01X955700Y4279370D02*
X907200Y4327870D01*
G01X955700Y4406370D02*
X907200Y4454870D01*
G01X1082700Y4533370D02*
X1034200Y4581870D01*
G01X1082700Y4152370D02*
X1034200Y4200870D01*
G01X1082700Y4406370D02*
X1034200Y4454870D01*
G01X955700Y4660370D02*
X907200Y4708870D01*
G01X955700Y4787370D02*
X907200Y4835870D01*
G01X955700Y5041370D02*
X907200Y5089870D01*
G01X1082700Y4787370D02*
X1034200Y4835870D01*
G01X1082700Y4914370D02*
X1034200Y4962870D01*
G01X955700Y5168370D02*
X907200Y5216870D01*
G01X955700Y5422370D02*
X907200Y5470870D01*
G01X955700Y5549370D02*
X907200Y5597870D01*
G01X1082700Y5168370D02*
X1034200Y5216870D01*
G01X1082700Y5549370D02*
X1034200Y5597870D01*
G01X1082700Y5295370D02*
X1034200Y5343870D01*
G01X1082700Y5676370D02*
X1034200Y5724870D01*
G54D12*
X965200Y304800D03*
Y6604790D03*
G54D22*
G01X447700Y4660370D02*
X399200Y4708870D01*
G01X447700Y4787370D02*
X399200Y4835870D01*
G01X2286000Y508000D02*
Y1143000D01*
X3098800Y1955800D01*
X9169400D01*
X9296400Y2082800D01*
Y3022600D01*
G01X3302000Y508000D02*
Y1143000D01*
X4038600Y1879600D01*
X9194800D01*
X9372600Y2057400D01*
Y3022600D01*
G01X3175000Y5715000D02*
X3022600Y5867400D01*
Y6451600D01*
X3276600Y6705600D01*
X9220200D01*
X9448800Y6477000D01*
Y6375400D01*
X9398000Y6324600D01*
Y4089400D01*
X10386000Y3101400D01*
Y2921400D01*
G01X3429000Y5969000D02*
X3759200Y6299200D01*
Y6325740D01*
X4088260Y6654800D01*
X9194800D01*
X9401890Y6447710D01*
Y6378150D01*
X9347200Y6323460D01*
Y4064000D01*
X10321000Y3090200D01*
Y2921400D01*
G01X4318000Y508000D02*
Y1143000D01*
X4978400Y1803400D01*
X9220200D01*
X9448800Y2032000D01*
Y3022600D01*
G01X10256000Y2921400D02*
Y3079000D01*
X9296400Y4038600D01*
Y6374260D01*
X9292510Y6378150D01*
Y6480890D01*
X9169400Y6604000D01*
X4953000D01*
X4826000Y6477000D01*
Y5905500D01*
X5016500Y5715000D01*
G01X5334000Y508000D02*
Y1168400D01*
X5892800Y1727200D01*
X9245600D01*
X9525000Y2006600D01*
Y3022600D01*
G01X5270500Y5969000D02*
X5562600Y6261100D01*
Y6300340D01*
X5815460Y6553200D01*
X9143990D01*
X9245600Y6451590D01*
Y4013200D01*
X10191000Y3067800D01*
Y2921400D01*
G01X6350000Y508000D02*
Y1168400D01*
X6832600Y1651000D01*
X9271000D01*
X9601200Y1981200D01*
Y3022600D01*
G01X10126000Y2921400D02*
Y3056600D01*
X9194800Y3987800D01*
Y6426200D01*
X9118600Y6502400D01*
X6908800D01*
X6705600Y6299200D01*
Y5867400D01*
X6858000Y5715000D01*
G01X7112000Y5969000D02*
X7416800Y6273800D01*
Y6300340D01*
X7571950Y6455490D01*
X9089310D01*
X9144000Y6400800D01*
Y3962400D01*
X10061000Y3045400D01*
Y2921400D01*
G01X7366000Y508000D02*
Y1193800D01*
X7747000Y1574800D01*
X9296400D01*
X9677400Y1955800D01*
Y3022600D01*
G01X8382000Y508000D02*
Y1193800D01*
X8686800Y1498600D01*
X9321800D01*
X9753600Y1930400D01*
Y3022600D01*
G01X8636000Y5715000D02*
X8483600Y5867400D01*
Y6350000D01*
X8509000Y6375400D01*
X9074630D01*
X9093200Y6356830D01*
Y3937000D01*
X9996000Y3034200D01*
Y2921400D01*
G01X8890000Y5969000D02*
X9042400Y5816600D01*
Y3915650D01*
X9724390Y3233660D01*
Y3229610D01*
X9931000Y3023000D01*
Y2921400D01*
G01X9677400Y3098400D02*
Y3022600D01*
G01X9525000Y3098400D02*
Y3022600D01*
G01X9372600Y3098400D02*
Y3022600D01*
G01X10743800Y3403600D02*
Y3246570D01*
X10700230Y3203000D01*
X10386000D01*
G01X10337800Y3479800D02*
X10539860D01*
X10558350Y3498290D01*
X10603650D01*
X10622140Y3479800D01*
X10668850D01*
X10743800Y3554750D01*
Y3556000D01*
G01X10769200Y4013200D02*
X10501800D01*
X10451000Y4064000D01*
G01X10414000Y4622800D02*
X10643450D01*
X10769200Y4497050D01*
Y4495800D01*
G01X10414000Y4368800D02*
X10643450D01*
X10769200Y4243050D01*
Y4241800D01*
G01X10414000Y4876800D02*
X10643450D01*
X10769200Y4751050D01*
Y4749800D01*
G01X10414000Y5130800D02*
X10643450D01*
X10769200Y5005050D01*
Y5003800D01*
G01X10587050Y5634050D02*
X10648200D01*
X10769200Y5513050D01*
Y5511800D01*
G01X10587050Y5380050D02*
X10648200D01*
X10769200Y5259050D01*
Y5257800D01*
G01X10587050Y5888050D02*
X10648200D01*
X10769200Y5767050D01*
Y5765800D01*
G01X10587050Y6142050D02*
X10648200D01*
X10769200Y6021050D01*
Y6019800D01*
G54D13*
X765200Y734800D03*
X1070000Y6172940D03*
G54D14*
X2032000Y254000D03*
X2540000D03*
X2032000Y762000D03*
X2540000D03*
X3048000Y254000D03*
Y762000D03*
X3556000Y254000D03*
Y762000D03*
X4064000Y254000D03*
Y762000D03*
X4572000Y254000D03*
Y762000D03*
X5080000Y254000D03*
Y762000D03*
X5588000Y254000D03*
Y762000D03*
X6096000Y254000D03*
Y762000D03*
X6604000Y254000D03*
Y762000D03*
X7112000Y254000D03*
Y762000D03*
X7620000Y254000D03*
Y762000D03*
X8128000Y254000D03*
Y762000D03*
X8636000Y254000D03*
Y762000D03*
X9144000Y254000D03*
Y762000D03*
X9652000Y254000D03*
Y762000D03*
X10160000Y254000D03*
Y762000D03*
X10668000Y254000D03*
Y762000D03*
G54D15*
X2286000Y508000D03*
X3302000D03*
X4318000D03*
X5334000D03*
X6350000D03*
X7366000D03*
X8382000D03*
X9398000D03*
X10414000D03*
G54D16*
X3175000Y2921000D03*
X3429000D03*
X3175000Y2667000D03*
Y3429000D03*
X3429000D03*
X3175000Y3175000D03*
X3429000D03*
X3175000Y3937000D03*
X3429000D03*
X3175000Y3683000D03*
X3429000D03*
X3175000Y4445000D03*
X3429000D03*
X3175000Y4191000D03*
X3429000D03*
X3175000Y4953000D03*
X3429000D03*
X3175000Y4699000D03*
X3429000D03*
X3175000Y5715000D03*
X3429000D03*
X3175000Y5461000D03*
X3429000D03*
X3175000Y5207000D03*
X3429000D03*
X3175000Y6223000D03*
X3429000D03*
X3175000Y5969000D03*
X3429000D03*
X5016500Y2921000D03*
Y2667000D03*
Y3429000D03*
Y3175000D03*
Y3937000D03*
Y3683000D03*
Y4445000D03*
Y4191000D03*
Y4953000D03*
Y4699000D03*
Y5715000D03*
Y5461000D03*
Y5207000D03*
Y6223000D03*
Y5969000D03*
X5270500Y2921000D03*
Y3429000D03*
Y3175000D03*
Y3937000D03*
Y3683000D03*
Y4445000D03*
Y4191000D03*
Y4953000D03*
Y4699000D03*
Y5715000D03*
Y5461000D03*
Y5207000D03*
Y6223000D03*
Y5969000D03*
X6858000Y2921000D03*
X7112000D03*
X6858000Y2667000D03*
Y3429000D03*
X7112000D03*
X6858000Y3175000D03*
X7112000D03*
X6858000Y3937000D03*
X7112000D03*
X6858000Y3683000D03*
X7112000D03*
X6858000Y4445000D03*
X7112000D03*
X6858000Y4191000D03*
X7112000D03*
X6858000Y4953000D03*
X7112000D03*
X6858000Y4699000D03*
X7112000D03*
X6858000Y5715000D03*
X7112000D03*
X6858000Y5461000D03*
X7112000D03*
X6858000Y5207000D03*
X7112000D03*
X6858000Y6223000D03*
X7112000D03*
X6858000Y5969000D03*
X7112000D03*
X8636000Y2921000D03*
X8890000D03*
X8636000Y2667000D03*
Y3429000D03*
X8890000D03*
X8636000Y3175000D03*
X8890000D03*
X8636000Y3937000D03*
X8890000D03*
X8636000Y3683000D03*
X8890000D03*
X8636000Y4445000D03*
X8890000D03*
X8636000Y4191000D03*
X8890000D03*
X8636000Y4953000D03*
X8890000D03*
X8636000Y4699000D03*
X8890000D03*
X8636000Y5715000D03*
X8890000D03*
X8636000Y5461000D03*
X8890000D03*
X8636000Y5207000D03*
X8890000D03*
X8636000Y6223000D03*
X8890000D03*
X8636000Y5969000D03*
X8890000D03*
G54D17*
X3429000Y2667000D03*
X5270500D03*
X7112000D03*
X8890000D03*
G54D18*
X9677400Y3200800D03*
Y3098400D03*
X9525000Y3200800D03*
Y3098400D03*
X9372600Y3200800D03*
Y3098400D03*
G54D19*
X10156500Y4381500D03*
Y6413500D03*
M02*
