G04 ================== begin FILE IDENTIFICATION RECORD ==================*
G04 Layout Name:  C:/Jeonghyun/Lab/RFSoC_FMC4/allegro/fmc_db.brd*
G04 Film Name:    L2*
G04 File Format:  Gerber RS274X*
G04 File Origin:  Cadence Allegro 23.1-S003*
G04 Origin Date:  Wed May 15 13:37:00 2024*
G04 *
G04 Layer:  ETCH/L2*
G04 Layer:  PIN/L2*
G04 Layer:  VIA CLASS/L2*
G04 *
G04 Offset:    (0.0000 0.0000)*
G04 Mirror:    No*
G04 Mode:      Positive*
G04 Rotation:  0*
G04 FullContactRelief:  No*
G04 UndefLineWidth:     0.0000*
G04 ================== end FILE IDENTIFICATION RECORD ====================*
%FSLAX25Y25*MOMM*%
%IR0*IPPOS*OFA0.00000B0.00000*MIA0B0*SFA1.00000B1.00000*%
%ADD10C,.508*%
%ADD17C,2.*%
%ADD13C,2.032*%
%ADD11C,3.2004*%
%ADD15C,1.651*%
%ADD16R,1.651X1.651*%
%ADD12C,1.2954*%
%ADD14R,1.905X1.905*%
%ADD21C,.7624*%
%ADD22C,1.9054*%
%ADD23C,2.4068*%
%ADD19C,2.2864*%
%ADD20C,1.7276*%
%ADD18C,3.4548*%
G75*
%LPD*%
G75*
G36*
G01X10Y6900000D02*
X10986480D01*
Y10D01*
X10D01*
Y6900000D01*
G37*
%LPC*%
G75*
G36*
G01X8794730Y2584450D02*
Y2749550D01*
G02X8807450Y2762270I12720J0D01*
G01X8972550D01*
G02X8985270Y2749550I0J-12720D01*
G01Y2584450D01*
G02X8972550Y2571730I-12720J0D01*
G01X8807450D01*
G02X8794730Y2584450I0J12720D01*
G37*
G36*
G01X7016730D02*
Y2749550D01*
G02X7029450Y2762270I12720J0D01*
G01X7194550D01*
G02X7207270Y2749550I0J-12720D01*
G01Y2584450D01*
G02X7194550Y2571730I-12720J0D01*
G01X7029450D01*
G02X7016730Y2584450I0J12720D01*
G37*
G36*
G01X5175230D02*
Y2749550D01*
G02X5187950Y2762270I12720J0D01*
G01X5353050D01*
G02X5365770Y2749550I0J-12720D01*
G01Y2584450D01*
G02X5353050Y2571730I-12720J0D01*
G01X5187950D01*
G02X5175230Y2584450I0J12720D01*
G37*
G36*
G01X3333730D02*
Y2749550D01*
G02X3346450Y2762270I12720J0D01*
G01X3511550D01*
G02X3524270Y2749550I0J-12720D01*
G01Y2584450D01*
G02X3511550Y2571730I-12720J0D01*
G01X3346450D01*
G02X3333730Y2584450I0J12720D01*
G37*
G36*
G01X10306030Y412750D02*
Y603250D01*
G02X10318750Y615970I12720J0D01*
G01X10509250D01*
G02X10521970Y603250I0J-12720D01*
G01Y412750D01*
G02X10509250Y400030I-12720J0D01*
G01X10318750D01*
G02X10306030Y412750I0J12720D01*
G37*
G36*
G01X9290030D02*
Y603250D01*
G02X9302750Y615970I12720J0D01*
G01X9493250D01*
G02X9505970Y603250I0J-12720D01*
G01Y412750D01*
G02X9493250Y400030I-12720J0D01*
G01X9302750D01*
G02X9290030Y412750I0J12720D01*
G37*
G36*
G01X8274030D02*
Y603250D01*
G02X8286750Y615970I12720J0D01*
G01X8477250D01*
G02X8489970Y603250I0J-12720D01*
G01Y412750D01*
G02X8477250Y400030I-12720J0D01*
G01X8286750D01*
G02X8274030Y412750I0J12720D01*
G37*
G36*
G01X7258030D02*
Y603250D01*
G02X7270750Y615970I12720J0D01*
G01X7461250D01*
G02X7473970Y603250I0J-12720D01*
G01Y412750D01*
G02X7461250Y400030I-12720J0D01*
G01X7270750D01*
G02X7258030Y412750I0J12720D01*
G37*
G36*
G01X6242030D02*
Y603250D01*
G02X6254750Y615970I12720J0D01*
G01X6445250D01*
G02X6457970Y603250I0J-12720D01*
G01Y412750D01*
G02X6445250Y400030I-12720J0D01*
G01X6254750D01*
G02X6242030Y412750I0J12720D01*
G37*
G36*
G01X5226030D02*
Y603250D01*
G02X5238750Y615970I12720J0D01*
G01X5429250D01*
G02X5441970Y603250I0J-12720D01*
G01Y412750D01*
G02X5429250Y400030I-12720J0D01*
G01X5238750D01*
G02X5226030Y412750I0J12720D01*
G37*
G36*
G01X4210030D02*
Y603250D01*
G02X4222750Y615970I12720J0D01*
G01X4413250D01*
G02X4425970Y603250I0J-12720D01*
G01Y412750D01*
G02X4413250Y400030I-12720J0D01*
G01X4222750D01*
G02X4210030Y412750I0J12720D01*
G37*
G36*
G01X3194030D02*
Y603250D01*
G02X3206750Y615970I12720J0D01*
G01X3397250D01*
G02X3409970Y603250I0J-12720D01*
G01Y412750D01*
G02X3397250Y400030I-12720J0D01*
G01X3206750D01*
G02X3194030Y412750I0J12720D01*
G37*
G36*
G01X2178030D02*
Y603250D01*
G02X2190750Y615970I12720J0D01*
G01X2381250D01*
G02X2393970Y603250I0J-12720D01*
G01Y412750D01*
G02X2381250Y400030I-12720J0D01*
G01X2190750D01*
G02X2178030Y412750I0J12720D01*
G37*
G36*
G01X10866520Y1983190D02*
G03X10850480I-8020J-6243D01*
G02X10820400Y1968480I-30080J23400D01*
G02Y2044720I0J38120D01*
G02X10850480Y2030010I0J-38110D01*
G03X10866520I8020J6243D01*
G02X10896600Y2044720I30080J-23400D01*
G02Y1968480I0J-38120D01*
G02X10866520Y1983190I0J38110D01*
G37*
G36*
G01X10281660Y2949590D02*
G03X10295340I6840J7513D01*
G02X10346660I25660J-28189D01*
G03X10360340I6840J7513D01*
G02X10386000Y2959520I25660J-28189D01*
G02Y2883280I0J-38120D01*
G02X10360340Y2893210I0J38119D01*
G03X10346660I-6840J-7513D01*
G02X10295340I-25660J28189D01*
G03X10281660I-6840J-7513D01*
G02X10230340I-25660J28189D01*
G03X10216660I-6840J-7513D01*
G02X10165340I-25660J28189D01*
G03X10151660I-6840J-7513D01*
G02X10100340I-25660J28189D01*
G03X10086660I-6840J-7513D01*
G02X10035340I-25660J28189D01*
G03X10021660I-6840J-7513D01*
G02X9970340I-25660J28189D01*
G03X9956660I-6840J-7513D01*
G02X9931000Y2883280I-25660J28189D01*
G02Y2959520I0J38120D01*
G02X9956660Y2949590I0J-38119D01*
G03X9970340I6840J7513D01*
G02X10021660I25660J-28189D01*
G03X10035340I6840J7513D01*
G02X10086660I25660J-28189D01*
G03X10100340I6840J7513D01*
G02X10151660I25660J-28189D01*
G03X10165340I6840J7513D01*
G02X10216660I25660J-28189D01*
G03X10230340I6840J7513D01*
G02X10281660I25660J-28189D01*
G37*
G36*
G01X9631280Y3046010D02*
G03X9647320I8020J6243D01*
G02X9707480I30080J-23400D01*
G03X9723520I8020J6243D01*
G02X9753600Y3060720I30080J-23400D01*
G02Y2984480I0J-38120D01*
G02X9723520Y2999190I0J38110D01*
G03X9707480I-8020J-6243D01*
G02X9647320I-30080J23400D01*
G03X9631280I-8020J-6243D01*
G02X9571120I-30080J23400D01*
G03X9555080I-8020J-6243D01*
G02X9494920I-30080J23400D01*
G03X9478880I-8020J-6243D01*
G02X9418720I-30080J23400D01*
G03X9402680I-8020J-6243D01*
G02X9342520I-30080J23400D01*
G03X9326480I-8020J-6243D01*
G02X9296400Y2984480I-30080J23400D01*
G02Y3060720I0J38120D01*
G02X9326480Y3046010I0J-38110D01*
G03X9342520I8020J6243D01*
G02X9402680I30080J-23400D01*
G03X9418720I8020J6243D01*
G02X9478880I30080J-23400D01*
G03X9494920I8020J6243D01*
G02X9555080I30080J-23400D01*
G03X9571120I8020J6243D01*
G02X9631280I30080J-23400D01*
G37*
G36*
G01X10847790Y3052680D02*
G03Y3068720I-6243J8020D01*
G02X10833080Y3098800I23400J30080D01*
G02X10909320I38120J0D01*
G02X10894610Y3068720I-38110J0D01*
G03Y3052680I6243J-8020D01*
G02X10909320Y3022600I-23400J-30080D01*
G02X10833080I-38120J0D01*
G02X10847790Y3052680I38110J0D01*
G37*
G36*
G01X9648680Y6248070D02*
G03Y6261430I-7651J6680D01*
G02X9639280Y6286500I28731J25070D01*
G02X9715520I38120J0D01*
G02X9706120Y6261430I-38131J0D01*
G03Y6248070I7651J-6680D01*
G02X9715520Y6223000I-28731J-25070D01*
G02X9639280I-38120J0D01*
G02X9648680Y6248070I38131J0D01*
G37*
G36*
G01Y6565570D02*
G03Y6578930I-7651J6680D01*
G02X9639280Y6604000I28731J25070D01*
G02X9715520I38120J0D01*
G02X9706120Y6578930I-38131J0D01*
G03Y6565570I7651J-6680D01*
G02X9715520Y6540500I-28731J-25070D01*
G02X9639280I-38120J0D01*
G02X9648680Y6565570I38131J0D01*
G37*
G54D21*
X526200Y1914870D03*
X1034200D03*
X907200Y1660870D03*
Y1787870D03*
X1034200D03*
X10368310Y1422700D03*
X10622310Y1420160D03*
X10713690D03*
X10459690Y1422700D03*
X10718800Y1905000D03*
X399200Y2168870D03*
Y2295870D03*
X526200Y2041870D03*
Y2295870D03*
Y2422870D03*
X907200Y2041870D03*
Y2168870D03*
Y2422870D03*
X1034200Y2168870D03*
Y2295870D03*
X9956800Y2043550D03*
X10146150D03*
X10261600D03*
X9906000Y2362200D03*
X399200Y2676870D03*
Y2803870D03*
X526200Y2676870D03*
Y2803870D03*
X907200Y2549870D03*
Y2803870D03*
Y2930870D03*
X1034200D03*
Y2549870D03*
Y2676870D03*
X9880600Y2743200D03*
X10210800Y2641600D03*
X9982200Y2743200D03*
X10515600Y2819400D03*
X10693400Y2641600D03*
Y2540000D03*
X399200Y3184870D03*
Y3311870D03*
X526200Y3057870D03*
Y3184870D03*
Y3438870D03*
X907200Y3184870D03*
Y3311870D03*
X1034200Y3057870D03*
Y3311870D03*
Y3438870D03*
X10386000Y3203000D03*
X10337800Y3479800D03*
X10846200Y3466700D03*
X10581000Y3443600D03*
X399200Y3692870D03*
Y3819870D03*
X526200Y3565870D03*
Y3819870D03*
Y3946870D03*
X907200Y3565870D03*
Y3692870D03*
Y3946870D03*
X1034200Y3819870D03*
Y3692870D03*
X10363200Y3683000D03*
X10260390Y3683260D03*
X10451000Y4064000D03*
X10566400Y3683000D03*
X10464800D03*
X10846200Y3632200D03*
X10896600Y3911600D03*
X10666850Y3811150D03*
X399200Y4200870D03*
Y4327870D03*
X526200Y4200870D03*
Y4327870D03*
X907200Y4073870D03*
Y4327870D03*
Y4454870D03*
X1034200Y4581870D03*
Y4200870D03*
Y4454870D03*
Y4073870D03*
X10414000Y4368800D03*
X10871600Y4140600D03*
Y4394600D03*
X399200Y4708870D03*
Y4835870D03*
X907200Y4708870D03*
Y4835870D03*
Y5089870D03*
X1034200Y4835870D03*
Y4962870D03*
X10414000Y4622800D03*
Y4876800D03*
X10871600Y4648600D03*
Y4902600D03*
X526200Y5470870D03*
X399200Y5597870D03*
Y5343870D03*
X907200Y5216870D03*
Y5470870D03*
Y5597870D03*
X1034200Y5216870D03*
Y5597870D03*
Y5343870D03*
X10414000Y5130800D03*
X10587050Y5634050D03*
Y5380050D03*
X10871600Y5156600D03*
Y5410600D03*
X526200Y5978870D03*
Y5724870D03*
X399200Y5851870D03*
X1034200Y5724870D03*
X10587050Y5888050D03*
Y6142050D03*
X10871600Y5918600D03*
Y5664600D03*
X3911600Y6400800D03*
X4038600D03*
X5740400D03*
X5867400D03*
X7594600D03*
X7747000D03*
X8178800D03*
X9347200D03*
X10858500Y6540500D03*
X10731500D03*
X10858500Y6286500D03*
X10731500D03*
G54D22*
X3175000Y2921000D03*
X3429000D03*
X3175000Y2667000D03*
X5016500Y2921000D03*
Y2667000D03*
X5270500Y2921000D03*
X6858000D03*
X7112000D03*
X6858000Y2667000D03*
X8636000Y2921000D03*
X8890000D03*
X8636000Y2667000D03*
X3175000Y3429000D03*
X3429000D03*
X3175000Y3175000D03*
X3429000D03*
X5016500Y3429000D03*
Y3175000D03*
X5270500Y3429000D03*
Y3175000D03*
X6858000Y3429000D03*
X7112000D03*
X6858000Y3175000D03*
X7112000D03*
X8636000Y3429000D03*
X8890000D03*
X8636000Y3175000D03*
X8890000D03*
X3175000Y3937000D03*
X3429000D03*
X3175000Y3683000D03*
X3429000D03*
X5016500Y3937000D03*
Y3683000D03*
X5270500Y3937000D03*
Y3683000D03*
X6858000Y3937000D03*
X7112000D03*
X6858000Y3683000D03*
X7112000D03*
X8636000Y3937000D03*
X8890000D03*
X8636000Y3683000D03*
X8890000D03*
X3175000Y4445000D03*
X3429000D03*
X3175000Y4191000D03*
X3429000D03*
X5016500Y4445000D03*
Y4191000D03*
X5270500Y4445000D03*
Y4191000D03*
X6858000Y4445000D03*
X7112000D03*
X6858000Y4191000D03*
X7112000D03*
X8636000Y4445000D03*
X8890000D03*
X8636000Y4191000D03*
X8890000D03*
X3175000Y4953000D03*
X3429000D03*
X3175000Y4699000D03*
X3429000D03*
X5016500Y4953000D03*
Y4699000D03*
X5270500Y4953000D03*
Y4699000D03*
X6858000Y4953000D03*
X7112000D03*
X6858000Y4699000D03*
X7112000D03*
X8636000Y4953000D03*
X8890000D03*
X8636000Y4699000D03*
X8890000D03*
X3175000Y5715000D03*
X3429000D03*
X3175000Y5461000D03*
X3429000D03*
X3175000Y5207000D03*
X3429000D03*
X5016500Y5715000D03*
Y5461000D03*
Y5207000D03*
X5270500Y5715000D03*
Y5461000D03*
Y5207000D03*
X6858000Y5715000D03*
X7112000D03*
X6858000Y5461000D03*
X7112000D03*
X6858000Y5207000D03*
X7112000D03*
X8636000Y5715000D03*
X8890000D03*
X8636000Y5461000D03*
X8890000D03*
X8636000Y5207000D03*
X8890000D03*
X3175000Y6223000D03*
X3429000D03*
X3175000Y5969000D03*
X3429000D03*
X5016500Y6223000D03*
Y5969000D03*
X5270500Y6223000D03*
Y5969000D03*
X6858000Y6223000D03*
X7112000D03*
X6858000Y5969000D03*
X7112000D03*
X8636000Y6223000D03*
X8890000D03*
X8636000Y5969000D03*
X8890000D03*
G54D23*
X10156500Y4381500D03*
Y6413500D03*
G54D19*
X2032000Y254000D03*
X2540000D03*
X3048000D03*
X3556000D03*
X4064000D03*
X4572000D03*
X5080000D03*
X5588000D03*
X6096000D03*
X6604000D03*
X7112000D03*
X7620000D03*
X8128000D03*
X8636000D03*
X9144000D03*
X9652000D03*
X10160000D03*
X10668000D03*
X2032000Y762000D03*
X2540000D03*
X3048000D03*
X3556000D03*
X4064000D03*
X4572000D03*
X5080000D03*
X5588000D03*
X6096000D03*
X6604000D03*
X7112000D03*
X7620000D03*
X8128000D03*
X8636000D03*
X9144000D03*
X9652000D03*
X10160000D03*
X10668000D03*
G54D20*
X765200Y734800D03*
X1070000Y6172940D03*
G54D18*
X965200Y304800D03*
Y6604790D03*
%LPD*%
G75*
G54D10*
G01X1912600Y254000D02*
X2032000D01*
G01X1912600Y762000D02*
X2032000D01*
G01Y134600D02*
Y254000D01*
G01D02*
Y373400D01*
G01Y254000D02*
X2151400D01*
G01X2420600D02*
X2540000D01*
G01X2032000Y642600D02*
Y762000D01*
G01D02*
Y881400D01*
G01Y762000D02*
X2151400D01*
G01X2420600D02*
X2540000D01*
G01Y134600D02*
Y254000D01*
G01D02*
Y373400D01*
G01Y254000D02*
X2659400D01*
G01X2928600D02*
X3048000D01*
G01X2540000Y642600D02*
Y762000D01*
G01D02*
Y881400D01*
G01Y762000D02*
X2659400D01*
G01X2928600D02*
X3048000D01*
G01Y134600D02*
Y254000D01*
G01D02*
Y373400D01*
G01Y254000D02*
X3167400D01*
G01X3436600D02*
X3556000D01*
G01X3436600Y762000D02*
X3556000D01*
G01X3048000Y642600D02*
Y762000D01*
G01D02*
Y881400D01*
G01Y762000D02*
X3167400D01*
G01X3175000Y2820650D02*
Y2921000D01*
G01D02*
Y3021350D01*
G01X3074650Y2921000D02*
X3175000D01*
G01D02*
X3275350D01*
G01X3429000Y2566650D02*
Y2667000D01*
G01D02*
Y2767350D01*
G01X3328650Y2667000D02*
X3429000D01*
G01D02*
X3529350D01*
G01X3429000Y3328650D02*
Y3429000D01*
G01D02*
Y3529350D01*
G01X3328650Y3429000D02*
X3429000D01*
G01D02*
X3529350D01*
G01X3175000Y3582650D02*
Y3683000D01*
G01D02*
Y3783350D01*
G01X3074650Y3683000D02*
X3175000D01*
G01D02*
X3275350D01*
G01X3175000Y4344650D02*
Y4445000D01*
G01D02*
Y4545350D01*
G01X3074650Y4445000D02*
X3175000D01*
G01D02*
X3275350D01*
G01X3429000Y4090650D02*
Y4191000D01*
G01D02*
Y4291350D01*
G01X3328650Y4191000D02*
X3429000D01*
G01D02*
X3529350D01*
G01X3429000Y4852650D02*
Y4953000D01*
G01D02*
Y5053350D01*
G01X3328650Y4953000D02*
X3429000D01*
G01D02*
X3529350D01*
G01X3175000Y5106650D02*
Y5207000D01*
G01X3429000Y5614650D02*
Y5715000D01*
G01X3175000Y5207000D02*
Y5307350D01*
G01X3074650Y5207000D02*
X3175000D01*
G01D02*
X3275350D01*
G01X3429000Y5715000D02*
Y5815350D01*
G01X3328650Y5715000D02*
X3429000D01*
G01D02*
X3529350D01*
G01X3944600Y254000D02*
X4064000D01*
G01X3556000Y134600D02*
Y254000D01*
G01D02*
Y373400D01*
G01Y254000D02*
X3675400D01*
G01X3556000Y642600D02*
Y762000D01*
G01D02*
Y881400D01*
G01Y762000D02*
X3675400D01*
G01X3944600D02*
X4064000D01*
G01Y134600D02*
Y254000D01*
G01D02*
Y373400D01*
G01Y254000D02*
X4183400D01*
G01X4572000Y134600D02*
Y254000D01*
G01D02*
Y373400D01*
G01X4452600Y254000D02*
X4572000D01*
G01D02*
X4691400D01*
G01X4064000Y642600D02*
Y762000D01*
G01D02*
Y881400D01*
G01Y762000D02*
X4183400D01*
G01X4572000Y642600D02*
Y762000D01*
G01D02*
Y881400D01*
G01X4452600Y762000D02*
X4572000D01*
G01D02*
X4691400D01*
G01X5080000Y134600D02*
Y254000D01*
G01D02*
Y373400D01*
G01X4960600Y254000D02*
X5080000D01*
G01D02*
X5199400D01*
G01X5080000Y642600D02*
Y762000D01*
G01D02*
Y881400D01*
G01X4960600Y762000D02*
X5080000D01*
G01D02*
X5199400D01*
G01X5016500Y2820650D02*
Y2921000D01*
G01D02*
Y3021350D01*
G01X4916150Y2921000D02*
X5016500D01*
G01D02*
X5116850D01*
G01X5016500Y3582650D02*
Y3683000D01*
G01D02*
Y3783350D01*
G01X4916150Y3683000D02*
X5016500D01*
G01D02*
X5116850D01*
G01X5016500Y4344650D02*
Y4445000D01*
G01D02*
Y4545350D01*
G01X4916150Y4445000D02*
X5016500D01*
G01D02*
X5116850D01*
G01X5016500Y5106650D02*
Y5207000D01*
G01D02*
Y5307350D01*
G01X4916150Y5207000D02*
X5016500D01*
G01D02*
X5116850D01*
G01X5588000Y134600D02*
Y254000D01*
G01D02*
Y373400D01*
G01X5468600Y254000D02*
X5588000D01*
G01D02*
X5707400D01*
G01X5588000Y642600D02*
Y762000D01*
G01D02*
Y881400D01*
G01X5468600Y762000D02*
X5588000D01*
G01D02*
X5707400D01*
G01X5270500Y2566650D02*
Y2667000D01*
G01D02*
Y2767350D01*
G01X5170150Y2667000D02*
X5270500D01*
G01D02*
X5370850D01*
G01X5270500Y3328650D02*
Y3429000D01*
G01D02*
Y3529350D01*
G01X5170150Y3429000D02*
X5270500D01*
G01D02*
X5370850D01*
G01X5270500Y4090650D02*
Y4191000D01*
G01D02*
Y4291350D01*
G01X5170150Y4191000D02*
X5270500D01*
G01D02*
X5370850D01*
G01X5270500Y4852650D02*
Y4953000D01*
G01D02*
Y5053350D01*
G01X5170150Y4953000D02*
X5270500D01*
G01D02*
X5370850D01*
G01X5270500Y5614650D02*
Y5715000D01*
G01D02*
Y5815350D01*
G01X5170150Y5715000D02*
X5270500D01*
G01D02*
X5370850D01*
G01X6096000Y134600D02*
Y254000D01*
G01D02*
Y373400D01*
G01X5976600Y254000D02*
X6096000D01*
G01D02*
X6215400D01*
G01X6096000Y642600D02*
Y762000D01*
G01D02*
Y881400D01*
G01X5976600Y762000D02*
X6096000D01*
G01D02*
X6215400D01*
G01X6604000Y134600D02*
Y254000D01*
G01D02*
Y373400D01*
G01X6484600Y254000D02*
X6604000D01*
G01D02*
X6723400D01*
G01X6604000Y642600D02*
Y762000D01*
G01D02*
Y881400D01*
G01X6484600Y762000D02*
X6604000D01*
G01D02*
X6723400D01*
G01X7112000Y134600D02*
Y254000D01*
G01D02*
Y373400D01*
G01X6992600Y254000D02*
X7112000D01*
G01D02*
X7231400D01*
G01X7112000Y642600D02*
Y762000D01*
G01D02*
Y881400D01*
G01X6992600Y762000D02*
X7112000D01*
G01D02*
X7231400D01*
G01X6858000Y2820650D02*
Y2921000D01*
G01D02*
Y3021350D01*
G01X6757650Y2921000D02*
X6858000D01*
G01D02*
X6958350D01*
G01X7112000Y2566650D02*
Y2667000D01*
G01D02*
Y2767350D01*
G01X7011650Y2667000D02*
X7112000D01*
G01D02*
X7212350D01*
G01X7112000Y3328650D02*
Y3429000D01*
G01D02*
Y3529350D01*
G01X7011650Y3429000D02*
X7112000D01*
G01D02*
X7212350D01*
G01X6858000Y3582650D02*
Y3683000D01*
G01D02*
Y3783350D01*
G01X6757650Y3683000D02*
X6858000D01*
G01D02*
X6958350D01*
G01X6858000Y4344650D02*
Y4445000D01*
G01D02*
Y4545350D01*
G01X6757650Y4445000D02*
X6858000D01*
G01D02*
X6958350D01*
G01X7112000Y4090650D02*
Y4191000D01*
G01D02*
Y4291350D01*
G01X7011650Y4191000D02*
X7112000D01*
G01D02*
X7212350D01*
G01X7112000Y4852650D02*
Y4953000D01*
G01D02*
Y5053350D01*
G01X7011650Y4953000D02*
X7112000D01*
G01D02*
X7212350D01*
G01X6858000Y5106650D02*
Y5207000D01*
G01X7112000Y5614650D02*
Y5715000D01*
G01X6858000Y5207000D02*
Y5307350D01*
G01X6757650Y5207000D02*
X6858000D01*
G01D02*
X6958350D01*
G01X7112000Y5715000D02*
Y5815350D01*
G01X7011650Y5715000D02*
X7112000D01*
G01D02*
X7212350D01*
G01X7620000Y134600D02*
Y254000D01*
G01D02*
Y373400D01*
G01X7500600Y254000D02*
X7620000D01*
G01D02*
X7739400D01*
G01X7620000Y642600D02*
Y762000D01*
G01D02*
Y881400D01*
G01X7500600Y762000D02*
X7620000D01*
G01D02*
X7739400D01*
G01X8128000Y134600D02*
Y254000D01*
G01D02*
Y373400D01*
G01X8008600Y254000D02*
X8128000D01*
G01D02*
X8247400D01*
G01X8128000Y642600D02*
Y762000D01*
G01D02*
Y881400D01*
G01X8008600Y762000D02*
X8128000D01*
G01D02*
X8247400D01*
G01X8636000Y134600D02*
Y254000D01*
G01D02*
Y373400D01*
G01X8516600Y254000D02*
X8636000D01*
G01D02*
X8755400D01*
G01X8636000Y642600D02*
Y762000D01*
G01D02*
Y881400D01*
G01X8516600Y762000D02*
X8636000D01*
G01D02*
X8755400D01*
G01X8636000Y2820650D02*
Y2921000D01*
G01D02*
Y3021350D01*
G01X8535650Y2921000D02*
X8636000D01*
G01D02*
X8736350D01*
G01X8789650Y2667000D02*
X8890000D01*
G01X8789650Y3429000D02*
X8890000D01*
G01X8636000Y3582650D02*
Y3683000D01*
G01D02*
Y3783350D01*
G01X8535650Y3683000D02*
X8636000D01*
G01D02*
X8736350D01*
G01X8789650Y4191000D02*
X8890000D01*
G01X8636000Y4344650D02*
Y4445000D01*
G01D02*
Y4545350D01*
G01X8535650Y4445000D02*
X8636000D01*
G01D02*
X8736350D01*
G01X8789650Y4953000D02*
X8890000D01*
G01X8636000Y5106650D02*
Y5207000D01*
G01D02*
Y5307350D01*
G01X8535650Y5207000D02*
X8636000D01*
G01D02*
X8736350D01*
G01X8789650Y5715000D02*
X8890000D01*
G01X9144000Y134600D02*
Y254000D01*
G01D02*
Y373400D01*
G01X9024600Y254000D02*
X9144000D01*
G01D02*
X9263400D01*
G01X9144000Y642600D02*
Y762000D01*
G01D02*
Y881400D01*
G01X9024600Y762000D02*
X9144000D01*
G01D02*
X9263400D01*
G01X8890000Y2566650D02*
Y2667000D01*
G01D02*
Y2767350D01*
G01Y2667000D02*
X8990350D01*
G01X8890000Y3328650D02*
Y3429000D01*
G01D02*
Y3529350D01*
G01Y3429000D02*
X8990350D01*
G01X8890000Y4090650D02*
Y4191000D01*
G01D02*
Y4291350D01*
G01Y4191000D02*
X8990350D01*
G01X8890000Y4852650D02*
Y4953000D01*
G01D02*
Y5053350D01*
G01Y4953000D02*
X8990350D01*
G01X8890000Y5614650D02*
Y5715000D01*
G01D02*
Y5815350D01*
G01Y5715000D02*
X8990350D01*
G01X9652000Y134600D02*
Y254000D01*
G01D02*
Y373400D01*
G01X9532600Y254000D02*
X9652000D01*
G01D02*
X9771400D01*
G01X9652000Y642600D02*
Y762000D01*
G01D02*
Y881400D01*
G01X9532600Y762000D02*
X9652000D01*
G01D02*
X9771400D01*
G01X10160000Y134600D02*
Y254000D01*
G01D02*
Y373400D01*
G01X10040600Y254000D02*
X10160000D01*
G01D02*
X10279400D01*
G01X10160000Y642600D02*
Y762000D01*
G01D02*
Y881400D01*
G01X10040600Y762000D02*
X10160000D01*
G01D02*
X10279400D01*
G01X10668000Y134600D02*
Y254000D01*
G01D02*
Y373400D01*
G01X10548600Y254000D02*
X10668000D01*
G01D02*
X10787400D01*
G01X10668000Y642600D02*
Y762000D01*
G01D02*
Y881400D01*
G01X10548600Y762000D02*
X10668000D01*
G01D02*
X10787400D01*
X145200Y1025870D03*
X272200Y1152870D03*
Y1279870D03*
X145200Y1406870D03*
Y1533870D03*
X272200Y1660870D03*
Y1787870D03*
X145200Y1914870D03*
Y2041870D03*
X272200Y2168870D03*
Y2295870D03*
X145200Y2422870D03*
Y2549870D03*
X272200Y2676870D03*
Y2803870D03*
X145200Y2930870D03*
Y3057870D03*
X272200Y3184870D03*
Y3311870D03*
X145200Y3438870D03*
Y3565870D03*
X272200Y3692870D03*
Y3819870D03*
X145200Y3946870D03*
Y4073870D03*
X272200Y4200870D03*
Y4327870D03*
X145200Y4454870D03*
Y4581870D03*
X272200Y4708870D03*
Y4835870D03*
X145200Y4962870D03*
Y5089870D03*
X272200Y5216870D03*
Y5343870D03*
X145200Y5470870D03*
Y5597870D03*
X272200Y5724870D03*
Y5851870D03*
X145200Y5978870D03*
X399200Y1406870D03*
Y1025870D03*
X526200Y1152870D03*
Y1279870D03*
X653200Y1025870D03*
Y1406870D03*
X780200Y1152870D03*
Y1279870D03*
X526200Y1914870D03*
X780200Y1660870D03*
X399200Y1533870D03*
X653200D03*
X526200Y1660870D03*
Y1787870D03*
X399200Y1914870D03*
X653200D03*
X399200Y2168870D03*
Y2295870D03*
X526200Y2041870D03*
Y2295870D03*
Y2422870D03*
X780200Y2041870D03*
Y2422870D03*
X399200Y2041870D03*
X526200Y2168870D03*
X653200Y2295870D03*
X399200Y2422870D03*
Y2676870D03*
Y2803870D03*
X526200Y2676870D03*
Y2803870D03*
X780200D03*
X399200Y2549870D03*
X526200D03*
X653200Y2676870D03*
X399200Y2930870D03*
X526200D03*
X399200Y3184870D03*
Y3311870D03*
X526200Y3057870D03*
Y3184870D03*
Y3438870D03*
X780200Y3184870D03*
X399200Y3057870D03*
X653200D03*
X526200Y3311870D03*
X399200Y3438870D03*
X653200D03*
X399200Y3692870D03*
Y3819870D03*
X526200Y3565870D03*
Y3819870D03*
Y3946870D03*
X780200Y3565870D03*
Y3946870D03*
X399200Y3565870D03*
X526200Y3692870D03*
X653200Y3819870D03*
X399200Y3946870D03*
Y4200870D03*
Y4327870D03*
X526200Y4200870D03*
Y4327870D03*
X780200D03*
X399200Y4073870D03*
X526200D03*
X653200Y4200870D03*
X399200Y4454870D03*
X526200D03*
X399200Y4581870D03*
X653200D03*
X399200Y4708870D03*
Y4835870D03*
X780200Y4708870D03*
Y5089870D03*
X399200Y4962870D03*
X653200D03*
X399200Y5089870D03*
X526200Y5470870D03*
X399200Y5597870D03*
Y5343870D03*
X780200Y5470870D03*
X653200Y5343870D03*
X399200Y5470870D03*
X526200Y5597870D03*
Y5978870D03*
Y5724870D03*
X399200Y5851870D03*
Y5978870D03*
X526200Y5851870D03*
X653200Y5724870D03*
Y5978870D03*
X780200Y5851870D03*
X399200Y5724870D03*
X1288200Y1152870D03*
X1034200Y1279870D03*
X1288200D03*
X907200Y1406870D03*
X1161200D03*
X907200Y1025870D03*
X1161200D03*
X1034200Y1152870D03*
Y1914870D03*
X907200Y1660870D03*
Y1787870D03*
X1034200D03*
X907200Y1533870D03*
X1161200D03*
X1034200Y1660870D03*
X1288200D03*
X907200Y1914870D03*
X1161200D03*
X907200Y2041870D03*
Y2168870D03*
Y2422870D03*
X1034200Y2168870D03*
Y2295870D03*
Y2041870D03*
X1288200D03*
X907200Y2295870D03*
X1161200D03*
X1034200Y2422870D03*
X1288200D03*
X907200Y2549870D03*
Y2803870D03*
Y2930870D03*
X1034200D03*
Y2549870D03*
Y2676870D03*
X907200D03*
X1161200D03*
X1034200Y2803870D03*
X1288200D03*
X907200Y3184870D03*
Y3311870D03*
X1034200Y3057870D03*
Y3311870D03*
Y3438870D03*
X907200Y3057870D03*
X1161200D03*
X1034200Y3184870D03*
X1288200D03*
X907200Y3438870D03*
X1161200D03*
X907200Y3565870D03*
Y3692870D03*
Y3946870D03*
X1034200Y3819870D03*
Y3692870D03*
Y3565870D03*
X1288200D03*
X907200Y3819870D03*
X1161200D03*
X1034200Y3946870D03*
X1288200D03*
X907200Y4073870D03*
Y4327870D03*
Y4454870D03*
X1034200Y4581870D03*
Y4200870D03*
Y4454870D03*
Y4073870D03*
X907200Y4200870D03*
X1161200D03*
X1034200Y4327870D03*
X1288200D03*
X907200Y4581870D03*
X1161200D03*
X907200Y4708870D03*
Y4835870D03*
Y5089870D03*
X1034200Y4835870D03*
Y4962870D03*
Y4708870D03*
X1288200D03*
X907200Y4962870D03*
X1161200D03*
X1034200Y5089870D03*
X1288200D03*
X907200Y5216870D03*
Y5470870D03*
Y5597870D03*
X1034200Y5216870D03*
Y5597870D03*
Y5343870D03*
X907200D03*
X1161200D03*
X1034200Y5470870D03*
X1288200D03*
X1034200Y5724870D03*
X1161200D03*
X1288200Y5851870D03*
X907200Y5724870D03*
Y5978870D03*
X1034200Y5851870D03*
X1161200Y5978870D03*
X3911600Y6400800D03*
X4038600D03*
X5740400D03*
X5867400D03*
X7594600D03*
X7747000D03*
X8178800D03*
X9093200Y1346200D03*
Y1270000D03*
X9372600Y3022600D03*
X9296400D03*
X9347200Y6400800D03*
X9779400Y1320400D03*
X9677800D03*
X9829800Y2311400D03*
Y2387600D03*
X9880600Y2743200D03*
X9753600Y3022600D03*
X9677400D03*
X9601200D03*
X9525000D03*
X9448800D03*
X9677400Y6604000D03*
Y6540500D03*
Y6286500D03*
Y6223000D03*
X10368310Y1422700D03*
X9956800Y2043550D03*
X10146150D03*
X10261600D03*
X9906000Y2362200D03*
X10129520Y2336800D03*
X10027920D03*
X10210800Y2641600D03*
X10386000Y2921400D03*
X10321000D03*
X10256000D03*
X10191000D03*
X10126000D03*
X10061000D03*
X9996000D03*
X9931000D03*
X9982200Y2743200D03*
X10386000Y2641600D03*
Y3203000D03*
X10337800Y3479800D03*
X10363200Y3683000D03*
X10260390Y3683260D03*
X10414000Y4368800D03*
Y4622800D03*
Y4876800D03*
Y5130800D03*
X10718800Y939800D03*
X10795000D03*
X10622310Y1420160D03*
X10713690D03*
X10459690Y1422700D03*
X10718800Y1905000D03*
X10820400Y2006600D03*
X10896600D03*
Y2463800D03*
X10515600Y2819400D03*
X10693400Y2641600D03*
Y2540000D03*
X10515600Y2971800D03*
X10579100D03*
X10871200Y3098800D03*
Y3022600D03*
X10846200Y3466700D03*
X10581000Y3443600D03*
X10795000Y3200400D03*
X10451000Y4064000D03*
X10566400Y3683000D03*
X10464800D03*
X10846200Y3632200D03*
X10896600Y3911600D03*
X10666850Y3811150D03*
X10795000Y3822700D03*
Y3759200D03*
X10871600Y4140600D03*
Y4394600D03*
Y4648600D03*
Y4902600D03*
X10587050Y5634050D03*
Y5380050D03*
X10871600Y5156600D03*
Y5410600D03*
X10587050Y5888050D03*
Y6142050D03*
X10871600Y5918600D03*
Y5664600D03*
X10858500Y6540500D03*
X10731500D03*
X10858500Y6286500D03*
X10731500D03*
G54D11*
X965200Y304800D03*
Y6604790D03*
G54D12*
X765200Y734800D03*
X1070000Y6172940D03*
G54D13*
X2032000Y254000D03*
X2540000D03*
X2032000Y762000D03*
X2540000D03*
X3048000Y254000D03*
Y762000D03*
X3556000Y254000D03*
Y762000D03*
X4064000Y254000D03*
Y762000D03*
X4572000Y254000D03*
Y762000D03*
X5080000Y254000D03*
Y762000D03*
X5588000Y254000D03*
Y762000D03*
X6096000Y254000D03*
Y762000D03*
X6604000Y254000D03*
Y762000D03*
X7112000Y254000D03*
Y762000D03*
X7620000Y254000D03*
Y762000D03*
X8128000Y254000D03*
Y762000D03*
X8636000Y254000D03*
Y762000D03*
X9144000Y254000D03*
Y762000D03*
X9652000Y254000D03*
Y762000D03*
X10160000Y254000D03*
Y762000D03*
X10668000Y254000D03*
Y762000D03*
G54D14*
X2286000Y508000D03*
X3302000D03*
X4318000D03*
X5334000D03*
X6350000D03*
X7366000D03*
X8382000D03*
X9398000D03*
X10414000D03*
G54D15*
X3175000Y2921000D03*
X3429000D03*
X3175000Y2667000D03*
Y3429000D03*
X3429000D03*
X3175000Y3175000D03*
X3429000D03*
X3175000Y3937000D03*
X3429000D03*
X3175000Y3683000D03*
X3429000D03*
X3175000Y4445000D03*
X3429000D03*
X3175000Y4191000D03*
X3429000D03*
X3175000Y4953000D03*
X3429000D03*
X3175000Y4699000D03*
X3429000D03*
X3175000Y5715000D03*
X3429000D03*
X3175000Y5461000D03*
X3429000D03*
X3175000Y5207000D03*
X3429000D03*
X3175000Y6223000D03*
X3429000D03*
X3175000Y5969000D03*
X3429000D03*
X5016500Y2921000D03*
Y2667000D03*
Y3429000D03*
Y3175000D03*
Y3937000D03*
Y3683000D03*
Y4445000D03*
Y4191000D03*
Y4953000D03*
Y4699000D03*
Y5715000D03*
Y5461000D03*
Y5207000D03*
Y6223000D03*
Y5969000D03*
X5270500Y2921000D03*
Y3429000D03*
Y3175000D03*
Y3937000D03*
Y3683000D03*
Y4445000D03*
Y4191000D03*
Y4953000D03*
Y4699000D03*
Y5715000D03*
Y5461000D03*
Y5207000D03*
Y6223000D03*
Y5969000D03*
X6858000Y2921000D03*
X7112000D03*
X6858000Y2667000D03*
Y3429000D03*
X7112000D03*
X6858000Y3175000D03*
X7112000D03*
X6858000Y3937000D03*
X7112000D03*
X6858000Y3683000D03*
X7112000D03*
X6858000Y4445000D03*
X7112000D03*
X6858000Y4191000D03*
X7112000D03*
X6858000Y4953000D03*
X7112000D03*
X6858000Y4699000D03*
X7112000D03*
X6858000Y5715000D03*
X7112000D03*
X6858000Y5461000D03*
X7112000D03*
X6858000Y5207000D03*
X7112000D03*
X6858000Y6223000D03*
X7112000D03*
X6858000Y5969000D03*
X7112000D03*
X8636000Y2921000D03*
X8890000D03*
X8636000Y2667000D03*
Y3429000D03*
X8890000D03*
X8636000Y3175000D03*
X8890000D03*
X8636000Y3937000D03*
X8890000D03*
X8636000Y3683000D03*
X8890000D03*
X8636000Y4445000D03*
X8890000D03*
X8636000Y4191000D03*
X8890000D03*
X8636000Y4953000D03*
X8890000D03*
X8636000Y4699000D03*
X8890000D03*
X8636000Y5715000D03*
X8890000D03*
X8636000Y5461000D03*
X8890000D03*
X8636000Y5207000D03*
X8890000D03*
X8636000Y6223000D03*
X8890000D03*
X8636000Y5969000D03*
X8890000D03*
G54D16*
X3429000Y2667000D03*
X5270500D03*
X7112000D03*
X8890000D03*
G54D17*
X10156500Y4381500D03*
Y6413500D03*
M02*
