G04 ================== begin FILE IDENTIFICATION RECORD ==================*
G04 Layout Name:  C:/Jeonghyun/Lab/RFSoC_FMC4/allegro/fmc_db.brd*
G04 Film Name:    L3*
G04 File Format:  Gerber RS274X*
G04 File Origin:  Cadence Allegro 23.1-S003*
G04 Origin Date:  Wed May 15 13:37:00 2024*
G04 *
G04 Layer:  ETCH/L3*
G04 Layer:  PIN/L3*
G04 Layer:  VIA CLASS/L3*
G04 *
G04 Offset:    (0.0000 0.0000)*
G04 Mirror:    No*
G04 Mode:      Positive*
G04 Rotation:  0*
G04 FullContactRelief:  No*
G04 UndefLineWidth:     0.0000*
G04 ================== end FILE IDENTIFICATION RECORD ====================*
%FSLAX25Y25*MOMM*%
%IR0*IPPOS*OFA0.00000B0.00000*MIA0B0*SFA1.00000B1.00000*%
%ADD10C,.508*%
%ADD17C,2.*%
%ADD13C,2.032*%
%ADD11C,3.2004*%
%ADD15C,1.651*%
%ADD16R,1.651X1.651*%
%ADD12C,1.2954*%
%ADD14R,1.905X1.905*%
%ADD18C,.1057*%
%ADD19C,.177*%
G75*
%LPD*%
G75*
G54D10*
X145200Y1025870D03*
X272200Y1152870D03*
Y1279870D03*
X145200Y1406870D03*
Y1533870D03*
X272200Y1660870D03*
Y1787870D03*
X145200Y1914870D03*
Y2041870D03*
X272200Y2168870D03*
Y2295870D03*
X145200Y2422870D03*
Y2549870D03*
X272200Y2676870D03*
Y2803870D03*
X145200Y2930870D03*
Y3057870D03*
X272200Y3184870D03*
Y3311870D03*
X145200Y3438870D03*
Y3565870D03*
X272200Y3692870D03*
Y3819870D03*
X145200Y3946870D03*
Y4073870D03*
X272200Y4200870D03*
Y4327870D03*
X145200Y4454870D03*
Y4581870D03*
X272200Y4708870D03*
Y4835870D03*
X145200Y4962870D03*
Y5089870D03*
X272200Y5216870D03*
Y5343870D03*
X145200Y5470870D03*
Y5597870D03*
X272200Y5724870D03*
Y5851870D03*
X145200Y5978870D03*
X399200Y1406870D03*
Y1025870D03*
X526200Y1152870D03*
Y1279870D03*
X653200Y1025870D03*
Y1406870D03*
X780200Y1152870D03*
Y1279870D03*
X526200Y1914870D03*
X780200Y1660870D03*
X399200Y1533870D03*
X653200D03*
X526200Y1660870D03*
Y1787870D03*
X399200Y1914870D03*
X653200D03*
X399200Y2168870D03*
Y2295870D03*
X526200Y2041870D03*
Y2295870D03*
Y2422870D03*
X780200Y2041870D03*
Y2422870D03*
X399200Y2041870D03*
X526200Y2168870D03*
X653200Y2295870D03*
X399200Y2422870D03*
Y2676870D03*
Y2803870D03*
X526200Y2676870D03*
Y2803870D03*
X780200D03*
X399200Y2549870D03*
X526200D03*
X653200Y2676870D03*
X399200Y2930870D03*
X526200D03*
X399200Y3184870D03*
Y3311870D03*
X526200Y3057870D03*
Y3184870D03*
Y3438870D03*
X780200Y3184870D03*
X399200Y3057870D03*
X653200D03*
X526200Y3311870D03*
X399200Y3438870D03*
X653200D03*
X399200Y3692870D03*
Y3819870D03*
X526200Y3565870D03*
Y3819870D03*
Y3946870D03*
X780200Y3565870D03*
Y3946870D03*
X399200Y3565870D03*
X526200Y3692870D03*
X653200Y3819870D03*
X399200Y3946870D03*
Y4200870D03*
Y4327870D03*
X526200Y4200870D03*
Y4327870D03*
X780200D03*
X399200Y4073870D03*
X526200D03*
X653200Y4200870D03*
X399200Y4454870D03*
X526200D03*
X399200Y4581870D03*
X653200D03*
X399200Y4708870D03*
Y4835870D03*
X780200Y4708870D03*
Y5089870D03*
X399200Y4962870D03*
X653200D03*
X399200Y5089870D03*
X526200Y5470870D03*
X399200Y5597870D03*
Y5343870D03*
X780200Y5470870D03*
X653200Y5343870D03*
X399200Y5470870D03*
X526200Y5597870D03*
Y5978870D03*
Y5724870D03*
X399200Y5851870D03*
Y5978870D03*
X526200Y5851870D03*
X653200Y5724870D03*
Y5978870D03*
X780200Y5851870D03*
X399200Y5724870D03*
X1288200Y1152870D03*
X1034200Y1279870D03*
X1288200D03*
X907200Y1406870D03*
X1161200D03*
X907200Y1025870D03*
X1161200D03*
X1034200Y1152870D03*
Y1914870D03*
X907200Y1660870D03*
Y1787870D03*
X1034200D03*
X907200Y1533870D03*
X1161200D03*
X1034200Y1660870D03*
X1288200D03*
X907200Y1914870D03*
X1161200D03*
X907200Y2041870D03*
Y2168870D03*
Y2422870D03*
X1034200Y2168870D03*
Y2295870D03*
Y2041870D03*
X1288200D03*
X907200Y2295870D03*
X1161200D03*
X1034200Y2422870D03*
X1288200D03*
X907200Y2549870D03*
Y2803870D03*
Y2930870D03*
X1034200D03*
Y2549870D03*
Y2676870D03*
X907200D03*
X1161200D03*
X1034200Y2803870D03*
X1288200D03*
X907200Y3184870D03*
Y3311870D03*
X1034200Y3057870D03*
Y3311870D03*
Y3438870D03*
X907200Y3057870D03*
X1161200D03*
X1034200Y3184870D03*
X1288200D03*
X907200Y3438870D03*
X1161200D03*
X907200Y3565870D03*
Y3692870D03*
Y3946870D03*
X1034200Y3819870D03*
Y3692870D03*
Y3565870D03*
X1288200D03*
X907200Y3819870D03*
X1161200D03*
X1034200Y3946870D03*
X1288200D03*
X907200Y4073870D03*
Y4327870D03*
Y4454870D03*
X1034200Y4581870D03*
Y4200870D03*
Y4454870D03*
Y4073870D03*
X907200Y4200870D03*
X1161200D03*
X1034200Y4327870D03*
X1288200D03*
X907200Y4581870D03*
X1161200D03*
X907200Y4708870D03*
Y4835870D03*
Y5089870D03*
X1034200Y4835870D03*
Y4962870D03*
Y4708870D03*
X1288200D03*
X907200Y4962870D03*
X1161200D03*
X1034200Y5089870D03*
X1288200D03*
X907200Y5216870D03*
Y5470870D03*
Y5597870D03*
X1034200Y5216870D03*
Y5597870D03*
Y5343870D03*
X907200D03*
X1161200D03*
X1034200Y5470870D03*
X1288200D03*
X1034200Y5724870D03*
X1161200D03*
X1288200Y5851870D03*
X907200Y5724870D03*
Y5978870D03*
X1034200Y5851870D03*
X1161200Y5978870D03*
X3911600Y6400800D03*
X4038600D03*
X5740400D03*
X5867400D03*
X7594600D03*
X7747000D03*
X8178800D03*
X9093200Y1346200D03*
Y1270000D03*
X9372600Y3022600D03*
X9296400D03*
X9347200Y6400800D03*
X9779400Y1320400D03*
X9677800D03*
X9829800Y2311400D03*
Y2387600D03*
X9880600Y2743200D03*
X9753600Y3022600D03*
X9677400D03*
X9601200D03*
X9525000D03*
X9448800D03*
X9677400Y6604000D03*
Y6540500D03*
Y6286500D03*
Y6223000D03*
X10368310Y1422700D03*
X9956800Y2043550D03*
X10146150D03*
X10261600D03*
X9906000Y2362200D03*
X10129520Y2336800D03*
X10027920D03*
X10210800Y2641600D03*
X10386000Y2921400D03*
X10321000D03*
X10256000D03*
X10191000D03*
X10126000D03*
X10061000D03*
X9996000D03*
X9931000D03*
X9982200Y2743200D03*
X10386000Y2641600D03*
Y3203000D03*
X10337800Y3479800D03*
X10363200Y3683000D03*
X10260390Y3683260D03*
X10414000Y4368800D03*
Y4622800D03*
Y4876800D03*
Y5130800D03*
X10718800Y939800D03*
X10795000D03*
X10622310Y1420160D03*
X10713690D03*
X10459690Y1422700D03*
X10718800Y1905000D03*
X10820400Y2006600D03*
X10896600D03*
Y2463800D03*
X10515600Y2819400D03*
X10693400Y2641600D03*
Y2540000D03*
X10515600Y2971800D03*
X10579100D03*
X10871200Y3098800D03*
Y3022600D03*
X10846200Y3466700D03*
X10581000Y3443600D03*
X10795000Y3200400D03*
X10451000Y4064000D03*
X10566400Y3683000D03*
X10464800D03*
X10846200Y3632200D03*
X10896600Y3911600D03*
X10666850Y3811150D03*
X10795000Y3822700D03*
Y3759200D03*
X10871600Y4140600D03*
Y4394600D03*
Y4648600D03*
Y4902600D03*
X10587050Y5634050D03*
Y5380050D03*
X10871600Y5156600D03*
Y5410600D03*
X10587050Y5888050D03*
Y6142050D03*
X10871600Y5918600D03*
Y5664600D03*
X10858500Y6540500D03*
X10731500D03*
X10858500Y6286500D03*
X10731500D03*
G54D11*
X965200Y304800D03*
Y6604790D03*
G54D12*
X765200Y734800D03*
X1070000Y6172940D03*
G54D13*
X2032000Y254000D03*
X2540000D03*
X2032000Y762000D03*
X2540000D03*
X3048000Y254000D03*
Y762000D03*
X3556000Y254000D03*
Y762000D03*
X4064000Y254000D03*
Y762000D03*
X4572000Y254000D03*
Y762000D03*
X5080000Y254000D03*
Y762000D03*
X5588000Y254000D03*
Y762000D03*
X6096000Y254000D03*
Y762000D03*
X6604000Y254000D03*
Y762000D03*
X7112000Y254000D03*
Y762000D03*
X7620000Y254000D03*
Y762000D03*
X8128000Y254000D03*
Y762000D03*
X8636000Y254000D03*
Y762000D03*
X9144000Y254000D03*
Y762000D03*
X9652000Y254000D03*
Y762000D03*
X10160000Y254000D03*
Y762000D03*
X10668000Y254000D03*
Y762000D03*
G54D14*
X2286000Y508000D03*
X3302000D03*
X4318000D03*
X5334000D03*
X6350000D03*
X7366000D03*
X8382000D03*
X9398000D03*
X10414000D03*
G54D15*
X3175000Y2921000D03*
X3429000D03*
X3175000Y2667000D03*
Y3429000D03*
X3429000D03*
X3175000Y3175000D03*
X3429000D03*
X3175000Y3937000D03*
X3429000D03*
X3175000Y3683000D03*
X3429000D03*
X3175000Y4445000D03*
X3429000D03*
X3175000Y4191000D03*
X3429000D03*
X3175000Y4953000D03*
X3429000D03*
X3175000Y4699000D03*
X3429000D03*
X3175000Y5715000D03*
X3429000D03*
X3175000Y5461000D03*
X3429000D03*
X3175000Y5207000D03*
X3429000D03*
X3175000Y6223000D03*
X3429000D03*
X3175000Y5969000D03*
X3429000D03*
X5016500Y2921000D03*
Y2667000D03*
Y3429000D03*
Y3175000D03*
Y3937000D03*
Y3683000D03*
Y4445000D03*
Y4191000D03*
Y4953000D03*
Y4699000D03*
Y5715000D03*
Y5461000D03*
Y5207000D03*
Y6223000D03*
Y5969000D03*
X5270500Y2921000D03*
Y3429000D03*
Y3175000D03*
Y3937000D03*
Y3683000D03*
Y4445000D03*
Y4191000D03*
Y4953000D03*
Y4699000D03*
Y5715000D03*
Y5461000D03*
Y5207000D03*
Y6223000D03*
Y5969000D03*
X6858000Y2921000D03*
X7112000D03*
X6858000Y2667000D03*
Y3429000D03*
X7112000D03*
X6858000Y3175000D03*
X7112000D03*
X6858000Y3937000D03*
X7112000D03*
X6858000Y3683000D03*
X7112000D03*
X6858000Y4445000D03*
X7112000D03*
X6858000Y4191000D03*
X7112000D03*
X6858000Y4953000D03*
X7112000D03*
X6858000Y4699000D03*
X7112000D03*
X6858000Y5715000D03*
X7112000D03*
X6858000Y5461000D03*
X7112000D03*
X6858000Y5207000D03*
X7112000D03*
X6858000Y6223000D03*
X7112000D03*
X6858000Y5969000D03*
X7112000D03*
X8636000Y2921000D03*
X8890000D03*
X8636000Y2667000D03*
Y3429000D03*
X8890000D03*
X8636000Y3175000D03*
X8890000D03*
X8636000Y3937000D03*
X8890000D03*
X8636000Y3683000D03*
X8890000D03*
X8636000Y4445000D03*
X8890000D03*
X8636000Y4191000D03*
X8890000D03*
X8636000Y4953000D03*
X8890000D03*
X8636000Y4699000D03*
X8890000D03*
X8636000Y5715000D03*
X8890000D03*
X8636000Y5461000D03*
X8890000D03*
X8636000Y5207000D03*
X8890000D03*
X8636000Y6223000D03*
X8890000D03*
X8636000Y5969000D03*
X8890000D03*
G54D16*
X3429000Y2667000D03*
X5270500D03*
X7112000D03*
X8890000D03*
G54D17*
X10156500Y4381500D03*
Y6413500D03*
G54D18*
G01X8890000Y3937000D02*
X8784860D01*
X8774290Y3926430D01*
Y3814770D01*
X8743060Y3783540D01*
X8406340D01*
X8051800Y3429000D01*
Y1118820D01*
X8028010Y1095030D01*
X1573190D01*
X1549400Y1118820D01*
Y2133600D01*
X1463440Y2219560D01*
X1442400D01*
G03X1432400Y2209560I0J-10000D01*
G02X1412400I-10000J0D01*
G03X1402400Y2219560I-10000J0D01*
G01X416160D01*
X399200Y2202600D01*
Y2168870D01*
G01X8636000Y3937000D02*
X8741150D01*
X8751720Y3926430D01*
Y3824120D01*
X8733710Y3806110D01*
X8396990D01*
X8029230Y3438350D01*
Y1128170D01*
X8018660Y1117600D01*
X8007600D01*
G02X7991600Y1133600I0J16000D01*
G03X7959600I-16000J0D01*
G02X7943600Y1117600I-16000J0D01*
G01X1582540D01*
X1571970Y1128170D01*
Y2142950D01*
X1472790Y2242130D01*
X416160D01*
X399200Y2259090D01*
Y2295870D01*
G01X8890000Y5461000D02*
X8784860D01*
X8774290Y5450430D01*
Y5385480D01*
X8722810Y5334000D01*
X8540920D01*
X7487880Y4280960D01*
Y2172760D01*
X6714950Y1399830D01*
X1776390D01*
X1752600Y1423620D01*
Y2260600D01*
X1728650Y2284550D01*
G03X1714500I-7075J-7065D01*
G02X1700350Y2298700I-7071J7079D01*
G03Y2312850I-7065J7075D01*
G01X1284110Y2729090D01*
X536770D01*
X526200Y2718520D01*
Y2676870D01*
G01X8636000Y5461000D02*
X8741150D01*
X8751720Y5450430D01*
Y5394830D01*
X8713460Y5356570D01*
X8531570D01*
X7465310Y4290310D01*
Y2182110D01*
X6705600Y1422400D01*
X6686800D01*
G02X6670800Y1438400I0J16000D01*
G03X6638800I-16000J0D01*
G02X6622800Y1422400I-16000J0D01*
G01X1785740D01*
X1775170Y1432970D01*
Y2269950D01*
X1293460Y2751660D01*
X536770D01*
X526200Y2762230D01*
Y2803870D01*
G01X399200Y3184870D02*
Y3228040D01*
X409770Y3238610D01*
X1306150D01*
X2057400Y2487360D01*
Y1877990D01*
X2081190Y1854200D01*
X5818210D01*
X5842000Y1877990D01*
Y4993230D01*
X5852570Y5003800D01*
X5921720D01*
G02X5942860Y4982660I0J-21140D01*
G01Y4920510D01*
G03X6030280I43710J0D01*
G01Y5109660D01*
G02X6072560I21140J0D01*
G01Y4920510D01*
G03X6159980I43710J0D01*
G01Y5109660D01*
G02X6202260I21140J0D01*
G01Y4920510D01*
G03X6289680I43710J0D01*
G01Y5109660D01*
G02X6331960I21140J0D01*
G01Y5047510D01*
G03X6375670Y5003800I43710J0D01*
G01X6380800D01*
G02X6390800Y4993800I0J-10000D01*
G03X6410800I10000J0D01*
G02X6420800Y5003800I10000J0D01*
G01X6697860D01*
X6708430Y4993230D01*
Y4599680D01*
X6732220Y4575890D01*
X6968950D01*
X6996290Y4603230D01*
Y4688430D01*
X7006860Y4699000D01*
X7112000D01*
G01X399200Y3311870D02*
Y3271740D01*
X409760Y3261180D01*
X1315500D01*
X2079970Y2496710D01*
Y1887340D01*
X2090540Y1876770D01*
X5733800D01*
G03X5749800Y1892770I0J16000D01*
G02X5781800I16000J0D01*
G03X5797800Y1876770I16000J0D01*
G01X5808860D01*
X5819430Y1887340D01*
Y5002580D01*
X5843220Y5026370D01*
X5921720D01*
G02X5965430Y4982660I0J-43710D01*
G01Y4920510D01*
G03X6007710I21140J0D01*
G01Y5109660D01*
G02X6095130I43710J0D01*
G01Y4920510D01*
G03X6137410I21140J0D01*
G01Y5109660D01*
G02X6224830I43710J0D01*
G01Y4920510D01*
G03X6267110I21140J0D01*
G01Y5109660D01*
G02X6354530I43710J0D01*
G01Y5047510D01*
G03X6375670Y5026370I21140J0D01*
G01X6707210D01*
X6731000Y5002580D01*
Y4658200D01*
G03X6736000Y4653200I5000J0D01*
G02Y4643200I0J-5000D01*
G03X6731000Y4638200I0J-5000D01*
G01Y4609030D01*
X6741570Y4598460D01*
X6959600D01*
X6973720Y4612580D01*
Y4688430D01*
X6963150Y4699000D01*
X6858000D01*
G01X526200Y3057870D02*
Y3094430D01*
X540330Y3108560D01*
X1260240D01*
X1955800Y2413000D01*
Y1728420D01*
X1979590Y1704630D01*
X6072210D01*
X6096000Y1728420D01*
Y4386460D01*
X6106570Y4397030D01*
X6181150D01*
G02X6202290Y4375890I0J-21140D01*
G01Y4336310D01*
G03X6289710I43710J0D01*
G01Y4480320D01*
G02X6331990I21140J0D01*
G01Y4336310D01*
G03X6419410I43710J0D01*
G01Y4480320D01*
G02X6461690I21140J0D01*
G01Y4336310D01*
G03X6549110I43710J0D01*
G01Y4480320D01*
G02X6591390I21140J0D01*
G01Y4336310D01*
G03X6678810I43710J0D01*
G01Y4380880D01*
G02X6694960Y4397030I16150J0D01*
G01X6724320D01*
X6734890Y4386460D01*
Y4338000D01*
G02X6724890Y4328000I-10000J0D01*
G03Y4308000I0J-10000D01*
G02X6734890Y4298000I0J-10000D01*
G01Y3807330D01*
X6758680Y3783540D01*
X6972500D01*
X6996290Y3807330D01*
Y3926430D01*
X7006860Y3937000D01*
X7112000D01*
G01X526200Y3184870D02*
Y3145260D01*
X540330Y3131130D01*
X1269590D01*
X1978370Y2422350D01*
Y1737770D01*
X1988940Y1727200D01*
X5987800D01*
G03X6003800Y1743200I0J16000D01*
G02X6035800I16000J0D01*
G03X6051800Y1727200I16000J0D01*
G01X6062860D01*
X6073430Y1737770D01*
Y4395810D01*
X6097220Y4419600D01*
X6181150D01*
G02X6224860Y4375890I0J-43710D01*
G01Y4336310D01*
G03X6267140I21140J0D01*
G01Y4480320D01*
G02X6354560I43710J0D01*
G01Y4336310D01*
G03X6396840I21140J0D01*
G01Y4480320D01*
G02X6484260I43710J0D01*
G01Y4336310D01*
G03X6526540I21140J0D01*
G01Y4480320D01*
G02X6613960I43710J0D01*
G01Y4336310D01*
G03X6656240I21140J0D01*
G01Y4380880D01*
G02X6694960Y4419600I38720J0D01*
G01X6733670D01*
X6757460Y4395810D01*
Y3816680D01*
X6768030Y3806110D01*
X6963150D01*
X6973720Y3816680D01*
Y3926430D01*
X6963150Y3937000D01*
X6858000D01*
G01X526200Y3438870D02*
Y3480510D01*
X536770Y3491080D01*
X1258720D01*
X2159000Y2590800D01*
Y2033220D01*
X2182790Y2009430D01*
X5561380D01*
X5585170Y2033220D01*
Y4653600D01*
G02X5595170Y4663600I10000J0D01*
G03Y4683600I0J10000D01*
G02X5585170Y4693600I0J10000D01*
G01Y4699890D01*
G02X5606310Y4721030I21140J0D01*
G01X5645890D01*
G03Y4808450I0J43710D01*
G01X5501880D01*
G02Y4850730I0J21140D01*
G01X5645890D01*
G03Y4938150I0J43710D01*
G01X5501880D01*
G02Y4980430I0J21140D01*
G01X5645890D01*
G03Y5067850I0J43710D01*
G01X5501880D01*
G02Y5110130I0J21140D01*
G01X5645890D01*
G03Y5197550I0J43710D01*
G01X5606310D01*
G02X5585170Y5218690I0J21140D01*
G01Y5323430D01*
X5595740Y5334000D01*
X5605740D01*
G02X5615740Y5324000I0J-10000D01*
G03X5635740I10000J0D01*
G02X5645740Y5334000I10000J0D01*
G01X6940720D01*
X6996290Y5389570D01*
Y5450430D01*
X7006860Y5461000D01*
X7112000D01*
G01X526200Y3565870D02*
Y3524220D01*
X536770Y3513650D01*
X1268070D01*
X2181570Y2600150D01*
Y2042570D01*
X2192140Y2032000D01*
X5429000D01*
G03X5445000Y2048000I0J16000D01*
G02X5477000I16000J0D01*
G03X5493000Y2032000I16000J0D01*
G01X5552030D01*
X5562600Y2042570D01*
Y4699890D01*
G02X5606310Y4743600I43710J0D01*
G01X5645890D01*
G03Y4785880I0J21140D01*
G01X5501880D01*
G02Y4873300I0J43710D01*
G01X5645890D01*
G03Y4915580I0J21140D01*
G01X5501880D01*
G02Y5003000I0J43710D01*
G01X5645890D01*
G03Y5045280I0J21140D01*
G01X5501880D01*
G02Y5132700I0J43710D01*
G01X5645890D01*
G03Y5174980I0J21140D01*
G01X5606310D01*
G02X5562600Y5218690I0J43710D01*
G01Y5332780D01*
X5586390Y5356570D01*
X6761800D01*
G03X6771800Y5366570I0J10000D01*
G02X6791800I10000J0D01*
G03X6801800Y5356570I10000J0D01*
G01X6931370D01*
X6973720Y5398920D01*
Y5450430D01*
X6963150Y5461000D01*
X6858000D01*
G01X526200Y3819870D02*
Y3856430D01*
X540330Y3870560D01*
X1260240D01*
X2362200Y2768600D01*
Y2312620D01*
X2385990Y2288830D01*
X4268810D01*
X4292600Y2312620D01*
Y2351060D01*
G02X4299120Y2357580I6520J0D01*
G01X4350490D01*
G03Y2445000I0J43710D01*
G01X4212140D01*
G02Y2487280I0J21140D01*
G01X4350490D01*
G03Y2574700I0J43710D01*
G01X4212140D01*
G02Y2616980I0J21140D01*
G01X4350490D01*
G03Y2704400I0J43710D01*
G01X4212140D01*
G02Y2746680I0J21140D01*
G01X4350490D01*
G03Y2834100I0J43710D01*
G01X4212140D01*
G02Y2876380I0J21140D01*
G01X4350490D01*
G03Y2963800I0J43710D01*
G01X4212140D01*
G02Y3006080I0J21140D01*
G01X4350490D01*
G03Y3093500I0J43710D01*
G01X4212140D01*
G02Y3135780I0J21140D01*
G01X4350490D01*
G03Y3223200I0J43710D01*
G01X4212140D01*
G02Y3265480I0J21140D01*
G01X4350490D01*
G03Y3352900I0J43710D01*
G01X4212140D01*
G02Y3395180I0J21140D01*
G01X4350490D01*
G03Y3482600I0J43710D01*
G01X4212140D01*
G02Y3524880I0J21140D01*
G01X4350490D01*
G03Y3612300I0J43710D01*
G01X4212140D01*
G02Y3654580I0J21140D01*
G01X4350490D01*
G03Y3742000I0J43710D01*
G01X4212140D01*
G02Y3784280I0J21140D01*
G01X4350490D01*
G03Y3871700I0J43710D01*
G01X4212140D01*
G02Y3913980I0J21140D01*
G01X4350490D01*
G03Y4001400I0J43710D01*
G01X4313740D01*
G02X4292600Y4022540I0J21140D01*
G01Y4111830D01*
X4303170Y4122400D01*
X4843660D01*
X4854230Y4111830D01*
Y3837680D01*
X4878020Y3813890D01*
X5107200D01*
X5154790Y3861480D01*
Y3926430D01*
X5165360Y3937000D01*
X5270500D01*
G01X526200Y3946870D02*
Y3907260D01*
X540330Y3893130D01*
X1269590D01*
X2384770Y2777950D01*
Y2321970D01*
X2395340Y2311400D01*
X4259460D01*
X4270030Y2321970D01*
Y2351060D01*
G02X4299120Y2380150I29090J0D01*
G01X4350490D01*
G03Y2422430I0J21140D01*
G01X4212140D01*
G02Y2509850I0J43710D01*
G01X4350490D01*
G03Y2552130I0J21140D01*
G01X4212140D01*
G02Y2639550I0J43710D01*
G01X4350490D01*
G03Y2681830I0J21140D01*
G01X4212140D01*
G02Y2769250I0J43710D01*
G01X4350490D01*
G03Y2811530I0J21140D01*
G01X4212140D01*
G02Y2898950I0J43710D01*
G01X4350490D01*
G03Y2941230I0J21140D01*
G01X4212140D01*
G02Y3028650I0J43710D01*
G01X4350490D01*
G03Y3070930I0J21140D01*
G01X4212140D01*
G02Y3158350I0J43710D01*
G01X4350490D01*
G03Y3200630I0J21140D01*
G01X4212140D01*
G02Y3288050I0J43710D01*
G01X4350490D01*
G03Y3330330I0J21140D01*
G01X4212140D01*
G02Y3417750I0J43710D01*
G01X4350490D01*
G03Y3460030I0J21140D01*
G01X4212140D01*
G02Y3547450I0J43710D01*
G01X4350490D01*
G03Y3589730I0J21140D01*
G01X4212140D01*
G02Y3677150I0J43710D01*
G01X4350490D01*
G03Y3719430I0J21140D01*
G01X4212140D01*
G02Y3806850I0J43710D01*
G01X4350490D01*
G03Y3849130I0J21140D01*
G01X4212140D01*
G02Y3936550I0J43710D01*
G01X4350490D01*
G03Y3978830I0J21140D01*
G01X4313740D01*
G02X4270030Y4022540I0J43710D01*
G01Y4121180D01*
X4293820Y4144970D01*
X4853010D01*
X4876800Y4121180D01*
Y3906200D01*
G03X4886800Y3896200I10000J0D01*
G02Y3876200I0J-10000D01*
G03X4876800Y3866200I0J-10000D01*
G01Y3847030D01*
X4887370Y3836460D01*
X5097850D01*
X5132220Y3870830D01*
Y3926430D01*
X5121650Y3937000D01*
X5016500D01*
G01X399200Y4200870D02*
Y4242520D01*
X409770Y4253090D01*
X1233310D01*
X2565400Y2921000D01*
Y2563790D01*
X2589190Y2540000D01*
X3714920D01*
X3756370Y2581450D01*
Y3884560D01*
G03X3712660Y3928270I-43710J0D01*
G01X3673080D01*
G02Y3970550I0J21140D01*
G01X3817090D01*
G03Y4057970I0J43710D01*
G01X3673080D01*
G02Y4100250I0J21140D01*
G01X3817090D01*
G03Y4187670I0J43710D01*
G01X3673080D01*
G02Y4229950I0J21140D01*
G01X3817090D01*
G03Y4317370I0J43710D01*
G01X3673080D01*
G02Y4359650I0J21140D01*
G01X3817090D01*
G03Y4447070I0J43710D01*
G01X3673080D01*
G02Y4489350I0J21140D01*
G01X3817090D01*
G03Y4576770I0J43710D01*
G01X3673080D01*
G02Y4619050I0J21140D01*
G01X3817090D01*
G03Y4706470I0J43710D01*
G01X3673080D01*
G02Y4748750I0J21140D01*
G01X3817090D01*
G03Y4836170I0J43710D01*
G01X3673080D01*
G02Y4878450I0J21140D01*
G01X3817090D01*
G03Y4965870I0J43710D01*
G01X3673080D01*
G02Y5008150I0J21140D01*
G01X3817090D01*
G03Y5095570I0J43710D01*
G01X3673080D01*
G02Y5137850I0J21140D01*
G01X3817090D01*
G03Y5225270I0J43710D01*
G01X3777510D01*
G02X3756370Y5246410I0J21140D01*
G02X3766370Y5256410I10000J0D01*
G03Y5276410I0J10000D01*
G02X3756370Y5286410I0J10000D01*
G01Y5323430D01*
X3766940Y5334000D01*
X3776940D01*
G02X3786940Y5324000I0J-10000D01*
G03X3806940I10000J0D01*
G02X3816940Y5334000I10000J0D01*
G01X5103310D01*
X5154790Y5385480D01*
Y5450430D01*
X5165360Y5461000D01*
X5270500D01*
G01X399200Y4327870D02*
Y4286230D01*
X409770Y4275660D01*
X1242660D01*
X2587970Y2930350D01*
Y2573140D01*
X2598540Y2562570D01*
X3600200D01*
G03X3616200Y2578570I0J16000D01*
G02X3648200I16000J0D01*
G03X3664200Y2562570I16000J0D01*
G01X3705570D01*
X3733800Y2590800D01*
Y3840800D01*
G03X3723800Y3850800I-10000J0D01*
G02Y3870800I0J10000D01*
G03X3733800Y3880800I0J10000D01*
G01Y3884560D01*
G03X3712660Y3905700I-21140J0D01*
G01X3673080D01*
G02Y3993120I0J43710D01*
G01X3817090D01*
G03Y4035400I0J21140D01*
G01X3673080D01*
G02Y4122820I0J43710D01*
G01X3817090D01*
G03Y4165100I0J21140D01*
G01X3673080D01*
G02Y4252520I0J43710D01*
G01X3817090D01*
G03Y4294800I0J21140D01*
G01X3673080D01*
G02Y4382220I0J43710D01*
G01X3817090D01*
G03Y4424500I0J21140D01*
G01X3673080D01*
G02Y4511920I0J43710D01*
G01X3817090D01*
G03Y4554200I0J21140D01*
G01X3673080D01*
G02Y4641620I0J43710D01*
G01X3817090D01*
G03Y4683900I0J21140D01*
G01X3673080D01*
G02Y4771320I0J43710D01*
G01X3817090D01*
G03Y4813600I0J21140D01*
G01X3673080D01*
G02Y4901020I0J43710D01*
G01X3817090D01*
G03Y4943300I0J21140D01*
G01X3673080D01*
G02Y5030720I0J43710D01*
G01X3817090D01*
G03Y5073000I0J21140D01*
G01X3673080D01*
G02Y5160420I0J43710D01*
G01X3817090D01*
G03Y5202700I0J21140D01*
G01X3777510D01*
G02X3733800Y5246410I0J43710D01*
G01Y5332780D01*
X3757590Y5356570D01*
X5093960D01*
X5132220Y5394830D01*
Y5450430D01*
X5121650Y5461000D01*
X5016500D01*
G01X907200Y2041870D02*
Y2066890D01*
X932870Y2092560D01*
X1362640D01*
G02X1372640Y2082560I0J-10000D01*
G03X1392640I10000J0D01*
G02X1402640Y2092560I10000J0D01*
G01X1412640D01*
X1447800Y2057400D01*
Y966420D01*
X1471590Y942630D01*
X8307410D01*
X8331200Y966420D01*
Y1702080D01*
G03X8287490Y1745790I-43710J0D01*
G01X8225340D01*
G02Y1788070I0J21140D01*
G01X8414490D01*
G03Y1875490I0J43710D01*
G01X8225340D01*
G02Y1917770I0J21140D01*
G01X8414490D01*
G03Y2005190I0J43710D01*
G01X8352340D01*
G02X8331200Y2026330I0J21140D01*
G01Y3010970D01*
X8341770Y3021540D01*
X8743060D01*
X8774290Y3052770D01*
Y3164430D01*
X8784860Y3175000D01*
X8890000D01*
G01X907200Y2168870D02*
Y2140800D01*
X932870Y2115130D01*
X1421990D01*
X1470370Y2066750D01*
Y975770D01*
X1480940Y965200D01*
X8223000D01*
G03X8239000Y981200I0J16000D01*
G02X8271000I16000J0D01*
G03X8287000Y965200I16000J0D01*
G01X8298060D01*
X8308630Y975770D01*
Y1702080D01*
G03X8287490Y1723220I-21140J0D01*
G01X8225340D01*
G02Y1810640I0J43710D01*
G01X8414490D01*
G03Y1852920I0J21140D01*
G01X8225340D01*
G02Y1940340I0J43710D01*
G01X8414490D01*
G03Y1982620I0J21140D01*
G01X8352340D01*
G02X8308630Y2026330I0J43710D01*
G01Y3020320D01*
X8332420Y3044110D01*
X8733710D01*
X8751720Y3062120D01*
Y3164430D01*
X8741150Y3175000D01*
X8636000D01*
G01X8890000Y4699000D02*
X8784860D01*
X8774290Y4688430D01*
Y4627570D01*
X8692260Y4545540D01*
X8228540D01*
X7772400Y4089400D01*
Y1271220D01*
X7748610Y1247430D01*
X1674790D01*
X1651000Y1271220D01*
Y2209800D01*
X1385710Y2475090D01*
X1375710D01*
G03X1365710Y2465090I0J-10000D01*
G02X1345710I-10000J0D01*
G03X1335710Y2475090I-10000J0D01*
G01X917770D01*
X907200Y2464520D01*
Y2422870D01*
G01X8636000Y4699000D02*
X8741150D01*
X8751720Y4688430D01*
Y4636920D01*
X8682910Y4568110D01*
X8219190D01*
X7749830Y4098750D01*
Y1280570D01*
X7739260Y1270000D01*
X7702800D01*
G02X7686800Y1286000I0J16000D01*
G03X7654800I-16000J0D01*
G02X7638800Y1270000I-16000J0D01*
G01X1684140D01*
X1673570Y1280570D01*
Y2219150D01*
X1395060Y2497660D01*
X917770D01*
X907200Y2508230D01*
Y2549870D01*
G01Y2803870D02*
Y2837600D01*
X924160Y2854560D01*
X1336440D01*
X1814650Y2376350D01*
G02Y2362200I-7065J-7075D01*
G03X1828800Y2348050I7079J-7071D01*
G02X1842950I7075J-7065D01*
G01X1854200Y2336800D01*
Y1576020D01*
X1877990Y1552230D01*
X6326210D01*
X6350000Y1576020D01*
Y2727970D01*
G03X6306290Y2771680I-43710J0D01*
G01X6269540D01*
G02Y2813960I0J21140D01*
G01X6407890D01*
G03Y2901380I0J43710D01*
G01X6269540D01*
G02Y2943660I0J21140D01*
G01X6407890D01*
G03Y3031080I0J43710D01*
G01X6269540D01*
G02Y3073360I0J21140D01*
G01X6407890D01*
G03Y3160780I0J43710D01*
G01X6269540D01*
G02Y3203060I0J21140D01*
G01X6407890D01*
G03Y3290480I0J43710D01*
G01X6269540D01*
G02Y3332760I0J21140D01*
G01X6407890D01*
G03Y3420180I0J43710D01*
G01X6269540D01*
G02Y3462460I0J21140D01*
G01X6407890D01*
G03Y3549880I0J43710D01*
G01X6371140D01*
G02X6350000Y3571020I0J21140D01*
G01Y3658640D01*
G02X6365000Y3673640I15000J0D01*
G03Y3703640I0J15000D01*
G02X6350000Y3718640I0J15000D01*
G01Y3728640D01*
X6360570Y3739210D01*
X6697860D01*
X6708430Y3728640D01*
Y3718640D01*
G02X6693430Y3703640I-15000J0D01*
G03Y3673640I0J-15000D01*
G02X6708430Y3658640I0J-15000D01*
G01Y3611400D01*
G02X6693430Y3596400I-15000J0D01*
G03Y3566400I0J-15000D01*
G02X6708430Y3551400I0J-15000D01*
G01Y3045330D01*
X6732220Y3021540D01*
X6939670D01*
X6996290Y3078160D01*
Y3164430D01*
X7006860Y3175000D01*
X7112000D01*
G01X907200Y2930870D02*
Y2894090D01*
X924160Y2877130D01*
X1345790D01*
X1876770Y2346150D01*
Y1585370D01*
X1887340Y1574800D01*
X6216400D01*
G03X6232400Y1590800I0J16000D01*
G02X6264400I16000J0D01*
G03X6280400Y1574800I16000J0D01*
G01X6316860D01*
X6327430Y1585370D01*
Y2621600D01*
G03X6317430Y2631600I-10000J0D01*
G02Y2651600I0J10000D01*
G03X6327430Y2661600I0J10000D01*
G01Y2672400D01*
G03X6317430Y2682400I-10000J0D01*
G02Y2702400I0J10000D01*
G03X6327430Y2712400I0J10000D01*
G01Y2727970D01*
G03X6306290Y2749110I-21140J0D01*
G01X6269540D01*
G02Y2836530I0J43710D01*
G01X6407890D01*
G03Y2878810I0J21140D01*
G01X6269540D01*
G02Y2966230I0J43710D01*
G01X6407890D01*
G03Y3008510I0J21140D01*
G01X6269540D01*
G02Y3095930I0J43710D01*
G01X6407890D01*
G03Y3138210I0J21140D01*
G01X6269540D01*
G02Y3225630I0J43710D01*
G01X6407890D01*
G03Y3267910I0J21140D01*
G01X6269540D01*
G02Y3355330I0J43710D01*
G01X6407890D01*
G03Y3397610I0J21140D01*
G01X6269540D01*
G02Y3485030I0J43710D01*
G01X6407890D01*
G03Y3527310I0J21140D01*
G01X6371140D01*
G02X6327430Y3571020I0J43710D01*
G01Y3737990D01*
X6351220Y3761780D01*
X6707210D01*
X6731000Y3737990D01*
Y3054680D01*
X6741570Y3044110D01*
X6751800D01*
G03X6766800Y3059110I0J15000D01*
G02X6796800I15000J0D01*
G03X6811800Y3044110I15000J0D01*
G01X6880320D01*
G03X6890320Y3054110I0J10000D01*
G02X6910320I10000J0D01*
G03X6920320Y3044110I10000J0D01*
G01X6930320D01*
X6973720Y3087510D01*
Y3164430D01*
X6963150Y3175000D01*
X6858000D01*
G01X1034200Y3819870D02*
Y3778230D01*
X1044770Y3767660D01*
X1210740D01*
X2283170Y2695230D01*
Y2194970D01*
X2293740Y2184400D01*
X4488060D01*
X4493350Y2189690D01*
G03X4498630Y2202440I-12754J12750D01*
G01Y2277990D01*
G02X4542340Y2321700I43710J0D01*
G01X4756890D01*
G03Y2363980I0J21140D01*
G01X4542340D01*
G02Y2451400I0J43710D01*
G01X4756890D01*
G03Y2493680I0J21140D01*
G01X4542340D01*
G02Y2581100I0J43710D01*
G01X4756890D01*
G03Y2623380I0J21140D01*
G01X4542340D01*
G02Y2710800I0J43710D01*
G01X4756890D01*
G03Y2753080I0J21140D01*
G01X4542340D01*
G02Y2840500I0J43710D01*
G01X4756890D01*
G03Y2882780I0J21140D01*
G01X4542340D01*
G02Y2970200I0J43710D01*
G01X4756890D01*
G03Y3012480I0J21140D01*
G01X4542340D01*
G02Y3099900I0J43710D01*
G01X4756890D01*
G03Y3142180I0J21140D01*
G01X4542340D01*
G02Y3229600I0J43710D01*
G01X4756890D01*
G03Y3271880I0J21140D01*
G01X4542340D01*
G02Y3359300I0J43710D01*
G01X4756890D01*
G03Y3401580I0J21140D01*
G01X4542340D01*
G02Y3489000I0J43710D01*
G01X4756890D01*
G03Y3531280I0J21140D01*
G01X4542340D01*
G02X4498630Y3574990I0J43710D01*
G01Y3632550D01*
X4522420Y3656340D01*
X4892170D01*
X4915960Y3632550D01*
Y3296600D01*
G03X4925960Y3286600I10000J0D01*
G02Y3266600I0J-10000D01*
G03X4915960Y3256600I0J-10000D01*
G01Y3085030D01*
X4926530Y3074460D01*
X5097850D01*
X5132220Y3108830D01*
Y3164430D01*
X5121650Y3175000D01*
X5016500D01*
G01X1034200Y3692870D02*
Y3734520D01*
X1044770Y3745090D01*
X1201390D01*
X2260600Y2685880D01*
Y2185620D01*
X2284390Y2161830D01*
X4497410D01*
X4509310Y2173730D01*
G03X4521200Y2202440I-28717J28710D01*
G01Y2277990D01*
G02X4542340Y2299130I21140J0D01*
G01X4756890D01*
G03Y2386550I0J43710D01*
G01X4542340D01*
G02Y2428830I0J21140D01*
G01X4756890D01*
G03Y2516250I0J43710D01*
G01X4542340D01*
G02Y2558530I0J21140D01*
G01X4756890D01*
G03Y2645950I0J43710D01*
G01X4542340D01*
G02Y2688230I0J21140D01*
G01X4756890D01*
G03Y2775650I0J43710D01*
G01X4542340D01*
G02Y2817930I0J21140D01*
G01X4756890D01*
G03Y2905350I0J43710D01*
G01X4542340D01*
G02Y2947630I0J21140D01*
G01X4756890D01*
G03Y3035050I0J43710D01*
G01X4542340D01*
G02Y3077330I0J21140D01*
G01X4756890D01*
G03Y3164750I0J43710D01*
G01X4542340D01*
G02Y3207030I0J21140D01*
G01X4756890D01*
G03Y3294450I0J43710D01*
G01X4542340D01*
G02Y3336730I0J21140D01*
G01X4756890D01*
G03Y3424150I0J43710D01*
G01X4542340D01*
G02Y3466430I0J21140D01*
G01X4756890D01*
G03Y3553850I0J43710D01*
G01X4542340D01*
G02X4521200Y3574990I0J21140D01*
G01Y3623200D01*
X4531770Y3633770D01*
X4882820D01*
X4893390Y3623200D01*
Y3075680D01*
X4917180Y3051890D01*
X5107200D01*
X5154790Y3099480D01*
Y3164430D01*
X5165360Y3175000D01*
X5270500D01*
G01X1034200Y4200870D02*
Y4159220D01*
X1044770Y4148650D01*
X1190030D01*
X2486370Y2852310D01*
Y2448970D01*
X2496940Y2438400D01*
X3879600D01*
G03X3895600Y2454400I0J16000D01*
G02X3927600I16000J0D01*
G03X3943600Y2438400I16000J0D01*
G01X3980060D01*
X3990630Y2448970D01*
Y4951780D01*
X4014420Y4975570D01*
X4079970D01*
G02X4123680Y4931860I0J-43710D01*
G01Y4793510D01*
G03X4165960I21140J0D01*
G01Y5135060D01*
G02X4253380I43710J0D01*
G01Y4793510D01*
G03X4295660I21140J0D01*
G01Y5135060D01*
G02X4383080I43710J0D01*
G01Y4793510D01*
G03X4425360I21140J0D01*
G01Y5135060D01*
G02X4512780I43710J0D01*
G01Y4793510D01*
G03X4555060I21140J0D01*
G01Y5135060D01*
G02X4642480I43710J0D01*
G01Y4793510D01*
G03X4684760I21140J0D01*
G01Y5135060D01*
G02X4772180I43710J0D01*
G01Y4793510D01*
G03X4814460I21140J0D01*
G01Y4936720D01*
G02X4853320Y4975570I38850J0D01*
G01X4892170D01*
X4915960Y4951780D01*
Y4609030D01*
X4926530Y4598460D01*
X5100140D01*
X5132220Y4630540D01*
Y4688430D01*
X5121650Y4699000D01*
X5016500D01*
G01X1034200Y4073870D02*
Y4115510D01*
X1044770Y4126080D01*
X1180680D01*
X2463800Y2842960D01*
Y2439620D01*
X2487590Y2415830D01*
X3989410D01*
X4013200Y2439620D01*
Y4942430D01*
X4023770Y4953000D01*
X4079970D01*
G02X4101110Y4931860I0J-21140D01*
G01Y4793510D01*
G03X4188530I43710J0D01*
G01Y5135060D01*
G02X4230810I21140J0D01*
G01Y4793510D01*
G03X4318230I43710J0D01*
G01Y5135060D01*
G02X4360510I21140J0D01*
G01Y4793510D01*
G03X4447930I43710J0D01*
G01Y5135060D01*
G02X4490210I21140J0D01*
G01Y4793510D01*
G03X4577630I43710J0D01*
G01Y5135060D01*
G02X4619910I21140J0D01*
G01Y4793510D01*
G03X4707330I43710J0D01*
G01Y5135060D01*
G02X4749610I21140J0D01*
G01Y4793510D01*
G03X4837030I43710J0D01*
G01Y4936720D01*
G02X4853310Y4953000I16280J0D01*
G01X4882820D01*
X4893390Y4942430D01*
Y4599680D01*
X4917180Y4575890D01*
X5109490D01*
X5154790Y4621190D01*
Y4688430D01*
X5165360Y4699000D01*
X5270500D01*
G01X1034200Y4581870D02*
Y4540230D01*
X1044770Y4529660D01*
X1210740D01*
X1425230Y4315170D01*
X1792030D01*
G02X1835740Y4271460I0J-43710D01*
G01Y3802910D01*
G03X1878020I21140J0D01*
G01Y4271460D01*
G02X1965440I43710J0D01*
G01Y3802910D01*
G03X2007720I21140J0D01*
G01Y4271460D01*
G02X2095140I43710J0D01*
G01Y3802910D01*
G03X2137420I21140J0D01*
G01Y4271460D01*
G02X2224840I43710J0D01*
G01Y3802910D01*
G03X2267120I21140J0D01*
G01Y4271460D01*
G02X2354540I43710J0D01*
G01Y3802910D01*
G03X2396820I21140J0D01*
G01Y4271460D01*
G02X2484240I43710J0D01*
G01Y3802910D01*
G03X2526520I21140J0D01*
G01Y4271460D01*
G02X2613940I43710J0D01*
G01Y3802910D01*
G03X2656220I21140J0D01*
G01Y4271460D01*
G02X2699930Y4315170I43710J0D01*
G01X2777960D01*
X2844800Y4248330D01*
Y3867330D01*
X3048000Y3664130D01*
Y3616580D01*
G02X3004290Y3572870I-43710J0D01*
G01X2786910D01*
G03Y3530590I0J-21140D01*
G01X3004290D01*
G02Y3443170I0J-43710D01*
G01X2786910D01*
G03Y3400890I0J-21140D01*
G01X3004290D01*
G02Y3313470I0J-43710D01*
G01X2786910D01*
G03Y3271190I0J-21140D01*
G01X3004290D01*
G02X3048000Y3227480I0J-43710D01*
G01Y3220400D01*
G03X3058000Y3210400I10000J0D01*
G02Y3190400I0J-10000D01*
G03X3048000Y3180400I0J-10000D01*
G01Y3169600D01*
G03X3058000Y3159600I10000J0D01*
G02Y3139600I0J-10000D01*
G03X3048000Y3129600I0J-10000D01*
G01Y3098810D01*
X3098810Y3048000D01*
X3232180D01*
X3290720Y3106540D01*
Y3164430D01*
X3280150Y3175000D01*
X3175000D01*
G01X1034200Y4454870D02*
Y4496520D01*
X1044770Y4507090D01*
X1201390D01*
X1415880Y4292600D01*
X1707200D01*
G02X1717200Y4282600I0J-10000D01*
G03X1737200I10000J0D01*
G02X1747200Y4292600I10000J0D01*
G01X1792030D01*
G02X1813170Y4271460I0J-21140D01*
G01Y3802910D01*
G03X1900590I43710J0D01*
G01Y4271460D01*
G02X1942870I21140J0D01*
G01Y3802910D01*
G03X2030290I43710J0D01*
G01Y4271460D01*
G02X2072570I21140J0D01*
G01Y3802910D01*
G03X2159990I43710J0D01*
G01Y4271460D01*
G02X2202270I21140J0D01*
G01Y3802910D01*
G03X2289690I43710J0D01*
G01Y4271460D01*
G02X2331970I21140J0D01*
G01Y3802910D01*
G03X2419390I43710J0D01*
G01Y4271460D01*
G02X2461670I21140J0D01*
G01Y3802910D01*
G03X2549090I43710J0D01*
G01Y4271460D01*
G02X2591370I21140J0D01*
G01Y3802910D01*
G03X2678790I43710J0D01*
G01Y4271460D01*
G02X2699930Y4292600I21140J0D01*
G01X2768610D01*
X2822230Y4238980D01*
Y3857980D01*
X3025430Y3654780D01*
Y3616580D01*
G02X3004290Y3595440I-21140J0D01*
G01X2786910D01*
G03Y3508020I0J-43710D01*
G01X3004290D01*
G02Y3465740I0J-21140D01*
G01X2786910D01*
G03Y3378320I0J-43710D01*
G01X3004290D01*
G02Y3336040I0J-21140D01*
G01X2786910D01*
G03Y3248620I0J-43710D01*
G01X3004290D01*
G02X3025430Y3227480I0J-21140D01*
G01Y3089460D01*
X3089460Y3025430D01*
X3241530D01*
X3313290Y3097190D01*
Y3164430D01*
X3323860Y3175000D01*
X3429000D01*
G01X1034200Y4835870D02*
Y4877520D01*
X1044770Y4888090D01*
X1478600D01*
G02X1488600Y4878090I0J-10000D01*
G03X1508600I10000J0D01*
G02X1518600Y4888090I10000J0D01*
G01X1521350D01*
G02X1542490Y4866950I0J-21140D01*
G01Y4463310D01*
G03X1629910I43710J0D01*
G01Y4866950D01*
G02X1672190I21140J0D01*
G01Y4463310D01*
G03X1759610I43710J0D01*
G01Y4866950D01*
G02X1801890I21140J0D01*
G01Y4463310D01*
G03X1889310I43710J0D01*
G01Y4866950D01*
G02X1931590I21140J0D01*
G01Y4463310D01*
G03X2019010I43710J0D01*
G01Y4866950D01*
G02X2061290I21140J0D01*
G01Y4463310D01*
G03X2148710I43710J0D01*
G01Y4866950D01*
G02X2190990I21140J0D01*
G01Y4463310D01*
G03X2278410I43710J0D01*
G01Y4866950D01*
G02X2320690I21140J0D01*
G01Y4463310D01*
G03X2408110I43710J0D01*
G01Y4866950D01*
G02X2450390I21140J0D01*
G01Y4463310D01*
G03X2537810I43710J0D01*
G01Y4866950D01*
G02X2580090I21140J0D01*
G01Y4463310D01*
G03X2667510I43710J0D01*
G01Y4866950D01*
G02X2709790I21140J0D01*
G01Y4463310D01*
G03X2797210I43710J0D01*
G01Y4866950D01*
G02X2818350Y4888090I21140J0D01*
G01X2935110D01*
X2946400Y4876800D01*
Y4866800D01*
G02X2936400Y4856800I-10000J0D01*
G03Y4836800I0J-10000D01*
G02X2946400Y4826800I0J-10000D01*
G01Y3937000D01*
X3073400Y3810000D01*
X3283120D01*
X3313290Y3840170D01*
Y3926430D01*
X3323860Y3937000D01*
X3429000D01*
G01X1034200Y4962870D02*
Y4921230D01*
X1044770Y4910660D01*
X1521350D01*
G02X1565060Y4866950I0J-43710D01*
G01Y4463310D01*
G03X1607340I21140J0D01*
G01Y4866950D01*
G02X1694760I43710J0D01*
G01Y4463310D01*
G03X1737040I21140J0D01*
G01Y4866950D01*
G02X1824460I43710J0D01*
G01Y4463310D01*
G03X1866740I21140J0D01*
G01Y4866950D01*
G02X1954160I43710J0D01*
G01Y4463310D01*
G03X1996440I21140J0D01*
G01Y4866950D01*
G02X2083860I43710J0D01*
G01Y4463310D01*
G03X2126140I21140J0D01*
G01Y4866950D01*
G02X2213560I43710J0D01*
G01Y4463310D01*
G03X2255840I21140J0D01*
G01Y4866950D01*
G02X2343260I43710J0D01*
G01Y4463310D01*
G03X2385540I21140J0D01*
G01Y4866950D01*
G02X2472960I43710J0D01*
G01Y4463310D01*
G03X2515240I21140J0D01*
G01Y4866950D01*
G02X2602660I43710J0D01*
G01Y4463310D01*
G03X2644940I21140J0D01*
G01Y4866950D01*
G02X2732360I43710J0D01*
G01Y4463310D01*
G03X2774640I21140J0D01*
G01Y4866950D01*
G02X2818350Y4910660I43710J0D01*
G01X2944460D01*
X2968970Y4886150D01*
Y3946350D01*
X2980530Y3934790D01*
G03X2994680I7075J7066D01*
G02X3008820Y3920640I7070J-7075D01*
G03Y3906500I7071J-7070D01*
G03X3022970I7075J7066D01*
G02X3037110Y3892350I7070J-7075D01*
G03Y3878210I7071J-7070D01*
G03X3051260I7075J7065D01*
G02X3065410Y3864060I7071J-7079D01*
G03Y3849910I7065J-7075D01*
G01X3082750Y3832570D01*
X3273770D01*
X3290720Y3849520D01*
Y3926430D01*
X3280150Y3937000D01*
X3175000D01*
G01X1034200Y5216870D02*
Y5253430D01*
X1048010Y5267240D01*
X1396190D01*
G02X1406190Y5257240I0J-10000D01*
G03X1426190I10000J0D01*
G02X1436190Y5267240I10000J0D01*
G02X1457330Y5246100I0J-21140D01*
G01Y5072910D01*
G03X1544750I43710J0D01*
G01Y5484140D01*
G02X1587030I21140J0D01*
G01Y5072910D01*
G03X1674450I43710J0D01*
G01Y5484140D01*
G02X1716730I21140J0D01*
G01Y5072910D01*
G03X1804150I43710J0D01*
G01Y5484140D01*
G02X1846430I21140J0D01*
G01Y5072910D01*
G03X1933850I43710J0D01*
G01Y5484140D01*
G02X1976130I21140J0D01*
G01Y5072910D01*
G03X2063550I43710J0D01*
G01Y5484140D01*
G02X2105830I21140J0D01*
G01Y5072910D01*
G03X2193250I43710J0D01*
G01Y5484140D01*
G02X2235530I21140J0D01*
G01Y5072910D01*
G03X2322950I43710J0D01*
G01Y5484140D01*
G02X2365230I21140J0D01*
G01Y5072910D01*
G03X2452650I43710J0D01*
G01Y5484140D01*
G02X2494930I21140J0D01*
G01Y5072910D01*
G03X2582350I43710J0D01*
G01Y5484140D01*
G02X2624630I21140J0D01*
G01Y5072910D01*
G03X2712050I43710J0D01*
G01Y5484140D01*
G02X2754330I21140J0D01*
G01Y5072910D01*
G03X2841750I43710J0D01*
G01Y5251640D01*
G02X2857350Y5267240I15600J0D01*
G01X2886160D01*
X3025430Y5127970D01*
Y4638850D01*
X3114850Y4549430D01*
X3260550D01*
X3313290Y4602170D01*
Y4688430D01*
X3323860Y4699000D01*
X3429000D01*
G01X1034200Y5597870D02*
Y5639510D01*
X1044770Y5650080D01*
X1410440D01*
G03X1454150Y5693790I0J43710D01*
G01Y6103090D01*
G02X1496430I21140J0D01*
G01Y5693790D01*
G03X1583850I43710J0D01*
G01Y6103090D01*
G02X1626130I21140J0D01*
G01Y5693790D01*
G03X1713550I43710J0D01*
G01Y6103090D01*
G02X1755830I21140J0D01*
G01Y5693790D01*
G03X1843250I43710J0D01*
G01Y6103090D01*
G02X1885530I21140J0D01*
G01Y5693790D01*
G03X1972950I43710J0D01*
G01Y6103090D01*
G02X2015230I21140J0D01*
G01Y5693790D01*
G03X2102650I43710J0D01*
G01Y6103090D01*
G02X2144930I21140J0D01*
G01Y5693790D01*
G03X2232350I43710J0D01*
G01Y6103090D01*
G02X2274630I21140J0D01*
G01Y5693790D01*
G03X2362050I43710J0D01*
G01Y6103090D01*
G02X2404330I21140J0D01*
G01Y5693790D01*
G03X2491750I43710J0D01*
G01Y6103090D01*
G02X2534030I21140J0D01*
G01Y5693790D01*
G03X2621450I43710J0D01*
G01Y6103090D01*
G02X2663730I21140J0D01*
G01Y5693790D01*
G03X2751150I43710J0D01*
G01Y6103090D01*
G02X2793430I21140J0D01*
G01Y5693790D01*
G03X2837140Y5650080I43710J0D01*
G01X3011320D01*
X3025430Y5635970D01*
Y5375460D01*
X3078720Y5322170D01*
X3245890D01*
X3313290Y5389570D01*
Y5450430D01*
X3323860Y5461000D01*
X3429000D01*
G01X1034200Y5343870D02*
Y5303620D01*
X1048010Y5289810D01*
X1436190D01*
G02X1479900Y5246100I0J-43710D01*
G01Y5072910D01*
G03X1522180I21140J0D01*
G01Y5484140D01*
G02X1609600I43710J0D01*
G01Y5072910D01*
G03X1651880I21140J0D01*
G01Y5484140D01*
G02X1739300I43710J0D01*
G01Y5072910D01*
G03X1781580I21140J0D01*
G01Y5484140D01*
G02X1869000I43710J0D01*
G01Y5072910D01*
G03X1911280I21140J0D01*
G01Y5484140D01*
G02X1998700I43710J0D01*
G01Y5072910D01*
G03X2040980I21140J0D01*
G01Y5484140D01*
G02X2128400I43710J0D01*
G01Y5072910D01*
G03X2170680I21140J0D01*
G01Y5484140D01*
G02X2258100I43710J0D01*
G01Y5072910D01*
G03X2300380I21140J0D01*
G01Y5484140D01*
G02X2387800I43710J0D01*
G01Y5072910D01*
G03X2430080I21140J0D01*
G01Y5484140D01*
G02X2517500I43710J0D01*
G01Y5072910D01*
G03X2559780I21140J0D01*
G01Y5484140D01*
G02X2647200I43710J0D01*
G01Y5072910D01*
G03X2689480I21140J0D01*
G01Y5484140D01*
G02X2776900I43710J0D01*
G01Y5072910D01*
G03X2819180I21140J0D01*
G01Y5251640D01*
G02X2857340Y5289810I38170J0D01*
G01X2895510D01*
X3048000Y5137320D01*
Y4648200D01*
X3059250Y4636950D01*
G03X3073400I7075J7065D01*
G02X3087550Y4622800I7071J-7079D01*
G03Y4608650I7065J-7075D01*
G03X3101690I7070J7071D01*
G02X3115840Y4594510I7075J-7070D01*
G03Y4580360I7066J-7075D01*
G01X3124200Y4572000D01*
X3251200D01*
X3290720Y4611520D01*
Y4688430D01*
X3280150Y4699000D01*
X3175000D01*
G01X1034200Y5724870D02*
Y5683220D01*
X1044770Y5672650D01*
X1351600D01*
G03X1361600Y5682650I0J10000D01*
G02X1381600I10000J0D01*
G03X1391600Y5672650I10000J0D01*
G01X1410440D01*
G03X1431580Y5693790I0J21140D01*
G01Y6103090D01*
G02X1519000I43710J0D01*
G01Y5693790D01*
G03X1561280I21140J0D01*
G01Y6103090D01*
G02X1648700I43710J0D01*
G01Y5693790D01*
G03X1690980I21140J0D01*
G01Y6103090D01*
G02X1778400I43710J0D01*
G01Y5693790D01*
G03X1820680I21140J0D01*
G01Y6103090D01*
G02X1908100I43710J0D01*
G01Y5693790D01*
G03X1950380I21140J0D01*
G01Y6103090D01*
G02X2037800I43710J0D01*
G01Y5693790D01*
G03X2080080I21140J0D01*
G01Y6103090D01*
G02X2167500I43710J0D01*
G01Y5693790D01*
G03X2209780I21140J0D01*
G01Y6103090D01*
G02X2297200I43710J0D01*
G01Y5693790D01*
G03X2339480I21140J0D01*
G01Y6103090D01*
G02X2426900I43710J0D01*
G01Y5693790D01*
G03X2469180I21140J0D01*
G01Y6103090D01*
G02X2556600I43710J0D01*
G01Y5693790D01*
G03X2598880I21140J0D01*
G01Y6103090D01*
G02X2686300I43710J0D01*
G01Y5693790D01*
G03X2728580I21140J0D01*
G01Y6103090D01*
G02X2816000I43710J0D01*
G01Y5693790D01*
G03X2837140Y5672650I21140J0D01*
G01X3020670D01*
X3048000Y5645320D01*
Y5384810D01*
X3088070Y5344740D01*
X3236540D01*
X3290720Y5398920D01*
Y5450430D01*
X3280150Y5461000D01*
X3175000D01*
G54D19*
G01X9906000Y2362200D02*
X10033000Y2235200D01*
X10650300D01*
X10668000Y2217500D01*
Y1955800D01*
X10718800Y1905000D01*
G01X10210800Y2641600D02*
X10464800Y2895600D01*
X10718800D01*
X10795000Y2971800D01*
Y3022600D01*
X10816950Y3044550D01*
Y3045080D01*
X10837460Y3065590D01*
X10837990D01*
X10871200Y3098800D01*
G01X10566400Y3683000D02*
X10533190Y3649790D01*
Y3649260D01*
X10512680Y3628750D01*
X10512150D01*
X10417450Y3534050D01*
X10089680D01*
X10058400Y3565330D01*
Y4064000D01*
X10287000Y4292600D01*
X10439410D01*
X10468250Y4321440D01*
Y4568550D01*
X10414000Y4622800D01*
G01X10464800Y3683000D02*
X10359830Y3578030D01*
X10139770D01*
X10122070Y3595730D01*
Y4026060D01*
X10337810Y4241800D01*
X10490200D01*
X10515600Y4267200D01*
Y4775200D01*
X10414000Y4876800D01*
G01X10363200Y3683000D02*
X10304590Y3624390D01*
X10214890D01*
X10197190Y3642090D01*
Y3999590D01*
X10388600Y4191000D01*
X10541000D01*
X10566400Y4216400D01*
Y4978400D01*
X10414000Y5130800D01*
G01X10260390Y3683260D02*
Y3961180D01*
X10439410Y4140200D01*
X10591800D01*
X10620260Y4168660D01*
Y5346840D01*
X10587050Y5380050D01*
G01X10871200Y3022600D02*
Y2971800D01*
X10718800Y2819400D01*
X10515600D01*
M02*
