G04 ================== begin FILE IDENTIFICATION RECORD ==================*
G04 Layout Name:  C:/Jeonghyun/Lab/RFSoC_FMC4/allegro/fmc_db.brd*
G04 Film Name:    PasteMask_TOP*
G04 File Format:  Gerber RS274X*
G04 File Origin:  Cadence Allegro 23.1-S003*
G04 Origin Date:  Wed May 15 13:37:00 2024*
G04 *
G04 Layer:  VIA CLASS/PASTEMASK_TOP*
G04 Layer:  PIN/PASTEMASK_TOP*
G04 *
G04 Offset:    (0.0000 0.0000)*
G04 Mirror:    No*
G04 Mode:      Positive*
G04 Rotation:  0*
G04 FullContactRelief:  No*
G04 UndefLineWidth:     0.0000*
G04 ================== end FILE IDENTIFICATION RECORD ====================*
%FSLAX25Y25*MOMM*%
%IR0*IPPOS*OFA0.00000B0.00000*MIA0B0*SFA1.00000B1.00000*%
%ADD12R,.65X1.525*%
%ADD13R,.45X1.475*%
%ADD14R,3.15X1.*%
%ADD15R,.6X.62*%
%ADD10R,.5X.475*%
%ADD11R,1.2065X1.7018*%
%LPD*%
G75*
G54D10*
X3911600Y6299600D03*
Y6197200D03*
X4038600Y6299600D03*
Y6197200D03*
X5740400Y6299600D03*
Y6197200D03*
X5867400Y6299600D03*
Y6197200D03*
X7594600Y6299600D03*
Y6197200D03*
X7747000Y6299600D03*
Y6197200D03*
X8178800Y6299600D03*
Y6197200D03*
X9296400Y2819000D03*
Y2921400D03*
X9347200Y6299600D03*
Y6197200D03*
X9855200Y1320400D03*
Y1422800D03*
X9702800Y2082400D03*
Y2184800D03*
X9728200Y2819000D03*
Y2921400D03*
X9601200Y2819000D03*
Y2921400D03*
X9448800Y2819000D03*
Y2921400D03*
X9601200Y2642000D03*
Y2539600D03*
X9982200Y1320400D03*
X10109200D03*
X10236200D03*
X9982200Y1422800D03*
X10109200D03*
X10236200D03*
X10896600Y2082400D03*
Y2184800D03*
G54D11*
X9393430Y1524000D03*
X9097770D03*
X10418570Y1117600D03*
X10714230D03*
G54D12*
X9842500Y1633800D03*
Y2176200D03*
X10350500Y1633800D03*
X10223500D03*
X10096500D03*
X9969500D03*
Y2176200D03*
X10096500D03*
X10223500D03*
X10350500D03*
X10731500Y1633800D03*
X10604500D03*
X10477500D03*
Y2176200D03*
X10604500D03*
X10731500D03*
G54D13*
X9866000Y2500200D03*
Y3325700D03*
Y3087800D03*
Y3913300D03*
X10386000Y2500200D03*
X10321000D03*
X10256000D03*
X10191000D03*
X10126000D03*
X10061000D03*
X9996000D03*
X9931000D03*
X10386000Y3325700D03*
X10321000D03*
X10256000D03*
X10191000D03*
X10126000D03*
X10061000D03*
X9996000D03*
X9931000D03*
Y3087800D03*
X9996000D03*
X10061000D03*
X10126000D03*
X10191000D03*
X10256000D03*
X10321000D03*
X10386000D03*
X9931000Y3913300D03*
X9996000D03*
X10061000D03*
X10126000D03*
X10191000D03*
X10256000D03*
X10321000D03*
X10386000D03*
X10581000Y2500200D03*
X10516000D03*
X10451000D03*
X10581000Y3325700D03*
X10516000D03*
X10451000D03*
Y3087800D03*
X10516000D03*
X10581000D03*
X10451000Y3913300D03*
X10516000D03*
X10581000D03*
G54D14*
X9899000Y4508500D03*
Y4254500D03*
Y5016500D03*
Y4762500D03*
Y5524500D03*
Y5270500D03*
Y6032500D03*
Y5778500D03*
Y6540500D03*
Y6286500D03*
X10414000Y4508500D03*
Y4254500D03*
Y5016500D03*
Y4762500D03*
Y5524500D03*
Y5270500D03*
Y6032500D03*
Y5778500D03*
Y6540500D03*
Y6286500D03*
G54D15*
X10333000Y2336800D03*
X10241000D03*
X10698200Y2463800D03*
X10790200D03*
X10698200Y3302000D03*
X10790200D03*
X10698200Y3911600D03*
X10790200D03*
M02*
