G04 ================== begin FILE IDENTIFICATION RECORD ==================*
G04 Layout Name:  C:/Jeonghyun/Lab/RFSoC_FMC4/allegro/fmc_db.brd*
G04 Film Name:    PasteMask_BOTTOM*
G04 File Format:  Gerber RS274X*
G04 File Origin:  Cadence Allegro 23.1-S003*
G04 Origin Date:  Wed May 15 13:37:00 2024*
G04 *
G04 Layer:  VIA CLASS/PASTEMASK_BOTTOM*
G04 Layer:  PIN/PASTEMASK_BOTTOM*
G04 *
G04 Offset:    (0.0000 0.0000)*
G04 Mirror:    No*
G04 Mode:      Positive*
G04 Rotation:  0*
G04 FullContactRelief:  No*
G04 UndefLineWidth:     0.0000*
G04 ================== end FILE IDENTIFICATION RECORD ====================*
%FSLAX25Y25*MOMM*%
%IR0*IPPOS*OFA0.00000B0.00000*MIA0B0*SFA1.00000B1.00000*%
%ADD10C,.6096*%
%ADD11R,.5X.475*%
%ADD12R,.475X.5*%
%LPD*%
G75*
G54D10*
X320700Y1358370D03*
Y1231370D03*
Y1104370D03*
Y977370D03*
X193700Y1358370D03*
Y1231370D03*
Y1104370D03*
Y977370D03*
X320700Y1866370D03*
Y1739370D03*
Y1612370D03*
Y1485370D03*
X193700Y1866370D03*
Y1739370D03*
Y1612370D03*
Y1485370D03*
X320700Y2374370D03*
Y2247370D03*
Y2120370D03*
Y1993370D03*
X193700Y2374370D03*
Y2247370D03*
Y2120370D03*
Y1993370D03*
X320700Y2882370D03*
Y2755370D03*
Y2628370D03*
Y2501370D03*
X193700Y2882370D03*
Y2755370D03*
Y2628370D03*
Y2501370D03*
X320700Y3517370D03*
Y3390370D03*
Y3263370D03*
Y3136370D03*
Y3009370D03*
X193700Y3517370D03*
Y3390370D03*
Y3263370D03*
Y3136370D03*
Y3009370D03*
X320700Y4025370D03*
Y3898370D03*
Y3771370D03*
Y3644370D03*
X193700Y4025370D03*
Y3898370D03*
Y3771370D03*
Y3644370D03*
X320700Y4533370D03*
Y4406370D03*
Y4279370D03*
Y4152370D03*
X193700Y4533370D03*
Y4406370D03*
Y4279370D03*
Y4152370D03*
X320700Y5041370D03*
Y4914370D03*
Y4787370D03*
Y4660370D03*
X193700Y5041370D03*
Y4914370D03*
Y4787370D03*
Y4660370D03*
X320700Y5549370D03*
Y5422370D03*
Y5295370D03*
Y5168370D03*
X193700Y5549370D03*
Y5422370D03*
Y5295370D03*
Y5168370D03*
X320700Y5930370D03*
Y5803370D03*
Y5676370D03*
X193700Y5930370D03*
Y5803370D03*
Y5676370D03*
X828700Y1358370D03*
Y1231370D03*
Y1104370D03*
Y977370D03*
X701700Y1358370D03*
Y1231370D03*
Y1104370D03*
Y977370D03*
X574700Y1358370D03*
Y1231370D03*
Y1104370D03*
Y977370D03*
X447700Y1358370D03*
Y1231370D03*
Y1104370D03*
Y977370D03*
X828700Y1866370D03*
Y1739370D03*
Y1612370D03*
Y1485370D03*
X701700Y1866370D03*
Y1739370D03*
Y1612370D03*
Y1485370D03*
X574700Y1866370D03*
Y1739370D03*
Y1612370D03*
Y1485370D03*
X447700Y1866370D03*
Y1739370D03*
Y1612370D03*
Y1485370D03*
X828700Y2374370D03*
Y2247370D03*
Y2120370D03*
Y1993370D03*
X701700Y2374370D03*
Y2247370D03*
Y2120370D03*
Y1993370D03*
X574700Y2374370D03*
Y2247370D03*
Y2120370D03*
Y1993370D03*
X447700Y2374370D03*
Y2247370D03*
Y2120370D03*
Y1993370D03*
X828700Y2882370D03*
Y2755370D03*
Y2628370D03*
Y2501370D03*
X701700Y2882370D03*
Y2755370D03*
Y2628370D03*
Y2501370D03*
X574700Y2882370D03*
Y2755370D03*
Y2628370D03*
Y2501370D03*
X447700Y2882370D03*
Y2755370D03*
Y2628370D03*
Y2501370D03*
X828700Y3517370D03*
Y3390370D03*
Y3263370D03*
Y3136370D03*
Y3009370D03*
X701700Y3517370D03*
Y3390370D03*
Y3263370D03*
Y3136370D03*
Y3009370D03*
X574700Y3517370D03*
Y3390370D03*
Y3263370D03*
Y3136370D03*
Y3009370D03*
X447700Y3517370D03*
Y3390370D03*
Y3263370D03*
Y3136370D03*
Y3009370D03*
X828700Y4025370D03*
Y3898370D03*
Y3771370D03*
Y3644370D03*
X701700Y4025370D03*
Y3898370D03*
Y3771370D03*
Y3644370D03*
X574700Y4025370D03*
Y3898370D03*
Y3771370D03*
Y3644370D03*
X447700Y4025370D03*
Y3898370D03*
Y3771370D03*
Y3644370D03*
X828700Y4533370D03*
Y4406370D03*
Y4279370D03*
Y4152370D03*
X701700Y4533370D03*
Y4406370D03*
Y4279370D03*
Y4152370D03*
X574700Y4533370D03*
Y4406370D03*
Y4279370D03*
Y4152370D03*
X447700Y4533370D03*
Y4406370D03*
Y4279370D03*
Y4152370D03*
X828700Y5041370D03*
Y4914370D03*
Y4787370D03*
Y4660370D03*
X701700Y5041370D03*
Y4914370D03*
Y4787370D03*
Y4660370D03*
X574700Y5041370D03*
Y4914370D03*
Y4787370D03*
Y4660370D03*
X447700Y5041370D03*
Y4914370D03*
Y4787370D03*
Y4660370D03*
X828700Y5549370D03*
Y5422370D03*
Y5295370D03*
Y5168370D03*
X701700Y5549370D03*
Y5422370D03*
Y5295370D03*
Y5168370D03*
X574700Y5549370D03*
Y5422370D03*
Y5295370D03*
Y5168370D03*
X447700Y5549370D03*
Y5422370D03*
Y5295370D03*
Y5168370D03*
X828700Y5930370D03*
Y5803370D03*
Y5676370D03*
X701700Y5930370D03*
Y5803370D03*
Y5676370D03*
X574700Y5930370D03*
Y5803370D03*
Y5676370D03*
X447700Y5930370D03*
Y5803370D03*
Y5676370D03*
X1336700Y1358370D03*
Y1231370D03*
Y1104370D03*
Y977370D03*
X1209700Y1358370D03*
Y1231370D03*
Y1104370D03*
Y977370D03*
X1082700Y1358370D03*
Y1231370D03*
Y1104370D03*
Y977370D03*
X955700Y1358370D03*
Y1231370D03*
Y1104370D03*
Y977370D03*
X1336700Y1866370D03*
Y1739370D03*
Y1612370D03*
Y1485370D03*
X1209700Y1866370D03*
Y1739370D03*
Y1612370D03*
Y1485370D03*
X1082700Y1866370D03*
Y1739370D03*
Y1612370D03*
Y1485370D03*
X955700Y1866370D03*
Y1739370D03*
Y1612370D03*
Y1485370D03*
X1336700Y2374370D03*
Y2247370D03*
Y2120370D03*
Y1993370D03*
X1209700Y2374370D03*
Y2247370D03*
Y2120370D03*
Y1993370D03*
X1082700Y2374370D03*
Y2247370D03*
Y2120370D03*
Y1993370D03*
X955700Y2374370D03*
Y2247370D03*
Y2120370D03*
Y1993370D03*
X1336700Y2882370D03*
Y2755370D03*
Y2628370D03*
Y2501370D03*
X1209700Y2882370D03*
Y2755370D03*
Y2628370D03*
Y2501370D03*
X1082700Y2882370D03*
Y2755370D03*
Y2628370D03*
Y2501370D03*
X955700Y2882370D03*
Y2755370D03*
Y2628370D03*
Y2501370D03*
X1336700Y3517370D03*
Y3390370D03*
Y3263370D03*
Y3136370D03*
Y3009370D03*
X1209700Y3517370D03*
Y3390370D03*
Y3263370D03*
Y3136370D03*
Y3009370D03*
X1082700Y3517370D03*
Y3390370D03*
Y3263370D03*
Y3136370D03*
Y3009370D03*
X955700Y3517370D03*
Y3390370D03*
Y3263370D03*
Y3136370D03*
Y3009370D03*
X1336700Y4025370D03*
Y3898370D03*
Y3771370D03*
Y3644370D03*
X1209700Y4025370D03*
Y3898370D03*
Y3771370D03*
Y3644370D03*
X1082700Y4025370D03*
Y3898370D03*
Y3771370D03*
Y3644370D03*
X955700Y4025370D03*
Y3898370D03*
Y3771370D03*
Y3644370D03*
X1336700Y4533370D03*
Y4406370D03*
Y4279370D03*
Y4152370D03*
X1209700Y4533370D03*
Y4406370D03*
Y4279370D03*
Y4152370D03*
X1082700Y4533370D03*
Y4406370D03*
Y4279370D03*
Y4152370D03*
X955700Y4533370D03*
Y4406370D03*
Y4279370D03*
Y4152370D03*
X1336700Y5041370D03*
Y4914370D03*
Y4787370D03*
Y4660370D03*
X1209700Y5041370D03*
Y4914370D03*
Y4787370D03*
Y4660370D03*
X1082700Y5041370D03*
Y4914370D03*
Y4787370D03*
Y4660370D03*
X955700Y5041370D03*
Y4914370D03*
Y4787370D03*
Y4660370D03*
X1336700Y5549370D03*
Y5422370D03*
Y5295370D03*
Y5168370D03*
X1209700Y5549370D03*
Y5422370D03*
Y5295370D03*
Y5168370D03*
X1082700Y5549370D03*
Y5422370D03*
Y5295370D03*
Y5168370D03*
X955700Y5549370D03*
Y5422370D03*
Y5295370D03*
Y5168370D03*
X1336700Y5930370D03*
Y5803370D03*
Y5676370D03*
X1209700Y5930370D03*
Y5803370D03*
Y5676370D03*
X1082700Y5930370D03*
Y5803370D03*
Y5676370D03*
X955700Y5930370D03*
Y5803370D03*
Y5676370D03*
G54D11*
X9677400Y3200800D03*
Y3098400D03*
X9525000Y3200800D03*
Y3098400D03*
X9372600Y3200800D03*
Y3098400D03*
G54D12*
X10846200Y3403600D03*
X10743800D03*
X10871600Y4013200D03*
X10769200D03*
X10846200Y3556000D03*
X10743800D03*
X10871600Y4495800D03*
X10769200D03*
X10871600Y4241800D03*
X10769200D03*
X10871600Y5003800D03*
X10769200D03*
X10871600Y4749800D03*
X10769200D03*
X10871600Y5511800D03*
X10769200D03*
X10871600Y5257800D03*
X10769200D03*
X10871600Y6019800D03*
X10769200D03*
X10871600Y5765800D03*
X10769200D03*
M02*
