G04 ================== begin FILE IDENTIFICATION RECORD ==================*
G04 Layout Name:  C:/Jeonghyun/Lab/RFSoC_FMC4/allegro/fmc_db.brd*
G04 Film Name:    SilkScreen_TOP*
G04 File Format:  Gerber RS274X*
G04 File Origin:  Cadence Allegro 23.1-S003*
G04 Origin Date:  Wed May 15 13:37:00 2024*
G04 *
G04 Layer:  REF DES/SILKSCREEN_TOP*
G04 Layer:  PACKAGE GEOMETRY/ASSEMBLY_TOP*
G04 Layer:  BOARD GEOMETRY/SILKSCREEN_TOP*
G04 *
G04 Offset:    (0.0000 0.0000)*
G04 Mirror:    No*
G04 Mode:      Positive*
G04 Rotation:  0*
G04 FullContactRelief:  No*
G04 UndefLineWidth:     0.1000*
G04 ================== end FILE IDENTIFICATION RECORD ====================*
%FSLAX25Y25*MOMM*%
%IR0*IPPOS*OFA0.00000B0.00000*MIA0B0*SFA1.00000B1.00000*%
%ADD10C,.1*%
%ADD11C,.2*%
%ADD12C,.0991*%
G75*
%LPD*%
G75*
G54D10*
G01X2872500Y2174000D02*
Y6716000D01*
G01X3731500Y2174000D02*
X2872500D01*
G01Y6716000D02*
X3731500D01*
G01D02*
Y2174000D01*
G01X3936600Y6198400D02*
X3886600D01*
G01X3936600Y6298400D02*
Y6198400D01*
G01X3886600Y6298400D02*
X3936600D01*
G01X3886600Y6198400D02*
Y6298400D01*
G01X4063600Y6198400D02*
X4013600D01*
G01Y6298400D02*
X4063600D01*
G01X4013600Y6198400D02*
Y6298400D01*
G01X4063600D02*
Y6198400D01*
G01X4714000Y2174000D02*
Y6716000D01*
G01X5573000Y2174000D02*
X4714000D01*
G01Y6716000D02*
X5573000D01*
G01D02*
Y2174000D01*
G01X5765400Y6198400D02*
X5715400D01*
G01X5765400Y6298400D02*
Y6198400D01*
G01X5715400Y6298400D02*
X5765400D01*
G01X5715400Y6198400D02*
Y6298400D01*
G01X5892400Y6198400D02*
X5842400D01*
G01X5892400Y6298400D02*
Y6198400D01*
G01X5842400Y6298400D02*
X5892400D01*
G01X5842400Y6198400D02*
Y6298400D01*
G01X6555500Y2174000D02*
Y6716000D01*
G01X7414500Y2174000D02*
X6555500D01*
G01Y6716000D02*
X7414500D01*
G01D02*
Y2174000D01*
G01X7619600Y6198400D02*
X7569600D01*
G01X7619600Y6298400D02*
Y6198400D01*
G01X7569600Y6298400D02*
X7619600D01*
G01X7569600Y6198400D02*
Y6298400D01*
G01X7772000Y6198400D02*
X7722000D01*
G01Y6298400D02*
X7772000D01*
G01X7722000Y6198400D02*
Y6298400D01*
G01X8203800Y6198400D02*
X8153800D01*
G01X8203800Y6298400D02*
Y6198400D01*
G01X8153800Y6298400D02*
X8203800D01*
G01X8153800Y6198400D02*
Y6298400D01*
G01X7772000D02*
Y6198400D01*
G01X8333500Y2174000D02*
Y6716000D01*
G01X9192500Y2174000D02*
X8333500D01*
G01Y6716000D02*
X9192500D01*
G01D02*
Y2174000D01*
G01X9271400Y2920200D02*
X9321400D01*
G01X9271400Y2820200D02*
Y2920200D01*
G01X9321400Y2820200D02*
X9271400D01*
G01X9321400Y2920200D02*
Y2820200D01*
G01X9372200Y6198400D02*
X9322200D01*
G01Y6298400D02*
X9372200D01*
G01X9322200Y6198400D02*
Y6298400D01*
G01X9880200Y1321600D02*
X9830200D01*
G01D02*
Y1421600D01*
G01X9792000Y1710000D02*
Y2100000D01*
G01X10782000Y1710000D02*
X9792000D01*
G01X9830200Y1421600D02*
X9880200D01*
G01X9792000Y2100000D02*
X10782000D01*
G01X9677800Y2183600D02*
X9727800D01*
G01X9677800Y2083600D02*
Y2183600D01*
G01X9727800Y2083600D02*
X9677800D01*
G01X9727800Y2183600D02*
Y2083600D01*
G01X9833500Y2574000D02*
Y3014000D01*
G01X10613500Y2574000D02*
X9833500D01*
G01X9703200Y2920200D02*
X9753200D01*
G01X9703200Y2820200D02*
Y2920200D01*
G01X9753200Y2820200D02*
X9703200D01*
G01X9753200Y2920200D02*
Y2820200D01*
G01X9576200Y2920200D02*
X9626200D01*
G01X9576200Y2820200D02*
Y2920200D01*
G01X9626200Y2820200D02*
X9576200D01*
G01X9626200Y2920200D02*
Y2820200D01*
G01X9423800Y2920200D02*
X9473800D01*
G01X9423800Y2820200D02*
Y2920200D01*
G01X9473800Y2820200D02*
X9423800D01*
G01X9473800Y2920200D02*
Y2820200D01*
G01X9626200Y2540800D02*
X9576200D01*
G01X9626200Y2640800D02*
Y2540800D01*
G01X9576200Y2640800D02*
X9626200D01*
G01X9576200Y2540800D02*
Y2640800D01*
G01X9833500Y3399500D02*
Y3839500D01*
G01X10613500Y3399500D02*
X9833500D01*
G01Y3014000D02*
X10613500D01*
G01X9833500Y3839500D02*
X10613500D01*
G01X9372200Y6298400D02*
Y6198400D01*
G01X9880200Y1421600D02*
Y1321600D01*
G01X10007200D02*
X9957200D01*
G01X10007200Y1421600D02*
Y1321600D01*
G01X9957200D02*
Y1421600D01*
G01X10134200Y1321600D02*
X10084200D01*
G01X10134200Y1421600D02*
Y1321600D01*
G01X10084200D02*
Y1421600D01*
G01X10261200Y1321600D02*
X10211200D01*
G01X10261200Y1421600D02*
Y1321600D01*
G01X10211200D02*
Y1421600D01*
G01X9957200D02*
X10007200D01*
G01X10084200D02*
X10134200D01*
G01X10211200D02*
X10261200D01*
G01X10237000Y2311800D02*
Y2361800D01*
G01X10337000Y2311800D02*
X10237000D01*
G01X10337000Y2361800D02*
Y2311800D01*
G01X10237000Y2361800D02*
X10337000D01*
G01X10782000Y2100000D02*
Y1710000D01*
G01X10655000Y2100000D02*
X10782000Y1973000D01*
G01X10871600Y2183600D02*
X10921600D01*
G01X10871600Y2083600D02*
Y2183600D01*
G01X10921600Y2083600D02*
X10871600D01*
G01X10921600Y2183600D02*
Y2083600D01*
G01X10548500Y3014000D02*
X10613500Y2949000D01*
G01Y3014000D02*
Y2574000D01*
G01X10794200Y2488800D02*
Y2438800D01*
G01X10694200Y2488800D02*
X10794200D01*
G01X10694200Y2438800D02*
Y2488800D01*
G01X10794200Y2438800D02*
X10694200D01*
G01X10613500Y3839500D02*
Y3399500D01*
G01X10794200Y3327000D02*
Y3277000D01*
G01X10694200Y3327000D02*
X10794200D01*
G01X10694200Y3277000D02*
Y3327000D01*
G01X10794200Y3277000D02*
X10694200D01*
G01X10548500Y3839500D02*
X10613500Y3774500D01*
G01X10794200Y3936600D02*
Y3886600D01*
G01X10694200Y3936600D02*
X10794200D01*
G01X10694200Y3886600D02*
Y3936600D01*
G01X10794200Y3886600D02*
X10694200D01*
G01X2484120Y1828800D02*
X2465150Y1831970D01*
X2448560Y1844670D01*
X2434340Y1863720D01*
X2424850Y1885950D01*
X2420110Y1911350D01*
Y1936750D01*
X2424850Y1962150D01*
X2434340Y1984380D01*
X2448560Y2003420D01*
X2465150Y2016130D01*
X2484120Y2019300D01*
X2503080Y2016130D01*
X2519680Y2003420D01*
X2533900Y1984380D01*
X2543390Y1962150D01*
X2548130Y1936750D01*
Y1911350D01*
X2543390Y1885950D01*
X2533900Y1863720D01*
X2519680Y1844670D01*
X2503080Y1831970D01*
X2484120Y1828800D01*
G01X2503080Y1879600D02*
X2531530Y1828800D01*
G01X2634320Y1955800D02*
Y1866900D01*
X2643800Y1844670D01*
X2658030Y1831970D01*
X2674620Y1828800D01*
X2691210Y1831970D01*
X2705440Y1844670D01*
X2714920Y1866900D01*
G01Y1828800D02*
Y1955800D01*
G01X2836670Y2019300D02*
X2893560D01*
G01X2865120D02*
Y1828800D01*
G01X2836670D02*
X2893560D01*
G01X3055620D02*
X3036650Y1831970D01*
X3020060Y1844670D01*
X3005840Y1863720D01*
X2996350Y1885950D01*
X2991610Y1911350D01*
Y1936750D01*
X2996350Y1962150D01*
X3005840Y1984380D01*
X3020060Y2003420D01*
X3036650Y2016130D01*
X3055620Y2019300D01*
X3074580Y2016130D01*
X3091180Y2003420D01*
X3105400Y1984380D01*
X3114890Y1962150D01*
X3119630Y1936750D01*
Y1911350D01*
X3114890Y1885950D01*
X3105400Y1863720D01*
X3091180Y1844670D01*
X3074580Y1831970D01*
X3055620Y1828800D01*
G01X3074580Y1879600D02*
X3103030Y1828800D01*
G01X3298270Y2003420D02*
X3284050Y2012950D01*
X3267460Y2019300D01*
X3248490D01*
X3227150Y2009770D01*
X3210560Y1993900D01*
X3198710Y1974850D01*
X3189220Y1943100D01*
X3186850Y1914520D01*
X3191600Y1885950D01*
X3198710Y1866900D01*
X3212930Y1847850D01*
X3229530Y1835150D01*
X3246120Y1828800D01*
X3262710D01*
X3279310Y1835150D01*
X3293530Y1844670D01*
X3305390Y1857370D01*
G01X3389210Y2019300D02*
Y1828800D01*
X3484030D01*
G01X3772580D02*
Y2019300D01*
X3862660D01*
G01X3829470Y1927230D02*
X3772580D01*
G01X3946480Y1828800D02*
Y2019300D01*
X4008120Y1860550D01*
X4069760Y2019300D01*
Y1828800D01*
G01X4250770Y2003420D02*
X4236550Y2012950D01*
X4219960Y2019300D01*
X4200990D01*
X4179650Y2009770D01*
X4163060Y1993900D01*
X4151210Y1974850D01*
X4141720Y1943100D01*
X4139350Y1914520D01*
X4144100Y1885950D01*
X4151210Y1866900D01*
X4165430Y1847850D01*
X4182030Y1835150D01*
X4198620Y1828800D01*
X4215210D01*
X4231810Y1835150D01*
X4246030Y1844670D01*
X4257890Y1857370D01*
G01X4344080Y1987550D02*
X4358300Y2006600D01*
X4374900Y2016130D01*
X4393860Y2019300D01*
X4417570Y2012950D01*
X4434160Y1997070D01*
X4438900Y1978030D01*
X4436530Y1958970D01*
X4427050Y1943100D01*
X4379640Y1911350D01*
X4358300Y1889120D01*
X4344080Y1857370D01*
X4339340Y1828800D01*
X4438900D01*
G01X4627030D02*
X4532210D01*
Y2019300D01*
X4627030D01*
G01X4589100Y1927230D02*
X4532210D01*
G01X4817530Y1828800D02*
X4722710D01*
Y2019300D01*
X4817530D01*
G01X4779600Y1927230D02*
X4722710D01*
G01X4898980Y1828800D02*
Y2019300D01*
X4960620Y1860550D01*
X5022260Y2019300D01*
Y1828800D01*
G01X5298950Y1955800D02*
X5341620Y1828800D01*
X5384290Y1955800D01*
G01X5532120Y1828800D02*
Y2019300D01*
X5503670Y1981200D01*
G01Y1828800D02*
X5560560D01*
G01X5651500Y1765300D02*
X5793740D01*
G01X5913120Y2019300D02*
X5894150Y2012950D01*
X5879930Y1997070D01*
X5870450Y1978030D01*
X5863340Y1952620D01*
X5860970Y1924050D01*
X5863340Y1895470D01*
X5870450Y1870070D01*
X5879930Y1851020D01*
X5894150Y1835150D01*
X5913120Y1828800D01*
X5932080Y1835150D01*
X5946310Y1851020D01*
X5955790Y1870070D01*
X5962900Y1895470D01*
X5965270Y1924050D01*
X5962900Y1952620D01*
X5955790Y1978030D01*
X5946310Y1997070D01*
X5932080Y2012950D01*
X5913120Y2019300D01*
G01X2493430Y965200D02*
X2501520Y952500D01*
X2511220Y944030D01*
X2522540Y939800D01*
X2535480Y944030D01*
X2545180Y952500D01*
X2554890Y965200D01*
X2558120Y982130D01*
Y1066800D01*
G01X2652590Y939800D02*
X2655820Y967310D01*
X2660680Y990600D01*
X2667140Y1011770D01*
X2675230Y1035050D01*
X2688170Y1066800D01*
X2623480D01*
G01X3368200Y990600D02*
X3376290Y977900D01*
X3385990Y969430D01*
X3397310Y965200D01*
X3410250Y969430D01*
X3419950Y977900D01*
X3429660Y990600D01*
X3432890Y1007530D01*
Y1092200D01*
G01X3530590Y965200D02*
Y1092200D01*
X3511190Y1066800D01*
G01Y965200D02*
X3550000D01*
G01X3660640Y1092200D02*
X3647710Y1087970D01*
X3638010Y1077380D01*
X3631530Y1064690D01*
X3626680Y1047750D01*
X3625070Y1028700D01*
X3626680Y1009650D01*
X3631530Y992710D01*
X3638010Y980010D01*
X3647710Y969430D01*
X3660640Y965200D01*
X3673580Y969430D01*
X3683280Y980010D01*
X3689760Y992710D01*
X3694610Y1009650D01*
X3696220Y1028700D01*
X3694610Y1047750D01*
X3689760Y1064690D01*
X3683280Y1077380D01*
X3673580Y1087970D01*
X3660640Y1092200D01*
G01X3895850Y2549740D02*
X3903730Y2554610D01*
X3908980Y2560450D01*
X3911600Y2567260D01*
X3908980Y2575050D01*
X3903730Y2580890D01*
X3895850Y2586740D01*
X3885350Y2588680D01*
X3832860D01*
G01X3911600Y2647950D02*
X3832860D01*
X3848610Y2636270D01*
G01X3911600D02*
Y2659630D01*
G01X3886200Y6486740D02*
X3807460D01*
Y6511080D01*
X3811400Y6518870D01*
X3816650Y6523740D01*
X3827150Y6525680D01*
X3837640Y6523740D01*
X3844200Y6517890D01*
X3848140Y6511080D01*
Y6486740D01*
G01Y6511080D02*
X3886200Y6525680D01*
G01X3820580Y6566450D02*
X3812710Y6572290D01*
X3808770Y6579110D01*
X3807460Y6586900D01*
X3810080Y6596630D01*
X3816650Y6603450D01*
X3824520Y6605400D01*
X3832400Y6604420D01*
X3838960Y6600530D01*
X3852080Y6581060D01*
X3861270Y6572290D01*
X3874390Y6566450D01*
X3886200Y6564500D01*
Y6605400D01*
G01X3874390Y6642270D02*
X3880950Y6648110D01*
X3884890Y6654930D01*
X3886200Y6663690D01*
X3883580Y6672450D01*
X3878330Y6679270D01*
X3869140Y6684140D01*
X3858640Y6685110D01*
X3848140Y6683160D01*
X3841580Y6678290D01*
X3836330Y6671480D01*
X3835020Y6664660D01*
X3836330Y6657850D01*
X3841580Y6649090D01*
X3807460Y6652010D01*
Y6678290D01*
G01X4064000Y6486740D02*
X3985260D01*
Y6511080D01*
X3989200Y6518870D01*
X3994450Y6523740D01*
X4004950Y6525680D01*
X4015440Y6523740D01*
X4022000Y6517890D01*
X4025940Y6511080D01*
Y6486740D01*
G01Y6511080D02*
X4064000Y6525680D01*
G01X3998380Y6566450D02*
X3990510Y6572290D01*
X3986570Y6579110D01*
X3985260Y6586900D01*
X3987880Y6596630D01*
X3994450Y6603450D01*
X4002320Y6605400D01*
X4010200Y6604420D01*
X4016760Y6600530D01*
X4029880Y6581060D01*
X4039070Y6572290D01*
X4052190Y6566450D01*
X4064000Y6564500D01*
Y6605400D01*
G01X4031190Y6645190D02*
X4022000Y6652010D01*
X4016760Y6657850D01*
X4014130Y6665640D01*
X4016760Y6672450D01*
X4022000Y6677320D01*
X4029880Y6681220D01*
X4039070Y6682190D01*
X4046940Y6681220D01*
X4054820Y6677320D01*
X4061380Y6671480D01*
X4064000Y6664660D01*
X4061380Y6656870D01*
X4053500Y6650060D01*
X4041690Y6646160D01*
X4028570Y6645190D01*
X4011510Y6647140D01*
X4002320Y6650060D01*
X3993130Y6654930D01*
X3986570Y6661740D01*
X3985260Y6668560D01*
X3987880Y6675370D01*
X3994450Y6680240D01*
G01X4384200Y990600D02*
X4392290Y977900D01*
X4401990Y969430D01*
X4413310Y965200D01*
X4426250Y969430D01*
X4435950Y977900D01*
X4445660Y990600D01*
X4448890Y1007530D01*
Y1092200D01*
G01X4546590Y965200D02*
Y1092200D01*
X4527190Y1066800D01*
G01Y965200D02*
X4566000D01*
G01X4645920Y1071030D02*
X4655620Y1083730D01*
X4666940Y1090080D01*
X4679880Y1092200D01*
X4696050Y1087970D01*
X4707370Y1077380D01*
X4710610Y1064690D01*
X4708990Y1051980D01*
X4702520Y1041400D01*
X4670180Y1020230D01*
X4655620Y1005420D01*
X4645920Y984250D01*
X4642680Y965200D01*
X4710610D01*
G01X5400200D02*
X5408290Y952500D01*
X5417990Y944030D01*
X5429310Y939800D01*
X5442250Y944030D01*
X5451950Y952500D01*
X5461660Y965200D01*
X5464890Y982130D01*
Y1066800D01*
G01X5562590Y939800D02*
Y1066800D01*
X5543190Y1041400D01*
G01Y939800D02*
X5582000D01*
G01X5712050D02*
Y1066800D01*
X5652210Y975780D01*
X5733080D01*
G01X5800850Y2549740D02*
X5808730Y2554610D01*
X5813980Y2560450D01*
X5816600Y2567260D01*
X5813980Y2575050D01*
X5808730Y2580890D01*
X5800850Y2586740D01*
X5790350Y2588680D01*
X5737860D01*
G01X5750980Y2629450D02*
X5743110Y2635290D01*
X5739170Y2642110D01*
X5737860Y2649900D01*
X5740480Y2659630D01*
X5747050Y2666450D01*
X5754920Y2668400D01*
X5762800Y2667420D01*
X5769360Y2663530D01*
X5782480Y2644060D01*
X5791670Y2635290D01*
X5804790Y2629450D01*
X5816600Y2627500D01*
Y2668400D01*
G01X5740400Y6512140D02*
X5661660D01*
Y6536480D01*
X5665600Y6544270D01*
X5670850Y6549140D01*
X5681350Y6551080D01*
X5691840Y6549140D01*
X5698400Y6543290D01*
X5702340Y6536480D01*
Y6512140D01*
G01Y6536480D02*
X5740400Y6551080D01*
G01X5674780Y6591850D02*
X5666910Y6597690D01*
X5662970Y6604510D01*
X5661660Y6612300D01*
X5664280Y6622030D01*
X5670850Y6628850D01*
X5678720Y6630800D01*
X5686600Y6629820D01*
X5693160Y6625930D01*
X5706280Y6606460D01*
X5715470Y6597690D01*
X5728590Y6591850D01*
X5740400Y6589900D01*
Y6630800D01*
G01X5724650Y6667670D02*
X5733840Y6673510D01*
X5739090Y6681300D01*
X5740400Y6690060D01*
X5739090Y6697850D01*
X5732530Y6705640D01*
X5724650Y6710510D01*
X5716780Y6711480D01*
X5707590Y6709540D01*
X5701030Y6702720D01*
X5698400Y6695910D01*
Y6687140D01*
G01Y6695910D02*
X5694470Y6701750D01*
X5687910Y6706620D01*
X5680030Y6708560D01*
X5672160Y6706620D01*
X5665600Y6701750D01*
X5661660Y6692980D01*
X5662970Y6684220D01*
X5668220Y6675460D01*
G01X5867400Y6512140D02*
X5788660D01*
Y6536480D01*
X5792600Y6544270D01*
X5797850Y6549140D01*
X5808350Y6551080D01*
X5818840Y6549140D01*
X5825400Y6543290D01*
X5829340Y6536480D01*
Y6512140D01*
G01Y6536480D02*
X5867400Y6551080D01*
G01X5801780Y6591850D02*
X5793910Y6597690D01*
X5789970Y6604510D01*
X5788660Y6612300D01*
X5791280Y6622030D01*
X5797850Y6628850D01*
X5805720Y6630800D01*
X5813600Y6629820D01*
X5820160Y6625930D01*
X5833280Y6606460D01*
X5842470Y6597690D01*
X5855590Y6591850D01*
X5867400Y6589900D01*
Y6630800D01*
G01Y6700770D02*
X5788660D01*
X5845090Y6664750D01*
Y6713430D01*
G01X6532030Y990600D02*
X6540120Y977900D01*
X6549820Y969430D01*
X6561140Y965200D01*
X6574080Y969430D01*
X6583780Y977900D01*
X6593490Y990600D01*
X6596720Y1007530D01*
Y1092200D01*
G01X6663700Y1018110D02*
X6675020Y1032930D01*
X6684720Y1041400D01*
X6697660Y1045630D01*
X6708980Y1041400D01*
X6717060Y1032930D01*
X6723540Y1020230D01*
X6725150Y1005420D01*
X6723540Y992710D01*
X6717060Y980010D01*
X6707360Y969430D01*
X6696040Y965200D01*
X6683110Y969430D01*
X6671790Y982130D01*
X6665310Y1001180D01*
X6663700Y1022350D01*
X6666930Y1049860D01*
X6671790Y1064690D01*
X6679870Y1079500D01*
X6691190Y1090080D01*
X6702510Y1092200D01*
X6713830Y1087970D01*
X6721920Y1077380D01*
G01X7573430Y990600D02*
X7581520Y977900D01*
X7591220Y969430D01*
X7602540Y965200D01*
X7615480Y969430D01*
X7625180Y977900D01*
X7634890Y990600D01*
X7638120Y1007530D01*
Y1092200D01*
G01X7708330Y980010D02*
X7719650Y969430D01*
X7732590Y965200D01*
X7745530Y969430D01*
X7756850Y982130D01*
X7764940Y1001180D01*
X7768170Y1020230D01*
Y1043520D01*
X7764940Y1062570D01*
X7756850Y1079500D01*
X7747140Y1087970D01*
X7735820Y1092200D01*
X7722890Y1087970D01*
X7713190Y1079500D01*
X7706710Y1066800D01*
X7703480Y1049860D01*
X7706710Y1035050D01*
X7714800Y1020230D01*
X7724510Y1011760D01*
X7735820Y1009650D01*
X7748760Y1013880D01*
X7758460Y1024470D01*
X7768170Y1043520D01*
G01X7655050Y2575140D02*
X7662930Y2580010D01*
X7668180Y2585850D01*
X7670800Y2592660D01*
X7668180Y2600450D01*
X7662930Y2606290D01*
X7655050Y2612140D01*
X7644550Y2614080D01*
X7592060D01*
G01X7655050Y2651930D02*
X7664240Y2657770D01*
X7669490Y2665560D01*
X7670800Y2674320D01*
X7669490Y2682110D01*
X7662930Y2689900D01*
X7655050Y2694770D01*
X7647180Y2695740D01*
X7637990Y2693800D01*
X7631430Y2686980D01*
X7628800Y2680170D01*
Y2671400D01*
G01Y2680170D02*
X7624870Y2686010D01*
X7618310Y2690880D01*
X7610430Y2692820D01*
X7602560Y2690880D01*
X7596000Y2686010D01*
X7592060Y2677240D01*
X7593370Y2668480D01*
X7598620Y2659720D01*
G01X7569200Y6461340D02*
X7490460D01*
Y6485680D01*
X7494400Y6493470D01*
X7499650Y6498340D01*
X7510150Y6500280D01*
X7520640Y6498340D01*
X7527200Y6492490D01*
X7531140Y6485680D01*
Y6461340D01*
G01Y6485680D02*
X7569200Y6500280D01*
G01X7503580Y6541050D02*
X7495710Y6546890D01*
X7491770Y6553710D01*
X7490460Y6561500D01*
X7493080Y6571230D01*
X7499650Y6578050D01*
X7507520Y6580000D01*
X7515400Y6579020D01*
X7521960Y6575130D01*
X7535080Y6555660D01*
X7544270Y6546890D01*
X7557390Y6541050D01*
X7569200Y6539100D01*
Y6580000D01*
G01Y6638290D02*
X7490460D01*
X7506210Y6626610D01*
G01X7569200D02*
Y6649970D01*
G01X7721600Y6461340D02*
X7642860D01*
Y6485680D01*
X7646800Y6493470D01*
X7652050Y6498340D01*
X7662550Y6500280D01*
X7673040Y6498340D01*
X7679600Y6492490D01*
X7683540Y6485680D01*
Y6461340D01*
G01Y6485680D02*
X7721600Y6500280D01*
G01X7655980Y6541050D02*
X7648110Y6546890D01*
X7644170Y6553710D01*
X7642860Y6561500D01*
X7645480Y6571230D01*
X7652050Y6578050D01*
X7659920Y6580000D01*
X7667800Y6579020D01*
X7674360Y6575130D01*
X7687480Y6555660D01*
X7696670Y6546890D01*
X7709790Y6541050D01*
X7721600Y6539100D01*
Y6580000D01*
G01X7655980Y6619790D02*
X7648110Y6625630D01*
X7644170Y6632450D01*
X7642860Y6640240D01*
X7645480Y6649970D01*
X7652050Y6656790D01*
X7659920Y6658740D01*
X7667800Y6657760D01*
X7674360Y6653870D01*
X7687480Y6634400D01*
X7696670Y6625630D01*
X7709790Y6619790D01*
X7721600Y6617840D01*
Y6658740D01*
G01X8153400Y6461340D02*
X8074660D01*
Y6485680D01*
X8078600Y6493470D01*
X8083850Y6498340D01*
X8094350Y6500280D01*
X8104840Y6498340D01*
X8111400Y6492490D01*
X8115340Y6485680D01*
Y6461340D01*
G01Y6485680D02*
X8153400Y6500280D01*
G01X8087780Y6541050D02*
X8079910Y6546890D01*
X8075970Y6553710D01*
X8074660Y6561500D01*
X8077280Y6571230D01*
X8083850Y6578050D01*
X8091720Y6580000D01*
X8099600Y6579020D01*
X8106160Y6575130D01*
X8119280Y6555660D01*
X8128470Y6546890D01*
X8141590Y6541050D01*
X8153400Y6539100D01*
Y6580000D01*
G01X8074660Y6638290D02*
X8077280Y6630500D01*
X8083850Y6624660D01*
X8091720Y6620760D01*
X8102220Y6617840D01*
X8114030Y6616870D01*
X8125840Y6617840D01*
X8136340Y6620760D01*
X8144220Y6624660D01*
X8150780Y6630500D01*
X8153400Y6638290D01*
X8150780Y6646080D01*
X8144220Y6651920D01*
X8136340Y6655820D01*
X8125840Y6658740D01*
X8114030Y6659710D01*
X8102220Y6658740D01*
X8091720Y6655820D01*
X8083850Y6651920D01*
X8077280Y6646080D01*
X8074660Y6638290D01*
G01X8473600Y1016000D02*
X8481690Y1003300D01*
X8491390Y994830D01*
X8502710Y990600D01*
X8515650Y994830D01*
X8525350Y1003300D01*
X8535060Y1016000D01*
X8538290Y1032930D01*
Y1117600D01*
G01X8635990Y990600D02*
Y1117600D01*
X8616590Y1092200D01*
G01Y990600D02*
X8655400D01*
G01X8766040D02*
Y1117600D01*
X8746640Y1092200D01*
G01Y990600D02*
X8785450D01*
G01X8798050Y1965540D02*
X8805930Y1970410D01*
X8811180Y1976250D01*
X8813800Y1983060D01*
X8811180Y1990850D01*
X8805930Y1996690D01*
X8798050Y2002540D01*
X8787550Y2004480D01*
X8735060D01*
G01X8813800Y2075430D02*
X8735060D01*
X8791490Y2039410D01*
Y2088090D01*
G01X9271000Y2682660D02*
X9349740D01*
Y2658320D01*
X9345800Y2650530D01*
X9340550Y2645660D01*
X9330050Y2643720D01*
X9319560Y2645660D01*
X9313000Y2651510D01*
X9309060Y2658320D01*
Y2682660D01*
G01Y2658320D02*
X9271000Y2643720D01*
G01Y2584450D02*
X9349740D01*
X9333990Y2596130D01*
G01X9271000D02*
Y2572770D01*
G01Y2507660D02*
X9288060Y2505710D01*
X9302490Y2502790D01*
X9315620Y2498890D01*
X9330050Y2494030D01*
X9349740Y2486240D01*
Y2525180D01*
G01X9347200Y6461340D02*
X9268460D01*
Y6485680D01*
X9272400Y6493470D01*
X9277650Y6498340D01*
X9288150Y6500280D01*
X9298640Y6498340D01*
X9305200Y6492490D01*
X9309140Y6485680D01*
Y6461340D01*
G01Y6485680D02*
X9347200Y6500280D01*
G01Y6559550D02*
X9268460D01*
X9284210Y6547870D01*
G01X9347200D02*
Y6571230D01*
G01X9338020Y6621740D02*
X9344580Y6628550D01*
X9347200Y6636340D01*
X9344580Y6644130D01*
X9336700Y6650950D01*
X9324890Y6655820D01*
X9313080Y6657760D01*
X9298640D01*
X9286830Y6655820D01*
X9276330Y6650950D01*
X9271080Y6645110D01*
X9268460Y6638290D01*
X9271080Y6630500D01*
X9276330Y6624660D01*
X9284210Y6620760D01*
X9294710Y6618820D01*
X9303890Y6620760D01*
X9313080Y6625630D01*
X9318330Y6631470D01*
X9319640Y6638290D01*
X9317020Y6646080D01*
X9310460Y6651920D01*
X9298640Y6657760D01*
G01X9438800Y1016000D02*
X9446890Y1003300D01*
X9456590Y994830D01*
X9467910Y990600D01*
X9480850Y994830D01*
X9490550Y1003300D01*
X9500260Y1016000D01*
X9503490Y1032930D01*
Y1117600D01*
G01X9601190Y990600D02*
Y1117600D01*
X9581790Y1092200D01*
G01Y990600D02*
X9620600D01*
G01X9695670Y1016000D02*
X9705370Y1001180D01*
X9718310Y992720D01*
X9732860Y990600D01*
X9745800Y992720D01*
X9758740Y1003300D01*
X9766820Y1016000D01*
X9768440Y1028700D01*
X9765210Y1043510D01*
X9753880Y1054100D01*
X9742560Y1058330D01*
X9728010D01*
G01X9742560D02*
X9752270Y1064680D01*
X9760360Y1075260D01*
X9763590Y1087970D01*
X9760360Y1100670D01*
X9752270Y1111250D01*
X9737710Y1117600D01*
X9723160Y1115480D01*
X9708610Y1107020D01*
G01X9906000Y1051140D02*
X9827260D01*
Y1075480D01*
X9831200Y1083270D01*
X9836450Y1088140D01*
X9846950Y1090080D01*
X9857440Y1088140D01*
X9864000Y1082290D01*
X9867940Y1075480D01*
Y1051140D01*
G01Y1075480D02*
X9906000Y1090080D01*
G01X9890250Y1127930D02*
X9899440Y1133770D01*
X9904690Y1141560D01*
X9906000Y1150320D01*
X9904690Y1158110D01*
X9898130Y1165900D01*
X9890250Y1170770D01*
X9882380Y1171740D01*
X9873190Y1169800D01*
X9866630Y1162980D01*
X9864000Y1156170D01*
Y1147400D01*
G01Y1156170D02*
X9860070Y1162010D01*
X9853510Y1166880D01*
X9845630Y1168820D01*
X9837760Y1166880D01*
X9831200Y1162010D01*
X9827260Y1153240D01*
X9828570Y1144480D01*
X9833820Y1135720D01*
G01X9840380Y1209590D02*
X9832510Y1215430D01*
X9828570Y1222250D01*
X9827260Y1230040D01*
X9829880Y1239770D01*
X9836450Y1246590D01*
X9844320Y1248540D01*
X9852200Y1247560D01*
X9858760Y1243670D01*
X9871880Y1224200D01*
X9881070Y1215430D01*
X9894190Y1209590D01*
X9906000Y1207640D01*
Y1248540D01*
G01X9702800Y2123860D02*
X9781540D01*
Y2099520D01*
X9777600Y2091730D01*
X9772350Y2086860D01*
X9761850Y2084920D01*
X9751360Y2086860D01*
X9744800Y2092710D01*
X9740860Y2099520D01*
Y2123860D01*
G01Y2099520D02*
X9702800Y2084920D01*
G01X9768420Y2044150D02*
X9776290Y2038310D01*
X9780230Y2031490D01*
X9781540Y2023700D01*
X9778920Y2013970D01*
X9772350Y2007150D01*
X9764480Y2005200D01*
X9756600Y2006180D01*
X9750040Y2010070D01*
X9736920Y2029540D01*
X9727730Y2038310D01*
X9714610Y2044150D01*
X9702800Y2046100D01*
Y2005200D01*
G01Y1948860D02*
X9719860Y1946910D01*
X9734290Y1943990D01*
X9747420Y1940090D01*
X9761850Y1935230D01*
X9781540Y1927440D01*
Y1966380D01*
G01X9575800Y2219540D02*
X9497060D01*
Y2243880D01*
X9501000Y2251670D01*
X9506250Y2256540D01*
X9516750Y2258480D01*
X9527240Y2256540D01*
X9533800Y2250690D01*
X9537740Y2243880D01*
Y2219540D01*
G01Y2243880D02*
X9575800Y2258480D01*
G01X9510180Y2299250D02*
X9502310Y2305090D01*
X9498370Y2311910D01*
X9497060Y2319700D01*
X9499680Y2329430D01*
X9506250Y2336250D01*
X9514120Y2338200D01*
X9522000Y2337220D01*
X9528560Y2333330D01*
X9541680Y2313860D01*
X9550870Y2305090D01*
X9563990Y2299250D01*
X9575800Y2297300D01*
Y2338200D01*
G01Y2396490D02*
X9574490Y2403310D01*
X9570550Y2411090D01*
X9563990Y2415960D01*
X9554800Y2417910D01*
X9545620Y2415960D01*
X9537740Y2410120D01*
X9533800Y2401360D01*
Y2391620D01*
X9531180Y2385780D01*
X9524620Y2380910D01*
X9515430Y2378960D01*
X9506250Y2381890D01*
X9499680Y2388700D01*
X9497060Y2396490D01*
X9499680Y2404280D01*
X9506250Y2411090D01*
X9515430Y2414020D01*
X9524620Y2412070D01*
X9531180Y2407200D01*
X9533800Y2401360D01*
Y2391620D01*
X9537740Y2382860D01*
X9545620Y2377020D01*
X9554800Y2375070D01*
X9563990Y2377020D01*
X9570550Y2381890D01*
X9574490Y2389670D01*
X9575800Y2396490D01*
G01X9804400Y2885860D02*
X9883140D01*
Y2861520D01*
X9879200Y2853730D01*
X9873950Y2848860D01*
X9863450Y2846920D01*
X9852960Y2848860D01*
X9846400Y2854710D01*
X9842460Y2861520D01*
Y2885860D01*
G01Y2861520D02*
X9804400Y2846920D01*
G01Y2787650D02*
X9883140D01*
X9867390Y2799330D01*
G01X9804400D02*
Y2775970D01*
G01Y2708910D02*
X9883140D01*
X9867390Y2720590D01*
G01X9804400D02*
Y2697230D01*
G01X9652000Y2682660D02*
X9730740D01*
Y2658320D01*
X9726800Y2650530D01*
X9721550Y2645660D01*
X9711050Y2643720D01*
X9700560Y2645660D01*
X9694000Y2651510D01*
X9690060Y2658320D01*
Y2682660D01*
G01Y2658320D02*
X9652000Y2643720D01*
G01Y2584450D02*
X9730740D01*
X9714990Y2596130D01*
G01X9652000D02*
Y2572770D01*
G01X9667750Y2527130D02*
X9658560Y2521290D01*
X9653310Y2513500D01*
X9652000Y2504740D01*
X9653310Y2496950D01*
X9659870Y2489160D01*
X9667750Y2484290D01*
X9675620Y2483320D01*
X9684810Y2485260D01*
X9691370Y2492080D01*
X9694000Y2498890D01*
Y2507660D01*
G01Y2498890D02*
X9697930Y2493050D01*
X9704490Y2488180D01*
X9712370Y2486240D01*
X9720240Y2488180D01*
X9726800Y2493050D01*
X9730740Y2501820D01*
X9729430Y2510580D01*
X9724180Y2519340D01*
G01X9448800Y2682660D02*
X9527540D01*
Y2658320D01*
X9523600Y2650530D01*
X9518350Y2645660D01*
X9507850Y2643720D01*
X9497360Y2645660D01*
X9490800Y2651510D01*
X9486860Y2658320D01*
Y2682660D01*
G01Y2658320D02*
X9448800Y2643720D01*
G01Y2584450D02*
X9527540D01*
X9511790Y2596130D01*
G01X9448800D02*
Y2572770D01*
G01X9460610Y2527130D02*
X9454050Y2521290D01*
X9450110Y2514470D01*
X9448800Y2505710D01*
X9451420Y2496950D01*
X9456670Y2490130D01*
X9465860Y2485260D01*
X9476360Y2484290D01*
X9486860Y2486240D01*
X9493420Y2491110D01*
X9498670Y2497920D01*
X9499980Y2504740D01*
X9498670Y2511550D01*
X9493420Y2520310D01*
X9527540Y2517390D01*
Y2491110D01*
G01X10033000Y1051140D02*
X9954260D01*
Y1075480D01*
X9958200Y1083270D01*
X9963450Y1088140D01*
X9973950Y1090080D01*
X9984440Y1088140D01*
X9991000Y1082290D01*
X9994940Y1075480D01*
Y1051140D01*
G01Y1075480D02*
X10033000Y1090080D01*
G01X10017250Y1127930D02*
X10026440Y1133770D01*
X10031690Y1141560D01*
X10033000Y1150320D01*
X10031690Y1158110D01*
X10025130Y1165900D01*
X10017250Y1170770D01*
X10009380Y1171740D01*
X10000190Y1169800D01*
X9993630Y1162980D01*
X9991000Y1156170D01*
Y1147400D01*
G01Y1156170D02*
X9987070Y1162010D01*
X9980510Y1166880D01*
X9972630Y1168820D01*
X9964760Y1166880D01*
X9958200Y1162010D01*
X9954260Y1153240D01*
X9955570Y1144480D01*
X9960820Y1135720D01*
G01X10017250Y1206670D02*
X10026440Y1212510D01*
X10031690Y1220300D01*
X10033000Y1229060D01*
X10031690Y1236850D01*
X10025130Y1244640D01*
X10017250Y1249510D01*
X10009380Y1250480D01*
X10000190Y1248540D01*
X9993630Y1241720D01*
X9991000Y1234910D01*
Y1226140D01*
G01Y1234910D02*
X9987070Y1240750D01*
X9980510Y1245620D01*
X9972630Y1247560D01*
X9964760Y1245620D01*
X9958200Y1240750D01*
X9954260Y1231980D01*
X9955570Y1223220D01*
X9960820Y1214460D01*
G01X10388600Y1000340D02*
X10309860D01*
Y1024680D01*
X10313800Y1032470D01*
X10319050Y1037340D01*
X10329550Y1039280D01*
X10340040Y1037340D01*
X10346600Y1031490D01*
X10350540Y1024680D01*
Y1000340D01*
G01Y1024680D02*
X10388600Y1039280D01*
G01X10372850Y1077130D02*
X10382040Y1082970D01*
X10387290Y1090760D01*
X10388600Y1099520D01*
X10387290Y1107310D01*
X10380730Y1115100D01*
X10372850Y1119970D01*
X10364980Y1120940D01*
X10355790Y1119000D01*
X10349230Y1112180D01*
X10346600Y1105370D01*
Y1096600D01*
G01Y1105370D02*
X10342670Y1111210D01*
X10336110Y1116080D01*
X10328230Y1118020D01*
X10320360Y1116080D01*
X10313800Y1111210D01*
X10309860Y1102440D01*
X10311170Y1093680D01*
X10316420Y1084920D01*
G01X10388600Y1188970D02*
X10309860D01*
X10366290Y1152950D01*
Y1201630D01*
G01X10388600Y1279740D02*
X10309860D01*
Y1304080D01*
X10313800Y1311870D01*
X10319050Y1316740D01*
X10329550Y1318680D01*
X10340040Y1316740D01*
X10346600Y1310890D01*
X10350540Y1304080D01*
Y1279740D01*
G01Y1304080D02*
X10388600Y1318680D01*
G01X10372850Y1356530D02*
X10382040Y1362370D01*
X10387290Y1370160D01*
X10388600Y1378920D01*
X10387290Y1386710D01*
X10380730Y1394500D01*
X10372850Y1399370D01*
X10364980Y1400340D01*
X10355790Y1398400D01*
X10349230Y1391580D01*
X10346600Y1384770D01*
Y1376000D01*
G01Y1384770D02*
X10342670Y1390610D01*
X10336110Y1395480D01*
X10328230Y1397420D01*
X10320360Y1395480D01*
X10313800Y1390610D01*
X10309860Y1381840D01*
X10311170Y1373080D01*
X10316420Y1364320D01*
G01X10376790Y1435270D02*
X10383350Y1441110D01*
X10387290Y1447930D01*
X10388600Y1456690D01*
X10385980Y1465450D01*
X10380730Y1472270D01*
X10371540Y1477140D01*
X10361040Y1478110D01*
X10350540Y1476160D01*
X10343980Y1471290D01*
X10338730Y1464480D01*
X10337420Y1457660D01*
X10338730Y1450850D01*
X10343980Y1442090D01*
X10309860Y1445010D01*
Y1471290D01*
G01X10238740Y1938270D02*
Y1914910D01*
G01Y1926590D02*
X10160000D01*
G01Y1938270D02*
Y1914910D01*
G01X10232180Y1826430D02*
X10236120Y1832270D01*
X10238740Y1839090D01*
Y1846880D01*
X10234800Y1855640D01*
X10228240Y1862450D01*
X10220370Y1867320D01*
X10207240Y1871220D01*
X10195430Y1872190D01*
X10183620Y1870240D01*
X10175750Y1867320D01*
X10167870Y1861480D01*
X10162620Y1854670D01*
X10160000Y1847850D01*
Y1841030D01*
X10162620Y1834220D01*
X10166560Y1828380D01*
X10171810Y1823510D01*
G01X10175750Y1790530D02*
X10166560Y1784690D01*
X10161310Y1776900D01*
X10160000Y1768140D01*
X10161310Y1760350D01*
X10167870Y1752560D01*
X10175750Y1747690D01*
X10183620Y1746720D01*
X10192810Y1748660D01*
X10199370Y1755480D01*
X10202000Y1762290D01*
Y1771060D01*
G01Y1762290D02*
X10205930Y1756450D01*
X10212490Y1751580D01*
X10220370Y1749640D01*
X10228240Y1751580D01*
X10234800Y1756450D01*
X10238740Y1765220D01*
X10237430Y1773980D01*
X10232180Y1782740D01*
G01X10058230Y2383580D02*
X10052390Y2387520D01*
X10045570Y2390140D01*
X10037780D01*
X10029020Y2386200D01*
X10022210Y2379640D01*
X10017340Y2371770D01*
X10013440Y2358640D01*
X10012470Y2346830D01*
X10014420Y2335020D01*
X10017340Y2327150D01*
X10023180Y2319270D01*
X10029990Y2314020D01*
X10036810Y2311400D01*
X10043630D01*
X10050440Y2314020D01*
X10056280Y2317960D01*
X10061150Y2323210D01*
G01X10115550Y2311400D02*
Y2390140D01*
X10103870Y2374390D01*
G01Y2311400D02*
X10127230D01*
G01X10340340Y2878070D02*
Y2854710D01*
G01Y2866390D02*
X10261600D01*
G01Y2878070D02*
Y2854710D01*
G01X10333780Y2766230D02*
X10337720Y2772070D01*
X10340340Y2778890D01*
Y2786680D01*
X10336400Y2795440D01*
X10329840Y2802250D01*
X10321970Y2807120D01*
X10308840Y2811020D01*
X10297030Y2811990D01*
X10285220Y2810040D01*
X10277350Y2807120D01*
X10269470Y2801280D01*
X10264220Y2794470D01*
X10261600Y2787650D01*
Y2780830D01*
X10264220Y2774020D01*
X10268160Y2768180D01*
X10273410Y2763310D01*
G01X10327220Y2727410D02*
X10335090Y2721570D01*
X10339030Y2714750D01*
X10340340Y2706960D01*
X10337720Y2697230D01*
X10331150Y2690410D01*
X10323280Y2688460D01*
X10315400Y2689440D01*
X10308840Y2693330D01*
X10295720Y2712800D01*
X10286530Y2721570D01*
X10273410Y2727410D01*
X10261600Y2729360D01*
Y2688460D01*
G01X10187940Y3716270D02*
Y3692910D01*
G01Y3704590D02*
X10109200D01*
G01Y3716270D02*
Y3692910D01*
G01X10181380Y3604430D02*
X10185320Y3610270D01*
X10187940Y3617090D01*
Y3624880D01*
X10184000Y3633640D01*
X10177440Y3640450D01*
X10169570Y3645320D01*
X10156440Y3649220D01*
X10144630Y3650190D01*
X10132820Y3648240D01*
X10124950Y3645320D01*
X10117070Y3639480D01*
X10111820Y3632670D01*
X10109200Y3625850D01*
Y3619030D01*
X10111820Y3612220D01*
X10115760Y3606380D01*
X10121010Y3601510D01*
G01X10109200Y3547110D02*
X10187940D01*
X10172190Y3558790D01*
G01X10109200D02*
Y3535430D01*
G01X10398250Y4264240D02*
X10406130Y4269110D01*
X10411380Y4274950D01*
X10414000Y4281760D01*
X10411380Y4289550D01*
X10406130Y4295390D01*
X10398250Y4301240D01*
X10387750Y4303180D01*
X10335260D01*
G01X10414000Y4362450D02*
X10335260D01*
X10351010Y4350770D01*
G01X10414000D02*
Y4374130D01*
G01X10402190Y4419770D02*
X10408750Y4425610D01*
X10412690Y4432430D01*
X10414000Y4441190D01*
X10411380Y4449950D01*
X10406130Y4456770D01*
X10396940Y4461640D01*
X10386440Y4462610D01*
X10375940Y4460660D01*
X10369380Y4455790D01*
X10364130Y4448980D01*
X10362820Y4442160D01*
X10364130Y4435350D01*
X10369380Y4426590D01*
X10335260Y4429510D01*
Y4455790D01*
G01X10621430Y990600D02*
X10629520Y977900D01*
X10639220Y969430D01*
X10650540Y965200D01*
X10663480Y969430D01*
X10673180Y977900D01*
X10682890Y990600D01*
X10686120Y1007530D01*
Y1092200D01*
G01X10783820Y965200D02*
X10795140Y967320D01*
X10808080Y973660D01*
X10816170Y984250D01*
X10819400Y999070D01*
X10816170Y1013880D01*
X10806460Y1026580D01*
X10791910Y1032930D01*
X10775740D01*
X10766040Y1037170D01*
X10757950Y1047750D01*
X10754710Y1062570D01*
X10759570Y1077380D01*
X10770890Y1087970D01*
X10783820Y1092200D01*
X10796760Y1087970D01*
X10808080Y1077380D01*
X10812940Y1062570D01*
X10809700Y1047750D01*
X10801610Y1037170D01*
X10791910Y1032930D01*
X10775740D01*
X10761190Y1026580D01*
X10751480Y1013880D01*
X10748250Y999070D01*
X10751480Y984250D01*
X10759570Y973660D01*
X10772510Y967320D01*
X10783820Y965200D01*
G01X10896600Y2123860D02*
X10975340D01*
Y2099520D01*
X10971400Y2091730D01*
X10966150Y2086860D01*
X10955650Y2084920D01*
X10945160Y2086860D01*
X10938600Y2092710D01*
X10934660Y2099520D01*
Y2123860D01*
G01Y2099520D02*
X10896600Y2084920D01*
G01X10962220Y2044150D02*
X10970090Y2038310D01*
X10974030Y2031490D01*
X10975340Y2023700D01*
X10972720Y2013970D01*
X10966150Y2007150D01*
X10958280Y2005200D01*
X10950400Y2006180D01*
X10943840Y2010070D01*
X10930720Y2029540D01*
X10921530Y2038310D01*
X10908410Y2044150D01*
X10896600Y2046100D01*
Y2005200D01*
G01X10905780Y1963460D02*
X10899220Y1956650D01*
X10896600Y1948860D01*
X10899220Y1941070D01*
X10907100Y1934250D01*
X10918910Y1929380D01*
X10930720Y1927440D01*
X10945160D01*
X10956970Y1929380D01*
X10967470Y1934250D01*
X10972720Y1940090D01*
X10975340Y1946910D01*
X10972720Y1954700D01*
X10967470Y1960540D01*
X10959590Y1964440D01*
X10949090Y1966380D01*
X10939910Y1964440D01*
X10930720Y1959570D01*
X10925470Y1953730D01*
X10924160Y1946910D01*
X10926780Y1939120D01*
X10933340Y1933280D01*
X10945160Y1927440D01*
G01X10744370Y2544020D02*
X10750210Y2540080D01*
X10757030Y2537460D01*
X10764820D01*
X10773580Y2541400D01*
X10780390Y2547960D01*
X10785260Y2555830D01*
X10789160Y2568960D01*
X10790130Y2580770D01*
X10788180Y2592580D01*
X10785260Y2600450D01*
X10779420Y2608330D01*
X10772610Y2613580D01*
X10765790Y2616200D01*
X10758970D01*
X10752160Y2613580D01*
X10746320Y2609640D01*
X10741450Y2604390D01*
G01X10705550Y2550580D02*
X10699710Y2542710D01*
X10692890Y2538770D01*
X10685100Y2537460D01*
X10675370Y2540080D01*
X10668550Y2546650D01*
X10666600Y2554520D01*
X10667580Y2562400D01*
X10671470Y2568960D01*
X10690940Y2582080D01*
X10699710Y2591270D01*
X10705550Y2604390D01*
X10707500Y2616200D01*
X10666600D01*
G01X10744370Y3128220D02*
X10750210Y3124280D01*
X10757030Y3121660D01*
X10764820D01*
X10773580Y3125600D01*
X10780390Y3132160D01*
X10785260Y3140030D01*
X10789160Y3153160D01*
X10790130Y3164970D01*
X10788180Y3176780D01*
X10785260Y3184650D01*
X10779420Y3192530D01*
X10772610Y3197780D01*
X10765790Y3200400D01*
X10758970D01*
X10752160Y3197780D01*
X10746320Y3193840D01*
X10741450Y3188590D01*
G01X10675370Y3200400D02*
Y3121660D01*
X10711390Y3178090D01*
X10662710D01*
G01X10693570Y3839420D02*
X10699410Y3835480D01*
X10706230Y3832860D01*
X10714020D01*
X10722780Y3836800D01*
X10729590Y3843360D01*
X10734460Y3851230D01*
X10738360Y3864360D01*
X10739330Y3876170D01*
X10737380Y3887980D01*
X10734460Y3895850D01*
X10728620Y3903730D01*
X10721810Y3908980D01*
X10714990Y3911600D01*
X10708170D01*
X10701360Y3908980D01*
X10695520Y3905040D01*
X10690650Y3899790D01*
G01X10657670Y3895850D02*
X10651830Y3905040D01*
X10644040Y3910290D01*
X10635280Y3911600D01*
X10627490Y3910290D01*
X10619700Y3903730D01*
X10614830Y3895850D01*
X10613860Y3887980D01*
X10615800Y3878790D01*
X10622620Y3872230D01*
X10629430Y3869600D01*
X10638200D01*
G01X10629430D02*
X10623590Y3865670D01*
X10618720Y3859110D01*
X10616780Y3851230D01*
X10618720Y3843360D01*
X10623590Y3836800D01*
X10632360Y3832860D01*
X10641120Y3834170D01*
X10649880Y3839420D01*
G54D11*
G01X10406500Y4127500D02*
X9906500D01*
G01X10406500Y6667500D02*
Y4127500D01*
G01X9906500D02*
Y6667500D01*
G01D02*
X10406500D01*
G54D12*
G01X1971040Y193040D02*
X2600960D01*
Y822960D01*
X1971040D01*
Y193040D01*
G01X2600960Y235970D02*
Y780030D01*
G01X2987040Y193040D02*
X3616960D01*
Y822960D01*
X2987040D01*
Y193040D01*
G01X3616960Y235970D02*
Y780030D01*
G01X4003040Y193040D02*
X4632960D01*
Y822960D01*
X4003040D01*
Y193040D01*
G01X4632960Y235970D02*
Y780030D01*
G01X5019040Y193040D02*
X5648960D01*
Y822960D01*
X5019040D01*
Y193040D01*
G01X6035040D02*
X6664960D01*
Y822960D01*
X6035040D01*
Y193040D01*
G01X5648960Y235970D02*
Y780030D01*
G01X6664960Y235970D02*
Y780030D01*
G01X7051040Y193040D02*
X7680960D01*
Y822960D01*
X7051040D01*
Y193040D01*
G01X7680960Y235970D02*
Y780030D01*
G01X8067040Y193040D02*
X8696960D01*
Y822960D01*
X8067040D01*
Y193040D01*
G01X8696960Y235970D02*
Y780030D01*
G01X9083040Y193040D02*
X9712960D01*
Y822960D01*
X9083040D01*
Y193040D01*
G01X9712960Y235970D02*
Y780030D01*
G01X10099040Y193040D02*
X10728960D01*
Y822960D01*
X10099040D01*
Y193040D01*
G01X10728960Y235970D02*
Y780030D01*
M02*
