G04 ================== begin FILE IDENTIFICATION RECORD ==================*
G04 Layout Name:  C:/Jeonghyun/Lab/RFSoC_FMC4/allegro/fmc_db.brd*
G04 Film Name:    SolderMask_TOP*
G04 File Format:  Gerber RS274X*
G04 File Origin:  Cadence Allegro 23.1-S003*
G04 Origin Date:  Wed May 15 13:37:00 2024*
G04 *
G04 Layer:  VIA CLASS/SOLDERMASK_TOP*
G04 Layer:  PIN/SOLDERMASK_TOP*
G04 *
G04 Offset:    (0.0000 0.0000)*
G04 Mirror:    No*
G04 Mode:      Positive*
G04 Rotation:  0*
G04 FullContactRelief:  No*
G04 UndefLineWidth:     0.0000*
G04 ================== end FILE IDENTIFICATION RECORD ====================*
%FSLAX25Y25*MOMM*%
%IR0*IPPOS*OFA0.00000B0.00000*MIA0B0*SFA1.00000B1.00000*%
%ADD18R,.65X1.525*%
%ADD19R,.45X1.475*%
%ADD20R,3.15X1.*%
%ADD21R,.6X.62*%
%ADD12C,2.032*%
%ADD16R,.5X.475*%
%ADD14C,1.651*%
%ADD17R,1.2065X1.7018*%
%ADD15R,1.651X1.651*%
%ADD13R,1.905X1.905*%
%ADD10C,5.7912*%
%ADD11C,1.8288*%
%LPD*%
G75*
G54D10*
X965200Y304800D03*
Y6604790D03*
G54D11*
X765200Y734800D03*
X1070000Y6172940D03*
G54D20*
X9899000Y4508500D03*
Y4254500D03*
Y5016500D03*
Y4762500D03*
Y5524500D03*
Y5270500D03*
Y6032500D03*
Y5778500D03*
Y6540500D03*
Y6286500D03*
X10414000Y4508500D03*
Y4254500D03*
Y5016500D03*
Y4762500D03*
Y5524500D03*
Y5270500D03*
Y6032500D03*
Y5778500D03*
Y6540500D03*
Y6286500D03*
G54D12*
X2032000Y254000D03*
X2540000D03*
X2032000Y762000D03*
X2540000D03*
X3048000Y254000D03*
Y762000D03*
X3556000Y254000D03*
Y762000D03*
X4064000Y254000D03*
Y762000D03*
X4572000Y254000D03*
Y762000D03*
X5080000Y254000D03*
Y762000D03*
X5588000Y254000D03*
Y762000D03*
X6096000Y254000D03*
Y762000D03*
X6604000Y254000D03*
Y762000D03*
X7112000Y254000D03*
Y762000D03*
X7620000Y254000D03*
Y762000D03*
X8128000Y254000D03*
Y762000D03*
X8636000Y254000D03*
Y762000D03*
X9144000Y254000D03*
Y762000D03*
X9652000Y254000D03*
Y762000D03*
X10160000Y254000D03*
Y762000D03*
X10668000Y254000D03*
Y762000D03*
G54D21*
X10333000Y2336800D03*
X10241000D03*
X10698200Y2463800D03*
X10790200D03*
X10698200Y3302000D03*
X10790200D03*
X10698200Y3911600D03*
X10790200D03*
G54D13*
X2286000Y508000D03*
X3302000D03*
X4318000D03*
X5334000D03*
X6350000D03*
X7366000D03*
X8382000D03*
X9398000D03*
X10414000D03*
G54D14*
X3175000Y2921000D03*
X3429000D03*
X3175000Y2667000D03*
Y3429000D03*
X3429000D03*
X3175000Y3175000D03*
X3429000D03*
X3175000Y3937000D03*
X3429000D03*
X3175000Y3683000D03*
X3429000D03*
X3175000Y4445000D03*
X3429000D03*
X3175000Y4191000D03*
X3429000D03*
X3175000Y4953000D03*
X3429000D03*
X3175000Y4699000D03*
X3429000D03*
X3175000Y5715000D03*
X3429000D03*
X3175000Y5461000D03*
X3429000D03*
X3175000Y5207000D03*
X3429000D03*
X3175000Y6223000D03*
X3429000D03*
X3175000Y5969000D03*
X3429000D03*
X5016500Y2921000D03*
Y2667000D03*
Y3429000D03*
Y3175000D03*
Y3937000D03*
Y3683000D03*
Y4445000D03*
Y4191000D03*
Y4953000D03*
Y4699000D03*
Y5715000D03*
Y5461000D03*
Y5207000D03*
Y6223000D03*
Y5969000D03*
X5270500Y2921000D03*
Y3429000D03*
Y3175000D03*
Y3937000D03*
Y3683000D03*
Y4445000D03*
Y4191000D03*
Y4953000D03*
Y4699000D03*
Y5715000D03*
Y5461000D03*
Y5207000D03*
Y6223000D03*
Y5969000D03*
X6858000Y2921000D03*
X7112000D03*
X6858000Y2667000D03*
Y3429000D03*
X7112000D03*
X6858000Y3175000D03*
X7112000D03*
X6858000Y3937000D03*
X7112000D03*
X6858000Y3683000D03*
X7112000D03*
X6858000Y4445000D03*
X7112000D03*
X6858000Y4191000D03*
X7112000D03*
X6858000Y4953000D03*
X7112000D03*
X6858000Y4699000D03*
X7112000D03*
X6858000Y5715000D03*
X7112000D03*
X6858000Y5461000D03*
X7112000D03*
X6858000Y5207000D03*
X7112000D03*
X6858000Y6223000D03*
X7112000D03*
X6858000Y5969000D03*
X7112000D03*
X8636000Y2921000D03*
X8890000D03*
X8636000Y2667000D03*
Y3429000D03*
X8890000D03*
X8636000Y3175000D03*
X8890000D03*
X8636000Y3937000D03*
X8890000D03*
X8636000Y3683000D03*
X8890000D03*
X8636000Y4445000D03*
X8890000D03*
X8636000Y4191000D03*
X8890000D03*
X8636000Y4953000D03*
X8890000D03*
X8636000Y4699000D03*
X8890000D03*
X8636000Y5715000D03*
X8890000D03*
X8636000Y5461000D03*
X8890000D03*
X8636000Y5207000D03*
X8890000D03*
X8636000Y6223000D03*
X8890000D03*
X8636000Y5969000D03*
X8890000D03*
G54D15*
X3429000Y2667000D03*
X5270500D03*
X7112000D03*
X8890000D03*
G54D16*
X3911600Y6299600D03*
Y6197200D03*
X4038600Y6299600D03*
Y6197200D03*
X5740400Y6299600D03*
Y6197200D03*
X5867400Y6299600D03*
Y6197200D03*
X7594600Y6299600D03*
Y6197200D03*
X7747000Y6299600D03*
Y6197200D03*
X8178800Y6299600D03*
Y6197200D03*
X9296400Y2819000D03*
Y2921400D03*
X9347200Y6299600D03*
Y6197200D03*
X9855200Y1320400D03*
Y1422800D03*
X9702800Y2082400D03*
Y2184800D03*
X9728200Y2819000D03*
Y2921400D03*
X9601200Y2819000D03*
Y2921400D03*
X9448800Y2819000D03*
Y2921400D03*
X9601200Y2642000D03*
Y2539600D03*
X9982200Y1320400D03*
X10109200D03*
X10236200D03*
X9982200Y1422800D03*
X10109200D03*
X10236200D03*
X10896600Y2082400D03*
Y2184800D03*
G54D17*
X9393430Y1524000D03*
X9097770D03*
X10418570Y1117600D03*
X10714230D03*
G54D18*
X9842500Y1633800D03*
Y2176200D03*
X10350500Y1633800D03*
X10223500D03*
X10096500D03*
X9969500D03*
Y2176200D03*
X10096500D03*
X10223500D03*
X10350500D03*
X10731500Y1633800D03*
X10604500D03*
X10477500D03*
Y2176200D03*
X10604500D03*
X10731500D03*
G54D19*
X9866000Y2500200D03*
Y3325700D03*
Y3087800D03*
Y3913300D03*
X10386000Y2500200D03*
X10321000D03*
X10256000D03*
X10191000D03*
X10126000D03*
X10061000D03*
X9996000D03*
X9931000D03*
X10386000Y3325700D03*
X10321000D03*
X10256000D03*
X10191000D03*
X10126000D03*
X10061000D03*
X9996000D03*
X9931000D03*
Y3087800D03*
X9996000D03*
X10061000D03*
X10126000D03*
X10191000D03*
X10256000D03*
X10321000D03*
X10386000D03*
X9931000Y3913300D03*
X9996000D03*
X10061000D03*
X10126000D03*
X10191000D03*
X10256000D03*
X10321000D03*
X10386000D03*
X10581000Y2500200D03*
X10516000D03*
X10451000D03*
X10581000Y3325700D03*
X10516000D03*
X10451000D03*
Y3087800D03*
X10516000D03*
X10581000D03*
X10451000Y3913300D03*
X10516000D03*
X10581000D03*
M02*
