G04 ================== begin FILE IDENTIFICATION RECORD ==================*
G04 Layout Name:  C:/Jeonghyun/Lab/RFSoC_FMC4/allegro/fmc_db.brd*
G04 Film Name:    TOP*
G04 File Format:  Gerber RS274X*
G04 File Origin:  Cadence Allegro 23.1-S003*
G04 Origin Date:  Wed May 15 13:37:00 2024*
G04 *
G04 Layer:  ETCH/TOP*
G04 Layer:  PIN/TOP*
G04 Layer:  VIA CLASS/TOP*
G04 *
G04 Offset:    (0.0000 0.0000)*
G04 Mirror:    No*
G04 Mode:      Positive*
G04 Rotation:  0*
G04 FullContactRelief:  No*
G04 UndefLineWidth:     0.0000*
G04 ================== end FILE IDENTIFICATION RECORD ====================*
%FSLAX25Y25*MOMM*%
%IR0*IPPOS*OFA0.00000B0.00000*MIA0B0*SFA1.00000B1.00000*%
%ADD19R,.65X1.525*%
%ADD20R,.45X1.475*%
%ADD10C,.508*%
%ADD21R,3.15X1.*%
%ADD23C,2.*%
%ADD22R,.6X.62*%
%ADD13C,2.032*%
%ADD17R,.5X.475*%
%ADD15C,1.651*%
%ADD18R,1.2065X1.7018*%
%ADD16R,1.651X1.651*%
%ADD12C,1.2954*%
%ADD14R,1.905X1.905*%
%ADD11C,5.7912*%
%ADD24C,.1082*%
%ADD25C,.1857*%
%ADD28C,.7624*%
%ADD29C,1.9054*%
%ADD26C,2.2864*%
%ADD27C,1.7276*%
G75*
%LPD*%
G75*
G36*
G01X1093130Y6900000D02*
X10986480D01*
Y10D01*
X1069180D01*
G02X1065800Y19750I0J10159D01*
G03X1267480Y304800I-100602J285050D01*
G03X662920I-302280J0D01*
G03X864600Y19750I302282J0D01*
G02X861220Y10I-3380J-9581D01*
G01X10D01*
Y6900000D01*
X837270D01*
G02X841430Y6880570I4J-10159D01*
G03X662920Y6604790I123771J-275780D01*
G03X1267480I302280J0D01*
G03X1088970Y6880570I-302281J0D01*
G02X1093130Y6900000I4156J9271D01*
G37*
%LPC*%
G75*
G36*
G01X9728780Y5728500D02*
Y5828500D01*
G02X9741500Y5841220I12720J0D01*
G01X10056500D01*
G02X10069220Y5828500I0J-12720D01*
G01Y5728500D01*
G02X10056500Y5715780I-12720J0D01*
G01X9741500D01*
G02X9728780Y5728500I0J12720D01*
G37*
G36*
G01Y5982500D02*
Y6082500D01*
G02X9741500Y6095220I12720J0D01*
G01X10056500D01*
G02X10069220Y6082500I0J-12720D01*
G01Y5982500D01*
G02X10056500Y5969780I-12720J0D01*
G01X9741500D01*
G02X9728780Y5982500I0J12720D01*
G37*
G36*
G01Y4712500D02*
Y4812500D01*
G02X9741500Y4825220I12720J0D01*
G01X10056500D01*
G02X10069220Y4812500I0J-12720D01*
G01Y4712500D01*
G02X10056500Y4699780I-12720J0D01*
G01X9741500D01*
G02X9728780Y4712500I0J12720D01*
G37*
G36*
G01Y4966500D02*
Y5066500D01*
G02X9741500Y5079220I12720J0D01*
G01X10056500D01*
G02X10069220Y5066500I0J-12720D01*
G01Y4966500D01*
G02X10056500Y4953780I-12720J0D01*
G01X9741500D01*
G02X9728780Y4966500I0J12720D01*
G37*
G36*
G01X8794730Y2584450D02*
Y2749550D01*
G02X8807450Y2762270I12720J0D01*
G01X8972550D01*
G02X8985270Y2749550I0J-12720D01*
G01Y2584450D01*
G02X8972550Y2571730I-12720J0D01*
G01X8807450D01*
G02X8794730Y2584450I0J12720D01*
G37*
G36*
G01X7016730D02*
Y2749550D01*
G02X7029450Y2762270I12720J0D01*
G01X7194550D01*
G02X7207270Y2749550I0J-12720D01*
G01Y2584450D01*
G02X7194550Y2571730I-12720J0D01*
G01X7029450D01*
G02X7016730Y2584450I0J12720D01*
G37*
G36*
G01X5175230D02*
Y2749550D01*
G02X5187950Y2762270I12720J0D01*
G01X5353050D01*
G02X5365770Y2749550I0J-12720D01*
G01Y2584450D01*
G02X5353050Y2571730I-12720J0D01*
G01X5187950D01*
G02X5175230Y2584450I0J12720D01*
G37*
G36*
G01X3333730D02*
Y2749550D01*
G02X3346450Y2762270I12720J0D01*
G01X3511550D01*
G02X3524270Y2749550I0J-12720D01*
G01Y2584450D01*
G02X3511550Y2571730I-12720J0D01*
G01X3346450D01*
G02X3333730Y2584450I0J12720D01*
G37*
G36*
G01X9024720Y1438910D02*
Y1609090D01*
G02X9037440Y1621810I12720J0D01*
G01X9158100D01*
G02X9170820Y1609090I0J-12720D01*
G01Y1438910D01*
G02X9158100Y1426190I-12720J0D01*
G01X9037440D01*
G02X9024720Y1438910I0J12720D01*
G37*
G36*
G01X10641180Y1032510D02*
Y1202690D01*
G02X10653900Y1215410I12720J0D01*
G01X10774560D01*
G02X10787280Y1202690I0J-12720D01*
G01Y1032510D01*
G02X10774560Y1019790I-12720J0D01*
G01X10653900D01*
G02X10641180Y1032510I0J12720D01*
G37*
G36*
G01X10198480Y1296650D02*
Y1344150D01*
G02X10211200Y1356870I12720J0D01*
G01X10261200D01*
G02X10273920Y1344150I0J-12720D01*
G01Y1296650D01*
G02X10261200Y1283930I-12720J0D01*
G01X10211200D01*
G02X10198480Y1296650I0J12720D01*
G37*
G36*
G01X10071480D02*
Y1344150D01*
G02X10084200Y1356870I12720J0D01*
G01X10134200D01*
G02X10146920Y1344150I0J-12720D01*
G01Y1296650D01*
G02X10134200Y1283930I-12720J0D01*
G01X10084200D01*
G02X10071480Y1296650I0J12720D01*
G37*
G36*
G01X9944480D02*
Y1344150D01*
G02X9957200Y1356870I12720J0D01*
G01X10007200D01*
G02X10019920Y1344150I0J-12720D01*
G01Y1296650D01*
G02X10007200Y1283930I-12720J0D01*
G01X9957200D01*
G02X9944480Y1296650I0J12720D01*
G37*
G36*
G01X9817480D02*
Y1344150D01*
G02X9830200Y1356870I12720J0D01*
G01X9880200D01*
G02X9892920Y1344150I0J-12720D01*
G01Y1296650D01*
G02X9880200Y1283930I-12720J0D01*
G01X9830200D01*
G02X9817480Y1296650I0J12720D01*
G37*
G36*
G01X8274030Y412750D02*
Y603250D01*
G02X8286750Y615970I12720J0D01*
G01X8477250D01*
G02X8489970Y603250I0J-12720D01*
G01Y412750D01*
G02X8477250Y400030I-12720J0D01*
G01X8286750D01*
G02X8274030Y412750I0J12720D01*
G37*
G36*
G01X7258030D02*
Y603250D01*
G02X7270750Y615970I12720J0D01*
G01X7461250D01*
G02X7473970Y603250I0J-12720D01*
G01Y412750D01*
G02X7461250Y400030I-12720J0D01*
G01X7270750D01*
G02X7258030Y412750I0J12720D01*
G37*
G36*
G01X6242030D02*
Y603250D01*
G02X6254750Y615970I12720J0D01*
G01X6445250D01*
G02X6457970Y603250I0J-12720D01*
G01Y412750D01*
G02X6445250Y400030I-12720J0D01*
G01X6254750D01*
G02X6242030Y412750I0J12720D01*
G37*
G36*
G01X5226030D02*
Y603250D01*
G02X5238750Y615970I12720J0D01*
G01X5429250D01*
G02X5441970Y603250I0J-12720D01*
G01Y412750D01*
G02X5429250Y400030I-12720J0D01*
G01X5238750D01*
G02X5226030Y412750I0J12720D01*
G37*
G36*
G01X4210030D02*
Y603250D01*
G02X4222750Y615970I12720J0D01*
G01X4413250D01*
G02X4425970Y603250I0J-12720D01*
G01Y412750D01*
G02X4413250Y400030I-12720J0D01*
G01X4222750D01*
G02X4210030Y412750I0J12720D01*
G37*
G36*
G01X3194030D02*
Y603250D01*
G02X3206750Y615970I12720J0D01*
G01X3397250D01*
G02X3409970Y603250I0J-12720D01*
G01Y412750D01*
G02X3397250Y400030I-12720J0D01*
G01X3206750D01*
G02X3194030Y412750I0J12720D01*
G37*
G36*
G01X2178030D02*
Y603250D01*
G02X2190750Y615970I12720J0D01*
G01X2381250D01*
G02X2393970Y603250I0J-12720D01*
G01Y412750D01*
G02X2381250Y400030I-12720J0D01*
G01X2190750D01*
G02X2178030Y412750I0J12720D01*
G37*
G36*
G01X9797280Y1557550D02*
Y1710050D01*
G02X9810000Y1722770I12720J0D01*
G01X9875000D01*
G02X9887720Y1710050I0J-12720D01*
G01Y1557550D01*
G02X9880150Y1545920I-12719J0D01*
G03X9875090Y1532280I4119J-9287D01*
G02X9877200Y1522860I-19894J-9402D01*
G01Y1459710D01*
X9881690Y1459180D01*
G02X9892920Y1446550I-1487J-12630D01*
G01Y1399050D01*
G02X9880200Y1386330I-12720J0D01*
G01X9830200D01*
G02X9817480Y1399050I0J12720D01*
G01Y1446550D01*
G02X9828710Y1459180I12717J0D01*
G01X9833200Y1459710D01*
Y1513750D01*
X9826940Y1520000D01*
G02X9820500Y1535560I15563J15554D01*
G01Y1544830D01*
X9810000D01*
G02X9797280Y1557550I0J12720D01*
G37*
G36*
G01X9924280D02*
Y1710050D01*
G02X9937000Y1722770I12720J0D01*
G01X10002000D01*
G02X10014720Y1710050I0J-12720D01*
G01Y1557550D01*
G02X10007150Y1545920I-12719J0D01*
G03X10002090Y1532280I4119J-9287D01*
G02X10004200Y1522860I-19894J-9402D01*
G01Y1459710D01*
X10008690Y1459180D01*
G02X10019920Y1446550I-1487J-12630D01*
G01Y1399050D01*
G02X10007200Y1386330I-12720J0D01*
G01X9957200D01*
G02X9944480Y1399050I0J12720D01*
G01Y1446550D01*
G02X9955710Y1459180I12717J0D01*
G01X9960200Y1459710D01*
Y1513750D01*
X9953940Y1520000D01*
G02X9947500Y1535560I15563J15554D01*
G01Y1544830D01*
X9937000D01*
G02X9924280Y1557550I0J12720D01*
G37*
G36*
G01X10051280D02*
Y1710050D01*
G02X10064000Y1722770I12720J0D01*
G01X10129000D01*
G02X10141720Y1710050I0J-12720D01*
G01Y1557550D01*
G02X10134150Y1545920I-12719J0D01*
G03X10129090Y1532280I4119J-9287D01*
G02X10131200Y1522860I-19894J-9402D01*
G01Y1459710D01*
X10135690Y1459180D01*
G02X10146920Y1446550I-1487J-12630D01*
G01Y1399050D01*
G02X10134200Y1386330I-12720J0D01*
G01X10084200D01*
G02X10071480Y1399050I0J12720D01*
G01Y1446550D01*
G02X10082710Y1459180I12717J0D01*
G01X10087200Y1459710D01*
Y1513750D01*
X10080940Y1520000D01*
G02X10074500Y1535560I15563J15554D01*
G01Y1544830D01*
X10064000D01*
G02X10051280Y1557550I0J12720D01*
G37*
G36*
G01X10178280D02*
Y1710050D01*
G02X10191000Y1722770I12720J0D01*
G01X10256000D01*
G02X10268720Y1710050I0J-12720D01*
G01Y1557550D01*
G02X10261150Y1545920I-12719J0D01*
G03X10256090Y1532280I4119J-9287D01*
G02X10258200Y1522860I-19894J-9402D01*
G01Y1459710D01*
X10262690Y1459180D01*
G02X10273920Y1446550I-1487J-12630D01*
G01Y1399050D01*
G02X10261200Y1386330I-12720J0D01*
G01X10211200D01*
G02X10198480Y1399050I0J12720D01*
G01Y1446550D01*
G02X10209710Y1459180I12717J0D01*
G01X10214200Y1459710D01*
Y1513750D01*
X10207940Y1520000D01*
G02X10201500Y1535560I15563J15554D01*
G01Y1544830D01*
X10191000D01*
G02X10178280Y1557550I0J12720D01*
G37*
G36*
G01X10432280Y1546350D02*
Y1710050D01*
G02X10445000Y1722770I12720J0D01*
G01X10510000D01*
G02X10522720Y1710050I0J-12720D01*
G01Y1557550D01*
G02X10510000Y1544830I-12720J0D01*
G01X10495630D01*
Y1539440D01*
G02X10490320Y1526620I-18131J0D01*
G01X10479500Y1515800D01*
G02X10466680Y1510490I-12820J12821D01*
G01X10444740D01*
X10444540Y1510290D01*
Y1463490D01*
X10448720Y1459310D01*
X10451440Y1459920D01*
G02X10459690Y1460820I8235J-37222D01*
G02X10421570Y1422700I0J-38120D01*
G02X10422470Y1430950I38122J15D01*
G01X10423080Y1433670D01*
X10414000Y1442750D01*
X10404920Y1433670D01*
X10405530Y1430950D01*
G02X10406430Y1422700I-37222J-8235D01*
G02X10368310Y1460820I-38120J0D01*
G02X10376560Y1459920I15J-38122D01*
G01X10379280Y1459310D01*
X10383460Y1463490D01*
Y1510290D01*
X10383260Y1510490D01*
X10361320D01*
G02X10348500Y1515800I0J18131D01*
G01X10337680Y1526620D01*
G02X10332370Y1539440I12821J12820D01*
G01Y1544830D01*
X10318000D01*
G02X10305280Y1557550I0J12720D01*
G01Y1710050D01*
G02X10318000Y1722770I12720J0D01*
G01X10383000D01*
G02X10395720Y1710050I0J-12720D01*
G01Y1546350D01*
X10398600Y1544970D01*
G02X10403590Y1541440I-7825J-16354D01*
G01X10414000Y1531030D01*
X10424410Y1541440D01*
G02X10429400Y1544970I12815J-12824D01*
G01X10432280Y1546350D01*
G37*
G36*
G01X10686280D02*
Y1710050D01*
G02X10699000Y1722770I12720J0D01*
G01X10764000D01*
G02X10776720Y1710050I0J-12720D01*
G01Y1557550D01*
G02X10764000Y1544830I-12720J0D01*
G01X10749630D01*
Y1539440D01*
G02X10744320Y1526620I-18131J0D01*
G01X10733500Y1515800D01*
G02X10720680Y1510490I-12820J12821D01*
G01X10698740D01*
X10698540Y1510290D01*
Y1460950D01*
X10702720Y1456770D01*
X10705440Y1457380D01*
G02X10713690Y1458280I8235J-37222D01*
G02X10675570Y1420160I0J-38120D01*
G02X10676470Y1428410I38122J15D01*
G01X10677080Y1431130D01*
X10668000Y1440210D01*
X10658920Y1431130D01*
X10659530Y1428410D01*
G02X10660430Y1420160I-37222J-8235D01*
G02X10622310Y1458280I-38120J0D01*
G02X10630560Y1457380I15J-38122D01*
G01X10633280Y1456770D01*
X10637460Y1460950D01*
Y1510290D01*
X10637260Y1510490D01*
X10615320D01*
G02X10602500Y1515800I0J18131D01*
G01X10591680Y1526620D01*
G02X10586370Y1539440I12821J12820D01*
G01Y1544830D01*
X10572000D01*
G02X10559280Y1557550I0J12720D01*
G01Y1710050D01*
G02X10572000Y1722770I12720J0D01*
G01X10637000D01*
G02X10649720Y1710050I0J-12720D01*
G01Y1546350D01*
X10652600Y1544970D01*
G02X10657590Y1541440I-7825J-16354D01*
G01X10668000Y1531030D01*
X10678410Y1541440D01*
G02X10683400Y1544970I12815J-12824D01*
G01X10686280Y1546350D01*
G37*
G36*
G01X10858880Y2106150D02*
G02X10871600Y2118870I12720J0D01*
G01X10885480D01*
X10886170Y2119060D01*
G02X10896600Y2120520I10449J-36657D01*
G02X10907030Y2119060I-19J-38117D01*
G01X10907720Y2118870D01*
X10921600D01*
G02X10934320Y2106150I0J-12720D01*
G01Y2087920D01*
X10934370Y2087580D01*
G02X10934720Y2082400I-37772J-5154D01*
G01Y2006600D01*
G02X10896600Y1968480I-38120J0D01*
G01X10820400D01*
G02Y2044720I0J38120D01*
G01X10858480D01*
Y2082400D01*
G02X10858830Y2087580I38122J26D01*
G01X10858880Y2087920D01*
Y2106150D01*
G37*
G36*
G01X10559280Y2099950D02*
Y2252450D01*
G02X10572000Y2265170I12720J0D01*
G01X10637000D01*
G02X10649720Y2252450I0J-12720D01*
G01Y2099950D01*
G02X10637000Y2087230I-12720J0D01*
G01X10626500D01*
Y1866890D01*
G02X10620060Y1851330I-22003J-6D01*
G01X10531170Y1762440D01*
G02X10515610Y1756000I-15554J15563D01*
G01X9788110D01*
X9623200Y1591090D01*
Y1253710D01*
X9737310Y1139600D01*
X10345520D01*
Y1202690D01*
G02X10358240Y1215410I12720J0D01*
G01X10478900D01*
G02X10491620Y1202690I0J-12720D01*
G01Y1032510D01*
G02X10478900Y1019790I-12720J0D01*
G01X10440580D01*
Y1010520D01*
G02X10436860Y998290I-22006J13D01*
G01X10436000Y997010D01*
Y615970D01*
X10509250D01*
G02X10521970Y603250I0J-12720D01*
G01Y412750D01*
G02X10509250Y400030I-12720J0D01*
G01X10318750D01*
G02X10306030Y412750I0J12720D01*
G01Y603250D01*
G02X10318750Y615970I12720J0D01*
G01X10392000D01*
Y1005950D01*
G02X10392140Y1008470I22002J42D01*
G03X10382050Y1019790I-10093J1160D01*
G01X10358240D01*
G02X10345520Y1032510I0J12720D01*
G01Y1095600D01*
X9728200D01*
G02X9712640Y1102040I-6J22003D01*
G01X9585640Y1229040D01*
G02X9579200Y1244600I15563J15554D01*
G01Y1600200D01*
G02X9585640Y1615760I22003J6D01*
G01X9763440Y1793560D01*
G02X9779000Y1800000I15554J-15563D01*
G01X10506500D01*
X10582500Y1876000D01*
Y2087230D01*
X10572000D01*
G02X10559280Y2099950I0J12720D01*
G37*
G36*
G01X10686280D02*
Y2252450D01*
G02X10699000Y2265170I12720J0D01*
G01X10764000D01*
G02X10776720Y2252450I0J-12720D01*
G01Y2198200D01*
X10831900D01*
X10834050Y2200360D01*
G02X10849610Y2206800I15554J-15563D01*
G01X10858320D01*
X10859110Y2210930D01*
G02X10871600Y2221270I12490J-2374D01*
G01X10921600D01*
G02X10934320Y2208550I0J-12720D01*
G01Y2161050D01*
G02X10921600Y2148330I-12720J0D01*
G01X10871600D01*
G02X10861700Y2153060I0J12725D01*
G03X10849750Y2156010I-7913J-6374D01*
G02X10841010Y2154200I-8740J20197D01*
G01X10776720D01*
Y2099950D01*
G02X10764000Y2087230I-12720J0D01*
G01X10753500D01*
Y2077960D01*
G02X10747060Y2062400I-22003J-6D01*
G01X10740800Y2056150D01*
Y1936130D01*
G02X10756920Y1905000I-21998J-31130D01*
G02X10680680I-38120J0D01*
G02X10696800Y1936130I38118J0D01*
G01Y2065260D01*
G02X10698910Y2074680I22004J18D01*
G03X10693850Y2088320I-9179J4353D01*
G02X10686280Y2099950I5149J11630D01*
G37*
G36*
G01X10392000Y4825220D02*
Y4845670D01*
G02X10375880Y4876800I21998J31130D01*
G02X10452120I38120J0D01*
G02X10436000Y4845670I-38118J0D01*
G01Y4825220D01*
X10571500D01*
G02X10584220Y4812500I0J-12720D01*
G01Y4712500D01*
G02X10571500Y4699780I-12720J0D01*
G01X10256500D01*
G02X10243780Y4712500I0J12720D01*
G01Y4812500D01*
G02X10256500Y4825220I12720J0D01*
G01X10392000D01*
G37*
G36*
G01Y5079220D02*
Y5099670D01*
G02X10375880Y5130800I21998J31130D01*
G02X10452120I38120J0D01*
G02X10436000Y5099670I-38118J0D01*
G01Y5079220D01*
X10571500D01*
G02X10584220Y5066500I0J-12720D01*
G01Y4966500D01*
G02X10571500Y4953780I-12720J0D01*
G01X10256500D01*
G02X10243780Y4966500I0J12720D01*
G01Y5066500D01*
G02X10256500Y5079220I12720J0D01*
G01X10392000D01*
G37*
G36*
G01X10559360Y5339480D02*
G03X10559510Y5353690I-7185J7182D01*
G02X10548930Y5380050I27548J26360D01*
G02X10625170I38120J0D01*
G02X10609060Y5348920I-38132J0D01*
G01Y5336050D01*
G02X10602610Y5320490I-22008J6D01*
G01X10584220Y5302100D01*
Y5220500D01*
G02X10571500Y5207780I-12720J0D01*
G01X10256500D01*
G02X10243780Y5220500I0J12720D01*
G01Y5320500D01*
G02X10256500Y5333220I12720J0D01*
G01X10553100D01*
X10559360Y5339480D01*
G37*
G36*
G01X5702680Y6191850D02*
Y6220950D01*
G02X5715400Y6233670I12720J0D01*
G01X5765400D01*
G02X5778120Y6220950I0J-12720D01*
G01Y6173450D01*
G02X5765400Y6160730I-12720J0D01*
G01X5733800D01*
X5526510Y5953440D01*
G02X5510950Y5947000I-15554J15563D01*
G01X5363270D01*
X5362230Y5943290D01*
G02X5270500Y5873730I-91730J25703D01*
G02Y6064270I0J95270D01*
G02X5362230Y5994710I0J-95263D01*
G01X5363270Y5991000D01*
X5501840D01*
X5702680Y6191850D01*
G37*
G36*
G01X5829680D02*
Y6220950D01*
G02X5842400Y6233670I12720J0D01*
G01X5892400D01*
G02X5905120Y6220950I0J-12720D01*
G01Y6173450D01*
G02X5892400Y6160730I-12720J0D01*
G01X5860800D01*
X5504050Y5803980D01*
G02X5488490Y5797540I-15554J15563D01*
G01X5347160D01*
G03X5339780Y5780400I4J-10160D01*
G02X5365770Y5715000I-69290J-65400D01*
G02X5175230I-95270J0D01*
G02X5201220Y5780400I95280J0D01*
G03X5193840Y5797540I-7384J6980D01*
G01X5130150D01*
X5097600Y5764980D01*
G02X5111770Y5715000I-81097J-49991D01*
G02X5016500Y5810270I-95270J0D01*
G02X5063180Y5798050I0J-95268D01*
G01X5066540Y5796160D01*
X5105480Y5835100D01*
G02X5121040Y5841540I15554J-15563D01*
G01X5479380D01*
X5829680Y6191850D01*
G37*
G36*
G01X8141080Y6173450D02*
Y6220950D01*
G02X8153800Y6233670I12720J0D01*
G01X8203800D01*
G02X8216520Y6220950I0J-12720D01*
G01Y6191850D01*
X8234910Y6173460D01*
G02X8241360Y6157900I-15558J-15566D01*
G01Y6140760D01*
X8586020Y5796100D01*
G02X8636000Y5810270I49991J-81097D01*
G02X8540730Y5715000I0J-95270D01*
G02X8552950Y5761680I95268J0D01*
G01X8554840Y5765040D01*
X8203790Y6116090D01*
G02X8197340Y6131650I15558J15566D01*
G01Y6148790D01*
X8185400Y6160730D01*
X8153800D01*
G02X8141080Y6173450I0J12720D01*
G37*
G36*
G01X9309480Y6191850D02*
Y6220950D01*
G02X9322200Y6233670I12720J0D01*
G01X9372200D01*
G02X9384920Y6220950I0J-12720D01*
G01Y6173450D01*
G02X9372200Y6160730I-12720J0D01*
G01X9340600D01*
X9133310Y5953440D01*
G02X9117750Y5947000I-15554J15563D01*
G01X8982770D01*
X8981730Y5943290D01*
G02X8890000Y5873730I-91730J25703D01*
G02Y6064270I0J95270D01*
G02X8981730Y5994710I0J-95263D01*
G01X8982770Y5991000D01*
X9108640D01*
X9309480Y6191850D01*
G37*
G36*
G01X3873830Y6294420D02*
G02X3873480Y6299600I37772J5154D01*
G01Y6400800D01*
G02X3949720I38120J0D01*
G01Y6299600D01*
G02X3949370Y6294420I-38122J-26D01*
G01X3949320Y6294080D01*
Y6275850D01*
G02X3936600Y6263130I-12720J0D01*
G01X3922720D01*
X3922030Y6262940D01*
G02X3911600Y6261480I-10449J36657D01*
G02X3901170Y6262940I19J38117D01*
G01X3900480Y6263130D01*
X3886600D01*
G02X3873880Y6275850I0J12720D01*
G01Y6294080D01*
X3873830Y6294420D01*
G37*
G36*
G01X4000830D02*
G02X4000480Y6299600I37772J5154D01*
G01Y6400800D01*
G02X4076720I38120J0D01*
G01Y6299600D01*
G02X4076370Y6294420I-38122J-26D01*
G01X4076320Y6294080D01*
Y6275850D01*
G02X4063600Y6263130I-12720J0D01*
G01X4049720D01*
X4049030Y6262940D01*
G02X4038600Y6261480I-10449J36657D01*
G02X4028170Y6262940I19J38117D01*
G01X4027480Y6263130D01*
X4013600D01*
G02X4000880Y6275850I0J12720D01*
G01Y6294080D01*
X4000830Y6294420D01*
G37*
G36*
G01X5702630D02*
G02X5702280Y6299600I37772J5154D01*
G01Y6400800D01*
G02X5778520I38120J0D01*
G01Y6299600D01*
G02X5778170Y6294420I-38122J-26D01*
G01X5778120Y6294080D01*
Y6275850D01*
G02X5765400Y6263130I-12720J0D01*
G01X5751520D01*
X5750830Y6262940D01*
G02X5740400Y6261480I-10449J36657D01*
G02X5729970Y6262940I19J38117D01*
G01X5729280Y6263130D01*
X5715400D01*
G02X5702680Y6275850I0J12720D01*
G01Y6294080D01*
X5702630Y6294420D01*
G37*
G36*
G01X5829630D02*
G02X5829280Y6299600I37772J5154D01*
G01Y6400800D01*
G02X5905520I38120J0D01*
G01Y6299600D01*
G02X5905170Y6294420I-38122J-26D01*
G01X5905120Y6294080D01*
Y6275850D01*
G02X5892400Y6263130I-12720J0D01*
G01X5878520D01*
X5877830Y6262940D01*
G02X5867400Y6261480I-10449J36657D01*
G02X5856970Y6262940I19J38117D01*
G01X5856280Y6263130D01*
X5842400D01*
G02X5829680Y6275850I0J12720D01*
G01Y6294080D01*
X5829630Y6294420D01*
G37*
G36*
G01X7556830D02*
G02X7556480Y6299600I37772J5154D01*
G01Y6400800D01*
G02X7632720I38120J0D01*
G01Y6299600D01*
G02X7632370Y6294420I-38122J-26D01*
G01X7632320Y6294080D01*
Y6275850D01*
G02X7619600Y6263130I-12720J0D01*
G01X7605720D01*
X7605030Y6262940D01*
G02X7594600Y6261480I-10449J36657D01*
G02X7584170Y6262940I19J38117D01*
G01X7583480Y6263130D01*
X7569600D01*
G02X7556880Y6275850I0J12720D01*
G01Y6294080D01*
X7556830Y6294420D01*
G37*
G36*
G01X7709230D02*
G02X7708880Y6299600I37772J5154D01*
G01Y6400800D01*
G02X7785120I38120J0D01*
G01Y6299600D01*
G02X7784770Y6294420I-38122J-26D01*
G01X7784720Y6294080D01*
Y6275850D01*
G02X7772000Y6263130I-12720J0D01*
G01X7758120D01*
X7757430Y6262940D01*
G02X7747000Y6261480I-10449J36657D01*
G02X7736570Y6262940I19J38117D01*
G01X7735880Y6263130D01*
X7722000D01*
G02X7709280Y6275850I0J12720D01*
G01Y6294080D01*
X7709230Y6294420D01*
G37*
G36*
G01X8141030D02*
G02X8140680Y6299600I37772J5154D01*
G01Y6400800D01*
G02X8216920I38120J0D01*
G01Y6299600D01*
G02X8216570Y6294420I-38122J-26D01*
G01X8216520Y6294080D01*
Y6275850D01*
G02X8203800Y6263130I-12720J0D01*
G01X8189920D01*
X8189230Y6262940D01*
G02X8178800Y6261480I-10449J36657D01*
G02X8168370Y6262940I19J38117D01*
G01X8167680Y6263130D01*
X8153800D01*
G02X8141080Y6275850I0J12720D01*
G01Y6294080D01*
X8141030Y6294420D01*
G37*
G36*
G01X9309430D02*
G02X9309080Y6299600I37772J5154D01*
G01Y6400800D01*
G02X9385320I38120J0D01*
G01Y6299600D01*
G02X9384970Y6294420I-38122J-26D01*
G01X9384920Y6294080D01*
Y6275850D01*
G02X9372200Y6263130I-12720J0D01*
G01X9358320D01*
X9357630Y6262940D01*
G02X9347200Y6261480I-10449J36657D01*
G02X9336770Y6262940I19J38117D01*
G01X9336080Y6263130D01*
X9322200D01*
G02X9309480Y6275850I0J12720D01*
G01Y6294080D01*
X9309430Y6294420D01*
G37*
G36*
G01X9677400Y6502380D02*
G02X9639280Y6540500I0J38120D01*
G01Y6604000D01*
G02X9715520I38120J0D01*
G01Y6578620D01*
X9728780D01*
Y6590500D01*
G02X9741500Y6603220I12720J0D01*
G01X10056500D01*
G02X10069220Y6590500I0J-12720D01*
G01Y6518770D01*
G03X10085380Y6510580I10158J6D01*
G02X10156500Y6533840I71115J-97082D01*
G02X10227620Y6510580I5J-120342D01*
G03X10243780Y6518770I6002J8196D01*
G01Y6590500D01*
G02X10256500Y6603220I12720J0D01*
G01X10571500D01*
G02X10584220Y6590500I0J-12720D01*
G01Y6578620D01*
X10858500D01*
G02Y6502380I0J-38120D01*
G01X10584220D01*
Y6490500D01*
G02X10571500Y6477780I-12720J0D01*
G01X10275250D01*
G03X10266000Y6463410I-3J-10160D01*
G02X10276840Y6413500I-109499J-49914D01*
G02X10266000Y6363590I-120339J4D01*
G03X10275250Y6349220I9247J-4210D01*
G01X10571500D01*
G02X10584220Y6336500I0J-12720D01*
G01Y6324620D01*
X10858500D01*
G02Y6248380I0J-38120D01*
G01X10584220D01*
Y6236500D01*
G02X10571500Y6223780I-12720J0D01*
G01X10256500D01*
G02X10243780Y6236500I0J12720D01*
G01Y6308230D01*
G03X10227620Y6316420I-10158J-6D01*
G02X10156500Y6293160I-71115J97082D01*
G02X10085380Y6316420I-5J120342D01*
G03X10069220Y6308230I-6002J-8196D01*
G01Y6236500D01*
G02X10056500Y6223780I-12720J0D01*
G01X9741500D01*
G02X9728780Y6236500I0J12720D01*
G01Y6248380D01*
X9715520D01*
Y6223000D01*
G02X9639280I-38120J0D01*
G01Y6286500D01*
G02X9677400Y6324620I38120J0D01*
G01X9728780D01*
Y6336500D01*
G02X9741500Y6349220I12720J0D01*
G01X10037750D01*
G03X10047000Y6363590I3J10160D01*
G02X10036160Y6413500I109499J49914D01*
G02X10047000Y6463410I120339J-4D01*
G03X10037750Y6477780I-9247J4210D01*
G01X9741500D01*
G02X9728780Y6490500I0J12720D01*
G01Y6502380D01*
X9677400D01*
G37*
G36*
G01X7709280Y6220950D02*
G02X7722000Y6233670I12720J0D01*
G01X7772000D01*
G02X7784720Y6220950I0J-12720D01*
G01Y6173450D01*
G02X7772000Y6160730I-12720J0D01*
G01X7740400D01*
X7406110Y5826440D01*
G02X7390550Y5820000I-15554J15563D01*
G01X7158060D01*
G03X7153620Y5800700I0J-10161D01*
G02X7207270Y5715000I-41623J-85700D01*
G02X7016730I-95270J0D01*
G02X7070380Y5800700I95273J0D01*
G03X7065940Y5820000I-4440J9139D01*
G01X6994110D01*
X6939100Y5764980D01*
G02X6953270Y5715000I-81097J-49991D01*
G02X6858000Y5810270I-95270J0D01*
G02X6907980Y5796100I-11J-95267D01*
G01X6969440Y5857560D01*
G02X6985000Y5864000I15554J-15563D01*
G01X7065940D01*
G03X7070380Y5883300I0J10161D01*
G02X7016730Y5969000I41623J85700D01*
G02X7112000Y6064270I95270J0D01*
G02X7203730Y5994710I0J-95263D01*
G01X7204770Y5991000D01*
X7356040D01*
X7556880Y6191850D01*
Y6220950D01*
G02X7569600Y6233670I12720J0D01*
G01X7619600D01*
G02X7632320Y6220950I0J-12720D01*
G01Y6173450D01*
G02X7619600Y6160730I-12720J0D01*
G01X7588000D01*
X7380710Y5953440D01*
G02X7365150Y5947000I-15554J15563D01*
G01X7204770D01*
X7203730Y5943290D01*
G02X7153620Y5883300I-91736J25704D01*
G03X7158060Y5864000I4440J-9139D01*
G01X7381440D01*
X7709280Y6191850D01*
Y6220950D01*
G37*
G36*
G01X4000880D02*
G02X4013600Y6233670I12720J0D01*
G01X4063600D01*
G02X4076320Y6220950I0J-12720D01*
G01Y6173450D01*
G02X4063600Y6160730I-12720J0D01*
G01X4032000D01*
X3697710Y5826440D01*
G02X3682150Y5820000I-15554J15563D01*
G01X3475060D01*
G03X3470620Y5800700I0J-10161D01*
G02X3524270Y5715000I-41623J-85700D01*
G02X3333730I-95270J0D01*
G02X3387380Y5800700I95273J0D01*
G03X3382940Y5820000I-4440J9139D01*
G01X3311110D01*
X3256160Y5765040D01*
X3258050Y5761680D01*
G02X3270270Y5715000I-83048J-46680D01*
G02X3175000Y5810270I-95270J0D01*
G02X3221680Y5798050I0J-95268D01*
G01X3225040Y5796160D01*
X3286440Y5857560D01*
G02X3302000Y5864000I15554J-15563D01*
G01X3382940D01*
G03X3387380Y5883300I0J10161D01*
G02X3333730Y5969000I41623J85700D01*
G02X3429000Y6064270I95270J0D01*
G02X3520730Y5994710I0J-95263D01*
G01X3521770Y5991000D01*
X3673040D01*
X3873880Y6191850D01*
Y6220950D01*
G02X3886600Y6233670I12720J0D01*
G01X3936600D01*
G02X3949320Y6220950I0J-12720D01*
G01Y6173450D01*
G02X3936600Y6160730I-12720J0D01*
G01X3905000D01*
X3697710Y5953440D01*
G02X3682150Y5947000I-15554J15563D01*
G01X3521770D01*
X3520730Y5943290D01*
G02X3470620Y5883300I-91736J25704D01*
G03X3475060Y5864000I4440J-9139D01*
G01X3673040D01*
X4000880Y6191850D01*
Y6220950D01*
G37*
G36*
G01X9912520Y2324560D02*
X9910100Y2324300D01*
G02X9906000Y2324080I-4090J37901D01*
G02X9944120Y2362200I0J38120D01*
G02X9943900Y2358100I-38121J-10D01*
G01X9943640Y2355680D01*
X9985060Y2314260D01*
G02X9991500Y2298700I-15563J-15554D01*
G01Y2265170D01*
X10002000D01*
G02X10014720Y2252450I0J-12720D01*
G01Y2198200D01*
X10051280D01*
Y2252450D01*
G02X10064000Y2265170I12720J0D01*
G01X10129000D01*
G02X10141720Y2252450I0J-12720D01*
G01Y2099950D01*
G02X10140890Y2095440I-12718J9D01*
G03X10150390Y2081670I9498J-3609D01*
G01X10169610D01*
G03X10179110Y2095440I2J10161D01*
G02X10178280Y2099950I11888J4519D01*
G01Y2252450D01*
G02X10191000Y2265170I12720J0D01*
G01X10256000D01*
G02X10268720Y2252450I0J-12720D01*
G01Y2129110D01*
G03X10286060Y2121920I10160J-2D01*
G01X10305280Y2141140D01*
Y2252450D01*
G02X10310350Y2262620I12723J6D01*
G01X10312380Y2264140D01*
Y2293080D01*
X10211000D01*
G02X10198280Y2305800I0J12720D01*
G01Y2367800D01*
G02X10211000Y2380520I12720J0D01*
G01X10363000D01*
G02X10375720Y2367800I0J-12720D01*
G01Y2347990D01*
X10377450Y2346250D01*
G02X10388620Y2319300I-26947J-26958D01*
G01Y2264140D01*
X10390650Y2262620D01*
G02X10395720Y2252450I-7653J-10164D01*
G01Y2106320D01*
G03X10413060Y2099130I10160J-2D01*
G01X10432280Y2118350D01*
Y2252450D01*
G02X10445000Y2265170I12720J0D01*
G01X10510000D01*
G02X10522720Y2252450I0J-12720D01*
G01Y2099950D01*
G02X10510000Y2087230I-12720J0D01*
G01X10463400D01*
X10291010Y1914840D01*
G02X10275450Y1908400I-15554J15563D01*
G01X9635710D01*
X9415440Y1688120D01*
Y1621810D01*
X9453760D01*
G02X9466480Y1609090I0J-12720D01*
G01Y1438910D01*
G02X9453760Y1426190I-12720J0D01*
G01X9429950D01*
G03X9419860Y1414870I3J-10160D01*
G02X9420000Y1412350I-21862J-2478D01*
G01Y615970D01*
X9493250D01*
G02X9505970Y603250I0J-12720D01*
G01Y412750D01*
G02X9493250Y400030I-12720J0D01*
G01X9302750D01*
G02X9290030Y412750I0J12720D01*
G01Y603250D01*
G02X9302750Y615970I12720J0D01*
G01X9376000D01*
Y1403410D01*
X9375140Y1404690D01*
G02X9371420Y1416920I18286J12243D01*
G01Y1426190D01*
X9333100D01*
G02X9320380Y1438910I0J12720D01*
G01Y1609090D01*
G02X9333100Y1621810I12720J0D01*
G01X9371420D01*
Y1697230D01*
G02X9377870Y1712790I22008J-6D01*
G01X9611040Y1945960D01*
G02X9626600Y1952400I15554J-15563D01*
G01X10266340D01*
X10383820Y2069890D01*
G03X10376630Y2087230I-7188J7180D01*
G01X10359190D01*
X10288550Y2016600D01*
G02X10261600Y2005430I-26958J26947D01*
G01X9812510D01*
G02X9785560Y2016600I8J38117D01*
G01X9757870Y2044280D01*
X9702800D01*
G02X9692370Y2045740I19J38117D01*
G01X9691680Y2045930D01*
X9677800D01*
G02X9665080Y2058650I0J12720D01*
G01Y2076880D01*
X9665030Y2077220D01*
G02X9664680Y2082400I37772J5154D01*
G02X9665030Y2087580I38122J26D01*
G01X9665080Y2087920D01*
Y2106150D01*
G02X9677800Y2118870I12720J0D01*
G01X9691680D01*
X9692370Y2119060D01*
G02X9702800Y2120520I10449J-36657D01*
G01X9773660D01*
G02X9784290Y2119010I7J-38121D01*
G03X9797280Y2128770I2831J9757D01*
G01Y2252450D01*
G02X9810000Y2265170I12720J0D01*
G01X9875000D01*
G02X9887720Y2252450I0J-12720D01*
G01Y2099950D01*
G02X9886890Y2095440I-12718J9D01*
G03X9896390Y2081670I9498J-3609D01*
G01X9915610D01*
G03X9925110Y2095440I2J10161D01*
G02X9924280Y2099950I11888J4519D01*
G01Y2252450D01*
G02X9937000Y2265170I12720J0D01*
G01X9947500D01*
Y2289590D01*
X9912520Y2324560D01*
G37*
G36*
G01X273310Y5044760D02*
G02X288870Y5051200I15554J-15563D01*
G01X457200D01*
G02X472760Y5044760I6J-22003D01*
G01X548960Y4968560D01*
G02X555400Y4953000I-15563J-15554D01*
G01Y4843070D01*
G02X548960Y4827510I-22003J-6D01*
G01X436840Y4715390D01*
X437100Y4712970D01*
G02X437320Y4708870I-37901J-4090D01*
G02X399200Y4746990I-38120J0D01*
G02X403300Y4746770I10J-38121D01*
G01X405720Y4746510D01*
X511400Y4852180D01*
Y4943890D01*
X448090Y5007200D01*
X297980D01*
X220700Y4929910D01*
G03X227880Y4912560I7182J-7189D01*
G01X344510D01*
G02X360070Y4906120I6J-22003D01*
G01X392680Y4873510D01*
X395100Y4873770D01*
G02X399200Y4873990I4090J-37901D01*
G02X361080Y4835870I0J-38120D01*
G02X361300Y4839970I38121J10D01*
G01X361560Y4842390D01*
X335400Y4868560D01*
X203570D01*
X112520Y4777500D01*
Y985400D01*
X161510Y936400D01*
X1143000D01*
G02X1158560Y929960I6J-22003D01*
G01X1979300Y109220D01*
X8714100D01*
X8887520Y282640D01*
Y1638560D01*
G02X8893970Y1654120I22008J-6D01*
G01X9579200Y2339340D01*
Y2502690D01*
X9574710Y2503220D01*
G02X9563480Y2515850I1487J12630D01*
G01Y2563350D01*
G02X9576200Y2576070I12720J0D01*
G01X9626200D01*
G02X9638920Y2563350I0J-12720D01*
G01Y2515850D01*
G02X9627690Y2503220I-12717J0D01*
G01X9623200Y2502690D01*
Y2439850D01*
G03X9640550Y2432670I10161J2D01*
G01X9757000Y2549110D01*
Y2648420D01*
G02X9763440Y2663980I22003J6D01*
G01X9782020Y2682560D01*
G02X9797580Y2689000I15554J-15563D01*
G01X9974230D01*
X9981630Y2696410D01*
G03X9978040Y2705080I-3594J3590D01*
G01X9880600D01*
G02X9853650Y2716250I8J38117D01*
G01X9789010Y2780880D01*
X9639320D01*
Y2642000D01*
G02X9638970Y2636820I-38122J-26D01*
G01X9638920Y2636480D01*
Y2618250D01*
G02X9626200Y2605530I-12720J0D01*
G01X9612320D01*
X9611630Y2605340D01*
G02X9601200Y2603880I-10449J36657D01*
G02X9590770Y2605340I19J38117D01*
G01X9590080Y2605530D01*
X9576200D01*
G02X9563480Y2618250I0J12720D01*
G01Y2636480D01*
X9563430Y2636820D01*
G02X9563080Y2642000I37772J5154D01*
G01Y2780880D01*
X9296400D01*
G02X9285970Y2782340I19J38117D01*
G01X9285280Y2782530D01*
X9271400D01*
G02X9258680Y2795250I0J12720D01*
G01Y2813480D01*
X9258630Y2813820D01*
G02X9258280Y2819000I37772J5154D01*
G02X9258630Y2824180I38122J26D01*
G01X9258680Y2824520D01*
Y2842750D01*
G02X9271400Y2855470I12720J0D01*
G01X9285280D01*
X9285970Y2855660D01*
G02X9296400Y2857120I10449J-36657D01*
G01X9804800D01*
G02X9831750Y2845950I-8J-38117D01*
G01X9896390Y2781320D01*
X9982200D01*
G02X10018620Y2754470I0J-38125D01*
G03X10035510Y2750290I9705J3001D01*
G01X10069380Y2784160D01*
G02X10084940Y2790600I15554J-15563D01*
G01X10455690D01*
X10477960Y2812880D01*
X10477700Y2815300D01*
G02X10477480Y2819400I37901J4090D01*
G02X10515600Y2781280I38120J0D01*
G02X10511500Y2781500I-10J38121D01*
G01X10509080Y2781760D01*
X10495910Y2768600D01*
X10531560Y2732950D01*
G02X10538000Y2717390I-15563J-15554D01*
G01Y2586670D01*
X10603500D01*
G02X10616220Y2573950I0J-12720D01*
G01Y2518890D01*
X10633190Y2501920D01*
X10655280D01*
Y2641600D01*
G02X10731520I38120J0D01*
G01Y2507520D01*
X10820200D01*
G02X10832920Y2494800I0J-12720D01*
G01Y2432800D01*
G02X10820200Y2420080I-12720J0D01*
G01X10668200D01*
G02X10658940Y2424080I0J12718D01*
G01X10657430Y2425680D01*
X10616700D01*
X10615510Y2422270D01*
G02X10603500Y2413730I-12010J4175D01*
G01X9843500D01*
G02X9830780Y2426450I0J12720D01*
G01Y2459940D01*
G03X9813440Y2467130I-10160J2D01*
G01X9724800Y2378500D01*
Y2221710D01*
X9729290Y2221180D01*
G02X9740520Y2208550I-1487J-12630D01*
G01Y2161050D01*
G02X9727800Y2148330I-12720J0D01*
G01X9677800D01*
G02X9665080Y2161050I0J12720D01*
G01Y2208550D01*
G02X9676310Y2221180I12717J0D01*
G01X9680800Y2221710D01*
Y2309950D01*
G03X9663450Y2317130I-10161J-2D01*
G01X8962800Y1616490D01*
Y260570D01*
G02X8956360Y245010I-22003J-6D01*
G01X8751730Y40380D01*
G02X8736170Y33940I-15554J15563D01*
G01X8677580D01*
G02X8663450Y28800I-14130J16852D01*
G01X1955800D01*
G02X1940240Y35240I-6J22003D01*
G01X1114360Y861120D01*
X139440D01*
G02X124300Y867160I5J22008D01*
G02X111440Y873440I2701J21839D01*
G01X35240Y949640D01*
G02X28800Y965200I15563J15554D01*
G01Y4791130D01*
G02X35240Y4806690I22003J6D01*
G01X273310Y5044760D01*
G37*
G36*
G01X10559510Y6115690D02*
G02X10548930Y6142050I27548J26360D01*
G02X10625170I38120J0D01*
G02X10609060Y6110920I-38132J0D01*
G01Y6098050D01*
G02X10602610Y6082490I-22008J6D01*
G01X10584220Y6064100D01*
Y5982500D01*
G02X10571500Y5969780I-12720J0D01*
G01X10436000D01*
Y5960510D01*
G02X10429560Y5944950I-22003J-6D01*
G01X10361850Y5877240D01*
G02X10346290Y5870800I-15554J15563D01*
G01X9737310D01*
X9547000Y5680490D01*
Y5466750D01*
G03X9564350Y5459570I10161J2D01*
G01X9759140Y5654360D01*
G02X9774700Y5660800I15554J-15563D01*
G01X10337180D01*
X10374810Y5698440D01*
G03X10367620Y5715780I-7188J7180D01*
G01X10256500D01*
G02X10243780Y5728500I0J12720D01*
G01Y5828500D01*
G02X10256500Y5841220I12720J0D01*
G01X10553100D01*
X10559360Y5847480D01*
G03X10559510Y5861690I-7185J7182D01*
G02X10548930Y5888050I27548J26360D01*
G02X10625170I38120J0D01*
G02X10609060Y5856920I-38132J0D01*
G01Y5844050D01*
G02X10602610Y5828490I-22008J6D01*
G01X10584220Y5810100D01*
Y5728500D01*
G02X10571500Y5715780I-12720J0D01*
G01X10436000D01*
Y5706510D01*
G02X10429560Y5690950I-22003J-6D01*
G01X10361850Y5623240D01*
G02X10346290Y5616800I-15554J15563D01*
G01X9783810D01*
X9771580Y5604560D01*
G03X9778770Y5587220I7188J-7180D01*
G01X10056500D01*
G02X10069220Y5574500I0J-12720D01*
G01Y5474500D01*
G02X10056500Y5461780I-12720J0D01*
G01X9741500D01*
G02X9728780Y5474500I0J12720D01*
G01Y5537230D01*
G03X9711440Y5544420I-10160J2D01*
G01X9597800Y5430790D01*
Y5291480D01*
G03X9615150Y5284300I10161J2D01*
G01X9731210Y5400360D01*
G02X9746770Y5406800I15554J-15563D01*
G01X10337180D01*
X10374810Y5444440D01*
G03X10367620Y5461780I-7188J7180D01*
G01X10256500D01*
G02X10243780Y5474500I0J12720D01*
G01Y5574500D01*
G02X10256500Y5587220I12720J0D01*
G01X10553100D01*
X10559360Y5593480D01*
G03X10559510Y5607690I-7185J7182D01*
G02X10548930Y5634050I27548J26360D01*
G02X10625170I38120J0D01*
G02X10609060Y5602920I-38132J0D01*
G01Y5590050D01*
G02X10602610Y5574490I-22008J6D01*
G01X10584220Y5556100D01*
Y5474500D01*
G02X10571500Y5461780I-12720J0D01*
G01X10436000D01*
Y5452510D01*
G02X10429560Y5436950I-22003J-6D01*
G01X10361850Y5369240D01*
G02X10346290Y5362800I-15554J15563D01*
G01X9755880D01*
X9743650Y5350560D01*
G03X9750840Y5333220I7188J-7180D01*
G01X10056500D01*
G02X10069220Y5320500I0J-12720D01*
G01Y5220500D01*
G02X10056500Y5207780I-12720J0D01*
G01X9741500D01*
G02X9728780Y5220500I0J12720D01*
G01Y5311160D01*
G03X9711440Y5318350I-10160J2D01*
G01X9648600Y5255520D01*
Y4225520D01*
X9711920Y4162200D01*
X9929840D01*
G02X9945400Y4155760I6J-22003D01*
G01X10076560Y4024600D01*
G02X10083000Y4009040I-15563J-15554D01*
G01Y3999770D01*
X10364000D01*
Y4154510D01*
G02X10370440Y4170070I22003J6D01*
G01X10374810Y4174440D01*
G03X10367620Y4191780I-7188J7180D01*
G01X10256500D01*
G02X10243780Y4204500I0J12720D01*
G01Y4276230D01*
G03X10227620Y4284420I-10158J-6D01*
G02X10156500Y4261160I-71115J97082D01*
G02X10085380Y4284420I-5J120342D01*
G03X10069220Y4276230I-6002J-8196D01*
G01Y4204500D01*
G02X10056500Y4191780I-12720J0D01*
G01X9741500D01*
G02X9728780Y4204500I0J12720D01*
G01Y4304500D01*
G02X9741500Y4317220I12720J0D01*
G01X10037750D01*
G03X10047000Y4331590I3J10160D01*
G02X10036160Y4381500I109499J49914D01*
G02X10047000Y4431410I120339J-4D01*
G03X10037750Y4445780I-9247J4210D01*
G01X9741500D01*
G02X9728780Y4458500I0J12720D01*
G01Y4558500D01*
G02X9741500Y4571220I12720J0D01*
G01X10056500D01*
G02X10069220Y4558500I0J-12720D01*
G01Y4486770D01*
G03X10085380Y4478580I10158J6D01*
G02X10156500Y4501840I71115J-97082D01*
G02X10227620Y4478580I5J-120342D01*
G03X10243780Y4486770I6002J8196D01*
G01Y4558500D01*
G02X10256500Y4571220I12720J0D01*
G01X10392000D01*
Y4591670D01*
G02X10375880Y4622800I21998J31130D01*
G02X10452120I38120J0D01*
G02X10436000Y4591670I-38118J0D01*
G01Y4571220D01*
X10571500D01*
G02X10584220Y4558500I0J-12720D01*
G01Y4458500D01*
G02X10571500Y4445780I-12720J0D01*
G01X10275250D01*
G03X10266000Y4431410I-3J-10160D01*
G02X10276840Y4381500I-109499J-49914D01*
G02X10266000Y4331590I-120339J4D01*
G03X10275250Y4317220I9247J-4210D01*
G01X10392000D01*
Y4337670D01*
G02X10375880Y4368800I21998J31130D01*
G02X10452120I38120J0D01*
G02X10436000Y4337670I-38118J0D01*
G01Y4317220D01*
X10571500D01*
G02X10584220Y4304500I0J-12720D01*
G01Y4204500D01*
G02X10571500Y4191780I-12720J0D01*
G01X10436000D01*
Y4182510D01*
G02X10429560Y4166950I-22003J-6D01*
G01X10408000Y4145400D01*
Y4099390D01*
G03X10425070Y4091950I10159J7D01*
G02X10451000Y4102120I25923J-27953D01*
G02X10489120Y4064000I0J-38120D01*
G02X10473000Y4032870I-38118J0D01*
G01Y3999770D01*
X10603500D01*
G02X10616220Y3987050I0J-12720D01*
G01Y3839570D01*
X10641360D01*
X10660080Y3858290D01*
Y3870620D01*
X10658770Y3872070D01*
G02X10655480Y3880600I9428J8536D01*
G01Y3942600D01*
G02X10668200Y3955320I12720J0D01*
G01X10820200D01*
G02X10832920Y3942600I0J-12720D01*
G01Y3880600D01*
G02X10820200Y3867880I-12720J0D01*
G01X10736320D01*
Y3842500D01*
G02X10725150Y3815550I-38117J8D01*
G01X10684100Y3774500D01*
G02X10657150Y3763330I-26958J26947D01*
G01X10542710D01*
G02X10541920Y3763340I87J38119D01*
G03X10534520Y3746000I-213J-10158D01*
G01X10559880Y3720640D01*
X10562300Y3720900D01*
G02X10566400Y3721120I4090J-37901D01*
G02X10528280Y3683000I0J-38120D01*
G02X10528500Y3687100I38121J10D01*
G01X10528760Y3689520D01*
X10422730Y3795560D01*
X10407890D01*
G03X10400710Y3778210I2J-10161D01*
G01X10458280Y3720640D01*
X10460700Y3720900D01*
G02X10464800Y3721120I4090J-37901D01*
G02X10426680Y3683000I0J-38120D01*
G02X10426900Y3687100I38121J10D01*
G01X10427160Y3689520D01*
X10354090Y3762600D01*
X10339250D01*
G03X10332070Y3745250I2J-10161D01*
G01X10356680Y3720640D01*
X10359100Y3720900D01*
G02X10363200Y3721120I4090J-37901D01*
G02X10325080Y3683000I0J-38120D01*
G02X10325300Y3687100I38121J10D01*
G01X10325560Y3689520D01*
X10299140Y3715940D01*
X10288540D01*
Y3709030D01*
X10289710Y3707620D01*
G02X10298510Y3683260I-29316J-24360D01*
G02X10222270I-38120J0D01*
G02X10222490Y3687360I38121J10D01*
G01X10222750Y3689780D01*
X10217770Y3694760D01*
X10202430D01*
G02X10186870Y3701210I6J22008D01*
G01X10110440Y3777640D01*
G02X10104000Y3793200I15563J15554D01*
G01Y3826830D01*
X10083000D01*
Y3760020D01*
X10260190Y3582840D01*
X10866370D01*
G02X10881930Y3576390I-6J-22008D01*
G01X10941450Y3516870D01*
G02X10947900Y3501310I-15558J-15566D01*
G01Y2968860D01*
G02X10941450Y2953300I-22008J6D01*
G01X10918990Y2930840D01*
G02X10903430Y2924400I-15554J15563D01*
G01X10693400D01*
G02X10677840Y2930840I-6J22003D01*
G01X10653130Y2955550D01*
G02X10646680Y2971110I15558J15566D01*
G01Y3139800D01*
X10624950Y3161540D01*
X10616220D01*
Y3014050D01*
G02X10603500Y3001330I-12720J0D01*
G01X10408000D01*
Y2952530D01*
G02X10424120Y2921400I-21998J-31130D01*
G02X10386000Y2883280I-38120J0D01*
G02X10360340Y2893210I0J38119D01*
G03X10346660I-6840J-7513D01*
G02X10295340I-25660J28189D01*
G03X10281660I-6840J-7513D01*
G02X10230340I-25660J28189D01*
G03X10216660I-6840J-7513D01*
G02X10165340I-25660J28189D01*
G03X10151660I-6840J-7513D01*
G02X10100340I-25660J28189D01*
G03X10086660I-6840J-7513D01*
G02X10035340I-25660J28189D01*
G03X10021660I-6840J-7513D01*
G02X9970340I-25660J28189D01*
G03X9956660I-6840J-7513D01*
G02X9931000Y2883280I-25660J28189D01*
G02X9892880Y2921400I0J38120D01*
G02X9909000Y2952530I38118J0D01*
G01Y3001330D01*
X9843500D01*
G02X9830780Y3014050I0J12720D01*
G01Y3161550D01*
G02X9843500Y3174270I12720J0D01*
G01X10341430D01*
G03X10350810Y3188340I4J10159D01*
G02X10347880Y3203000I35191J14656D01*
G02X10353920Y3223580I38117J-11D01*
G03X10345360Y3239230I-8552J5488D01*
G01X9843500D01*
G02X9830780Y3251950I0J12720D01*
G01Y3303700D01*
X9786420D01*
X9775600Y3292880D01*
Y3053730D01*
G02X9791720Y3022600I-21998J-31130D01*
G02X9755090Y2984510I-38119J0D01*
G03X9750200Y2979430I192J-5078D01*
G01Y2958310D01*
X9754690Y2957780D01*
G02X9765920Y2945150I-1487J-12630D01*
G01Y2897650D01*
G02X9753200Y2884930I-12720J0D01*
G01X9703200D01*
G02X9690480Y2897650I0J12720D01*
G01Y2945150D01*
G02X9701710Y2957780I12717J0D01*
G01X9706200Y2958310D01*
Y2978060D01*
G03X9692110Y2987430I-10161J0D01*
G02X9677400Y2984480I-14704J35171D01*
G02X9647320Y2999190I0J38110D01*
G03X9631280I-8020J-6243D01*
G02X9623200Y2991470I-30088J23403D01*
G01Y2958310D01*
X9627690Y2957780D01*
G02X9638920Y2945150I-1487J-12630D01*
G01Y2897650D01*
G02X9626200Y2884930I-12720J0D01*
G01X9576200D01*
G02X9563480Y2897650I0J12720D01*
G01Y2945150D01*
G02X9574710Y2957780I12717J0D01*
G01X9579200Y2958310D01*
Y2991470D01*
G02X9571120Y2999190I22008J31123D01*
G03X9555080I-8020J-6243D01*
G02X9494920I-30080J23400D01*
G03X9478880I-8020J-6243D01*
G02X9470800Y2991470I-30088J23403D01*
G01Y2958310D01*
X9475290Y2957780D01*
G02X9486520Y2945150I-1487J-12630D01*
G01Y2897650D01*
G02X9473800Y2884930I-12720J0D01*
G01X9423800D01*
G02X9411080Y2897650I0J12720D01*
G01Y2945150D01*
G02X9422310Y2957780I12717J0D01*
G01X9426800Y2958310D01*
Y2991470D01*
G02X9418720Y2999190I22008J31123D01*
G03X9402680I-8020J-6243D01*
G02X9342520I-30080J23400D01*
G03X9326480I-8020J-6243D01*
G02X9318400Y2991470I-30088J23403D01*
G01Y2958310D01*
X9322890Y2957780D01*
G02X9334120Y2945150I-1487J-12630D01*
G01Y2897650D01*
G02X9321400Y2884930I-12720J0D01*
G01X9271400D01*
G02X9258680Y2897650I0J12720D01*
G01Y2945150D01*
G02X9269910Y2957780I12717J0D01*
G01X9274400Y2958310D01*
Y2991470D01*
G02Y3053730I21998J31130D01*
G01Y3302000D01*
G02X9280840Y3317560I22003J6D01*
G01X9687240Y3723960D01*
G02X9702800Y3730400I15554J-15563D01*
G01X10007600D01*
G02X10023160Y3723960I6J-22003D01*
G01X10271560Y3475560D01*
G02X10278000Y3460000I-15563J-15554D01*
G01Y3412170D01*
X10299000D01*
Y3463000D01*
G02X10300630Y3471330I22004J19D01*
G02X10299680Y3479800I37171J8457D01*
G02X10375920I38120J0D01*
G02X10346880Y3442780I-38116J0D01*
G01X10343000Y3441830D01*
Y3412170D01*
X10429000D01*
Y3506160D01*
G02X10435440Y3521720I22003J6D01*
G01X10443870Y3530150D01*
G03X10440280Y3538820I-3590J3592D01*
G01X10251080D01*
G02X10235520Y3545270I6J22008D01*
G01X10045440Y3735350D01*
G02X10039000Y3750910I15563J15554D01*
G01Y3826830D01*
X9843500D01*
G02X9830780Y3839550I0J12720D01*
G01Y3987050D01*
G02X9843500Y3999770I12720J0D01*
G01X9896890D01*
G03X9900480Y4008440I-4J5080D01*
G01X9892330Y4016600D01*
X9652000D01*
G02X9636440Y4023040I-6J22003D01*
G01X9509440Y4150040D01*
G02X9503000Y4165600I15563J15554D01*
G01Y5689600D01*
G02X9509440Y5705160I22003J6D01*
G01X9712640Y5908360D01*
G02X9728200Y5914800I15554J-15563D01*
G01X10337180D01*
X10374810Y5952440D01*
G03X10367620Y5969780I-7188J7180D01*
G01X10256500D01*
G02X10243780Y5982500I0J12720D01*
G01Y6082500D01*
G02X10256500Y6095220I12720J0D01*
G01X10553100D01*
X10559360Y6101480D01*
G03X10559510Y6115690I-7185J7182D01*
G37*
G54D28*
X526200Y1914870D03*
X1034200D03*
X907200Y1660870D03*
Y1787870D03*
X1034200D03*
X399200Y2168870D03*
Y2295870D03*
X526200Y2041870D03*
Y2295870D03*
Y2422870D03*
X907200Y2041870D03*
Y2168870D03*
Y2422870D03*
X1034200Y2168870D03*
Y2295870D03*
X399200Y2676870D03*
Y2803870D03*
X526200Y2676870D03*
Y2803870D03*
X907200Y2549870D03*
Y2803870D03*
Y2930870D03*
X1034200D03*
Y2549870D03*
Y2676870D03*
X399200Y3184870D03*
Y3311870D03*
X526200Y3057870D03*
Y3184870D03*
Y3438870D03*
X907200Y3184870D03*
Y3311870D03*
X1034200Y3057870D03*
Y3311870D03*
Y3438870D03*
X399200Y3692870D03*
Y3819870D03*
X526200Y3565870D03*
Y3819870D03*
Y3946870D03*
X907200Y3565870D03*
Y3692870D03*
Y3946870D03*
X1034200Y3819870D03*
Y3692870D03*
X10846200Y3632200D03*
X10896600Y3911600D03*
X399200Y4200870D03*
Y4327870D03*
X526200Y4200870D03*
Y4327870D03*
X907200Y4073870D03*
Y4327870D03*
Y4454870D03*
X1034200Y4581870D03*
Y4200870D03*
Y4454870D03*
Y4073870D03*
X10871600Y4140600D03*
Y4394600D03*
X907200Y4708870D03*
Y4835870D03*
Y5089870D03*
X1034200Y4835870D03*
Y4962870D03*
X10871600Y4648600D03*
Y4902600D03*
X526200Y5470870D03*
X399200Y5597870D03*
Y5343870D03*
X907200Y5216870D03*
Y5470870D03*
Y5597870D03*
X1034200Y5216870D03*
Y5597870D03*
Y5343870D03*
X10871600Y5156600D03*
Y5410600D03*
X526200Y5978870D03*
Y5724870D03*
X399200Y5851870D03*
X1034200Y5724870D03*
X10871600Y5918600D03*
Y5664600D03*
G54D29*
X3175000Y2921000D03*
X3429000D03*
X3175000Y2667000D03*
X5016500Y2921000D03*
Y2667000D03*
X5270500Y2921000D03*
X6858000D03*
X7112000D03*
X6858000Y2667000D03*
X8636000Y2921000D03*
X8890000D03*
X8636000Y2667000D03*
X3175000Y3429000D03*
X3429000D03*
X3175000Y3175000D03*
X3429000D03*
X5016500Y3429000D03*
Y3175000D03*
X5270500Y3429000D03*
Y3175000D03*
X6858000Y3429000D03*
X7112000D03*
X6858000Y3175000D03*
X7112000D03*
X8636000Y3429000D03*
X8890000D03*
X8636000Y3175000D03*
X8890000D03*
X3175000Y3937000D03*
X3429000D03*
X3175000Y3683000D03*
X3429000D03*
X5016500Y3937000D03*
Y3683000D03*
X5270500Y3937000D03*
Y3683000D03*
X6858000Y3937000D03*
X7112000D03*
X6858000Y3683000D03*
X7112000D03*
X8636000Y3937000D03*
X8890000D03*
X8636000Y3683000D03*
X8890000D03*
X3175000Y4445000D03*
X3429000D03*
X3175000Y4191000D03*
X3429000D03*
X5016500Y4445000D03*
Y4191000D03*
X5270500Y4445000D03*
Y4191000D03*
X6858000Y4445000D03*
X7112000D03*
X6858000Y4191000D03*
X7112000D03*
X8636000Y4445000D03*
X8890000D03*
X8636000Y4191000D03*
X8890000D03*
X3175000Y4953000D03*
X3429000D03*
X3175000Y4699000D03*
X3429000D03*
X5016500Y4953000D03*
Y4699000D03*
X5270500Y4953000D03*
Y4699000D03*
X6858000Y4953000D03*
X7112000D03*
X6858000Y4699000D03*
X7112000D03*
X8636000Y4953000D03*
X8890000D03*
X8636000Y4699000D03*
X8890000D03*
X3175000Y5461000D03*
X3429000D03*
X3175000Y5207000D03*
X3429000D03*
X5016500Y5461000D03*
Y5207000D03*
X5270500Y5461000D03*
Y5207000D03*
X6858000Y5461000D03*
X7112000D03*
X6858000Y5207000D03*
X7112000D03*
X8890000Y5715000D03*
X8636000Y5461000D03*
X8890000D03*
X8636000Y5207000D03*
X8890000D03*
X3175000Y6223000D03*
X3429000D03*
X3175000Y5969000D03*
X5016500Y6223000D03*
Y5969000D03*
X5270500Y6223000D03*
X6858000D03*
X7112000D03*
X6858000Y5969000D03*
X8636000Y6223000D03*
X8890000D03*
X8636000Y5969000D03*
G54D26*
X2032000Y254000D03*
X2540000D03*
X3048000D03*
X3556000D03*
X4064000D03*
X4572000D03*
X5080000D03*
X5588000D03*
X6096000D03*
X6604000D03*
X7112000D03*
X7620000D03*
X8128000D03*
X8636000D03*
X9144000D03*
X9652000D03*
X10160000D03*
X10668000D03*
X2032000Y762000D03*
X2540000D03*
X3048000D03*
X3556000D03*
X4064000D03*
X4572000D03*
X5080000D03*
X5588000D03*
X6096000D03*
X6604000D03*
X7112000D03*
X7620000D03*
X8128000D03*
X8636000D03*
X9144000D03*
X9652000D03*
X10160000D03*
X10668000D03*
G54D27*
X765200Y734800D03*
X1070000Y6172940D03*
%LPD*%
G75*
G36*
G01X10296110Y2695800D02*
X10423320D01*
X10429000Y2690120D01*
Y2586670D01*
X10033730D01*
G02X10026540Y2604010I-2J10160D01*
G01X10118320Y2695800D01*
X10221610D01*
G02X10225200Y2687120I2J-5081D01*
G01X10217320Y2679240D01*
X10214900Y2679500D01*
G03X10210800Y2679720I-4090J-37901D01*
G03X10248920Y2641600I0J-38120D01*
G03X10248700Y2645700I-38121J10D01*
G01X10248440Y2648120D01*
X10296110Y2695800D01*
G37*
G36*
G01X10616220Y3263880D02*
X10657430D01*
X10658940Y3262280D01*
G03X10668200Y3258280I9260J8718D01*
G01X10820200D01*
G03X10824140Y3258910I-13J12718D01*
G02X10837460Y3249250I3157J-9660D01*
G01Y3173510D01*
X10800950Y3137010D01*
G03X10794500Y3121450I15558J-15566D01*
G01Y3076150D01*
G03X10800950Y3060590I22008J6D01*
G01X10833410Y3028130D01*
X10833210Y3025780D01*
G03X10833080Y3022600I37991J-3146D01*
G03X10871200Y2984480I38120J0D01*
G03X10895560Y2993280I0J38116D01*
G02X10903880Y2989370I3242J-3909D01*
G01Y2977970D01*
X10894320Y2968400D01*
X10702510D01*
X10690700Y2980220D01*
Y3148910D01*
G03X10684250Y3164470I-22008J-6D01*
G01X10649620Y3199100D01*
G03X10634060Y3205540I-15554J-15563D01*
G01X10484390D01*
G03X10468830Y3199100I-6J-22003D01*
G01X10444000Y3174270D01*
X10430570D01*
G02X10421190Y3188340I-4J10159D01*
G03X10424120Y3203000I-35191J14656D01*
G03X10418080Y3223580I-38117J-11D01*
G02X10426640Y3239230I8552J5488D01*
G01X10603500D01*
G03X10616220Y3251950I0J12720D01*
G01Y3263880D01*
G37*
G54D10*
G01X1912600Y254000D02*
X2032000D01*
G01X1912600Y762000D02*
X2032000D01*
G01X2420600Y254000D02*
X2540000D01*
G01X2032000Y134600D02*
Y254000D01*
G01D02*
Y373400D01*
G01Y254000D02*
X2151400D01*
G01X2032000Y642600D02*
Y762000D01*
G01D02*
Y881400D01*
G01Y762000D02*
X2151400D01*
G01X2420600D02*
X2540000D01*
G01Y134600D02*
Y254000D01*
G01D02*
Y373400D01*
G01Y254000D02*
X2659400D01*
G01X2928600D02*
X3048000D01*
G01X2540000Y642600D02*
Y762000D01*
G01D02*
Y881400D01*
G01Y762000D02*
X2659400D01*
G01X2928600D02*
X3048000D01*
G01Y134600D02*
Y254000D01*
G01D02*
Y373400D01*
G01Y254000D02*
X3167400D01*
G01X3436600D02*
X3556000D01*
G01X3436600Y762000D02*
X3556000D01*
G01X3048000Y642600D02*
Y762000D01*
G01D02*
Y881400D01*
G01Y762000D02*
X3167400D01*
G01X3175000Y2820650D02*
Y2921000D01*
G01D02*
Y3021350D01*
G01X3074650Y2921000D02*
X3175000D01*
G01D02*
X3275350D01*
G01X3429000Y2566650D02*
Y2667000D01*
G01D02*
Y2767350D01*
G01X3328650Y2667000D02*
X3429000D01*
G01D02*
X3529350D01*
G01X3429000Y3328650D02*
Y3429000D01*
G01D02*
Y3529350D01*
G01X3328650Y3429000D02*
X3429000D01*
G01D02*
X3529350D01*
G01X3175000Y3582650D02*
Y3683000D01*
G01D02*
Y3783350D01*
G01X3074650Y3683000D02*
X3175000D01*
G01D02*
X3275350D01*
G01X3175000Y4344650D02*
Y4445000D01*
G01D02*
Y4545350D01*
G01X3074650Y4445000D02*
X3175000D01*
G01D02*
X3275350D01*
G01X3429000Y4090650D02*
Y4191000D01*
G01D02*
Y4291350D01*
G01X3328650Y4191000D02*
X3429000D01*
G01D02*
X3529350D01*
G01X3429000Y4852650D02*
Y4953000D01*
G01D02*
Y5053350D01*
G01X3328650Y4953000D02*
X3429000D01*
G01D02*
X3529350D01*
G01X3175000Y5106650D02*
Y5207000D01*
G01X3429000Y5614650D02*
Y5715000D01*
G01X3175000Y5207000D02*
Y5307350D01*
G01X3074650Y5207000D02*
X3175000D01*
G01D02*
X3275350D01*
G01X3328650Y5715000D02*
X3429000D01*
G01D02*
X3529350D01*
G01X3556000Y134600D02*
Y254000D01*
G01D02*
Y373400D01*
G01Y254000D02*
X3675400D01*
G01X3944600D02*
X4064000D01*
G01X3556000Y642600D02*
Y762000D01*
G01D02*
Y881400D01*
G01Y762000D02*
X3675400D01*
G01X3944600D02*
X4064000D01*
G01X3911600Y6299600D02*
Y6400800D01*
G01X4038600Y6299600D02*
Y6400800D01*
G01X4064000Y134600D02*
Y254000D01*
G01D02*
Y373400D01*
G01Y254000D02*
X4183400D01*
G01X4572000Y134600D02*
Y254000D01*
G01D02*
Y373400D01*
G01X4452600Y254000D02*
X4572000D01*
G01D02*
X4691400D01*
G01X4064000Y642600D02*
Y762000D01*
G01D02*
Y881400D01*
G01Y762000D02*
X4183400D01*
G01X4572000Y642600D02*
Y762000D01*
G01D02*
Y881400D01*
G01X4452600Y762000D02*
X4572000D01*
G01D02*
X4691400D01*
G01X5080000Y134600D02*
Y254000D01*
G01D02*
Y373400D01*
G01X4960600Y254000D02*
X5080000D01*
G01D02*
X5199400D01*
G01X5080000Y642600D02*
Y762000D01*
G01D02*
Y881400D01*
G01X4960600Y762000D02*
X5080000D01*
G01D02*
X5199400D01*
G01X5016500Y2820650D02*
Y2921000D01*
G01D02*
Y3021350D01*
G01X4916150Y2921000D02*
X5016500D01*
G01D02*
X5116850D01*
G01X5016500Y3582650D02*
Y3683000D01*
G01D02*
Y3783350D01*
G01X4916150Y3683000D02*
X5016500D01*
G01D02*
X5116850D01*
G01X5016500Y4344650D02*
Y4445000D01*
G01D02*
Y4545350D01*
G01X4916150Y4445000D02*
X5016500D01*
G01D02*
X5116850D01*
G01X5016500Y5106650D02*
Y5207000D01*
G01D02*
Y5307350D01*
G01X4916150Y5207000D02*
X5016500D01*
G01D02*
X5116850D01*
G01X5588000Y134600D02*
Y254000D01*
G01D02*
Y373400D01*
G01X5468600Y254000D02*
X5588000D01*
G01D02*
X5707400D01*
G01X5588000Y642600D02*
Y762000D01*
G01D02*
Y881400D01*
G01X5468600Y762000D02*
X5588000D01*
G01D02*
X5707400D01*
G01X5270500Y2566650D02*
Y2667000D01*
G01D02*
Y2767350D01*
G01X5170150Y2667000D02*
X5270500D01*
G01D02*
X5370850D01*
G01X5270500Y3328650D02*
Y3429000D01*
G01D02*
Y3529350D01*
G01X5170150Y3429000D02*
X5270500D01*
G01D02*
X5370850D01*
G01X5270500Y4090650D02*
Y4191000D01*
G01D02*
Y4291350D01*
G01X5170150Y4191000D02*
X5270500D01*
G01D02*
X5370850D01*
G01X5270500Y4852650D02*
Y4953000D01*
G01D02*
Y5053350D01*
G01X5170150Y4953000D02*
X5270500D01*
G01D02*
X5370850D01*
G01X5270500Y5614650D02*
Y5715000D01*
G01X5170150D02*
X5270500D01*
G01D02*
X5370850D01*
G01X6096000Y134600D02*
Y254000D01*
G01D02*
Y373400D01*
G01X5976600Y254000D02*
X6096000D01*
G01D02*
X6215400D01*
G01X6096000Y642600D02*
Y762000D01*
G01D02*
Y881400D01*
G01X5976600Y762000D02*
X6096000D01*
G01D02*
X6215400D01*
G01X5740400Y6299600D02*
Y6400800D01*
G01X5867400Y6299600D02*
Y6400800D01*
G01X6604000Y134600D02*
Y254000D01*
G01D02*
Y373400D01*
G01X6484600Y254000D02*
X6604000D01*
G01D02*
X6723400D01*
G01X6604000Y642600D02*
Y762000D01*
G01D02*
Y881400D01*
G01X6484600Y762000D02*
X6604000D01*
G01D02*
X6723400D01*
G01X7112000Y134600D02*
Y254000D01*
G01D02*
Y373400D01*
G01X6992600Y254000D02*
X7112000D01*
G01D02*
X7231400D01*
G01X7112000Y642600D02*
Y762000D01*
G01D02*
Y881400D01*
G01X6992600Y762000D02*
X7112000D01*
G01D02*
X7231400D01*
G01X6858000Y2820650D02*
Y2921000D01*
G01D02*
Y3021350D01*
G01X6757650Y2921000D02*
X6858000D01*
G01D02*
X6958350D01*
G01X7112000Y2566650D02*
Y2667000D01*
G01D02*
Y2767350D01*
G01X7011650Y2667000D02*
X7112000D01*
G01D02*
X7212350D01*
G01X7112000Y3328650D02*
Y3429000D01*
G01D02*
Y3529350D01*
G01X7011650Y3429000D02*
X7112000D01*
G01D02*
X7212350D01*
G01X6858000Y3582650D02*
Y3683000D01*
G01D02*
Y3783350D01*
G01X6757650Y3683000D02*
X6858000D01*
G01D02*
X6958350D01*
G01X6858000Y4344650D02*
Y4445000D01*
G01D02*
Y4545350D01*
G01X6757650Y4445000D02*
X6858000D01*
G01D02*
X6958350D01*
G01X7112000Y4090650D02*
Y4191000D01*
G01D02*
Y4291350D01*
G01X7011650Y4191000D02*
X7112000D01*
G01D02*
X7212350D01*
G01X7112000Y4852650D02*
Y4953000D01*
G01D02*
Y5053350D01*
G01X7011650Y4953000D02*
X7112000D01*
G01D02*
X7212350D01*
G01X6858000Y5106650D02*
Y5207000D01*
G01X7112000Y5614650D02*
Y5715000D01*
G01X6858000Y5207000D02*
Y5307350D01*
G01X6757650Y5207000D02*
X6858000D01*
G01D02*
X6958350D01*
G01X7011650Y5715000D02*
X7112000D01*
G01D02*
X7212350D01*
G01X7620000Y134600D02*
Y254000D01*
G01D02*
Y373400D01*
G01X7500600Y254000D02*
X7620000D01*
G01D02*
X7739400D01*
G01X7620000Y642600D02*
Y762000D01*
G01D02*
Y881400D01*
G01X7500600Y762000D02*
X7620000D01*
G01D02*
X7739400D01*
G01X7594600Y6299600D02*
Y6400800D01*
G01X7747000Y6299600D02*
Y6400800D01*
G01X8128000Y134600D02*
Y254000D01*
G01D02*
Y373400D01*
G01X8008600Y254000D02*
X8128000D01*
G01D02*
X8247400D01*
G01X8128000Y642600D02*
Y762000D01*
G01D02*
Y881400D01*
G01X8008600Y762000D02*
X8128000D01*
G01D02*
X8247400D01*
G01X8178800Y6299600D02*
Y6400800D01*
G01X8636000Y134600D02*
Y254000D01*
G01D02*
Y373400D01*
G01X8516600Y254000D02*
X8636000D01*
G01D02*
X8755400D01*
G01X8636000Y642600D02*
Y762000D01*
G01D02*
Y881400D01*
G01X8516600Y762000D02*
X8636000D01*
G01D02*
X8755400D01*
G01X8789650Y2667000D02*
X8890000D01*
G01X8636000Y2820650D02*
Y2921000D01*
G01D02*
Y3021350D01*
G01X8535650Y2921000D02*
X8636000D01*
G01D02*
X8736350D01*
G01X8789650Y3429000D02*
X8890000D01*
G01X8636000Y3582650D02*
Y3683000D01*
G01D02*
Y3783350D01*
G01X8535650Y3683000D02*
X8636000D01*
G01D02*
X8736350D01*
G01X8636000Y4344650D02*
Y4445000D01*
G01D02*
Y4545350D01*
G01X8535650Y4445000D02*
X8636000D01*
G01D02*
X8736350D01*
G01X8789650Y4191000D02*
X8890000D01*
G01X8789650Y4953000D02*
X8890000D01*
G01X8636000Y5106650D02*
Y5207000D01*
G01D02*
Y5307350D01*
G01X8535650Y5207000D02*
X8636000D01*
G01D02*
X8736350D01*
G01X8789650Y5715000D02*
X8890000D01*
G01X9144000Y134600D02*
Y254000D01*
G01D02*
Y373400D01*
G01X9024600Y254000D02*
X9144000D01*
G01D02*
X9263400D01*
G01X9144000Y642600D02*
Y762000D01*
G01D02*
Y881400D01*
G01X9024600Y762000D02*
X9144000D01*
G01D02*
X9263400D01*
G01X9097770Y1421110D02*
Y1524000D01*
G01D02*
Y1626890D01*
G01X9019640Y1524000D02*
X9097770D01*
G01D02*
X9175900D01*
G01X9296400Y2819000D02*
X9448800D01*
G01X8890000Y2566650D02*
Y2667000D01*
G01D02*
Y2767350D01*
G01Y2667000D02*
X8990350D01*
G01X8890000Y3328650D02*
Y3429000D01*
G01D02*
Y3529350D01*
G01Y3429000D02*
X8990350D01*
G01X8890000Y4090650D02*
Y4191000D01*
G01D02*
Y4291350D01*
G01Y4191000D02*
X8990350D01*
G01X8890000Y4852650D02*
Y4953000D01*
G01D02*
Y5053350D01*
G01Y4953000D02*
X8990350D01*
G01X8890000Y5614650D02*
Y5715000D01*
G01D02*
Y5815350D01*
G01Y5715000D02*
X8990350D01*
G01X9347200Y6299600D02*
Y6400800D01*
G01X9652000Y134600D02*
Y254000D01*
G01D02*
Y373400D01*
G01X9532600Y254000D02*
X9652000D01*
G01D02*
X9771400D01*
G01X9652000Y642600D02*
Y762000D01*
G01D02*
Y881400D01*
G01X9532600Y762000D02*
X9652000D01*
G01D02*
X9771400D01*
G01X9982200Y1320400D02*
X9855200D01*
G01D02*
X9779400D01*
G01D02*
X9677800D01*
G01X9702800Y2082400D02*
X9773660D01*
X9812510Y2043550D01*
X9956800D01*
G01X9842500Y2176200D02*
Y2270250D01*
G01X9792200Y2176200D02*
X9842500D01*
G01D02*
X9892800D01*
G01X9601200Y2819000D02*
X9728200D01*
G01X9448800D02*
X9601200D01*
G01Y2642000D02*
Y2819000D01*
G01X9982200Y2743200D02*
X9880600D01*
G01D02*
X9804800Y2819000D01*
X9728200D01*
G01X9866000Y2996250D02*
Y3087800D01*
G01D02*
Y3179350D01*
G01X9825700Y3087800D02*
X9866000D01*
G01Y3821750D02*
Y3913300D01*
G01X9825700D02*
X9866000D01*
G01X9723700Y4508500D02*
X9899000D01*
G01X9723700Y4254500D02*
X9899000D01*
G01X9723700Y5016500D02*
X9899000D01*
G01X9723700Y4762500D02*
X9899000D01*
G01X9723700Y5270500D02*
X9899000D01*
G01X9723700Y6032500D02*
X9899000D01*
G01X9723700Y5778500D02*
X9899000D01*
G01X9677400Y6540500D02*
Y6604000D01*
G01X9899000Y6540500D02*
X9677400D01*
G01X9899000Y6286500D02*
X9677400D01*
G01D02*
Y6223000D01*
G01X10160000Y134600D02*
Y254000D01*
G01D02*
Y373400D01*
G01X10040600Y254000D02*
X10160000D01*
G01D02*
X10279400D01*
G01X10160000Y642600D02*
Y762000D01*
G01D02*
Y881400D01*
G01X10040600Y762000D02*
X10160000D01*
G01D02*
X10279400D01*
G01X10109200Y1320400D02*
X9982200D01*
G01X10236200D02*
X10109200D01*
G01X10236200Y1278850D02*
Y1320400D01*
G01D02*
X10279000D01*
G01X9956800Y2043550D02*
X10146150D01*
G01X10261600D02*
X10146150D01*
G01X10350500Y2176200D02*
Y2132450D01*
X10261600Y2043550D01*
G01X10350500Y2176200D02*
Y2319300D01*
X10333000Y2336800D01*
G01X10223500Y2176200D02*
Y2319300D01*
X10241000Y2336800D01*
G01D02*
X10129520D01*
G01D02*
X10027920D01*
G01X10241000Y2288000D02*
Y2336800D01*
G01D02*
Y2385600D01*
G01X10173200Y2176200D02*
X10223500D01*
G01D02*
X10273800D01*
G01X10386000Y2500200D02*
Y2641600D01*
G01X9899000Y4440700D02*
Y4508500D01*
G01D02*
Y4576300D01*
G01Y4508500D02*
X10074300D01*
G01X9899000Y4254500D02*
Y4322300D01*
G01Y4254500D02*
X10074300D01*
G01X9899000Y4948700D02*
Y5016500D01*
G01D02*
Y5084300D01*
G01Y5016500D02*
X10074300D01*
G01X9899000Y4694700D02*
Y4762500D01*
G01D02*
Y4830300D01*
G01Y4762500D02*
X10074300D01*
G01X9899000Y5202700D02*
Y5270500D01*
G01D02*
X10074300D01*
G01X9899000Y5456700D02*
Y5524500D01*
G01D02*
X10074300D01*
G01X9899000Y5964700D02*
Y6032500D01*
G01D02*
Y6100300D01*
G01Y6032500D02*
X10074300D01*
G01X9899000Y5710700D02*
Y5778500D01*
G01D02*
X10074300D01*
G01X10414000Y6540500D02*
X10731500D01*
G01X10414000Y6286500D02*
X10731500D01*
G01X10668000Y134600D02*
Y254000D01*
G01D02*
Y373400D01*
G01X10548600Y254000D02*
X10668000D01*
G01D02*
X10787400D01*
G01X10668000Y642600D02*
Y762000D01*
G01D02*
Y881400D01*
G01X10548600Y762000D02*
X10668000D01*
G01D02*
X10787400D01*
G01X10714230Y1014710D02*
Y1117600D01*
G01D02*
Y1220490D01*
G01X10636100Y1117600D02*
X10714230D01*
G01D02*
X10792360D01*
G01X10896600Y2006600D02*
X10820400D01*
G01X10896600Y2082400D02*
Y2006600D01*
G01X10693400Y2540000D02*
Y2468600D01*
X10698200Y2463800D01*
G01X10581000Y2500200D02*
X10617400Y2463800D01*
X10698200D01*
G01X10790200Y2415000D02*
Y2463800D01*
G01X10693400Y2641600D02*
Y2540000D01*
G01X10838000Y2463800D02*
X10896600D01*
G01X10581000Y2973700D02*
X10579100Y2971800D01*
G01X10516000Y3087800D02*
Y2972200D01*
G01X10790200Y2463800D02*
Y2512600D01*
G01Y2463800D02*
X10838000D01*
G01X10698200Y3302000D02*
X10604700D01*
X10581000Y3325700D01*
G01D02*
Y3443600D01*
G01X10795000Y3200400D02*
Y3297200D01*
X10790200Y3302000D01*
G01X10581000Y2996250D02*
Y3087800D01*
G01D02*
X10621300D01*
G01X10666850Y3811150D02*
X10657150Y3801450D01*
X10542710D01*
X10516000Y3828160D01*
Y3913300D01*
G01X10698200Y3911600D02*
Y3842500D01*
X10666850Y3811150D01*
G01X10790200Y3862800D02*
Y3911600D01*
G01D02*
Y3960400D01*
G01X10731500Y6540500D02*
X10858500D01*
G01X10731500Y6286500D02*
X10858500D01*
X145200Y1025870D03*
X272200Y1152870D03*
Y1279870D03*
X145200Y1406870D03*
Y1533870D03*
X272200Y1660870D03*
Y1787870D03*
X145200Y1914870D03*
Y2041870D03*
X272200Y2168870D03*
Y2295870D03*
X145200Y2422870D03*
Y2549870D03*
X272200Y2676870D03*
Y2803870D03*
X145200Y2930870D03*
Y3057870D03*
X272200Y3184870D03*
Y3311870D03*
X145200Y3438870D03*
Y3565870D03*
X272200Y3692870D03*
Y3819870D03*
X145200Y3946870D03*
Y4073870D03*
X272200Y4200870D03*
Y4327870D03*
X145200Y4454870D03*
Y4581870D03*
X272200Y4708870D03*
Y4835870D03*
X145200Y4962870D03*
Y5089870D03*
X272200Y5216870D03*
Y5343870D03*
X145200Y5470870D03*
Y5597870D03*
X272200Y5724870D03*
Y5851870D03*
X145200Y5978870D03*
X399200Y1406870D03*
Y1025870D03*
X526200Y1152870D03*
Y1279870D03*
X653200Y1025870D03*
Y1406870D03*
X780200Y1152870D03*
Y1279870D03*
X526200Y1914870D03*
X780200Y1660870D03*
X399200Y1533870D03*
X653200D03*
X526200Y1660870D03*
Y1787870D03*
X399200Y1914870D03*
X653200D03*
X399200Y2168870D03*
Y2295870D03*
X526200Y2041870D03*
Y2295870D03*
Y2422870D03*
X780200Y2041870D03*
Y2422870D03*
X399200Y2041870D03*
X526200Y2168870D03*
X653200Y2295870D03*
X399200Y2422870D03*
Y2676870D03*
Y2803870D03*
X526200Y2676870D03*
Y2803870D03*
X780200D03*
X399200Y2549870D03*
X526200D03*
X653200Y2676870D03*
X399200Y2930870D03*
X526200D03*
X399200Y3184870D03*
Y3311870D03*
X526200Y3057870D03*
Y3184870D03*
Y3438870D03*
X780200Y3184870D03*
X399200Y3057870D03*
X653200D03*
X526200Y3311870D03*
X399200Y3438870D03*
X653200D03*
X399200Y3692870D03*
Y3819870D03*
X526200Y3565870D03*
Y3819870D03*
Y3946870D03*
X780200Y3565870D03*
Y3946870D03*
X399200Y3565870D03*
X526200Y3692870D03*
X653200Y3819870D03*
X399200Y3946870D03*
Y4200870D03*
Y4327870D03*
X526200Y4200870D03*
Y4327870D03*
X780200D03*
X399200Y4073870D03*
X526200D03*
X653200Y4200870D03*
X399200Y4454870D03*
X526200D03*
X399200Y4581870D03*
X653200D03*
X399200Y4708870D03*
Y4835870D03*
X780200Y4708870D03*
Y5089870D03*
X399200Y4962870D03*
X653200D03*
X399200Y5089870D03*
X526200Y5470870D03*
X399200Y5597870D03*
Y5343870D03*
X780200Y5470870D03*
X653200Y5343870D03*
X399200Y5470870D03*
X526200Y5597870D03*
Y5978870D03*
Y5724870D03*
X399200Y5851870D03*
Y5978870D03*
X526200Y5851870D03*
X653200Y5724870D03*
Y5978870D03*
X780200Y5851870D03*
X399200Y5724870D03*
X1288200Y1152870D03*
X1034200Y1279870D03*
X1288200D03*
X907200Y1406870D03*
X1161200D03*
X907200Y1025870D03*
X1161200D03*
X1034200Y1152870D03*
Y1914870D03*
X907200Y1660870D03*
Y1787870D03*
X1034200D03*
X907200Y1533870D03*
X1161200D03*
X1034200Y1660870D03*
X1288200D03*
X907200Y1914870D03*
X1161200D03*
X907200Y2041870D03*
Y2168870D03*
Y2422870D03*
X1034200Y2168870D03*
Y2295870D03*
Y2041870D03*
X1288200D03*
X907200Y2295870D03*
X1161200D03*
X1034200Y2422870D03*
X1288200D03*
X907200Y2549870D03*
Y2803870D03*
Y2930870D03*
X1034200D03*
Y2549870D03*
Y2676870D03*
X907200D03*
X1161200D03*
X1034200Y2803870D03*
X1288200D03*
X907200Y3184870D03*
Y3311870D03*
X1034200Y3057870D03*
Y3311870D03*
Y3438870D03*
X907200Y3057870D03*
X1161200D03*
X1034200Y3184870D03*
X1288200D03*
X907200Y3438870D03*
X1161200D03*
X907200Y3565870D03*
Y3692870D03*
Y3946870D03*
X1034200Y3819870D03*
Y3692870D03*
Y3565870D03*
X1288200D03*
X907200Y3819870D03*
X1161200D03*
X1034200Y3946870D03*
X1288200D03*
X907200Y4073870D03*
Y4327870D03*
Y4454870D03*
X1034200Y4581870D03*
Y4200870D03*
Y4454870D03*
Y4073870D03*
X907200Y4200870D03*
X1161200D03*
X1034200Y4327870D03*
X1288200D03*
X907200Y4581870D03*
X1161200D03*
X907200Y4708870D03*
Y4835870D03*
Y5089870D03*
X1034200Y4835870D03*
Y4962870D03*
Y4708870D03*
X1288200D03*
X907200Y4962870D03*
X1161200D03*
X1034200Y5089870D03*
X1288200D03*
X907200Y5216870D03*
Y5470870D03*
Y5597870D03*
X1034200Y5216870D03*
Y5597870D03*
Y5343870D03*
X907200D03*
X1161200D03*
X1034200Y5470870D03*
X1288200D03*
X1034200Y5724870D03*
X1161200D03*
X1288200Y5851870D03*
X907200Y5724870D03*
Y5978870D03*
X1034200Y5851870D03*
X1161200Y5978870D03*
X3911600Y6400800D03*
X4038600D03*
X5740400D03*
X5867400D03*
X7594600D03*
X7747000D03*
X8178800D03*
X9093200Y1346200D03*
Y1270000D03*
X9372600Y3022600D03*
X9296400D03*
X9347200Y6400800D03*
X9779400Y1320400D03*
X9677800D03*
X9829800Y2311400D03*
Y2387600D03*
X9880600Y2743200D03*
X9753600Y3022600D03*
X9677400D03*
X9601200D03*
X9525000D03*
X9448800D03*
X9677400Y6604000D03*
Y6540500D03*
Y6286500D03*
Y6223000D03*
X10368310Y1422700D03*
X9956800Y2043550D03*
X10146150D03*
X10261600D03*
X9906000Y2362200D03*
X10129520Y2336800D03*
X10027920D03*
X10210800Y2641600D03*
X10386000Y2921400D03*
X10321000D03*
X10256000D03*
X10191000D03*
X10126000D03*
X10061000D03*
X9996000D03*
X9931000D03*
X9982200Y2743200D03*
X10386000Y2641600D03*
Y3203000D03*
X10337800Y3479800D03*
X10363200Y3683000D03*
X10260390Y3683260D03*
X10414000Y4368800D03*
Y4622800D03*
Y4876800D03*
Y5130800D03*
X10718800Y939800D03*
X10795000D03*
X10622310Y1420160D03*
X10713690D03*
X10459690Y1422700D03*
X10718800Y1905000D03*
X10820400Y2006600D03*
X10896600D03*
Y2463800D03*
X10515600Y2819400D03*
X10693400Y2641600D03*
Y2540000D03*
X10515600Y2971800D03*
X10579100D03*
X10871200Y3098800D03*
Y3022600D03*
X10846200Y3466700D03*
X10581000Y3443600D03*
X10795000Y3200400D03*
X10451000Y4064000D03*
X10566400Y3683000D03*
X10464800D03*
X10846200Y3632200D03*
X10896600Y3911600D03*
X10666850Y3811150D03*
X10795000Y3822700D03*
Y3759200D03*
X10871600Y4140600D03*
Y4394600D03*
Y4648600D03*
Y4902600D03*
X10587050Y5634050D03*
Y5380050D03*
X10871600Y5156600D03*
Y5410600D03*
X10587050Y5888050D03*
Y6142050D03*
X10871600Y5918600D03*
Y5664600D03*
X10858500Y6540500D03*
X10731500D03*
X10858500Y6286500D03*
X10731500D03*
G54D11*
X965200Y304800D03*
Y6604790D03*
G54D20*
X9866000Y2500200D03*
Y3325700D03*
Y3087800D03*
Y3913300D03*
X10386000Y2500200D03*
X10321000D03*
X10256000D03*
X10191000D03*
X10126000D03*
X10061000D03*
X9996000D03*
X9931000D03*
X10386000Y3325700D03*
X10321000D03*
X10256000D03*
X10191000D03*
X10126000D03*
X10061000D03*
X9996000D03*
X9931000D03*
Y3087800D03*
X9996000D03*
X10061000D03*
X10126000D03*
X10191000D03*
X10256000D03*
X10321000D03*
X10386000D03*
X9931000Y3913300D03*
X9996000D03*
X10061000D03*
X10126000D03*
X10191000D03*
X10256000D03*
X10321000D03*
X10386000D03*
X10581000Y2500200D03*
X10516000D03*
X10451000D03*
X10581000Y3325700D03*
X10516000D03*
X10451000D03*
Y3087800D03*
X10516000D03*
X10581000D03*
X10451000Y3913300D03*
X10516000D03*
X10581000D03*
G54D12*
X765200Y734800D03*
X1070000Y6172940D03*
G54D21*
X9899000Y4508500D03*
Y4254500D03*
Y5016500D03*
Y4762500D03*
Y5524500D03*
Y5270500D03*
Y6032500D03*
Y5778500D03*
Y6540500D03*
Y6286500D03*
X10414000Y4508500D03*
Y4254500D03*
Y5016500D03*
Y4762500D03*
Y5524500D03*
Y5270500D03*
Y6032500D03*
Y5778500D03*
Y6540500D03*
Y6286500D03*
G54D13*
X2032000Y254000D03*
X2540000D03*
X2032000Y762000D03*
X2540000D03*
X3048000Y254000D03*
Y762000D03*
X3556000Y254000D03*
Y762000D03*
X4064000Y254000D03*
Y762000D03*
X4572000Y254000D03*
Y762000D03*
X5080000Y254000D03*
Y762000D03*
X5588000Y254000D03*
Y762000D03*
X6096000Y254000D03*
Y762000D03*
X6604000Y254000D03*
Y762000D03*
X7112000Y254000D03*
Y762000D03*
X7620000Y254000D03*
Y762000D03*
X8128000Y254000D03*
Y762000D03*
X8636000Y254000D03*
Y762000D03*
X9144000Y254000D03*
Y762000D03*
X9652000Y254000D03*
Y762000D03*
X10160000Y254000D03*
Y762000D03*
X10668000Y254000D03*
Y762000D03*
G54D22*
X10333000Y2336800D03*
X10241000D03*
X10698200Y2463800D03*
X10790200D03*
X10698200Y3302000D03*
X10790200D03*
X10698200Y3911600D03*
X10790200D03*
G54D14*
X2286000Y508000D03*
X3302000D03*
X4318000D03*
X5334000D03*
X6350000D03*
X7366000D03*
X8382000D03*
X9398000D03*
X10414000D03*
G54D23*
X10156500Y4381500D03*
Y6413500D03*
G54D24*
G01X10368310Y1422700D02*
X10401590Y1455980D01*
Y1517800D01*
X10390770Y1528620D01*
X10361320D01*
X10350500Y1539440D01*
Y1633800D01*
G01X10622310Y1420160D02*
X10655590Y1453440D01*
Y1517800D01*
X10644770Y1528620D01*
X10615320D01*
X10604500Y1539440D01*
Y1633800D01*
G01X10713690Y1420160D02*
X10680410Y1453440D01*
Y1517800D01*
X10691230Y1528620D01*
X10720680D01*
X10731500Y1539440D01*
Y1633800D01*
G01X10459690Y1422700D02*
X10426410Y1455980D01*
Y1517800D01*
X10437230Y1528620D01*
X10466680D01*
X10477500Y1539440D01*
Y1633800D01*
G54D15*
X3175000Y2921000D03*
X3429000D03*
X3175000Y2667000D03*
Y3429000D03*
X3429000D03*
X3175000Y3175000D03*
X3429000D03*
X3175000Y3937000D03*
X3429000D03*
X3175000Y3683000D03*
X3429000D03*
X3175000Y4445000D03*
X3429000D03*
X3175000Y4191000D03*
X3429000D03*
X3175000Y4953000D03*
X3429000D03*
X3175000Y4699000D03*
X3429000D03*
X3175000Y5715000D03*
X3429000D03*
X3175000Y5461000D03*
X3429000D03*
X3175000Y5207000D03*
X3429000D03*
X3175000Y6223000D03*
X3429000D03*
X3175000Y5969000D03*
X3429000D03*
X5016500Y2921000D03*
Y2667000D03*
Y3429000D03*
Y3175000D03*
Y3937000D03*
Y3683000D03*
Y4445000D03*
Y4191000D03*
Y4953000D03*
Y4699000D03*
Y5715000D03*
Y5461000D03*
Y5207000D03*
Y6223000D03*
Y5969000D03*
X5270500Y2921000D03*
Y3429000D03*
Y3175000D03*
Y3937000D03*
Y3683000D03*
Y4445000D03*
Y4191000D03*
Y4953000D03*
Y4699000D03*
Y5715000D03*
Y5461000D03*
Y5207000D03*
Y6223000D03*
Y5969000D03*
X6858000Y2921000D03*
X7112000D03*
X6858000Y2667000D03*
Y3429000D03*
X7112000D03*
X6858000Y3175000D03*
X7112000D03*
X6858000Y3937000D03*
X7112000D03*
X6858000Y3683000D03*
X7112000D03*
X6858000Y4445000D03*
X7112000D03*
X6858000Y4191000D03*
X7112000D03*
X6858000Y4953000D03*
X7112000D03*
X6858000Y4699000D03*
X7112000D03*
X6858000Y5715000D03*
X7112000D03*
X6858000Y5461000D03*
X7112000D03*
X6858000Y5207000D03*
X7112000D03*
X6858000Y6223000D03*
X7112000D03*
X6858000Y5969000D03*
X7112000D03*
X8636000Y2921000D03*
X8890000D03*
X8636000Y2667000D03*
Y3429000D03*
X8890000D03*
X8636000Y3175000D03*
X8890000D03*
X8636000Y3937000D03*
X8890000D03*
X8636000Y3683000D03*
X8890000D03*
X8636000Y4445000D03*
X8890000D03*
X8636000Y4191000D03*
X8890000D03*
X8636000Y4953000D03*
X8890000D03*
X8636000Y4699000D03*
X8890000D03*
X8636000Y5715000D03*
X8890000D03*
X8636000Y5461000D03*
X8890000D03*
X8636000Y5207000D03*
X8890000D03*
X8636000Y6223000D03*
X8890000D03*
X8636000Y5969000D03*
X8890000D03*
G54D25*
G01X399200Y4708870D02*
X533400Y4843070D01*
Y4953000D01*
X457200Y5029200D01*
X288870D01*
X50800Y4791130D01*
Y965200D01*
X127000Y889000D01*
X133570D01*
X139440Y883130D01*
X1123470D01*
X1955800Y50800D01*
X8663450D01*
X8668590Y55940D01*
X8736170D01*
X8940800Y260570D01*
Y1625600D01*
X9702790Y2387590D01*
X9702800D01*
G01X399200Y4835870D02*
X344510Y4890560D01*
X194460D01*
X90510Y4786610D01*
Y976290D01*
X152400Y914400D01*
X1143000D01*
X1970190Y87210D01*
X8723210D01*
X8909530Y273530D01*
Y1638560D01*
X9601200Y2330230D01*
Y2362200D01*
G01X4038600Y6197200D02*
X4037350D01*
X3682150Y5842000D01*
X3302000D01*
X3175000Y5715000D01*
G01X3429000Y5969000D02*
X3682150D01*
X3910350Y6197200D01*
X3911600D01*
G01X5867400D02*
X5866150D01*
X5488490Y5819540D01*
X5121040D01*
X5016500Y5715000D01*
G01X5270500Y5969000D02*
X5510950D01*
X5739150Y6197200D01*
X5740400D01*
G01X7747000D02*
X7745750D01*
X7390550Y5842000D01*
X6985000D01*
X6858000Y5715000D01*
G01X7112000Y5969000D02*
X7365150D01*
X7593350Y6197200D01*
X7594600D01*
G01X8636000Y5715000D02*
X8219350Y6131650D01*
Y6157900D01*
X8180050Y6197200D01*
X8178800D01*
G01X9296400Y2921400D02*
Y3022600D01*
G01X10256000Y3325700D02*
Y3460000D01*
X10007600Y3708400D01*
X9702800D01*
X9296400Y3302000D01*
Y3022600D01*
G01X8890000Y5969000D02*
X9117750D01*
X9345950Y6197200D01*
X9347200D01*
G01X9398000Y508000D02*
Y1412350D01*
X9393430Y1416920D01*
Y1524000D01*
G01X10604500Y2176200D02*
Y1866890D01*
X10515610Y1778000D01*
X9779000D01*
X9601200Y1600200D01*
Y1244600D01*
X9728200Y1117600D01*
X10418570D01*
G01X9393430Y1524000D02*
Y1697230D01*
X9626600Y1930400D01*
X10275450D01*
X10477500Y2132450D01*
Y2176200D01*
G01X9855200Y1422800D02*
Y1522860D01*
X9842500Y1535560D01*
Y1633800D01*
G01X10287000Y2717800D02*
X10109210D01*
X10007610Y2616200D01*
X9840080D01*
X9821510Y2597630D01*
Y2506320D01*
X9702790Y2387600D01*
X9702800Y2387590D01*
G01D02*
Y2184800D01*
G01X10464790Y2768600D02*
X10084940D01*
X9983340Y2667000D01*
X9797580D01*
X9779000Y2648420D01*
Y2540000D01*
X9601200Y2362200D01*
G01D02*
Y2539600D01*
G01X9728200Y2921400D02*
Y2997200D01*
X9753600Y3022600D01*
G01X9601200Y2921400D02*
Y3022600D01*
G01X9448800Y2921400D02*
Y3022600D01*
G01X9753600D02*
Y3301990D01*
X9777310Y3325700D01*
X9866000D01*
G01X9931000D02*
Y3417140D01*
X9906240Y3441900D01*
X9817300D01*
X9677400Y3302000D01*
Y3022600D01*
G01X9996000Y3325700D02*
Y3421440D01*
X9912240Y3505200D01*
X9804400D01*
X9601200Y3302000D01*
Y3022600D01*
G01X9525000D02*
Y3302000D01*
X9779000Y3556000D01*
X9926440D01*
X10061000Y3421440D01*
Y3325700D01*
G01X9448800Y3022600D02*
Y3302000D01*
X9753600Y3606800D01*
X9956800D01*
X10126000Y3437600D01*
Y3325700D01*
G01X10191000D02*
Y3448800D01*
X9982200Y3657600D01*
X9728200D01*
X9372600Y3302000D01*
Y3022600D01*
G01X10414000Y6032500D02*
Y5960510D01*
X10346290Y5892800D01*
X9728200D01*
X9525000Y5689600D01*
Y4165600D01*
X9652000Y4038600D01*
X9901440D01*
X9931000Y4009040D01*
Y3913300D01*
G01X10414000Y5524500D02*
Y5452510D01*
X10346290Y5384800D01*
X9746770D01*
X9626600Y5264630D01*
Y4216410D01*
X9702810Y4140200D01*
X9929840D01*
X10061000Y4009040D01*
Y3913300D01*
G01X10414000Y5778500D02*
Y5706510D01*
X10346290Y5638800D01*
X9774700D01*
X9575800Y5439900D01*
Y4191000D01*
X9677400Y4089400D01*
X9915640D01*
X9996000Y4009040D01*
Y3913300D01*
G01X10109200Y1422800D02*
Y1522860D01*
X10096500Y1535560D01*
Y1633800D01*
G01X10236200Y1422800D02*
Y1522860D01*
X10223500Y1535560D01*
Y1633800D01*
G01X9982200Y1422800D02*
Y1522860D01*
X9969500Y1535560D01*
Y1633800D01*
G01Y2176200D02*
X10096500D01*
G01X9906000Y2362200D02*
X9969500Y2298700D01*
Y2176200D01*
G01X10451000Y2500200D02*
Y2699230D01*
X10432430Y2717800D01*
X10287000D01*
G01X10210800Y2641600D02*
X10287000Y2717800D01*
G01X10386000Y2921400D02*
Y3087800D01*
G01X10321000Y2921400D02*
Y3087800D01*
G01X10256000Y2921400D02*
Y3087800D01*
G01X10191000Y2921400D02*
Y3087800D01*
G01X10126000Y2921400D02*
Y3087800D01*
G01X10061000Y2921400D02*
Y3087800D01*
G01X9996000Y2921400D02*
Y3087800D01*
G01X9931000D02*
Y2921400D01*
G01X10386000Y3325700D02*
Y3203000D01*
G01X10321000Y3325700D02*
Y3463000D01*
X10337800Y3479800D01*
G01X10451000Y3087800D02*
Y3150150D01*
X10484390Y3183540D01*
X10634060D01*
X10668690Y3148910D01*
Y2971110D01*
X10693400Y2946400D01*
X10903430D01*
X10925890Y2968860D01*
Y3501310D01*
X10866370Y3560830D01*
X10251080D01*
X10061000Y3750910D01*
Y3913300D01*
G01X10566400Y3683000D02*
X10431840Y3817560D01*
X10354390D01*
X10321000Y3850950D01*
Y3913300D01*
G01X10386000D02*
Y4154510D01*
X10414000Y4182510D01*
Y4254500D01*
G01X10464800Y3683000D02*
X10363200Y3784600D01*
X10288960D01*
X10256000Y3817560D01*
Y3913300D01*
G01X10363200Y3683000D02*
X10308250Y3737950D01*
X10257460D01*
X10191000Y3804410D01*
Y3913300D01*
G01X10260390Y3683260D02*
X10226880Y3716770D01*
X10202430D01*
X10126000Y3793200D01*
Y3913300D01*
G01X10414000Y508000D02*
Y1005950D01*
X10418570Y1010520D01*
Y1117600D01*
G01X10718800Y1905000D02*
Y2065260D01*
X10731500Y2077960D01*
Y2176200D01*
G01D02*
X10841010D01*
X10849610Y2184800D01*
X10896600D01*
G01X10464790Y2768600D02*
X10516000Y2717390D01*
Y2500200D01*
G01X10515600Y2819400D02*
X10464800Y2768600D01*
X10464790D01*
G01X10451000Y3325700D02*
Y3506160D01*
X10474400Y3529560D01*
X10698970D01*
X10890730Y3337800D01*
Y3118330D01*
X10871200Y3098800D01*
G01Y3022600D02*
X10849690Y3044110D01*
X10848550D01*
X10816510Y3076150D01*
Y3121450D01*
X10859460Y3164400D01*
Y3324840D01*
X10686010Y3498290D01*
X10558350D01*
X10516000Y3455940D01*
Y3325700D01*
G01X10451000Y3913300D02*
Y4064000D01*
G01X10414000Y4508500D02*
Y4622800D01*
G01Y4254500D02*
Y4368800D01*
G01Y4762500D02*
Y4876800D01*
G01Y5016500D02*
Y5130800D01*
G01Y5524500D02*
X10521500D01*
X10587050Y5590050D01*
Y5634050D01*
G01X10414000Y5270500D02*
X10521500D01*
X10587050Y5336050D01*
Y5380050D01*
G01X10414000Y5778500D02*
X10521500D01*
X10587050Y5844050D01*
Y5888050D01*
G01X10414000Y6032500D02*
X10521500D01*
X10587050Y6098050D01*
Y6142050D01*
G54D16*
X3429000Y2667000D03*
X5270500D03*
X7112000D03*
X8890000D03*
G54D17*
X3911600Y6299600D03*
Y6197200D03*
X4038600Y6299600D03*
Y6197200D03*
X5740400Y6299600D03*
Y6197200D03*
X5867400Y6299600D03*
Y6197200D03*
X7594600Y6299600D03*
Y6197200D03*
X7747000Y6299600D03*
Y6197200D03*
X8178800Y6299600D03*
Y6197200D03*
X9296400Y2819000D03*
Y2921400D03*
X9347200Y6299600D03*
Y6197200D03*
X9855200Y1320400D03*
Y1422800D03*
X9702800Y2082400D03*
Y2184800D03*
X9728200Y2819000D03*
Y2921400D03*
X9601200Y2819000D03*
Y2921400D03*
X9448800Y2819000D03*
Y2921400D03*
X9601200Y2642000D03*
Y2539600D03*
X9982200Y1320400D03*
X10109200D03*
X10236200D03*
X9982200Y1422800D03*
X10109200D03*
X10236200D03*
X10896600Y2082400D03*
Y2184800D03*
G54D18*
X9393430Y1524000D03*
X9097770D03*
X10418570Y1117600D03*
X10714230D03*
G54D19*
X9842500Y1633800D03*
Y2176200D03*
X10350500Y1633800D03*
X10223500D03*
X10096500D03*
X9969500D03*
Y2176200D03*
X10096500D03*
X10223500D03*
X10350500D03*
X10731500Y1633800D03*
X10604500D03*
X10477500D03*
Y2176200D03*
X10604500D03*
X10731500D03*
M02*
